<svg width="256" height="256" viewBox="0 0 256 256" fill="none" xmlns="http://www.w3.org/2000/svg">
<path d="M0 0H256V256H0V0Z" fill="white" fill-opacity="0.01"/>
<path d="M128 256C198.692 256 256 198.692 256 128C256 57.3075 198.692 0 128 0C57.3075 0 0 57.3075 0 128C0 198.692 57.3075 256 128 256Z" fill="#FF5630"/>
<path d="M214.3 222.5L179.1 202.6C178.312 202.109 177.423 201.801 176.5 201.7L128.6 199L80.7 201.3C79.7761 201.321 78.8761 201.598 78.1 202.1L41.5 222.3C65.0606 243.936 95.8734 255.958 127.861 255.995C159.849 256.032 190.689 244.081 214.3 222.5Z" fill="#FF7452"/>
<path d="M161 180.299C160.8 183.499 160.7 191.399 162.4 197.699C163 200.299 166.3 201.199 169 202.799C169.194 202.896 169.362 203.037 169.492 203.211C169.622 203.384 169.71 203.586 169.748 203.799C169.787 204.012 169.776 204.232 169.715 204.44C169.655 204.648 169.547 204.839 169.4 204.999C164.1 211.699 155.3 218.299 145.8 222.599C145.256 222.859 144.803 223.277 144.5 223.799L131.5 251.499C131.318 251.954 131.006 252.346 130.603 252.625C130.2 252.905 129.723 253.059 129.233 253.07C128.743 253.081 128.26 252.947 127.845 252.685C127.43 252.424 127.102 252.046 126.9 251.599L113.8 223.799C113.534 223.284 113.114 222.865 112.6 222.599C103 218.299 94.2999 211.699 88.8999 204.999C88.6661 204.653 88.577 204.228 88.6518 203.817C88.7265 203.406 88.9591 203.041 89.2999 202.799C91.9999 201.199 95.2999 200.299 95.9999 197.699C97.6999 191.399 97.4999 183.499 97.3999 180.299H161Z" fill="url(#paint0_linear)"/>
<path d="M193.2 97.3991C195.2 81.2991 187.6 66.8991 188.1 50.8991C188.2 47.3991 187.8 44.1991 184.5 42.6991C181.2 41.1991 179.9 42.5991 175.4 42.2991C167.9 41.7991 167.9 37.3991 160.4 37.2991C152.9 37.1991 152.9 41.1991 145.4 41.1991C137.9 41.1991 137.9 37.1991 130.4 37.1991C122.9 37.1991 122.9 41.0991 115.4 40.9991C107.9 40.8991 107.9 37.0991 100.4 36.9991C92.9001 36.8991 92.8001 44.1991 85.3001 44.8991C79.6001 45.3991 80.5001 43.6991 74.9001 43.6991C69.3001 43.6991 68.4001 50.2991 68.6001 53.7991C68.8001 61.9991 68.7001 67.9991 68.4001 72.5991C67.5001 86.7991 64.9001 88.0991 65.7001 100.299L193.2 97.3991Z" fill="#091E42"/>
<path d="M78.4826 141.35C85.6129 139.586 89.6185 130.984 87.4294 122.138C85.2402 113.293 77.6853 107.552 70.5551 109.317C63.4248 111.081 59.4192 119.683 61.6083 128.529C63.7974 137.374 71.3523 143.115 78.4826 141.35Z" fill="#72594B"/>
<path d="M197.186 129.318C199.468 120.496 195.553 111.853 188.441 110.014C181.33 108.175 173.715 113.836 171.434 122.658C169.152 131.481 173.067 140.124 180.179 141.963C187.29 143.802 194.905 138.141 197.186 129.318Z" fill="#72594B"/>
<path d="M129.2 54.0996C156.9 54.3996 173.8 61.1996 176.3 64.1996C193.8 84.4996 191.8 108.6 191.4 113.7C190.4 126.1 185.3 136 175.6 156C171.133 165.17 166.159 174.083 160.7 182.7C159.158 185.112 156.977 187.051 154.4 188.3C146.364 192.397 137.516 194.651 128.5 194.9C119.507 194.539 110.702 192.218 102.7 188.1C100.167 186.779 98.028 184.813 96.5 182.4C91.1588 173.699 86.2853 164.719 81.9 155.5C72.3 135.4 67.3 125.5 66.4 113.1C66.1 108 64.3 83.8996 82 63.7996C84.6 60.7996 101.5 54.0996 129.2 54.0996Z" fill="#926D5A"/>
<path d="M180.5 59.2988C172.2 50.4988 159.1 50.3988 131.4 50.0988C103.7 49.7988 85.5 51.4988 79.1 58.7988C61.4 78.8988 66.2 107.999 66.6 113.099C67.056 119.034 68.4045 124.866 70.6 130.399C71.9098 128.682 72.9859 126.799 73.8 124.799C77.8 114.999 71.8 97.0988 77.3 88.1988C79.0638 85.4024 81.5062 83.0975 84.4 81.4988C95.5 74.8988 106.1 83.2988 124.3 85.3988C151 88.4988 163.7 74.5988 174.8 83.9988C180.6 88.8988 182.4 96.9988 182.6 97.9988C184.9 108.899 178.4 126.099 182.4 134.699C183.003 135.804 183.671 136.872 184.4 137.899C188.5 128.699 190.9 121.699 191.6 113.699C192 108.599 198.9 78.7988 180.5 59.2988Z" fill="url(#paint1_linear)"/>
<path d="M123.7 111.398C125.098 115.168 125.71 119.184 125.5 123.198C125.437 125.187 125.169 127.165 124.7 129.098C124.217 131.013 123.582 132.886 122.8 134.698C122.733 134.87 122.601 135.009 122.432 135.084C122.264 135.158 122.072 135.164 121.9 135.098C121.728 135.031 121.59 134.899 121.515 134.731C121.44 134.562 121.435 134.371 121.5 134.198C122.745 130.623 123.452 126.882 123.6 123.098C123.733 121.197 123.666 119.286 123.4 117.398C123.178 115.539 122.81 113.7 122.3 111.898C122.264 111.714 122.295 111.522 122.386 111.357C122.477 111.193 122.624 111.066 122.8 110.998C122.973 110.955 123.156 110.971 123.319 111.044C123.482 111.116 123.616 111.241 123.7 111.398Z" fill="#72594B"/>
<path d="M115 112.199L114.3 111.799L113.4 111.299L111.7 110.599C110.503 110.094 109.265 109.693 108 109.399C105.516 108.782 102.958 108.513 100.4 108.599C97.798 108.726 95.2327 109.266 92.8 110.199C91.5613 110.718 90.3587 111.319 89.2 111.999C88.1154 112.687 87.1095 113.491 86.2 114.399H86.1C85.9885 114.51 85.8561 114.599 85.7102 114.66C85.5644 114.72 85.408 114.751 85.25 114.751C85.0921 114.751 84.9357 114.72 84.7899 114.66C84.644 114.599 84.5115 114.51 84.4 114.399C84.2074 114.226 84.0818 113.991 84.0452 113.735C84.0087 113.479 84.0635 113.218 84.2 112.999C84.9853 111.605 86.039 110.382 87.3 109.399C88.4139 108.301 89.6969 107.389 91.1 106.699C93.815 105.084 96.855 104.093 100 103.799C103.116 103.434 106.273 103.672 109.3 104.499C110.817 104.882 112.291 105.418 113.7 106.099L115.8 107.299L116.8 108.099L117.8 108.999C118.006 109.187 118.173 109.415 118.29 109.669C118.407 109.923 118.472 110.198 118.481 110.477C118.49 110.757 118.444 111.035 118.344 111.297C118.244 111.558 118.093 111.796 117.9 111.999C117.56 112.323 117.128 112.535 116.663 112.607C116.198 112.678 115.722 112.606 115.3 112.399L115 112.199Z" fill="#172B4D"/>
<path d="M139.3 109.098L140.4 108.198L141.4 107.498C142.006 107.005 142.68 106.601 143.4 106.298C144.848 105.601 146.353 105.033 147.9 104.598C150.946 103.884 154.095 103.715 157.2 104.098C160.336 104.439 163.366 105.427 166.1 106.998C167.47 107.784 168.744 108.723 169.9 109.798C171.104 110.813 172.119 112.032 172.9 113.398C173.047 113.692 173.078 114.031 172.985 114.347C172.892 114.662 172.683 114.931 172.4 115.098C172.17 115.192 171.919 115.223 171.673 115.188C171.427 115.153 171.195 115.053 171 114.898H170.9C169.991 113.991 168.985 113.187 167.9 112.498C166.752 111.799 165.548 111.197 164.3 110.698C161.919 109.698 159.38 109.122 156.8 108.998C154.213 108.834 151.616 109.07 149.1 109.698L145.4 110.798L143.7 111.598L142.9 111.998L142.1 112.398L141.8 112.598C141.294 112.85 140.71 112.897 140.17 112.729C139.63 112.561 139.175 112.192 138.9 111.698C138.641 111.29 138.539 110.801 138.613 110.323C138.686 109.845 138.93 109.41 139.3 109.098Z" fill="#172B4D"/>
<path d="M90.8998 117.798C93.9548 115.65 97.5675 114.434 101.3 114.298C105.086 114.21 108.812 115.254 112 117.298C112.102 117.368 112.188 117.457 112.254 117.562C112.32 117.666 112.363 117.783 112.382 117.905C112.401 118.027 112.394 118.151 112.363 118.27C112.332 118.39 112.276 118.501 112.2 118.598C112.076 118.792 111.883 118.931 111.66 118.987C111.436 119.043 111.2 119.011 111 118.898C109.524 118.061 107.943 117.422 106.3 116.998C103.031 116.101 99.5857 116.066 96.2998 116.898C94.6245 117.321 93.011 117.96 91.4998 118.798C91.439 118.852 91.366 118.89 91.2872 118.909C91.2083 118.929 91.1259 118.929 91.0472 118.909C90.9684 118.889 90.8956 118.851 90.8351 118.796C90.7746 118.742 90.7281 118.674 90.6998 118.598C90.646 118.537 90.6078 118.464 90.5885 118.386C90.5692 118.307 90.5695 118.224 90.5891 118.146C90.6088 118.067 90.6474 117.994 90.7015 117.933C90.7557 117.873 90.8237 117.827 90.8998 117.798Z" fill="#172B4D"/>
<path d="M166.1 119.198C164.619 118.346 163.041 117.675 161.4 117.198C159.732 116.77 158.021 116.535 156.3 116.498C154.607 116.478 152.922 116.714 151.3 117.198C149.663 117.64 148.084 118.278 146.6 119.098C146.387 119.203 146.142 119.22 145.918 119.145C145.693 119.07 145.507 118.909 145.4 118.698C145.287 118.498 145.255 118.262 145.311 118.039C145.367 117.815 145.506 117.622 145.7 117.498C148.878 115.443 152.618 114.429 156.4 114.598C160.149 114.728 163.773 115.982 166.8 118.198C166.868 118.237 166.927 118.29 166.971 118.356C167.015 118.421 167.043 118.495 167.052 118.573C167.062 118.651 167.053 118.73 167.027 118.804C167 118.878 166.957 118.944 166.9 118.998C166.817 119.128 166.688 119.22 166.54 119.258C166.391 119.295 166.234 119.274 166.1 119.198Z" fill="#172B4D"/>
<path d="M155.2 121.798C156.967 121.798 158.4 120.366 158.4 118.598C158.4 116.831 156.967 115.398 155.2 115.398C153.433 115.398 152 116.831 152 118.598C152 120.366 153.433 121.798 155.2 121.798Z" fill="#172B4D"/>
<path d="M102 121.599C103.767 121.599 105.2 120.167 105.2 118.399C105.2 116.632 103.767 115.199 102 115.199C100.232 115.199 98.7998 116.632 98.7998 118.399C98.7998 120.167 100.232 121.599 102 121.599Z" fill="#172B4D"/>
<path d="M117.9 143.5L123.6 145.6L126.3 146.9L127.4 147.4H128.6C129.471 147.218 130.313 146.915 131.1 146.5C132.024 146.03 132.997 145.662 134 145.4C135.936 144.744 137.957 144.374 140 144.3C140.169 144.298 140.334 144.358 140.463 144.468C140.591 144.579 140.676 144.732 140.7 144.9C140.702 145.069 140.642 145.234 140.531 145.362C140.421 145.491 140.268 145.575 140.1 145.6C138.188 145.865 136.311 146.334 134.5 147L131.9 148.1C130.938 148.644 129.889 149.016 128.8 149.2H127.1C126.512 149.02 125.943 148.786 125.4 148.5L122.8 147.2L117.5 144.6H117.4C117.322 144.559 117.253 144.502 117.2 144.433C117.146 144.363 117.108 144.282 117.089 144.197C117.07 144.111 117.07 144.022 117.089 143.936C117.108 143.85 117.146 143.769 117.2 143.7C117.287 143.605 117.398 143.537 117.522 143.502C117.645 143.466 117.776 143.466 117.9 143.5Z" fill="#72594B"/>
<path d="M118.9 178.199C121.869 176.376 125.323 175.504 128.8 175.699C132.215 175.77 135.568 176.626 138.6 178.199C138.9 178.399 138.9 178.599 138.8 178.899L138.3 179.099C135.184 178.162 131.954 177.657 128.7 177.599C125.532 177.492 122.374 178.002 119.4 179.099H119.3C119.1 179.199 118.7 178.999 118.6 178.699C118.585 178.646 118.581 178.591 118.588 178.537C118.596 178.483 118.614 178.43 118.642 178.384C118.67 178.337 118.707 178.296 118.752 178.264C118.796 178.233 118.847 178.21 118.9 178.199Z" fill="#72594B"/>
<path d="M129.7 166.698C122.92 166.686 116.203 165.397 109.9 162.898C110.8 164.098 117.7 171.198 129.3 171.198C140.9 171.198 147.9 164.298 148.8 163.098C142.708 165.459 136.233 166.679 129.7 166.698Z" fill="#745949"/>
<path d="M148.8 163.098L145 162.398C139.1 161.098 136.9 159.498 133.1 159.998C131.894 160.12 130.714 160.423 129.6 160.898C128.352 160.386 127.04 160.05 125.7 159.898C121.7 159.598 119.5 161.198 113.7 162.298L109.9 162.898C116.203 165.397 122.92 166.686 129.7 166.698C136.233 166.679 142.708 165.459 148.8 163.098Z" fill="#4E3B31"/>
<path d="M108.1 160.697C109.732 161.526 111.44 162.196 113.2 162.697C114.923 163.316 116.696 163.784 118.5 164.097C122.085 164.831 125.741 165.166 129.4 165.097C133.06 165.078 136.71 164.709 140.3 163.997C142.099 163.706 143.871 163.271 145.6 162.697C147.322 162.178 148.995 161.509 150.6 160.697H150.7C150.75 160.639 150.815 160.596 150.889 160.574C150.962 160.552 151.041 160.551 151.114 160.572C151.188 160.593 151.254 160.635 151.305 160.693C151.356 160.75 151.389 160.821 151.4 160.897C151.458 160.947 151.501 161.012 151.524 161.086C151.546 161.159 151.546 161.238 151.525 161.312C151.504 161.385 151.462 161.451 151.405 161.502C151.347 161.553 151.276 161.586 151.2 161.597C147.977 163.652 144.425 165.14 140.7 165.997C136.99 166.83 133.202 167.266 129.4 167.297C125.595 167.315 121.802 166.879 118.1 165.997C114.348 165.177 110.763 163.722 107.5 161.697C107.387 161.6 107.314 161.464 107.296 161.316C107.277 161.169 107.314 161.019 107.4 160.897C107.5 160.597 107.8 160.597 108.1 160.697Z" fill="#230F05"/>
<defs>
<linearGradient id="paint0_linear" x1="129.17" y1="233.169" x2="129.17" y2="152.079" gradientUnits="userSpaceOnUse">
<stop offset="0.17" stop-color="#926D5A"/>
<stop offset="0.71" stop-color="#7F6151"/>
<stop offset="1" stop-color="#72594B"/>
</linearGradient>
<linearGradient id="paint1_linear" x1="129.929" y1="70.1554" x2="128.495" y2="143.349" gradientUnits="userSpaceOnUse">
<stop offset="0.09" stop-color="#091E42"/>
<stop offset="0.54" stop-color="#4B444E"/>
<stop offset="1" stop-color="#926D5A"/>
</linearGradient>
</defs>
</svg>
