<svg width="256" height="256" viewBox="0 0 256 256" fill="none" xmlns="http://www.w3.org/2000/svg">
<path d="M0 0H256V256H0V0Z" fill="white" fill-opacity="0.01"/>
<path d="M128 256C198.692 256 256 198.692 256 128C256 57.3075 198.692 0 128 0C57.3075 0 0 57.3075 0 128C0 198.692 57.3075 256 128 256Z" fill="#0065FF"/>
<path d="M79.0708 141.895C86.4595 140.026 90.5601 131.045 88.2299 121.836C85.8996 112.627 78.0209 106.677 70.6323 108.546C63.2436 110.416 59.1429 119.397 61.4732 128.606C63.8034 137.815 71.6822 143.765 79.0708 141.895Z" fill="#F7D0C3"/>
<path d="M199.352 128.801C201.683 119.592 197.582 110.611 190.193 108.741C182.805 106.872 174.926 112.822 172.596 122.031C170.266 131.24 174.366 140.221 181.755 142.09C189.143 143.96 197.022 138.01 199.352 128.801Z" fill="#F7D0C3"/>
<path d="M211.5 225L185.5 210.5C184.725 209.909 183.775 209.593 182.8 209.6L132.4 207L82.0001 209.6C81.0298 209.62 80.0884 209.934 79.3001 210.5L48.1001 227.9C71.4116 246.521 100.492 256.421 130.323 255.891C160.154 255.362 188.864 244.436 211.5 225Z" fill="#66A3FF"/>
<path d="M181 216.499C179.8 217.999 160 242.399 127.4 239.999C101 238.099 86.0999 220.099 83.8999 217.299C90.0331 211.475 94.1676 203.86 95.7122 195.545C97.2569 187.229 96.1325 178.637 92.4999 170.999L170.1 169.199C168.9 171.499 162.4 184.899 168.1 199.799C170.708 206.489 175.186 212.286 181 216.499Z" fill="url(#paint0_linear)"/>
<path d="M130.9 41.0996C158.6 41.2996 175.5 59.9996 178.1 62.9996C195.6 83.1996 193.8 107.3 193.4 112.4C192.4 124.8 187.4 134.7 177.7 154.7C173.311 163.904 168.403 172.851 163 181.5C161.489 183.963 159.302 185.942 156.7 187.2C148.698 191.318 139.893 193.639 130.9 194C121.874 193.65 113.034 191.329 105 187.2C102.444 185.913 100.297 183.939 98.8002 181.5C93.3601 172.856 88.4187 163.908 84.0002 154.7C74.4002 134.7 69.3002 124.8 68.4002 112.4C68.0002 107.3 66.1002 83.1996 83.7002 62.9996C86.3002 59.9996 103.2 41.2996 130.9 41.0996Z" fill="#FFE2D9"/>
<path d="M115 109.999L113.4 109.099L111.7 108.299C110.469 107.794 109.198 107.393 107.9 107.099C105.352 106.465 102.721 106.229 100.1 106.399C97.443 106.508 94.8304 107.119 92.4002 108.199C91.1844 108.698 90.0135 109.3 88.9002 109.999C87.763 110.695 86.7209 111.535 85.8002 112.499C85.6132 112.682 85.3619 112.785 85.1001 112.785C84.8384 112.785 84.5871 112.682 84.4002 112.499C84.3011 112.439 84.2161 112.359 84.1511 112.263C84.0861 112.168 84.0426 112.059 84.0236 111.945C84.0046 111.831 84.0105 111.714 84.041 111.603C84.0715 111.491 84.1258 111.387 84.2001 111.299C85.0085 109.981 86.0211 108.799 87.2001 107.799C88.3584 106.755 89.6335 105.849 91.0001 105.099C93.6685 103.559 96.6343 102.604 99.7001 102.299C102.783 101.925 105.909 102.163 108.9 102.999C110.431 103.337 111.91 103.875 113.3 104.599L115.4 105.699C116.062 106.198 116.696 106.732 117.3 107.299C117.477 107.442 117.621 107.621 117.723 107.824C117.825 108.027 117.883 108.249 117.893 108.476C117.902 108.703 117.863 108.93 117.778 109.141C117.693 109.352 117.564 109.542 117.4 109.699C117.144 110.024 116.771 110.237 116.361 110.293C115.95 110.349 115.534 110.243 115.2 109.999H115Z" fill="#CE6E05"/>
<path d="M140.4 107.399C140.983 106.809 141.619 106.273 142.3 105.799L144.4 104.699C145.756 103.977 147.202 103.438 148.7 103.099C151.692 102.271 154.817 102.033 157.9 102.399C160.994 102.72 163.99 103.673 166.7 105.199C168.067 105.95 169.342 106.856 170.5 107.899C171.679 108.9 172.692 110.081 173.5 111.399C173.625 111.63 173.664 111.898 173.609 112.155C173.554 112.412 173.409 112.64 173.2 112.799C172.987 112.896 172.751 112.929 172.52 112.893C172.289 112.858 172.074 112.756 171.9 112.599C170.979 111.635 169.937 110.795 168.8 110.099C167.687 109.401 166.516 108.799 165.3 108.299C162.87 107.22 160.257 106.609 157.6 106.499C154.98 106.33 152.349 106.566 149.8 107.199C148.502 107.493 147.231 107.895 146 108.399L144.3 109.199L142.7 110.099H142.5C142.111 110.335 141.647 110.414 141.202 110.321C140.757 110.228 140.363 109.971 140.1 109.599C139.878 109.258 139.786 108.848 139.841 108.444C139.896 108.04 140.095 107.669 140.4 107.399Z" fill="#CE6E05"/>
<path d="M90.7 116C93.7701 113.881 97.3738 112.669 101.1 112.5C104.891 112.366 108.631 113.415 111.8 115.5C112.012 115.632 112.163 115.844 112.219 116.087C112.275 116.331 112.233 116.587 112.1 116.8C111.967 117.012 111.756 117.163 111.512 117.219C111.268 117.275 111.012 117.232 110.8 117.1C109.327 116.231 107.747 115.558 106.1 115.1C104.464 114.697 102.785 114.495 101.1 114.5C99.4126 114.446 97.7267 114.648 96.1 115.1C94.4209 115.558 92.8076 116.23 91.3 117.1C91.1522 117.145 90.9936 117.14 90.8489 117.086C90.7042 117.032 90.5815 116.931 90.5 116.8C90.4248 116.666 90.4036 116.509 90.4408 116.36C90.478 116.211 90.5707 116.082 90.7 116Z" fill="#172B4D"/>
<path d="M165.9 117.1C164.419 116.248 162.841 115.576 161.2 115.1C159.538 114.654 157.82 114.452 156.1 114.5C152.686 114.428 149.321 115.33 146.4 117.1C146.185 117.181 145.948 117.186 145.729 117.113C145.51 117.041 145.323 116.894 145.2 116.7C145.087 116.499 145.056 116.263 145.111 116.04C145.167 115.817 145.306 115.623 145.5 115.5C148.67 113.415 152.409 112.366 156.2 112.5C159.923 112.684 163.523 113.896 166.6 116C166.671 116.048 166.73 116.112 166.774 116.186C166.818 116.259 166.846 116.341 166.855 116.427C166.865 116.512 166.856 116.598 166.829 116.68C166.802 116.762 166.758 116.836 166.7 116.9C166.605 117.013 166.477 117.094 166.333 117.13C166.189 117.166 166.038 117.155 165.9 117.1Z" fill="#172B4D"/>
<path d="M155.1 119.798C156.868 119.798 158.3 118.366 158.3 116.598C158.3 114.831 156.868 113.398 155.1 113.398C153.333 113.398 151.9 114.831 151.9 116.598C151.9 118.366 153.333 119.798 155.1 119.798Z" fill="#172B4D"/>
<path d="M101.8 119.798C103.567 119.798 105 118.366 105 116.598C105 114.831 103.567 113.398 101.8 113.398C100.033 113.398 98.6001 114.831 98.6001 116.598C98.6001 118.366 100.033 119.798 101.8 119.798Z" fill="#172B4D"/>
<path d="M70.9002 100.799L74.9002 116.599C75.3834 118.504 75.2574 120.512 74.5399 122.342C73.8224 124.171 72.5495 125.73 70.9002 126.799C70.9002 126.799 66.8002 117.399 65.8002 112.799C64.8002 108.199 70.9002 100.799 70.9002 100.799Z" fill="#FF8B00"/>
<path d="M129.3 79.2997C151 79.1997 162.2 63.4997 170.4 69.3997C176.4 73.7997 171.5 83.1997 178.7 95.7997C182.754 102.561 188.604 108.066 195.6 111.7C195.8 109.4 198.2 74.8997 170.6 53.6997C146.6 35.1997 119.1 41.7997 115.9 42.5997C112.7 43.3997 87.6002 50.3997 74.7002 75.6997C69.3444 86.439 67.0275 98.4385 68.0003 110.4C73.6003 106.1 80.3003 99.3997 83.8003 89.6997C87.3003 79.9997 84.7003 74.2997 88.8003 70.8997C96.1003 64.7997 108.3 79.4997 129.3 79.2997Z" fill="#FF8B00"/>
<path d="M190.2 100.799L186.1 116.599C185.611 118.514 185.744 120.535 186.482 122.369C187.219 124.204 188.521 125.755 190.2 126.799C190.2 126.799 190.3 126.899 190.3 126.799C190.3 126.699 194.5 116.599 195.2 112.799C195.9 108.999 190.2 100.799 190.2 100.799Z" fill="#FF8B00"/>
<path d="M146.9 161.699C141.6 160.899 138.2 159.899 134.2 160.499H133.4C131.228 160.999 128.971 160.999 126.8 160.499H126C122.2 159.899 118.8 160.699 113.5 161.599L108.4 162.199C108.8 162.599 116.5 169.099 130.1 168.999C143.7 168.899 151.4 162.599 151.8 162.199C149.7 162.099 148 161.799 146.9 161.699Z" fill="#F0BEB4"/>
<path d="M105.8 160.601C109.696 161.763 113.674 162.632 117.7 163.201C121.68 163.716 125.687 163.983 129.7 164.001C133.715 163.953 137.723 163.653 141.7 163.101L147.7 162.001C149.7 161.601 151.6 161.101 153.6 160.501C153.9 160.401 154.1 160.601 154.2 160.901C154.234 160.958 154.253 161.023 154.255 161.09C154.257 161.156 154.243 161.222 154.213 161.282C154.183 161.342 154.139 161.393 154.084 161.431C154.03 161.469 153.966 161.493 153.9 161.501C150.046 162.995 146.062 164.133 142 164.901C137.936 165.585 133.821 165.919 129.7 165.901L123.5 165.701C121.5 165.501 119.4 165.301 117.4 164.901C113.344 164.2 109.361 163.129 105.5 161.701C105.377 161.637 105.279 161.532 105.225 161.404C105.17 161.277 105.161 161.134 105.2 161.001C105.243 160.878 105.325 160.773 105.433 160.7C105.542 160.628 105.67 160.593 105.8 160.601Z" fill="#CB8C84"/>
<path d="M94.5998 129.5C95.0416 129.5 95.3998 129.142 95.3998 128.7C95.3998 128.259 95.0416 127.9 94.5998 127.9C94.158 127.9 93.7998 128.259 93.7998 128.7C93.7998 129.142 94.158 129.5 94.5998 129.5Z" fill="#F0BEB4"/>
<path d="M86.0002 130.299C86.442 130.299 86.8002 129.941 86.8002 129.499C86.8002 129.057 86.442 128.699 86.0002 128.699C85.5584 128.699 85.2002 129.057 85.2002 129.499C85.2002 129.941 85.5584 130.299 86.0002 130.299Z" fill="#F0BEB4"/>
<path d="M96.5998 138.5C97.0416 138.5 97.3998 138.142 97.3998 137.7C97.3998 137.259 97.0416 136.9 96.5998 136.9C96.158 136.9 95.7998 137.259 95.7998 137.7C95.7998 138.142 96.158 138.5 96.5998 138.5Z" fill="#F0BEB4"/>
<path d="M101.3 129.5C101.742 129.5 102.1 129.142 102.1 128.7C102.1 128.259 101.742 127.9 101.3 127.9C100.858 127.9 100.5 128.259 100.5 128.7C100.5 129.142 100.858 129.5 101.3 129.5Z" fill="#F0BEB4"/>
<path d="M95.6999 145.7C96.1417 145.7 96.4999 145.341 96.4999 144.9C96.4999 144.458 96.1417 144.1 95.6999 144.1C95.2581 144.1 94.8999 144.458 94.8999 144.9C94.8999 145.341 95.2581 145.7 95.6999 145.7Z" fill="#F0BEB4"/>
<path d="M89.0998 136.799C89.5416 136.799 89.8998 136.441 89.8998 135.999C89.8998 135.557 89.5416 135.199 89.0998 135.199C88.658 135.199 88.2998 135.557 88.2998 135.999C88.2998 136.441 88.658 136.799 89.0998 136.799Z" fill="#F0BEB4"/>
<path d="M164.4 131.5C164.842 131.5 165.2 131.142 165.2 130.7C165.2 130.259 164.842 129.9 164.4 129.9C163.958 129.9 163.6 130.259 163.6 130.7C163.6 131.142 163.958 131.5 164.4 131.5Z" fill="#F0BEB4"/>
<path d="M171 134.299C171.442 134.299 171.8 133.941 171.8 133.499C171.8 133.057 171.442 132.699 171 132.699C170.558 132.699 170.2 133.057 170.2 133.499C170.2 133.941 170.558 134.299 171 134.299Z" fill="#F0BEB4"/>
<path d="M166 149.299C166.442 149.299 166.8 148.941 166.8 148.499C166.8 148.057 166.442 147.699 166 147.699C165.558 147.699 165.2 148.057 165.2 148.499C165.2 148.941 165.558 149.299 166 149.299Z" fill="#F0BEB4"/>
<path d="M155.7 133.5C156.142 133.5 156.5 133.142 156.5 132.7C156.5 132.259 156.142 131.9 155.7 131.9C155.258 131.9 154.9 132.259 154.9 132.7C154.9 133.142 155.258 133.5 155.7 133.5Z" fill="#F0BEB4"/>
<path d="M157.5 145.2C157.942 145.2 158.3 144.841 158.3 144.4C158.3 143.958 157.942 143.6 157.5 143.6C157.058 143.6 156.7 143.958 156.7 144.4C156.7 144.841 157.058 145.2 157.5 145.2Z" fill="#F0BEB4"/>
<path d="M165.9 140.799C166.342 140.799 166.7 140.441 166.7 139.999C166.7 139.557 166.342 139.199 165.9 139.199C165.458 139.199 165.1 139.557 165.1 139.999C165.1 140.441 165.458 140.799 165.9 140.799Z" fill="#F0BEB4"/>
<path d="M118.2 141.7L123.9 143.7L126.6 145L127.7 145.5H128.9C129.795 145.413 130.655 145.104 131.4 144.6L134.3 143.5C136.246 142.884 138.262 142.514 140.3 142.4C140.486 142.4 140.664 142.474 140.795 142.605C140.926 142.736 141 142.914 141 143.1C141.002 143.27 140.942 143.434 140.832 143.563C140.721 143.691 140.568 143.776 140.4 143.8C138.519 144.053 136.673 144.523 134.9 145.2L132.2 146.4C131.234 146.934 130.187 147.305 129.1 147.5H127.4C126.805 147.393 126.231 147.19 125.7 146.9L123.1 145.6L117.8 143H117.7C117.561 142.902 117.456 142.761 117.402 142.599C117.348 142.437 117.348 142.262 117.4 142.1C117.466 141.95 117.582 141.829 117.728 141.756C117.874 141.682 118.041 141.663 118.2 141.7Z" fill="#F0BEB4"/>
<path d="M121.5 112C122.601 113.498 123.476 115.149 124.1 116.9C124.644 118.689 124.979 120.535 125.1 122.4C125.212 126.112 124.386 129.792 122.7 133.1C122.654 133.199 122.589 133.287 122.509 133.361C122.429 133.434 122.335 133.491 122.233 133.528C122.131 133.565 122.022 133.582 121.914 133.577C121.805 133.572 121.699 133.546 121.6 133.5C121.502 133.454 121.413 133.389 121.34 133.309C121.266 133.229 121.209 133.135 121.172 133.033C121.135 132.931 121.118 132.823 121.123 132.714C121.128 132.605 121.154 132.499 121.2 132.4C121.739 130.797 122.173 129.16 122.5 127.5C122.796 125.851 122.897 124.173 122.8 122.5C122.786 120.803 122.516 119.117 122 117.5C121.558 115.895 120.92 114.35 120.1 112.9C120.03 112.805 119.981 112.696 119.958 112.58C119.935 112.464 119.938 112.344 119.966 112.229C119.995 112.115 120.049 112.008 120.124 111.916C120.199 111.825 120.293 111.751 120.4 111.7C120.492 111.647 120.593 111.612 120.698 111.599C120.804 111.585 120.911 111.592 121.013 111.62C121.115 111.648 121.211 111.696 121.295 111.761C121.378 111.827 121.448 111.908 121.5 112Z" fill="#F0BEB4"/>
<path d="M201.9 113.499H199.2V111.299H201.9V113.499Z" fill="#172B4D"/>
<path d="M201.9 117.1H199.2V114.9H201.9V117.1Z" fill="#172B4D"/>
<path d="M197.3 108.1C196.373 107.949 195.427 107.949 194.5 108.1C193.1 108.2 192.9 108.7 192.6 110C192.3 111.3 192.6 110.3 192.6 111.6V122.4C192.6 123.3 193 123.5 193.7 123.6C193.853 123.6 194.005 123.569 194.146 123.508C194.286 123.446 194.412 123.356 194.516 123.243C194.619 123.13 194.698 122.997 194.747 122.851C194.796 122.706 194.814 122.552 194.8 122.4C195 119.8 195.2 116.8 195.5 114.2C195.5 113.9 195.6 113.8 195.8 113.8C196.315 113.843 196.81 114.024 197.232 114.323C197.654 114.622 197.988 115.028 198.2 115.5C198.797 116.669 199.234 117.914 199.5 119.2C199.4 118.9 199.3 118.2 199.5 119.3C199.778 120.583 199.945 121.888 200 123.2C200.3 123 200.5 123.3 200.5 122.6C200.6 119.2 200.4 114.8 200.6 111.5C200.8 108.2 198.6 108.2 197.3 108.1Z" fill="#EBECF0"/>
<path d="M195.2 117.6H192.6C192.3 119.2 191.9 120.9 191.6 122.6C191.39 123.118 191.223 123.654 191.1 124.2C190.507 126.469 189.703 128.679 188.7 130.8L188 132.8H188.1C191.5 132.9 194.2 131.1 194.8 127.7V127.1C195 123.8 195.1 121 195.2 117.7V117.6Z" fill="#6C798F"/>
<path d="M192.7 127.8C192.764 127.166 192.659 126.527 192.396 125.947C192.132 125.368 191.72 124.868 191.2 124.5H191.1C190.4 126.7 189.5 128.9 188.7 131.1C189.661 131.159 190.608 130.851 191.351 130.238C192.093 129.626 192.575 128.754 192.7 127.8Z" fill="#172B4D"/>
<defs>
<linearGradient id="paint0_linear" x1="132.43" y1="240.189" x2="132.43" y2="169.209" gradientUnits="userSpaceOnUse">
<stop stop-color="#FFE2D9"/>
<stop offset="1" stop-color="#EBBEAE"/>
</linearGradient>
</defs>
</svg>
