<svg width="256" height="256" viewBox="0 0 256 256" fill="none" xmlns="http://www.w3.org/2000/svg">
<g clip-path="url(#clip0)">
<path d="M0 0H256V256H0V0Z" fill="white" fill-opacity="0.01"/>
<path d="M128 256C198.692 256 256 198.692 256 128C256 57.3075 198.692 0 128 0C57.3075 0 0 57.3075 0 128C0 198.692 57.3075 256 128 256Z" fill="#00C7E5"/>
<path d="M64.9997 104.3C61.5997 108 52.6997 118.5 52.6997 133.2C52.6997 147.9 62.4997 161 63.2997 161.9C69.1997 169.2 74.1997 170.6 75.4997 177C76.7997 183.4 73.7997 188.7 71.0997 192.6C116.1 192.6 161.2 190.7 206.2 190.7C203.5 187 200 183 197.9 175C194.8 163.1 197.6 152.1 201.8 140.8C209.7 119.7 211.2 98.7003 201.2 78.0003C192.522 60.3053 178.252 45.965 160.6 37.2003C152.81 33.2738 144.434 30.6395 135.8 29.4003C130.874 28.6162 125.886 28.2814 120.9 28.4003C116.521 28.5321 112.166 29.1016 107.9 30.1003C93.5997 33.5003 79.8997 41.6003 71.5997 53.9003C57.1997 75.2003 63.7997 100.1 64.9997 104.3Z" fill="#253858"/>
<path d="M160 202.1L131.6 200.5L103.3 202.1C96.2936 202.506 89.5246 204.785 83.6999 208.7L55.0999 228C53.9195 228.833 52.8449 229.807 51.8999 230.9C74.5992 247.705 102.223 256.525 130.461 255.982C158.699 255.439 185.963 245.565 208 227.9L179.5 208.7C173.711 204.789 166.975 202.509 160 202.1Z" fill="#00A3BF"/>
<path d="M170 208.901C169 210.301 153.4 229.701 127.7 228.001C106.2 226.701 93.9997 211.801 92.1997 209.501C97.2399 205.489 100.766 199.882 102.2 193.601C105 179.801 95.5997 169.401 94.3997 168.201L164.9 165.701C163.6 167.701 156.1 179.001 159.9 192.901C161.69 199.08 165.191 204.627 170 208.901Z" fill="url(#paint0_linear)"/>
<path d="M77.3 141.301C84.9215 141.301 91.1 135.123 91.1 127.501C91.1 119.88 84.9215 113.701 77.3 113.701C69.6785 113.701 63.5 119.88 63.5 127.501C63.5 135.123 69.6785 141.301 77.3 141.301Z" fill="url(#paint1_linear)"/>
<path d="M179.3 142.301C186.922 142.301 193.1 136.123 193.1 128.501C193.1 120.88 186.922 114.701 179.3 114.701C171.678 114.701 165.5 120.88 165.5 128.501C165.5 136.123 171.678 142.301 179.3 142.301Z" fill="url(#paint2_linear)"/>
<path d="M184.2 121.3C183.422 135.26 178.631 148.698 170.4 160C165.7 166.5 150.1 187.7 127.4 186.7C109.3 186 97.3001 171.5 90.3001 163C80.4664 151.14 74.3757 136.626 72.8001 121.3C72.0001 113.1 70.4001 96.0002 80.9001 79.6002C90.3001 64.9002 108.8 51.6002 130.8 53.1002C152.8 54.6002 167.6 72.1002 171.1 76.5002C185.2 94.6002 184.5 114.7 184.2 121.3Z" fill="#FFE2D9"/>
<path d="M171.6 108.701C169.091 106.993 166.449 105.488 163.7 104.201C160.892 103.123 157.907 102.58 154.9 102.601C151.918 102.603 148.964 103.18 146.2 104.301C143.424 105.467 140.883 107.127 138.7 109.201C138.5 109.371 138.241 109.456 137.979 109.438C137.718 109.419 137.473 109.298 137.3 109.101C137.212 109.017 137.142 108.916 137.095 108.804C137.047 108.692 137.022 108.572 137.022 108.451C137.022 108.329 137.047 108.209 137.095 108.097C137.142 107.986 137.212 107.885 137.3 107.801C139.547 105.397 142.272 103.489 145.3 102.201C148.352 100.968 151.609 100.323 154.9 100.301C158.165 100.355 161.39 101.034 164.4 102.301C167.489 103.474 170.142 105.568 172 108.301C172.1 108.401 172 108.601 171.9 108.701H171.6Z" fill="#253858"/>
<path d="M82 108.301C83.8576 105.568 86.511 103.474 89.6 102.301C92.6101 101.034 95.8348 100.355 99.1 100.301C102.391 100.323 105.648 100.968 108.7 102.201C111.758 103.488 114.516 105.394 116.8 107.801C116.949 108.009 117.021 108.263 117.002 108.519C116.984 108.774 116.877 109.016 116.7 109.201C116.519 109.356 116.288 109.441 116.05 109.441C115.812 109.441 115.581 109.356 115.4 109.201C113.2 107.149 110.663 105.491 107.9 104.301C105.098 103.191 102.114 102.615 99.1 102.601C96.1242 102.571 93.1705 103.114 90.4 104.201C87.6186 105.487 84.9436 106.992 82.4 108.701H82V108.301Z" fill="#253858"/>
<path d="M102.1 118.501C103.812 118.501 105.2 117.113 105.2 115.401C105.2 113.689 103.812 112.301 102.1 112.301C100.388 112.301 99 113.689 99 115.401C99 117.113 100.388 118.501 102.1 118.501Z" fill="#253858"/>
<path d="M184.3 121.101C183.8 119.401 183.1 117.001 182.3 114.001C175.7 90.7012 172.3 78.9012 169 76.0012C163.2 70.6012 158.4 74.3012 129 74.5012C99.5998 74.7012 95.5998 71.2012 88.4998 76.9012C81.3998 82.6012 77.0998 96.9012 74.8998 106.701C73.8389 111.438 73.17 116.254 72.8998 121.101C68.5998 95.2012 77.0998 70.2012 95.2998 57.5012C108.5 48.2012 123.8 47.7012 128.6 47.7012C133.4 47.7012 148.6 48.2012 161.9 57.5012C180 70.2012 188.5 95.2012 184.3 121.101Z" fill="url(#paint3_linear)"/>
<path d="M88.5998 115.201C88.9937 115.375 89.4194 115.464 89.8498 115.464C90.2802 115.464 90.7059 115.375 91.0998 115.201L91.4998 114.901L91.6998 114.701L91.9998 114.401L93.2998 113.201C95.1793 111.759 97.3812 110.797 99.7158 110.396C102.05 109.995 104.447 110.169 106.7 110.901C108.939 111.624 110.943 112.936 112.5 114.701C112.683 114.888 112.786 115.139 112.786 115.401C112.786 115.663 112.683 115.914 112.5 116.101C112.296 116.247 112.051 116.326 111.8 116.326C111.549 116.326 111.304 116.247 111.1 116.101C108.898 114.05 106.062 112.814 103.061 112.595C100.06 112.377 97.0751 113.191 94.5998 114.901L93.3998 115.901L93.0998 116.101L92.6998 116.501L91.6998 116.901C91.0453 117.123 90.333 117.104 89.6913 116.847C89.0496 116.591 88.5207 116.113 88.1998 115.501C88.1828 115.476 88.1719 115.447 88.1678 115.416C88.1637 115.386 88.1666 115.355 88.1763 115.326C88.1859 115.297 88.2021 115.271 88.2235 115.249C88.2449 115.228 88.271 115.211 88.2998 115.201C88.3998 115.101 88.4998 115.101 88.4998 115.201H88.5998Z" fill="#253858"/>
<path d="M151.9 118.501C153.612 118.501 155 117.113 155 115.401C155 113.689 153.612 112.301 151.9 112.301C150.188 112.301 148.8 113.689 148.8 115.401C148.8 117.113 150.188 118.501 151.9 118.501Z" fill="#253858"/>
<path d="M165.8 116.1C165.45 116.68 164.913 117.124 164.277 117.36C163.641 117.596 162.945 117.61 162.3 117.4L161.3 117L160.9 116.6L160.6 116.4C160.221 116.042 159.82 115.708 159.4 115.4C157.756 114.262 155.876 113.51 153.9 113.2C151.962 112.883 149.977 113.019 148.1 113.6C146.165 114.2 144.388 115.225 142.9 116.6C142.7 116.77 142.442 116.855 142.18 116.836C141.918 116.818 141.674 116.697 141.5 116.5C141.412 116.415 141.343 116.315 141.295 116.203C141.247 116.091 141.223 115.971 141.223 115.85C141.223 115.728 141.247 115.608 141.295 115.496C141.343 115.384 141.412 115.284 141.5 115.2C143.104 113.469 145.116 112.169 147.352 111.418C149.588 110.666 151.977 110.488 154.3 110.9C156.632 111.289 158.831 112.251 160.7 113.7L162 114.9L162.3 115.2C162.4 115.2 162.4 115.3 162.5 115.4L163 115.7C163.394 115.873 163.82 115.963 164.25 115.963C164.681 115.963 165.106 115.873 165.5 115.7C165.526 115.683 165.554 115.672 165.585 115.667C165.615 115.663 165.646 115.666 165.675 115.676C165.704 115.686 165.73 115.702 165.752 115.723C165.774 115.745 165.79 115.771 165.8 115.8C165.821 115.818 165.838 115.841 165.85 115.867C165.862 115.893 165.868 115.921 165.868 115.95C165.868 115.978 165.862 116.006 165.85 116.032C165.838 116.058 165.821 116.081 165.8 116.1Z" fill="#253858"/>
<path d="M70.0998 74.801C73.5998 83.201 83.6998 85.701 91.2998 87.601C93.8998 88.201 99.1998 89.301 117.3 88.301C137.2 87.101 141.6 86.301 151.6 87.901C157.2 88.801 162.8 91.201 165.9 96.401C169 101.601 165.8 107.101 170.1 113.401C174.4 119.701 183.6 121.301 184.2 121.301C187.765 121.629 191.352 121.008 194.6 119.501C194.636 119.46 194.664 119.413 194.681 119.361C194.698 119.31 194.704 119.255 194.7 119.201C194.7 112.101 194 89.101 177.1 69.401C165.2 55.601 151.2 50.301 143.2 47.301C143.2 47.301 119 38.501 91.0998 45.101C84.7998 46.601 79.7998 48.501 75.6998 52.901C71.5998 57.301 66.9998 67.001 70.0998 74.801Z" fill="#253858"/>
<path style="mix-blend-mode:multiply" opacity="0.29" d="M126 150.101C133.842 150.101 140.2 143.744 140.2 135.901C140.2 128.059 133.842 121.701 126 121.701C118.157 121.701 111.8 128.059 111.8 135.901C111.8 143.744 118.157 150.101 126 150.101Z" fill="url(#paint4_radial)"/>
<path d="M121.7 114.999C122.269 116.353 122.705 117.76 123 119.199C123.2 120.599 123.4 122.099 123.5 123.599C123.499 125.038 123.399 126.474 123.2 127.899C123.021 129.364 122.686 130.805 122.2 132.199C122.18 132.306 122.136 132.406 122.071 132.493C122.006 132.58 121.922 132.65 121.825 132.698C121.728 132.747 121.621 132.772 121.512 132.772C121.404 132.772 121.297 132.747 121.2 132.699C121.016 132.634 120.858 132.512 120.75 132.349C120.641 132.187 120.589 131.994 120.6 131.799C120.8 130.399 121 129.099 121.1 127.699C121.233 126.337 121.267 124.966 121.2 123.599C121.2 122.26 121.099 120.923 120.9 119.599C120.7 118.199 120.4 116.899 120.1 115.499C120.07 115.275 120.125 115.048 120.254 114.862C120.384 114.677 120.579 114.547 120.8 114.499C120.985 114.463 121.176 114.494 121.341 114.585C121.506 114.677 121.633 114.823 121.7 114.999Z" fill="#F0BEB4"/>
<path d="M118.3 141.7C119.489 140.948 120.903 140.63 122.3 140.801L123.5 141.101L124.2 141.4C124.585 141.535 124.998 141.57 125.4 141.501L126.9 141.001C127.52 140.685 128.204 140.514 128.9 140.501C130.252 140.346 131.618 140.626 132.8 141.301C132.889 141.342 132.968 141.402 133.033 141.477C133.097 141.552 133.145 141.639 133.174 141.733C133.202 141.828 133.21 141.927 133.197 142.025C133.185 142.123 133.151 142.216 133.1 142.301C133.078 142.382 133.038 142.458 132.985 142.523C132.931 142.588 132.865 142.642 132.789 142.679C132.714 142.717 132.631 142.739 132.547 142.742C132.462 142.746 132.378 142.732 132.3 142.7C131.263 142.387 130.168 142.319 129.1 142.501C128.605 142.576 128.13 142.746 127.7 143.001L125.8 143.7C125.037 143.867 124.245 143.833 123.5 143.601C123.147 143.475 122.812 143.307 122.5 143.101L121.9 142.9C120.932 142.72 119.934 142.789 119 143.101H118.9C118.808 143.131 118.711 143.142 118.614 143.133C118.518 143.124 118.425 143.095 118.34 143.048C118.256 143.001 118.182 142.937 118.123 142.86C118.065 142.783 118.023 142.695 118 142.601C117.947 142.438 117.948 142.263 118.002 142.101C118.056 141.939 118.16 141.799 118.3 141.7Z" fill="#F0BEB4"/>
<path d="M145.2 158.499C139.9 157.699 136.5 156.699 132.5 157.299H131.7C129.518 157.699 127.282 157.699 125.1 157.299H124.3C120.5 156.699 117.1 157.499 111.8 158.299C110.6 158.499 108.9 158.799 106.7 158.999C107.1 159.399 114.8 165.899 128.4 165.799C142 165.699 149.7 159.399 150.1 158.999L145.2 158.499Z" fill="#F0BEB4"/>
<path d="M104.1 157.4C107.987 158.577 111.969 159.413 116 159.9C119.97 160.514 123.985 160.782 128 160.7C132.046 160.683 136.087 160.415 140.1 159.9L146 158.8C148 158.4 149.9 157.8 151.9 157.3C152.2 157.2 152.5 157.4 152.5 157.6C152.533 157.665 152.55 157.736 152.552 157.808C152.554 157.881 152.541 157.953 152.512 158.019C152.484 158.086 152.441 158.145 152.387 158.194C152.333 158.242 152.27 158.279 152.2 158.3C148.358 159.807 144.37 160.913 140.3 161.6C136.239 162.318 132.124 162.686 128 162.7L121.8 162.5C119.8 162.3 117.7 162.1 115.7 161.7C111.631 161.013 107.643 159.907 103.8 158.4C103.731 158.379 103.668 158.342 103.614 158.294C103.56 158.245 103.517 158.186 103.489 158.119C103.46 158.053 103.446 157.981 103.448 157.908C103.45 157.836 103.468 157.765 103.5 157.7C103.567 157.604 103.657 157.526 103.762 157.473C103.867 157.421 103.983 157.396 104.1 157.4Z" fill="#CB8C84"/>
</g>
<defs>
<linearGradient id="paint0_linear" x1="131.12" y1="166.931" x2="131.12" y2="227.831" gradientUnits="userSpaceOnUse">
<stop stop-color="#EBBEAE"/>
<stop offset="0.64" stop-color="#FFE2D9"/>
</linearGradient>
<linearGradient id="paint1_linear" x1="63.57" y1="127.501" x2="91.11" y2="127.501" gradientUnits="userSpaceOnUse">
<stop stop-color="#FFE2D9"/>
<stop offset="1" stop-color="#EBBEAE"/>
</linearGradient>
<linearGradient id="paint2_linear" x1="165.5" y1="128.491" x2="193.04" y2="128.491" gradientUnits="userSpaceOnUse">
<stop stop-color="#EBBEAE"/>
<stop offset="1" stop-color="#FFE2D9"/>
</linearGradient>
<linearGradient id="paint3_linear" x1="128.58" y1="121.091" x2="128.58" y2="47.6912" gradientUnits="userSpaceOnUse">
<stop stop-color="#F0D0B4"/>
<stop offset="0.11" stop-color="#E1C5AD"/>
<stop offset="0.33" stop-color="#BBA89C"/>
<stop offset="0.63" stop-color="#7C7980"/>
<stop offset="0.99" stop-color="#273A59"/>
<stop offset="1" stop-color="#253858"/>
</linearGradient>
<radialGradient id="paint4_radial" cx="0" cy="0" r="1" gradientUnits="userSpaceOnUse" gradientTransform="translate(126.14 136.068) scale(14.1867)">
<stop stop-color="#FFD5C4"/>
<stop offset="0.23" stop-color="#FCD4C1" stop-opacity="0.79"/>
<stop offset="0.75" stop-color="#F4D1BA" stop-opacity="0.26"/>
<stop offset="1" stop-color="#F0D0B6" stop-opacity="0"/>
</radialGradient>
<clipPath id="clip0">
<path d="M0 0H256V256H0V0Z" fill="white"/>
</clipPath>
</defs>
</svg>
