<svg width="256" height="256" viewBox="0 0 256 256" fill="none" xmlns="http://www.w3.org/2000/svg">
<g clip-path="url(#clip0)">
<path d="M0 0H256V256H0V0Z" fill="white" fill-opacity="0.01"/>
<path d="M128 256C198.692 256 256 198.692 256 128C256 57.3075 198.692 0 128 0C57.3075 0 0 57.3075 0 128C0 198.692 57.3075 256 128 256Z" fill="#00C7E5"/>
<path d="M128 256.001C145.339 256.035 162.503 252.532 178.442 245.705C194.38 238.879 208.76 228.874 220.7 216.301L186.5 199.201C180.564 196.2 174.047 194.528 167.4 194.301L130.3 192.701L93.1998 194.301C86.5496 194.506 80.0271 196.179 74.0998 199.201L37.7998 217.301L36.7998 217.801C48.6988 229.911 62.8931 239.527 78.5526 246.086C94.212 252.645 111.022 256.016 128 256.001Z" fill="#00A3BF"/>
<path d="M161.9 175.301C161.54 181.133 161.977 186.987 163.2 192.701C163.9 195.201 167.2 196.201 169.9 197.701C170.241 197.943 170.473 198.308 170.548 198.719C170.623 199.13 170.534 199.554 170.3 199.901C165 206.701 156.2 213.301 146.6 217.601C146.062 217.833 145.632 218.262 145.4 218.801L132.4 246.501C132.179 246.92 131.848 247.27 131.443 247.515C131.038 247.759 130.573 247.888 130.1 247.888C129.627 247.888 129.162 247.759 128.757 247.515C128.352 247.27 128.021 246.92 127.8 246.501L114.7 218.801C114.578 218.522 114.4 218.271 114.176 218.064C113.952 217.858 113.688 217.7 113.4 217.601C103.9 213.301 95.1001 206.701 89.8001 199.901C89.6721 199.743 89.5801 199.558 89.5305 199.361C89.4809 199.164 89.4749 198.958 89.513 198.758C89.5511 198.558 89.6323 198.369 89.7509 198.204C89.8696 198.038 90.0229 197.901 90.2001 197.801C92.9001 196.201 96.2001 195.201 96.9001 192.701C98.1233 186.987 98.5606 181.133 98.2001 175.301H161.9Z" fill="#AC8457"/>
<path d="M194.3 112.701C194.5 119.001 183.9 132.501 177.6 132.701C171.3 132.901 171.6 119.801 171.3 113.501C171.194 110.451 172.304 107.484 174.385 105.252C176.467 103.02 179.35 101.707 182.4 101.601C185.45 101.495 188.417 102.604 190.649 104.686C192.88 106.768 194.194 109.651 194.3 112.701Z" fill="#AC8457"/>
<path d="M64.1003 112.701C63.8003 119.001 74.4003 132.501 80.7003 132.701C87.0003 132.901 86.8003 119.801 87.0003 113.501C87.1934 111.918 87.0554 110.313 86.5952 108.787C86.135 107.261 85.3626 105.847 84.3269 104.636C83.2913 103.424 82.0151 102.441 80.5793 101.749C79.1435 101.056 77.5795 100.67 75.9865 100.614C74.3935 100.559 72.8063 100.835 71.3257 101.425C69.8451 102.016 68.5034 102.907 67.3857 104.044C66.268 105.18 65.3988 106.537 64.8332 108.027C64.2677 109.517 64.0181 111.109 64.1003 112.701Z" fill="#AC8457"/>
<path d="M188.1 80.7999C188.7 50.8999 175.1 24.6999 129.4 26.0999C82.6995 24.5999 69.4995 51.9999 70.5995 82.6999" fill="url(#paint0_linear)"/>
<path d="M70.5996 82.7008C70.9502 90.3121 71.9878 97.8762 73.6996 105.301C88.7996 171.801 82.4996 175.801 121.8 186.801C126.736 188.199 131.963 188.199 136.9 186.801C176.2 175.801 169.9 171.801 185 105.301C186.861 97.2604 187.9 89.0514 188.1 80.8008" fill="#253858"/>
<path d="M129.099 164.001C139.999 163.601 144.499 169.001 148.599 165.901C152.699 162.801 152.699 156.601 150.199 154.101C149.399 153.201 148.499 153.101 143.299 152.801C133.999 152.301 133.099 152.601 128.799 152.101C124.499 151.601 123.799 151.201 120.799 151.301C118.167 151.382 115.552 151.751 112.999 152.401C109.899 153.101 108.299 153.401 107.799 154.101C105.699 156.601 107.499 163.701 111.799 166.201C116.099 168.701 119.499 164.301 129.099 164.001Z" fill="#AC8457"/>
<path d="M129.4 135.6C145.6 135.6 157.1 144.9 165.2 139.7C173.3 134.5 177.8 114.9 180.1 107.7C182.159 100.962 182.571 93.829 181.3 86.8996C180.9 84.1996 177.6 80.6996 176.2 74.3996C175.729 72.4967 175.428 70.5558 175.3 68.5996C169.25 72.3092 162.768 75.2645 156 77.3996C139.845 82.5334 122.548 82.8807 106.2 78.3996C98.7561 76.2882 91.6267 73.1943 85 69.1996C83.2054 71.2934 81.6925 73.6131 80.5 76.0996C78.8731 79.5021 77.8254 83.1522 77.4 86.8996C76.3899 93.8428 76.7982 100.919 78.6 107.7C80.9 114.9 85.5 134.6 93.5 139.7C101.5 144.8 113.1 135.6 129.4 135.6Z" fill="#AC8457"/>
<path d="M145.8 152.7C140.5 151.7 137.1 150.3 133.1 151.1C132.8 151.2 132.7 151.1 132.3 151.3C130.141 151.901 127.859 151.901 125.7 151.3L124.9 151.1C121.1 150.3 117.7 151.5 112.4 152.6L107.3 153.5C110.101 156.435 113.468 158.77 117.198 160.366C120.928 161.962 124.943 162.785 129 162.785C133.057 162.785 137.071 161.962 140.801 160.366C144.531 158.77 147.899 156.435 150.7 153.5L145.8 152.7Z" fill="#7D4921"/>
<path d="M105.1 151.901C108.934 153.304 112.882 154.375 116.9 155.101C120.89 155.83 124.943 156.165 129 156.101C133.057 156.086 137.106 155.718 141.1 155.001C143.09 154.64 145.06 154.173 147 153.601C148.966 153.073 150.902 152.439 152.8 151.701C152.932 151.648 153.081 151.649 153.212 151.706C153.343 151.762 153.447 151.868 153.5 152.001C153.553 152.133 153.551 152.281 153.495 152.413C153.438 152.544 153.332 152.648 153.2 152.701C149.451 154.467 145.531 155.841 141.5 156.801C137.384 157.634 133.198 158.069 129 158.101C126.9 158.101 124.8 158.001 122.8 157.801C120.711 157.622 118.639 157.287 116.6 156.801C112.498 155.955 108.506 154.647 104.7 152.901C104.605 152.814 104.537 152.702 104.502 152.579C104.466 152.455 104.466 152.324 104.5 152.201C104.507 152.134 104.531 152.071 104.569 152.016C104.607 151.962 104.659 151.918 104.718 151.888C104.778 151.858 104.844 151.844 104.911 151.846C104.977 151.848 105.042 151.867 105.1 151.901Z" fill="#172B4D"/>
<path d="M125.2 59.8007C131.7 45.4007 138.3 31.1007 144.8 16.7007C150.2 16.4007 163.7 16.4007 176.8 24.9007C193.7 36.0007 201.4 56.0007 200.2 73.9007C199 91.8007 187.8 105.201 184.1 109.001C182.708 104.881 180.573 101.051 177.8 97.7007C169.9 88.3007 160 87.6007 149.7 82.5007C143 79.2007 133.9 72.9007 125.2 59.8007Z" fill="#008DA6"/>
<path d="M75.8 114.6C65.8534 103.152 60.2592 88.5641 60 73.4003C60 69.5003 60.2 44.2003 80.3 26.5003C97.7 11.2003 123.2 7.50027 146.1 16.7003C140.4 46.2003 128.5 60.4003 118.5 67.9003C108.5 75.4003 92.4 80.7003 82.5 97.2003C79.3646 102.611 77.1034 108.484 75.8 114.6Z" fill="#00A3BF"/>
<path d="M120.7 132.299L125.6 133.999L128 135.099L128.9 135.499H129.9C130.634 135.333 131.341 135.063 132 134.699L134.5 133.699C136.227 133.197 138.005 132.896 139.8 132.799C139.978 132.82 140.144 132.901 140.271 133.028C140.398 133.155 140.479 133.321 140.5 133.499C140.473 133.659 140.402 133.809 140.297 133.932C140.191 134.055 140.054 134.148 139.9 134.199C138.266 134.445 136.658 134.847 135.1 135.399L132.9 136.399C132.041 136.911 131.09 137.251 130.1 137.399H128.6C128.066 137.298 127.557 137.094 127.1 136.799L124.8 135.699L120.3 133.399H120.2C120.061 133.301 119.956 133.16 119.902 132.999C119.848 132.837 119.848 132.662 119.9 132.499C119.995 132.386 120.124 132.305 120.268 132.269C120.411 132.233 120.563 132.244 120.7 132.299Z" fill="#4A3222"/>
<path d="M124.4 98.7996C125.832 102.874 126.476 107.184 126.3 111.5C126.187 113.682 125.92 115.855 125.5 118C125.018 120.077 124.383 122.116 123.6 124.1C123.568 124.197 123.515 124.287 123.445 124.362C123.375 124.437 123.289 124.496 123.194 124.534C123.098 124.572 122.995 124.589 122.893 124.583C122.79 124.577 122.69 124.549 122.6 124.5C122.442 124.416 122.317 124.282 122.245 124.118C122.172 123.955 122.156 123.773 122.2 123.6C122.8 121.6 123.3 119.6 123.7 117.6C124 115.6 124.2 113.5 124.3 111.5C124.383 109.431 124.316 107.359 124.1 105.3C123.879 103.243 123.511 101.204 123 99.1996C122.969 99.1077 122.958 99.0106 122.967 98.9143C122.976 98.8179 123.005 98.7246 123.052 98.64C123.099 98.5554 123.163 98.4815 123.24 98.4229C123.317 98.3643 123.406 98.3223 123.5 98.2996C123.683 98.2809 123.867 98.3188 124.028 98.4082C124.189 98.4976 124.319 98.6342 124.4 98.7996Z" fill="#4A3222"/>
<path d="M115.6 99.6004L114.9 99.2004L114.1 98.8004L112.4 98.0004C111.198 97.5103 109.961 97.1093 108.7 96.8004C106.169 96.2707 103.585 96.0358 101 96.1004C97.0862 96.3544 93.2854 97.5187 89.9004 99.5004C88.7977 100.163 87.7887 100.97 86.9004 101.9H86.8004C86.6889 102.012 86.5565 102.101 86.4106 102.162C86.2647 102.222 86.1083 102.253 85.9504 102.253C85.7925 102.253 85.6361 102.222 85.4902 102.162C85.3444 102.101 85.2119 102.012 85.1004 101.9C84.8999 101.711 84.7706 101.459 84.7342 101.186C84.6977 100.913 84.7564 100.635 84.9004 100.4C85.707 99.0516 86.7192 97.837 87.9004 96.8004C89.0837 95.7885 90.3555 94.8848 91.7004 94.1004C94.4346 92.5286 97.4651 91.5411 100.6 91.2004C103.71 90.7985 106.868 91.0023 109.9 91.8004C111.454 92.1673 112.964 92.7039 114.4 93.4004L116.5 94.6004L117.4 95.4004L118.5 96.2004C118.91 96.6125 119.139 97.1697 119.139 97.7504C119.139 98.3311 118.91 98.8883 118.5 99.3004C118.168 99.6383 117.735 99.8598 117.267 99.9318C116.798 100.004 116.319 99.9227 115.9 99.7004L115.6 99.6004Z" fill="#172B4D"/>
<path d="M141 96.3003L142 95.5003L143 94.7003L145.1 93.5003C146.509 92.82 147.983 92.2839 149.5 91.9003C152.567 91.1017 155.757 90.898 158.9 91.3003C162.001 91.6573 164.995 92.6441 167.7 94.2003C169.061 94.9606 170.335 95.8659 171.5 96.9003C172.713 97.9339 173.758 99.1482 174.6 100.5C174.747 100.794 174.778 101.133 174.685 101.449C174.592 101.764 174.383 102.033 174.1 102.2C173.865 102.344 173.588 102.403 173.315 102.367C173.042 102.33 172.789 102.201 172.6 102C171.656 101.092 170.617 100.287 169.5 99.6003C168.385 98.9341 167.214 98.3653 166 97.9003C163.588 96.8883 161.014 96.3127 158.4 96.2003C155.815 96.1357 153.231 96.3706 150.7 96.9003L147.1 98.0003L145.3 98.8003L144.5 99.2003L143.8 99.6003L143.5 99.8003C142.994 100.052 142.41 100.098 141.87 99.9309C141.33 99.7633 140.875 99.3943 140.6 98.9003C140.361 98.4862 140.27 98.0027 140.343 97.53C140.416 97.0572 140.647 96.6234 141 96.3003Z" fill="#172B4D"/>
<path d="M91.6 105.3C94.6497 103.142 98.2656 101.925 102 101.8C105.788 101.693 109.52 102.739 112.7 104.8C112.799 104.86 112.884 104.94 112.949 105.036C113.014 105.132 113.058 105.24 113.077 105.354C113.096 105.468 113.09 105.585 113.059 105.697C113.029 105.808 112.974 105.912 112.9 106C112.849 106.107 112.776 106.202 112.684 106.277C112.593 106.352 112.486 106.406 112.371 106.434C112.256 106.463 112.136 106.466 112.02 106.443C111.904 106.42 111.795 106.371 111.7 106.3C110.196 105.522 108.622 104.886 107 104.4C105.358 104.014 103.685 103.779 102 103.7C100.311 103.73 98.6321 103.965 97 104.4C95.3394 104.868 93.731 105.505 92.2 106.3C92.1392 106.354 92.0662 106.392 91.9874 106.412C91.9085 106.431 91.8261 106.431 91.7473 106.411C91.6686 106.391 91.5958 106.353 91.5353 106.299C91.4748 106.245 91.4283 106.177 91.4 106.1C91.3462 106.04 91.308 105.967 91.2887 105.888C91.2694 105.809 91.2697 105.727 91.2893 105.648C91.309 105.569 91.3476 105.496 91.4017 105.436C91.4559 105.375 91.5239 105.329 91.6 105.3Z" fill="#172B4D"/>
<path d="M166.8 106.3C165.269 105.505 163.661 104.868 162 104.4C160.368 103.965 158.689 103.73 157 103.7C153.603 103.757 150.271 104.65 147.3 106.3C147.203 106.396 147.086 106.468 146.957 106.512C146.828 106.555 146.691 106.569 146.555 106.552C146.42 106.535 146.291 106.487 146.177 106.413C146.063 106.339 145.967 106.239 145.897 106.122C145.827 106.006 145.784 105.874 145.772 105.739C145.76 105.603 145.779 105.466 145.828 105.339C145.876 105.212 145.953 105.097 146.052 105.004C146.151 104.91 146.27 104.841 146.4 104.8C149.539 102.729 153.242 101.681 157 101.8C160.766 101.922 164.415 103.139 167.5 105.3C167.621 105.414 167.697 105.567 167.716 105.732C167.734 105.897 167.693 106.063 167.6 106.2C167.503 106.313 167.368 106.386 167.22 106.405C167.072 106.423 166.922 106.386 166.8 106.3Z" fill="#172B4D"/>
<path d="M155.9 109C157.668 109 159.1 107.567 159.1 105.8C159.1 104.032 157.668 102.6 155.9 102.6C154.133 102.6 152.7 104.032 152.7 105.8C152.7 107.567 154.133 109 155.9 109Z" fill="#172B4D"/>
<path d="M102.6 109C104.368 109 105.8 107.567 105.8 105.8C105.8 104.032 104.368 102.6 102.6 102.6C100.833 102.6 99.4004 104.032 99.4004 105.8C99.4004 107.567 100.833 109 102.6 109Z" fill="#172B4D"/>
</g>
<defs>
<linearGradient id="paint0_linear" x1="70.5795" y1="54.3499" x2="188.14" y2="54.3499" gradientUnits="userSpaceOnUse">
<stop stop-color="#00B8D9"/>
<stop offset="0.03" stop-color="#00B4D4"/>
<stop offset="0.2" stop-color="#00A2BF"/>
<stop offset="0.39" stop-color="#0096B1"/>
<stop offset="0.63" stop-color="#008FA9"/>
<stop offset="1" stop-color="#008DA6"/>
</linearGradient>
<clipPath id="clip0">
<path d="M0 0H256V256H0V0Z" fill="white"/>
</clipPath>
</defs>
</svg>
