<svg width="256" height="256" viewBox="0 0 256 256" fill="none" xmlns="http://www.w3.org/2000/svg">
<path d="M0 0H256V256H0V0Z" fill="white" fill-opacity="0.01"/>
<path d="M128 256C198.692 256 256 198.692 256 128C256 57.3075 198.692 0 128 0C57.3075 0 0 57.3075 0 128C0 198.692 57.3075 256 128 256Z" fill="#FFAB00"/>
<path d="M80.2 52.9986C74.9 54.6986 68.7 57.6986 66.6 63.3986C64.5 69.0986 71.3 76.0986 67.9 83.0986C65.8 87.4986 62.2 87.0986 59.3 93.1986C57.901 96.0626 57.1823 99.2111 57.2 102.399C56.9 110.799 61.4 113.999 63.2 120.299C66.7 132.899 53.6 139.799 55.5 151.199C56.4 156.699 60.7 163.599 75.5 170.399C74.0902 174.959 74.0902 179.838 75.5 184.399C77.3693 189.436 80.7151 193.793 85.1 196.899C96.1 204.299 104.5 195.499 128.3 196.699C143.9 197.499 148.1 201.699 159.6 198.399C164 197.199 172.3 194.599 176.3 186.799C178.325 182.461 178.886 177.583 177.9 172.899C180.3 172.899 187.7 172.699 193.5 167.299C199.3 161.899 201.8 150.999 199.7 142.699C197.6 134.399 192 129.099 193.5 120.299C194.5 114.399 197.2 109.999 196.4 101.499C196.136 98.0638 195.148 94.7239 193.5 91.6986C190.7 86.7986 188.2 87.1986 186.6 83.9986C183.4 77.1986 192.7 70.4986 190.1 63.3986C187.5 56.2986 179.8 56.8986 176.5 52.9986C164.4 51.3986 164.9 43.8986 152.7 43.8986C140.5 43.8986 140.5 53.0986 128.3 53.0986C116.1 53.0986 115.7 42.9986 103.6 43.8986C91.5 44.7986 92.3 51.3986 80.2 52.9986Z" fill="#FAFBFC"/>
<path d="M170.7 207.199L131.6 205.199L92.5998 207.199C91.8548 207.266 91.1357 207.505 90.4998 207.899L55.0998 231.299L53.7998 232.299C76.0778 248.144 102.843 256.44 130.177 255.972C157.511 255.504 183.977 246.297 205.7 229.699L172.8 207.899C172.151 207.533 171.438 207.296 170.7 207.199Z" fill="#FF8B00"/>
<path d="M168.299 208.899C167.299 210.299 152.399 229.699 127.799 227.999C107.299 226.699 95.6994 211.799 93.8994 209.499C98.7843 205.436 102.136 199.826 103.399 193.599C106.199 179.799 97.0994 169.399 95.9994 168.199L163.399 165.699C162.099 167.699 154.999 178.999 158.599 192.899C160.283 199.031 163.642 204.571 168.299 208.899Z" fill="url(#paint0_linear)"/>
<path d="M77.3 140.299C84.9215 140.299 91.1 134.121 91.1 126.499C91.1 118.878 84.9215 112.699 77.3 112.699C69.6785 112.699 63.5 118.878 63.5 126.499C63.5 134.121 69.6785 140.299 77.3 140.299Z" fill="url(#paint1_linear)"/>
<path d="M179.3 140.299C186.922 140.299 193.1 134.121 193.1 126.499C193.1 118.878 186.922 112.699 179.3 112.699C171.678 112.699 165.5 118.878 165.5 126.499C165.5 134.121 171.678 140.299 179.3 140.299Z" fill="url(#paint2_linear)"/>
<path d="M80.9005 98.7984C80.9005 105.198 80.7005 111.198 80.5005 116.998C80.3005 122.798 80.1005 121.898 79.8005 127.398C79.0005 142.898 79.8005 146.898 76.5005 150.598C73.2005 154.298 71.0005 154.798 69.7005 153.898C68.4005 152.998 70.4005 149.298 71.1005 143.798C73.1005 130.298 68.6005 116.798 68.2005 115.598C67.8005 114.398 66.1005 110.198 66.3005 106.198C66.4005 103.798 66.7005 98.4984 70.4005 96.4984C74.1005 94.4984 77.6005 95.8984 80.9005 98.7984Z" fill="#FAFBFC"/>
<path d="M184.2 121.299C183 150.899 152.3 184.899 128.5 184.899C104.7 184.899 74.0004 150.899 72.8004 121.299C71.5004 88.5988 96.0004 51.7988 128.5 51.7988C161 51.7988 185.5 88.5988 184.2 121.299Z" fill="#FFE2D9"/>
<path d="M69.1996 135.8C70.0833 135.8 70.7996 135.083 70.7996 134.2C70.7996 133.316 70.0833 132.6 69.1996 132.6C68.316 132.6 67.5996 133.316 67.5996 134.2C67.5996 135.083 68.316 135.8 69.1996 135.8Z" fill="#0065FF"/>
<path d="M185.2 135.8C186.083 135.8 186.8 135.083 186.8 134.2C186.8 133.316 186.083 132.6 185.2 132.6C184.316 132.6 183.6 133.316 183.6 134.2C183.6 135.083 184.316 135.8 185.2 135.8Z" fill="#0065FF"/>
<path d="M151 157.199C143.714 159.807 136.038 161.16 128.3 161.199C120.562 161.146 112.889 159.794 105.6 157.199L112.2 154.999C115.566 153.782 119.257 153.818 122.6 155.099H122.9C126.42 156.415 130.304 156.379 133.8 154.999C137.183 153.784 140.872 153.713 144.3 154.799L151 157.199Z" fill="#FF7143"/>
<path d="M151 157.199C151 157.199 145.7 168.399 128.3 168.399C110.9 168.399 105.6 157.199 105.6 157.199C120.263 162.534 136.336 162.534 151 157.199Z" fill="#FF8A63"/>
<path d="M102.6 155.1C106.638 156.995 110.86 158.47 115.2 159.5C123.853 161.532 132.863 161.498 141.5 159.4C143.7 158.9 145.8 158.3 147.9 157.6C150 156.9 152.1 156 154.1 155C154.3 155 154.5 155 154.6 155.2C154.7 155.4 154.6 155.6 154.5 155.6C150.56 157.979 146.323 159.828 141.9 161.1C137.505 162.332 132.965 162.971 128.4 163C126.094 163.016 123.789 162.883 121.5 162.6C119.24 162.321 117.001 161.887 114.8 161.3C110.356 160.133 106.086 158.385 102.1 156.1C101.997 155.997 101.924 155.869 101.889 155.728C101.854 155.587 101.858 155.439 101.9 155.3C101.987 155.206 102.099 155.137 102.222 155.102C102.346 155.067 102.476 155.066 102.6 155.1Z" fill="#FF5630"/>
<path d="M102.1 114.598C103.812 114.598 105.2 113.211 105.2 111.498C105.2 109.786 103.812 108.398 102.1 108.398C100.388 108.398 99 109.786 99 111.498C99 113.211 100.388 114.598 102.1 114.598Z" fill="#253858"/>
<path d="M88.5996 111.199C88.9935 111.372 89.4192 111.462 89.8496 111.462C90.28 111.462 90.7057 111.372 91.0996 111.199L91.4996 110.899L91.6996 110.699L91.9996 110.399C92.3859 109.98 92.8225 109.61 93.2996 109.299C95.1586 107.815 97.3583 106.818 99.6996 106.399C102.042 106.065 104.429 106.235 106.7 106.899C108.903 107.695 110.89 108.996 112.5 110.699C112.614 110.785 112.709 110.894 112.778 111.02C112.846 111.146 112.887 111.285 112.897 111.428C112.907 111.571 112.887 111.714 112.836 111.848C112.786 111.983 112.708 112.105 112.607 112.206C112.505 112.307 112.384 112.386 112.249 112.436C112.115 112.486 111.972 112.506 111.829 112.496C111.686 112.486 111.547 112.445 111.421 112.377C111.295 112.308 111.186 112.213 111.1 112.099C109.643 110.756 107.898 109.764 106 109.199C104.096 108.587 102.079 108.416 100.1 108.699C98.1043 108.999 96.2146 109.789 94.5996 110.999L93.3996 111.899L93.0996 112.199L92.6996 112.499L91.6996 112.999C91.0435 113.182 90.345 113.145 89.7124 112.892C89.0797 112.639 88.5481 112.184 88.1996 111.599C88.0996 111.499 88.1996 111.299 88.2996 111.199H88.5996Z" fill="#253858"/>
<path d="M151.9 114.598C153.612 114.598 155 113.211 155 111.498C155 109.786 153.612 108.398 151.9 108.398C150.188 108.398 148.8 109.786 148.8 111.498C148.8 113.211 150.188 114.598 151.9 114.598Z" fill="#253858"/>
<path d="M165.8 112.1C165.451 112.685 164.92 113.14 164.287 113.393C163.654 113.646 162.956 113.684 162.3 113.5L161.3 113L160.9 112.7L160.6 112.4L159.4 111.5C157.799 110.282 155.898 109.521 153.9 109.3C151.964 108.934 149.967 109.072 148.1 109.7C146.188 110.304 144.419 111.291 142.9 112.6C142.814 112.714 142.704 112.809 142.578 112.878C142.452 112.946 142.313 112.987 142.17 112.997C142.028 113.008 141.884 112.987 141.75 112.937C141.616 112.887 141.494 112.808 141.393 112.707C141.291 112.606 141.213 112.484 141.163 112.35C141.113 112.215 141.092 112.072 141.102 111.929C141.112 111.786 141.153 111.647 141.222 111.521C141.29 111.395 141.385 111.286 141.5 111.2C143.109 109.472 145.143 108.196 147.4 107.5C149.619 106.753 151.985 106.547 154.3 106.9C156.653 107.28 158.862 108.281 160.7 109.8C161.177 110.111 161.613 110.481 162 110.9L162.3 111.2L162.5 111.4L163 111.7C163.393 111.873 163.819 111.963 164.25 111.963C164.68 111.963 165.106 111.873 165.5 111.7C165.6 111.7 165.8 111.7 165.8 111.9C165.8 112.1 165.9 112 165.8 112.1Z" fill="#253858"/>
<path d="M64.5002 63.5998C69.7002 46.7998 84.1002 35.7998 96.0002 33.0998C99.9188 32.0796 104.01 31.9091 108 32.5998C113.888 33.8349 119.26 36.8348 123.4 41.1998C113.1 58.9998 102.8 69.1998 95.2002 75.2998C91.1002 78.4998 82.3002 84.8998 76.9002 96.6998C75.3005 100.145 74.1252 103.771 73.4002 107.5C72.2002 106 57.2002 86.7998 64.5002 63.5998Z" fill="#FAFBFC"/>
<path d="M108.1 84.4992C110.5 84.2992 112.9 84.1992 115.3 84.1992H129.7L136.8 84.5992C136.959 84.5992 137.112 84.6624 137.224 84.775C137.337 84.8875 137.4 85.0401 137.4 85.1992C137.4 85.3583 137.337 85.511 137.224 85.6235C137.112 85.736 136.959 85.7992 136.8 85.7992C134.5 85.9992 132.1 86.0992 129.7 86.0992H115.3L108.1 85.7992C107.932 85.775 107.779 85.6907 107.669 85.562C107.558 85.4332 107.498 85.2688 107.5 85.0992C107.5 84.9401 107.563 84.7875 107.676 84.675C107.788 84.5624 107.941 84.4992 108.1 84.4992Z" fill="#F0BEB4"/>
<path d="M115.499 78.1984C117.899 77.9984 120.299 77.9984 122.699 77.8984H136.999C139.399 77.8984 141.799 77.9984 144.199 78.1984C144.359 78.1984 144.511 78.2616 144.624 78.3742C144.736 78.4867 144.799 78.6393 144.799 78.7984C144.799 78.9576 144.736 79.1102 144.624 79.2227C144.511 79.3352 144.359 79.3984 144.199 79.3984L136.999 79.6984H122.699L115.499 79.3984C115.34 79.3984 115.188 79.3352 115.075 79.2227C114.963 79.1102 114.899 78.9576 114.899 78.7984C114.899 78.6393 114.963 78.4867 115.075 78.3742C115.188 78.2616 115.34 78.1984 115.499 78.1984Z" fill="#F0BEB4"/>
<path d="M138.399 26.7993C145.74 26.7993 153.009 28.2452 159.791 31.0545C166.574 33.8637 172.736 37.9813 177.927 43.1721C183.117 48.3629 187.235 54.5252 190.044 61.3073C192.854 68.0894 194.299 75.3584 194.299 82.6993C194.233 87.5243 193.595 92.3244 192.399 96.9993C190.695 103.022 187.842 108.659 183.999 113.599C168.746 107.964 154.212 100.546 140.699 91.4993C123.032 79.7511 107.252 65.3872 93.8994 48.8993C97.5994 44.1993 106.699 33.8993 121.999 29.1993C127.315 27.5844 132.844 26.7754 138.399 26.7993Z" fill="#FAFBFC"/>
<path d="M119.5 139.4L123 140.3L124.7 140.7L126.2 141.1C127.284 141.073 128.36 140.905 129.4 140.6C130.533 140.387 131.64 140.052 132.7 139.6H132.8C132.985 139.564 133.177 139.594 133.341 139.686C133.506 139.777 133.633 139.924 133.7 140.1C133.772 140.26 133.782 140.442 133.726 140.608C133.67 140.775 133.554 140.915 133.4 141C132.348 141.691 131.204 142.23 130 142.6C128.762 143.099 127.435 143.337 126.1 143.3L124.1 142.9L122.3 142.3C121.132 141.884 119.995 141.383 118.9 140.8C118.811 140.758 118.732 140.698 118.667 140.623C118.603 140.549 118.555 140.461 118.527 140.367C118.498 140.273 118.49 140.173 118.503 140.076C118.516 139.978 118.549 139.884 118.6 139.8C118.687 139.669 118.807 139.564 118.947 139.493C119.087 139.423 119.244 139.391 119.4 139.4H119.5Z" fill="#F0BEB4"/>
<path d="M121.5 115.799C122.069 117.153 122.504 118.56 122.8 119.999C123.07 121.452 123.237 122.922 123.3 124.399C123.299 125.838 123.199 127.274 123 128.699C122.806 130.153 122.505 131.59 122.1 132.999C122.011 133.204 121.849 133.369 121.646 133.461C121.443 133.553 121.212 133.567 121 133.499C120.816 133.434 120.657 133.312 120.549 133.149C120.441 132.987 120.389 132.794 120.4 132.599C120.6 131.199 120.8 129.899 120.9 128.499C121.033 127.137 121.066 125.766 121 124.399C120.999 123.06 120.899 121.723 120.7 120.399C120.5 118.999 120.2 117.699 120 116.299C119.968 116.111 120.004 115.917 120.102 115.754C120.201 115.59 120.354 115.467 120.535 115.406C120.716 115.346 120.913 115.352 121.09 115.424C121.267 115.496 121.412 115.629 121.5 115.799Z" fill="#F0BEB4"/>
<path d="M158.8 159.3C158.203 157.511 157.398 155.8 156.4 154.2C155.924 153.427 155.389 152.691 154.8 152L152.8 150C152.711 149.909 152.654 149.792 152.636 149.666C152.618 149.54 152.64 149.412 152.7 149.3C152.762 149.23 152.839 149.175 152.926 149.141C153.013 149.106 153.107 149.092 153.2 149.1C154.266 149.379 155.267 149.867 156.142 150.537C157.018 151.206 157.751 152.044 158.3 153C159.548 154.847 160.048 157.098 159.7 159.3C159.7 159.5 159.4 159.7 159.2 159.7L158.8 159.4V159.3Z" fill="#F0BEB4"/>
<path d="M100.3 150C99.7517 151.792 99.3832 153.634 99.2002 155.5C99.1002 156.43 99.1002 157.369 99.2002 158.3C99.3002 159.2 99.4002 160.1 99.6002 161.1C99.6147 161.165 99.6158 161.233 99.6034 161.3C99.591 161.366 99.5653 161.429 99.528 161.485C99.4906 161.541 99.4423 161.589 99.386 161.626C99.3297 161.663 99.2665 161.688 99.2002 161.7L98.7002 161.5C97.3081 159.75 96.6614 157.523 96.9002 155.3C97.0595 153.101 98.0202 151.037 99.6002 149.5C99.7002 149.3 100 149.3 100.2 149.5C100.4 149.7 100.4 149.8 100.4 150H100.3Z" fill="#F0BEB4"/>
<defs>
<linearGradient id="paint0_linear" x1="131.119" y1="166.929" x2="131.119" y2="227.829" gradientUnits="userSpaceOnUse">
<stop stop-color="#EBBEAE"/>
<stop offset="0.64" stop-color="#FFE2D9"/>
</linearGradient>
<linearGradient id="paint1_linear" x1="63.57" y1="126.509" x2="91.11" y2="126.509" gradientUnits="userSpaceOnUse">
<stop stop-color="#FFE2D9"/>
<stop offset="1" stop-color="#EBBEAE"/>
</linearGradient>
<linearGradient id="paint2_linear" x1="165.5" y1="126.509" x2="193.04" y2="126.509" gradientUnits="userSpaceOnUse">
<stop stop-color="#EBBEAE"/>
<stop offset="1" stop-color="#FFE2D9"/>
</linearGradient>
</defs>
</svg>
