<svg width="256" height="257" viewBox="0 0 256 257" fill="none" xmlns="http://www.w3.org/2000/svg">
<g clip-path="url(#clip0)">
<path d="M0 0.900391H256V256.9H0V0.900391Z" fill="white" fill-opacity="0.01"/>
<path d="M128 256.9C198.692 256.9 256 199.593 256 128.9C256 58.2079 198.692 0.900391 128 0.900391C57.3075 0.900391 0 58.2079 0 128.9C0 199.593 57.3075 256.9 128 256.9Z" fill="#FF5630"/>
<path d="M219.3 218.602C208.9 212.802 178.2 195.802 177.4 195.702L130.3 193.602L83.0998 195.702C82.2998 195.802 43.2998 217.402 38.2998 220.202C62.5152 243.989 95.1878 257.184 129.131 256.884C163.075 256.584 195.509 242.814 219.3 218.602Z" fill="#DE350B"/>
<path d="M165.2 161.9C165 165.9 164.8 185.7 166.8 193.7C167.6 196.9 171.3 198.1 174.4 200.1C174.712 200.967 174.881 201.879 174.9 202.8C174.9 208.7 155 220.8 130.7 221.4C104.2 222.1 82.0999 208.9 81.8999 202.8C81.9191 201.879 82.088 200.967 82.3999 200.1C85.4999 198.1 89.2999 196.9 90.0999 193.7C91.9999 185.7 91.7999 165.9 91.6999 161.9H165.2Z" fill="#DDB28D"/>
<path d="M194.3 113.601C194.5 119.901 183.9 133.401 177.6 133.601C171.3 133.801 171.6 120.701 171.3 114.401C171.194 111.351 172.304 108.384 174.385 106.152C176.467 103.921 179.35 102.607 182.4 102.501C185.45 102.395 188.417 103.505 190.649 105.587C192.88 107.668 194.194 110.551 194.3 113.601Z" fill="#ECC19C"/>
<path d="M64.0998 113.601C63.7998 119.901 74.3998 133.401 80.6998 133.601C86.9998 133.801 86.7998 120.701 86.9998 114.401C87.1929 112.819 87.0549 111.214 86.5947 109.688C86.1345 108.161 85.3621 106.748 84.3265 105.536C83.2908 104.324 82.0146 103.341 80.5788 102.649C79.143 101.957 77.579 101.57 75.986 101.515C74.393 101.459 72.8058 101.735 71.3252 102.326C69.8446 102.916 68.5029 103.808 67.3852 104.944C66.2676 106.081 65.3983 107.437 64.8328 108.927C64.2672 110.418 64.0176 112.009 64.0998 113.601Z" fill="#ECC19C"/>
<path d="M128.9 100.601C152.758 100.601 172.1 81.2599 172.1 57.4012C172.1 33.5425 152.758 14.2012 128.9 14.2012C105.041 14.2012 85.6997 33.5425 85.6997 57.4012C85.6997 81.2599 105.041 100.601 128.9 100.601Z" fill="#FF8F73"/>
<path d="M178.2 137.9C180 129.3 182.1 118.9 185 106.2C193.6 68.0002 187.4 25.2002 129.4 27.0002C71.2997 25.2002 65.0997 68.0002 73.6997 106.2C76.3997 118 78.3997 127.8 80.0997 136" fill="url(#paint0_linear)"/>
<path d="M128.2 186.2C164.2 186.9 177.5 143.5 177.9 137.6C178.1 133.9 178.1 129.5 178.1 129.5C178.1 125.3 177.9 122.2 177.9 121.3C177.1 107.2 185.9 95.9003 181.3 87.8003C179.791 85.2205 178.519 82.5094 177.5 79.7003C176.935 78.2758 176.499 76.8032 176.2 75.3003C175.729 73.3974 175.427 71.4564 175.3 69.5003C168.528 68.6951 161.692 68.5946 154.9 69.2003C128.5 71.8003 116.5 85.0003 99.8997 80.0003C96.2997 79.0003 90.7997 76.5003 84.9997 70.1003C83.205 72.1941 81.6922 74.5138 80.4997 77.0003C78.8728 80.4028 77.8251 84.0529 77.3997 87.8003C76.5624 94.5122 76.9349 101.32 78.4997 107.9C78.4997 108.2 78.5997 108.3 78.5997 108.6C81.4997 120.2 80.3997 135.6 80.3997 135.6C80.3997 147.5 94.6997 185.6 128.2 186.2Z" fill="#ECC19C"/>
<path d="M145.8 153.802C140.5 152.602 137.1 151.002 133.1 151.902L132.3 152.102C130.172 152.9 127.827 152.9 125.7 152.102L124.9 151.902C121.1 151.102 117.7 152.402 112.4 153.702L107.3 154.802C107.7 155.402 115.4 165.702 129 165.602C142.6 165.502 150.3 155.402 150.7 154.802C149.048 154.569 147.411 154.235 145.8 153.802Z" fill="#B5917C"/>
<path d="M105.2 152.901C108.963 154.555 112.882 155.828 116.9 156.701C124.888 158.367 133.14 158.299 141.1 156.501C143.105 156.12 145.077 155.586 147 154.901C148.971 154.272 150.907 153.537 152.8 152.701C152.865 152.668 152.936 152.651 153.008 152.649C153.08 152.647 153.152 152.66 153.219 152.689C153.286 152.717 153.345 152.76 153.394 152.814C153.442 152.868 153.478 152.931 153.5 153.001C153.558 153.05 153.601 153.116 153.623 153.189C153.645 153.263 153.646 153.341 153.625 153.415C153.604 153.489 153.562 153.555 153.504 153.606C153.447 153.656 153.376 153.689 153.3 153.701C149.649 155.851 145.709 157.467 141.6 158.501C137.479 159.536 133.249 160.073 129 160.101C126.893 160.117 124.787 159.983 122.7 159.701C120.577 159.48 118.472 159.112 116.4 158.601C112.333 157.531 108.406 155.987 104.7 154.001C104.624 153.972 104.555 153.926 104.501 153.865C104.447 153.805 104.409 153.732 104.389 153.653C104.369 153.575 104.369 153.492 104.388 153.413C104.408 153.334 104.446 153.261 104.5 153.201C104.521 153.131 104.557 153.068 104.606 153.014C104.654 152.96 104.714 152.917 104.78 152.889C104.847 152.86 104.919 152.847 104.991 152.849C105.064 152.851 105.135 152.868 105.2 152.901Z" fill="#172B4D"/>
<path d="M124.4 104.5C125.953 107.736 126.642 111.319 126.4 114.9C126.337 116.692 126.069 118.47 125.6 120.2C125.132 121.893 124.496 123.535 123.7 125.1C123.577 125.295 123.39 125.441 123.171 125.514C122.952 125.587 122.715 125.582 122.5 125.5C122.336 125.373 122.212 125.202 122.141 125.008C122.071 124.813 122.056 124.602 122.1 124.4C123.293 121.328 124.002 118.09 124.2 114.8C124.281 113.164 124.214 111.524 124 109.9C123.776 108.271 123.408 106.664 122.9 105.1C122.87 104.995 122.862 104.885 122.877 104.776C122.891 104.668 122.927 104.564 122.984 104.47C123.04 104.377 123.115 104.295 123.203 104.232C123.292 104.168 123.393 104.123 123.5 104.1C123.673 104.057 123.856 104.073 124.019 104.145C124.182 104.218 124.316 104.343 124.4 104.5Z" fill="#CEA28B"/>
<path d="M115.9 100.2L114.6 99.5L113.2 98.8L110.2 97.7C108.155 97.0511 106.04 96.6483 103.9 96.5C101.73 96.3007 99.5426 96.4016 97.4001 96.8C95.234 97.2372 93.1217 97.9078 91.1 98.8C90.8609 98.902 90.5914 98.9069 90.3487 98.8135C90.106 98.7202 89.9092 98.536 89.8001 98.3C89.7082 98.0953 89.6878 97.8657 89.7423 97.6481C89.7967 97.4304 89.9227 97.2374 90.1 97.1C92.0476 95.5656 94.247 94.3813 96.6 93.6C99.035 92.8785 101.56 92.5081 104.1 92.5C106.614 92.5082 109.112 92.9132 111.5 93.7C112.708 94.0965 113.88 94.5984 115 95.2L116.6 96.2L118.2 97.5C118.524 97.8355 118.705 98.2837 118.705 98.75C118.705 99.2163 118.524 99.6645 118.2 100C117.936 100.281 117.584 100.463 117.203 100.518C116.821 100.572 116.432 100.495 116.1 100.3L115.9 100.2Z" fill="#172B4D"/>
<path d="M141.2 97.5009L142.9 96.2009C143.43 95.8095 144 95.4744 144.6 95.2009C145.743 94.548 146.949 94.012 148.2 93.6009C150.669 92.8793 153.228 92.509 155.8 92.5009C158.391 92.4771 160.965 92.9174 163.4 93.8009C165.811 94.6119 168.05 95.8668 170 97.5009C170.197 97.6744 170.318 97.9185 170.337 98.1804C170.356 98.4424 170.27 98.7012 170.1 98.9009C169.963 99.0783 169.77 99.2043 169.552 99.2587C169.334 99.3131 169.105 99.2928 168.9 99.2009C166.865 98.1833 164.717 97.4112 162.5 96.9009C160.328 96.4687 158.108 96.3342 155.9 96.5009C153.698 96.6149 151.517 96.9841 149.4 97.6009C148.329 97.8962 147.291 98.2982 146.3 98.8009L144.9 99.5009L143.6 100.201H143.3C142.899 100.427 142.427 100.49 141.981 100.379C141.534 100.267 141.148 99.9887 140.9 99.6009C140.748 99.258 140.696 98.8792 140.749 98.5079C140.802 98.1365 140.958 97.7876 141.2 97.5009Z" fill="#172B4D"/>
<path d="M91.6 106.201C94.6497 104.042 98.2656 102.825 102 102.701C105.788 102.594 109.52 103.64 112.7 105.701C112.799 105.76 112.884 105.841 112.949 105.937C113.014 106.032 113.058 106.141 113.077 106.255C113.096 106.369 113.09 106.486 113.059 106.597C113.029 106.709 112.974 106.812 112.9 106.901C112.849 107.008 112.776 107.102 112.684 107.177C112.593 107.252 112.486 107.306 112.371 107.335C112.256 107.363 112.136 107.366 112.02 107.343C111.904 107.32 111.795 107.271 111.7 107.201C110.196 106.423 108.622 105.787 107 105.301C105.358 104.914 103.685 104.68 102 104.601C100.311 104.63 98.6321 104.865 97 105.301C95.3394 105.769 93.731 106.406 92.2 107.201C92.1392 107.255 92.0662 107.293 91.9874 107.312C91.9085 107.331 91.8261 107.331 91.7473 107.312C91.6686 107.292 91.5958 107.253 91.5353 107.199C91.4748 107.145 91.4283 107.077 91.4 107.001C91.3462 106.94 91.308 106.867 91.2887 106.788C91.2694 106.709 91.2697 106.627 91.2893 106.548C91.309 106.469 91.3476 106.397 91.4017 106.336C91.4559 106.276 91.5239 106.229 91.6 106.201Z" fill="#172B4D"/>
<path d="M166.8 107.201C165.269 106.405 163.661 105.769 162 105.301C160.368 104.865 158.689 104.63 157 104.601C153.602 104.658 150.271 105.551 147.3 107.201C147.203 107.296 147.085 107.369 146.956 107.412C146.827 107.456 146.69 107.47 146.555 107.453C146.42 107.435 146.29 107.388 146.176 107.313C146.062 107.239 145.966 107.14 145.896 107.023C145.826 106.906 145.784 106.775 145.772 106.639C145.76 106.503 145.779 106.367 145.827 106.239C145.876 106.112 145.952 105.997 146.052 105.904C146.151 105.811 146.27 105.741 146.4 105.701C149.539 103.63 153.242 102.581 157 102.701C160.766 102.823 164.414 104.039 167.5 106.201C167.621 106.314 167.697 106.467 167.715 106.632C167.733 106.797 167.693 106.963 167.6 107.101C167.503 107.214 167.367 107.286 167.219 107.305C167.071 107.323 166.922 107.286 166.8 107.201Z" fill="#172B4D"/>
<path d="M155.9 109.9C157.668 109.9 159.1 108.467 159.1 106.7C159.1 104.933 157.668 103.5 155.9 103.5C154.133 103.5 152.7 104.933 152.7 106.7C152.7 108.467 154.133 109.9 155.9 109.9Z" fill="#172B4D"/>
<path d="M102.6 109.9C104.367 109.9 105.8 108.467 105.8 106.7C105.8 104.933 104.367 103.5 102.6 103.5C100.833 103.5 99.3999 104.933 99.3999 106.7C99.3999 108.467 100.833 109.9 102.6 109.9Z" fill="#172B4D"/>
<path d="M118 137.601C119.74 136.551 121.787 136.127 123.8 136.401L125.3 136.901L126.4 137.301C127.077 137.52 127.794 137.588 128.5 137.501L130.8 136.601C131.693 136.228 132.637 135.992 133.6 135.901C135.564 135.751 137.533 136.131 139.3 137.001C139.389 137.043 139.469 137.103 139.533 137.178C139.598 137.252 139.646 137.34 139.674 137.434C139.702 137.528 139.71 137.628 139.698 137.726C139.685 137.823 139.652 137.917 139.6 138.001C139.516 138.159 139.382 138.284 139.219 138.356C139.056 138.429 138.873 138.444 138.7 138.401C137.166 137.841 135.517 137.669 133.9 137.901C133.108 138.042 132.336 138.277 131.6 138.601C130.73 139.038 129.828 139.406 128.9 139.701C127.832 139.883 126.737 139.815 125.7 139.501L124.4 138.901L123.4 138.501C121.825 138.237 120.208 138.375 118.7 138.901C118.61 138.95 118.51 138.979 118.407 138.985C118.304 138.991 118.202 138.974 118.106 138.936C118.011 138.898 117.925 138.839 117.855 138.764C117.785 138.689 117.732 138.599 117.7 138.501C117.661 138.338 117.669 138.168 117.722 138.008C117.775 137.849 117.871 137.708 118 137.601Z" fill="#CEA28B"/>
</g>
<defs>
<linearGradient id="paint0_linear" x1="129.36" y1="136.3" x2="129.36" y2="27.5902" gradientUnits="userSpaceOnUse">
<stop stop-color="#253858"/>
<stop offset="1" stop-color="#42526E"/>
</linearGradient>
<clipPath id="clip0">
<path d="M0 0.900391H256V256.9H0V0.900391Z" fill="white"/>
</clipPath>
</defs>
</svg>
