<svg width="256" height="257" viewBox="0 0 256 257" fill="none" xmlns="http://www.w3.org/2000/svg">
<g clip-path="url(#clip0)">
<path d="M0 0.900391H256V256.9H0V0.900391Z" fill="white" fill-opacity="0.01"/>
<path d="M128 0.900405C100.869 0.887575 74.4365 9.49562 52.5162 25.4821C30.596 41.4686 14.3222 64.0067 6.0438 89.8434C-2.23462 115.68 -2.08951 143.479 6.45818 169.228C15.0059 194.977 31.514 217.344 53.6 233.1L54.7 232.2L90.2 208.8C90.8359 208.407 91.555 208.167 92.3 208.1L131.3 206.1L170.3 208.1C171.045 208.167 171.764 208.407 172.4 208.8L205.6 230.7C226.899 214.466 242.569 191.96 250.405 166.351C258.241 140.743 257.847 113.322 249.279 87.9486C240.711 62.5757 224.4 40.5292 202.644 24.9134C180.887 9.29756 154.781 0.899057 128 0.900405Z" fill="#6554C0"/>
<path d="M191.5 213.8C198.546 212.04 204.637 207.621 208.496 201.469C212.356 195.316 213.683 187.909 212.2 180.8C205.4 147.3 201.1 120.4 198.4 100.7C195.7 80.9996 193.4 62.7996 180.1 47.3996C169.7 35.2996 152.1 24.5996 131.3 24.7996C110.5 24.9996 92.9001 35.2996 82.5001 47.3996C69.2001 62.7996 67.2001 79.4996 64.2001 100.7C61.2001 121.9 57.2001 147.3 50.4001 180.8C48.9173 187.909 50.2447 195.316 54.1038 201.469C57.9629 207.621 64.0541 212.04 71.1001 213.8C84.6001 217.1 104.1 220 131.3 220C158.5 220 178 217.1 191.5 213.8Z" fill="#253858"/>
<path d="M170.3 208.1L131.3 206.1L92.3001 208.1C91.5551 208.166 90.836 208.406 90.2001 208.8L54.7001 232.2L53.6001 233.1C75.8723 248.981 102.643 257.316 129.995 256.884C157.346 256.452 183.84 247.276 205.6 230.7L172.4 208.8C171.764 208.406 171.045 208.166 170.3 208.1Z" fill="#998DD9"/>
<path d="M168 209.801C167.1 211.001 152.2 230.901 127.5 228.901C107.6 227.401 96.3001 212.701 94.6001 210.401C99.6097 206.704 103.152 201.356 104.6 195.301C107.5 182.601 99.5001 172.901 98.6001 171.801H161C160.5 172.401 151.4 185.101 157.2 198.201C159.471 203.12 163.255 207.185 168 209.801Z" fill="url(#paint0_linear)"/>
<path d="M196.7 117C196.9 123.4 186.3 136.8 180 137C173.7 137.2 173.9 124.2 173.7 117.8C173.594 114.75 174.704 111.782 176.785 109.551C178.867 107.319 181.75 106.006 184.8 105.9C187.85 105.793 190.817 106.903 193.049 108.985C195.28 111.067 196.594 113.95 196.7 117Z" fill="#9B7663"/>
<path d="M66.3998 117C66.1998 123.4 76.7998 136.8 83.0998 137C89.3998 137.2 89.1998 124.2 89.3998 117.8C89.5058 114.75 88.396 111.782 86.3143 109.551C84.2327 107.319 81.3498 106.006 78.2998 105.9C75.2498 105.793 72.2826 106.903 70.0509 108.985C67.8192 111.067 66.5058 113.95 66.3998 117Z" fill="#9B7663"/>
<path d="M83.8999 97.6988C83.8999 103.999 83.6999 110.099 83.3999 115.899C83.0999 121.699 83.0999 120.799 82.7999 126.299C81.9999 141.699 82.7999 145.699 79.4999 149.499C76.1999 153.299 73.9999 153.599 72.6999 152.699C71.3999 151.799 73.3999 148.199 74.0999 142.699C76.0999 129.199 71.5999 115.599 71.1999 114.499C70.2999 111.699 69.0999 108.999 69.2999 105.099C69.4999 101.199 69.6999 97.3988 73.3999 95.3988C77.0999 93.3988 80.5999 94.7988 83.8999 97.6988Z" fill="#253858"/>
<path d="M177.9 101.3C177.9 111.6 178.3 121.1 179 129.9C179.4 134.4 180.2 144.6 185.9 153.1C186.5 154 188.3 156.7 189.1 156.4C189.9 156.1 188.4 151.6 187.7 146.4C185.7 132.9 190.2 119.3 190.6 118.1C191 116.9 192.7 112.7 192.5 108.7C192.4 106.3 192.2 101 188.4 99.0004C184.6 97.0004 181.2 98.4004 177.9 101.3Z" fill="#253858"/>
<path d="M187.2 120.2C176.5 161.2 162.2 189.7 131.5 189.7C100.8 189.7 83.7997 156.1 75.7997 120.2C67.3997 82.6996 100.7 50.5996 131.5 50.5996C162.3 50.5996 196.9 82.9996 187.2 120.2Z" fill="#9B7663"/>
<path d="M172.3 106.4C169.79 104.692 167.149 103.187 164.4 101.9C161.592 100.822 158.607 100.28 155.6 100.3C152.617 100.302 149.663 100.879 146.9 102C144.124 103.166 141.583 104.827 139.4 106.9C139.191 107.049 138.937 107.121 138.682 107.102C138.426 107.084 138.185 106.977 138 106.8C137.912 106.716 137.842 106.615 137.794 106.503C137.747 106.392 137.722 106.271 137.722 106.15C137.722 106.029 137.747 105.908 137.794 105.797C137.842 105.685 137.912 105.584 138 105.5C140.247 103.096 142.972 101.189 146 99.9C149.051 98.667 152.309 98.0224 155.6 98C158.87 98.0069 162.104 98.6877 165.1 100C168.189 101.173 170.842 103.268 172.7 106C172.8 106.1 172.7 106.3 172.6 106.4H172.3Z" fill="#0C1F41"/>
<path d="M105.1 114.3C106.812 114.3 108.2 112.912 108.2 111.2C108.2 109.488 106.812 108.1 105.1 108.1C103.387 108.1 102 109.488 102 111.2C102 112.912 103.387 114.3 105.1 114.3Z" fill="#0C1F41"/>
<path d="M154.899 114.3C156.611 114.3 157.999 112.912 157.999 111.2C157.999 109.488 156.611 108.1 154.899 108.1C153.187 108.1 151.799 109.488 151.799 111.2C151.799 112.912 153.187 114.3 154.899 114.3Z" fill="#0C1F41"/>
<path d="M91.5996 111.001C91.9855 111.202 92.4143 111.308 92.8496 111.308C93.2849 111.308 93.7138 111.202 94.0996 111.001L94.4996 110.701C94.5527 110.701 94.6035 110.68 94.641 110.642C94.6786 110.605 94.6996 110.554 94.6996 110.501L94.9996 110.301C95.3834 109.85 95.8199 109.447 96.2996 109.101C98.1643 107.645 100.365 106.682 102.7 106.301C105.037 105.866 107.447 106.038 109.7 106.801C111.914 107.525 113.91 108.798 115.5 110.501C115.644 110.693 115.714 110.932 115.697 111.172C115.68 111.412 115.577 111.638 115.407 111.808C115.237 111.978 115.011 112.081 114.771 112.098C114.53 112.115 114.292 112.045 114.1 111.901C112.617 110.594 110.881 109.607 109 109.001C107.098 108.373 105.069 108.236 103.1 108.601C101.101 108.822 99.1998 109.583 97.5996 110.801L96.3996 111.701L96.0996 112.001L95.6996 112.301L94.6996 112.801C94.0451 113.023 93.3328 113.004 92.6911 112.747C92.0494 112.49 91.5205 112.013 91.1996 111.401C91.0996 111.301 91.1996 111.101 91.2996 111.001H91.5996Z" fill="#0C1F41"/>
<path d="M168.8 111.899C168.479 112.511 167.95 112.989 167.308 113.245C166.667 113.502 165.954 113.521 165.3 113.299L164.3 112.799L163.9 112.499L163.6 112.199L162.4 111.299C160.783 110.178 158.939 109.427 157 109.099C155.028 108.781 153.01 108.918 151.1 109.499C149.188 110.103 147.419 111.09 145.9 112.399C145.691 112.548 145.437 112.62 145.182 112.601C144.926 112.583 144.685 112.476 144.5 112.299C144.316 112.112 144.214 111.861 144.214 111.599C144.214 111.337 144.316 111.086 144.5 110.899C146.129 109.208 148.147 107.942 150.378 107.21C152.609 106.478 154.985 106.302 157.3 106.699C159.644 107.045 161.854 108.012 163.7 109.499C164.179 109.846 164.616 110.248 165 110.699L165.3 110.899C165.4 110.999 165.4 111.099 165.5 111.099C165.6 111.099 165.8 111.299 166 111.399C166.38 111.618 166.811 111.734 167.25 111.734C167.689 111.734 168.12 111.618 168.5 111.399C168.6 111.399 168.8 111.399 168.8 111.599C168.8 111.799 168.9 111.899 168.8 111.899Z" fill="#0C1F41"/>
<path d="M86.6995 106C88.5212 103.275 91.1408 101.179 94.1995 100C97.2303 98.6879 100.497 98.0074 103.8 98C107.091 98.0224 110.348 98.667 113.4 99.9C116.427 101.189 119.152 103.096 121.4 105.5C121.583 105.687 121.685 105.938 121.685 106.2C121.685 106.462 121.583 106.713 121.4 106.9C121.196 107.047 120.951 107.125 120.7 107.125C120.448 107.125 120.204 107.047 120 106.9C117.816 104.827 115.275 103.166 112.5 102C109.736 100.879 106.782 100.302 103.8 100.3C100.792 100.28 97.8073 100.822 94.9995 101.9C92.2294 103.208 89.5559 104.712 86.9995 106.4H86.6995C86.6465 106.4 86.5956 106.379 86.5581 106.341C86.5206 106.304 86.4995 106.253 86.4995 106.2C86.4995 106.147 86.5206 106.096 86.5581 106.059C86.5956 106.021 86.6465 106 86.6995 106Z" fill="#0C1F41"/>
<path d="M147.1 156.9C141.91 159.67 136.079 161.015 130.2 160.8C119.6 160.4 108.9 154.6 108.9 154.6L114.6 151.9C116.177 151.211 117.902 150.932 119.616 151.09C121.329 151.247 122.975 151.835 124.4 152.8L125.5 153.4C126.768 154.152 128.212 154.558 129.687 154.575C131.161 154.593 132.614 154.222 133.9 153.5C135.169 152.797 136.608 152.463 138.057 152.534C139.505 152.604 140.905 153.077 142.1 153.9L147.1 156.9Z" fill="#72594B"/>
<path d="M101.6 154.9C101.086 153.529 101.11 152.015 101.667 150.661C102.223 149.307 103.271 148.213 104.6 147.6C104.693 147.565 104.796 147.566 104.889 147.603C104.981 147.64 105.056 147.71 105.1 147.8C105.149 147.855 105.176 147.926 105.176 148C105.176 148.073 105.149 148.145 105.1 148.2C104.508 149.202 103.974 150.237 103.5 151.3C103.161 152.409 102.927 153.547 102.8 154.7C102.7 155 102.4 155.3 102.1 155.2C101.905 155.158 101.729 155.052 101.6 154.9Z" fill="#72594B"/>
<path d="M147.1 156.9C147.1 156.9 143.6 168.9 131.2 168.9C117 168.9 108.9 154.6 108.9 154.6C114.2 157.4 122 160.5 130.2 160.8C136.083 161.065 141.927 159.716 147.1 156.9Z" fill="#B19177"/>
<path d="M107.4 153.5C110.604 155.162 113.995 156.438 117.5 157.3L122.8 158.3L128.2 158.8C131.81 158.9 135.423 158.699 139 158.2C142.601 157.735 146.15 156.932 149.6 155.8C149.8 155.8 150 155.9 150 156.1C150 156.3 150 156.4 149.8 156.5C146.482 158.157 142.947 159.335 139.3 160C135.608 160.681 131.848 160.916 128.1 160.7C124.37 160.515 120.676 159.877 117.1 158.8C113.496 157.757 110.085 156.136 107 154C106.951 153.945 106.923 153.874 106.923 153.8C106.923 153.727 106.951 153.655 107 153.6C107.1 153.5 107.2 153.4 107.4 153.5Z" fill="#543E36"/>
<path d="M83.4997 87.9992C85.3997 90.7992 83.2997 93.8992 80.7997 103.399C79.5086 108.355 78.6058 113.403 78.0997 118.499C77.2997 129.799 80.5997 136.499 79.5997 136.899C78.5997 137.299 70.3997 125.499 68.6997 110.299C68.4997 107.899 66.3997 88.7992 74.0997 85.3992C75.747 84.8439 77.5229 84.7948 79.1983 85.2582C80.8738 85.7216 82.372 86.6763 83.4997 87.9992Z" fill="#253858"/>
<path d="M179.5 86.6004C177.6 89.4004 179.7 92.5004 182.1 102C183.44 106.945 184.344 111.998 184.8 117.1C185.6 128.4 182.3 135.1 183.4 135.5C184.5 135.9 192.5 124.1 194.2 108.9C194.4 106.5 196.6 87.4004 188.8 84.0004C185.7 82.7004 181.2 84.1004 179.5 86.6004Z" fill="#253858"/>
<path d="M191.1 93.5012C191.1 77.6412 184.8 62.4309 173.585 51.2162C162.37 40.0015 147.16 33.7012 131.3 33.7012C115.44 33.7012 100.23 40.0015 89.015 51.2162C77.8003 62.4309 71.5 77.6412 71.5 93.5012H191.1Z" fill="#253858"/>
<path d="M123.8 136.001L127.3 136.901L129.1 137.401L130.6 137.701C131.715 137.761 132.832 137.625 133.9 137.301L137.2 136.201C137.373 136.136 137.564 136.141 137.732 136.216C137.901 136.291 138.033 136.429 138.1 136.601C138.146 136.749 138.141 136.908 138.086 137.052C138.032 137.197 137.932 137.32 137.8 137.401C136.748 138.093 135.604 138.631 134.4 139.001C133.162 139.5 131.835 139.739 130.5 139.701L128.5 139.301L126.8 138.701L123.4 137.301C123.246 137.216 123.13 137.076 123.074 136.91C123.019 136.743 123.028 136.561 123.1 136.401C123.161 136.27 123.262 136.162 123.387 136.09C123.512 136.019 123.657 135.988 123.8 136.001Z" fill="#72594B"/>
<path d="M125.9 112.399C126.405 113.733 126.806 115.104 127.1 116.499C127.365 117.953 127.533 119.423 127.6 120.899C127.651 123.811 127.247 126.713 126.4 129.499C126.382 129.594 126.341 129.684 126.281 129.759C126.221 129.835 126.143 129.895 126.055 129.935C125.966 129.974 125.87 129.991 125.773 129.985C125.677 129.979 125.583 129.95 125.5 129.899C125.324 129.854 125.169 129.75 125.06 129.605C124.951 129.459 124.894 129.281 124.9 129.099C125.205 127.75 125.406 126.379 125.5 124.999C125.6 123.699 125.6 122.299 125.6 120.899C125.6 119.499 125.4 118.199 125.2 116.799C125 115.399 124.8 114.099 124.5 112.799C124.47 112.708 124.459 112.61 124.468 112.514C124.477 112.418 124.506 112.324 124.553 112.24C124.6 112.155 124.664 112.081 124.741 112.023C124.818 111.964 124.906 111.922 125 111.899C125.185 111.864 125.377 111.894 125.541 111.985C125.706 112.077 125.833 112.224 125.9 112.399Z" fill="#72594B"/>
</g>
<defs>
<linearGradient id="paint0_linear" x1="131.3" y1="100.551" x2="131.3" y2="227.901" gradientUnits="userSpaceOnUse">
<stop stop-color="#614A3E"/>
<stop offset="0.31" stop-color="#644C40"/>
<stop offset="0.55" stop-color="#6E5446"/>
<stop offset="0.76" stop-color="#7E6051"/>
<stop offset="0.96" stop-color="#95715F"/>
<stop offset="1" stop-color="#9B7663"/>
</linearGradient>
<clipPath id="clip0">
<path d="M0 0.900391H256V256.9H0V0.900391Z" fill="white"/>
</clipPath>
</defs>
</svg>
