<svg width="256" height="257" viewBox="0 0 256 257" fill="none" xmlns="http://www.w3.org/2000/svg">
<g clip-path="url(#clip0)">
<path d="M0 0.900391H256V256.9H0V0.900391Z" fill="white" fill-opacity="0.01"/>
<path d="M128 256.9C198.692 256.9 256 199.593 256 128.9C256 58.2079 198.692 0.900391 128 0.900391C57.3075 0.900391 0 58.2079 0 128.9C0 199.593 57.3075 256.9 128 256.9Z" fill="#FF5630"/>
<path d="M81.3254 142.131C88.3928 140.342 92.3099 131.731 90.0745 122.897C87.8391 114.062 80.2977 108.351 73.2303 110.139C66.1629 111.927 62.2458 120.539 64.4812 129.373C66.7166 138.207 74.258 143.919 81.3254 142.131Z" fill="#F7D0C3"/>
<path d="M196.506 129.486C198.742 120.652 194.824 112.041 187.757 110.252C180.69 108.464 173.148 114.176 170.913 123.01C168.677 131.844 172.595 140.456 179.662 142.244C186.729 144.032 194.271 138.32 196.506 129.486Z" fill="#F7D0C3"/>
<path d="M211.5 225.9L194.1 216.1C188.189 212.845 181.634 210.933 174.9 210.5C159.4 209.4 132.4 207.9 132.4 207.9C132.4 207.9 105.4 209.4 89.9 210.5C83.2004 210.948 76.6804 212.859 70.8 216.1L48 228.8C71.3032 247.484 100.41 257.423 130.274 256.893C160.138 256.363 188.874 245.399 211.5 225.9Z" fill="#BF2600"/>
<path d="M179.4 217.4C176.4 220.4 156.9 239 127.6 237.1C111.773 235.975 96.8574 229.279 85.5 218.2C90.6281 213.039 94.3169 206.627 96.2 199.6C98.552 190.36 97.7061 180.597 93.8 171.9L168.9 170.1C167.7 172.4 161.5 185.8 167 200.7C169.431 207.348 173.739 213.149 179.4 217.4Z" fill="url(#paint0_linear)"/>
<path d="M130.9 42C158.6 42.2 175.5 60.9 178.1 63.9C195.6 84.1 193.8 108.2 193.4 113.3C192.4 125.7 187.4 135.6 177.7 155.6C173.311 164.804 168.403 173.752 163 182.4C161.489 184.864 159.302 186.842 156.7 188.1C148.698 192.218 139.893 194.539 130.9 194.9C121.874 194.55 113.034 192.229 105 188.1C102.444 186.813 100.297 184.839 98.8002 182.4C93.3601 173.756 88.4187 164.808 84.0002 155.6C74.4002 135.6 69.3002 125.7 68.4002 113.3C68.0002 108.2 66.1002 84.1 83.7002 63.9C86.3002 60.9 103.2 42.2 130.9 42Z" fill="#FFE2D9"/>
<path d="M109.7 105.4C107.702 104.88 105.66 104.545 103.6 104.4C101.597 104.2 99.5743 104.301 97.6005 104.7C95.5712 105.119 93.593 105.756 91.7005 106.6C89.7166 107.548 87.8107 108.651 86.0005 109.9C85.851 110.015 85.6796 110.099 85.4968 110.147C85.3139 110.195 85.1233 110.205 84.9364 110.177C84.7495 110.149 84.5703 110.083 84.4094 109.984C84.2486 109.885 84.1095 109.754 84.0005 109.6C83.8139 109.356 83.7129 109.057 83.7129 108.75C83.7129 108.442 83.8139 108.144 84.0005 107.9C85.4239 105.792 87.22 103.962 89.3005 102.5C90.35 101.753 91.453 101.085 92.6005 100.5C93.7387 99.8875 94.9477 99.4174 96.2005 99.0997C98.7838 98.2859 101.507 98.0136 104.2 98.2997C106.838 98.512 109.397 99.2969 111.7 100.6C112.282 100.971 112.7 101.551 112.867 102.221C113.034 102.89 112.939 103.598 112.6 104.2C112.331 104.68 111.911 105.058 111.404 105.275C110.898 105.492 110.334 105.536 109.8 105.4H109.7Z" fill="#344563"/>
<path d="M144.1 101.201C147.751 99.033 151.96 97.9896 156.2 98.2005L158.3 98.5005L160.4 98.9005C163.09 99.5562 165.634 100.709 167.9 102.301C170.182 103.769 172.153 105.672 173.7 107.901C173.816 108.05 173.9 108.221 173.948 108.404C173.995 108.587 174.005 108.778 173.977 108.965C173.949 109.151 173.884 109.331 173.784 109.492C173.685 109.652 173.555 109.792 173.4 109.901C173.156 110.087 172.857 110.188 172.55 110.188C172.243 110.188 171.944 110.087 171.7 109.901C169.791 108.558 167.746 107.419 165.6 106.501C164.568 106.013 163.498 105.612 162.4 105.301C161.357 104.972 160.286 104.738 159.2 104.601C157.049 104.267 154.861 104.234 152.7 104.501C150.534 104.751 148.393 105.186 146.3 105.801H146.2C145.598 105.973 144.955 105.922 144.387 105.657C143.82 105.393 143.367 104.933 143.112 104.361C142.857 103.79 142.816 103.145 142.998 102.546C143.179 101.947 143.571 101.434 144.1 101.101V101.201Z" fill="#344563"/>
<path d="M90.7006 113.001C93.7503 110.842 97.3662 109.625 101.101 109.501C104.882 109.331 108.622 110.345 111.801 112.401C111.902 112.47 111.989 112.56 112.055 112.664C112.12 112.769 112.164 112.885 112.183 113.007C112.202 113.129 112.195 113.254 112.164 113.373C112.132 113.492 112.077 113.604 112.001 113.701C111.877 113.895 111.683 114.034 111.46 114.09C111.237 114.145 111.001 114.114 110.801 114.001C109.324 113.163 107.744 112.525 106.101 112.101C102.833 111.167 99.3685 111.167 96.1006 112.101C94.4252 112.524 92.8118 113.163 91.3006 114.001C91.2359 114.064 91.1576 114.113 91.0715 114.142C90.9855 114.171 90.894 114.18 90.8039 114.169C90.7138 114.157 90.6275 114.126 90.5514 114.076C90.4753 114.026 90.4115 113.96 90.3648 113.882C90.3181 113.804 90.2896 113.717 90.2816 113.626C90.2736 113.536 90.2863 113.445 90.3186 113.36C90.3509 113.275 90.4021 113.199 90.4683 113.136C90.5344 113.074 90.6139 113.028 90.7006 113.001Z" fill="#172B4D"/>
<path d="M165.9 114.001C164.415 113.181 162.837 112.543 161.2 112.101C159.543 111.623 157.825 111.387 156.1 111.401C154.408 111.388 152.723 111.624 151.1 112.101C149.463 112.543 147.885 113.181 146.4 114.001C146.298 114.069 146.183 114.112 146.062 114.129C145.941 114.145 145.818 114.133 145.702 114.095C145.586 114.056 145.481 113.992 145.394 113.906C145.307 113.82 145.24 113.716 145.2 113.601C145.108 113.396 145.088 113.166 145.142 112.949C145.197 112.731 145.323 112.538 145.5 112.401C148.678 110.345 152.418 109.331 156.2 109.501C159.932 109.637 163.545 110.852 166.6 113.001C166.733 113.094 166.823 113.235 166.851 113.395C166.879 113.554 166.843 113.718 166.75 113.851C166.657 113.983 166.515 114.074 166.356 114.102C166.197 114.13 166.033 114.094 165.9 114.001Z" fill="#172B4D"/>
<path d="M155.1 116.701C156.868 116.701 158.3 115.268 158.3 113.501C158.3 111.733 156.868 110.301 155.1 110.301C153.333 110.301 151.9 111.733 151.9 113.501C151.9 115.268 153.333 116.701 155.1 116.701Z" fill="#172B4D"/>
<path d="M101.801 116.701C103.568 116.701 105.001 115.268 105.001 113.501C105.001 111.733 103.568 110.301 101.801 110.301C100.033 110.301 98.6006 111.733 98.6006 113.501C98.6006 115.268 100.033 116.701 101.801 116.701Z" fill="#172B4D"/>
<path d="M130.9 42C103.2 42.2 86.3002 60.9 83.7002 63.9C66.1002 84.1 68.0002 108.2 68.4002 113.3C68.5985 116.441 69.1009 119.556 69.9002 122.6C78.8002 106.2 72.0002 92 81.8002 74.8C83.9002 71 86.4002 66.7 91.3002 63.3C100.1 57.3 108 59.9 127.2 60.1C153.1 60.2 155.5 55.5 164.4 60C178.4 67.1 183.1 84.2 183.4 85.6C187.2 100.3 180.5 109.2 187.1 120.9C188.145 122.729 189.386 124.439 190.8 126C192.144 121.878 193.016 117.618 193.4 113.3C193.8 108.2 195.6 84.1 178.1 63.9C175.5 60.9 158.6 42.2 130.9 42Z" fill="url(#paint1_linear)"/>
<path d="M146.9 162.001C141.6 160.801 138.2 159.401 134.2 160.201L133.4 160.401C131.256 161.104 128.944 161.104 126.8 160.401L126 160.201C122.2 159.401 118.8 160.601 113.5 161.901L108.4 162.901C111.026 166.121 114.336 168.717 118.089 170.499C121.842 172.282 125.945 173.206 130.1 173.206C134.255 173.206 138.358 172.282 142.112 170.499C145.865 168.717 149.175 166.121 151.8 162.901L146.9 162.001Z" fill="#F0BEB4"/>
<path d="M105.8 161.501C109.696 162.663 113.674 163.532 117.7 164.101C121.679 164.616 125.687 164.884 129.7 164.901C133.715 164.854 137.722 164.553 141.7 164.001L147.7 162.901C149.7 162.501 151.6 162.001 153.6 161.401C153.9 161.301 154.1 161.501 154.2 161.801C154.233 161.858 154.252 161.923 154.254 161.99C154.257 162.057 154.242 162.123 154.212 162.182C154.183 162.242 154.138 162.293 154.084 162.331C154.029 162.37 153.966 162.394 153.9 162.401C150.045 163.895 146.062 165.033 142 165.801C137.936 166.485 133.821 166.82 129.7 166.801L123.5 166.601C121.5 166.401 119.4 166.201 117.4 165.801C113.343 165.101 109.36 164.029 105.5 162.601C105.376 162.537 105.279 162.432 105.224 162.305C105.17 162.177 105.161 162.034 105.2 161.901C105.243 161.778 105.325 161.673 105.433 161.601C105.541 161.529 105.67 161.494 105.8 161.501Z" fill="#CB8C84"/>
<path d="M121.5 112.901C122.601 114.399 123.476 116.05 124.1 117.801C124.644 119.589 124.979 121.435 125.1 123.301C125.212 127.012 124.386 130.692 122.7 134.001C122.654 134.099 122.589 134.188 122.509 134.261C122.429 134.334 122.335 134.391 122.233 134.429C122.131 134.466 122.022 134.482 121.914 134.478C121.805 134.473 121.699 134.447 121.6 134.401C121.502 134.355 121.413 134.29 121.34 134.21C121.266 134.13 121.209 134.036 121.172 133.934C121.135 133.831 121.118 133.723 121.123 133.614C121.128 133.506 121.154 133.399 121.2 133.301C121.739 131.697 122.173 130.06 122.5 128.401C122.796 126.752 122.897 125.073 122.8 123.401C122.786 121.703 122.516 120.018 122 118.401C121.558 116.795 120.92 115.25 120.1 113.801C120.03 113.706 119.981 113.596 119.958 113.48C119.935 113.364 119.938 113.245 119.966 113.13C119.995 113.015 120.049 112.908 120.124 112.817C120.199 112.725 120.293 112.651 120.4 112.601C120.492 112.547 120.593 112.513 120.698 112.499C120.804 112.485 120.911 112.492 121.013 112.52C121.115 112.548 121.211 112.596 121.295 112.662C121.378 112.727 121.448 112.808 121.5 112.901Z" fill="#F0BEB4"/>
<path d="M127.9 147.9H127C126.15 147.819 125.329 147.546 124.6 147.1C123.949 146.756 123.234 146.552 122.5 146.5C120.881 146.37 119.257 146.681 117.8 147.4C117.4 147.7 116.8 147.4 116.5 146.9C116.398 146.66 116.393 146.391 116.487 146.148C116.58 145.905 116.764 145.709 117 145.6C118.761 144.71 120.735 144.329 122.7 144.5C123.647 144.572 124.567 144.845 125.4 145.3C125.954 145.617 126.566 145.821 127.2 145.9C128.411 146.04 129.636 145.795 130.7 145.2C132.046 144.518 133.502 144.078 135 143.9C137.016 143.801 139.029 144.142 140.9 144.9C141.025 144.946 141.139 145.016 141.237 145.106C141.335 145.196 141.414 145.305 141.469 145.425C141.525 145.546 141.556 145.676 141.562 145.809C141.567 145.942 141.546 146.075 141.5 146.2C141.454 146.324 141.384 146.439 141.294 146.536C141.204 146.634 141.095 146.713 140.974 146.769C140.854 146.824 140.723 146.856 140.59 146.861C140.457 146.866 140.325 146.845 140.2 146.8C138.623 146.124 136.913 145.816 135.2 145.9C133.914 146.057 132.663 146.429 131.5 147C130.393 147.592 129.156 147.902 127.9 147.9Z" fill="#F0BEB4"/>
<path d="M112.2 152.5L106 156.4L99.8 160.4C99.6513 160.481 99.478 160.506 99.3125 160.469C99.1469 160.432 99.0004 160.337 98.9 160.2C98.8144 160.078 98.7772 159.929 98.7957 159.781C98.8141 159.633 98.887 159.497 99 159.4C102.37 155.586 106.731 152.782 111.6 151.3C111.679 151.269 111.763 151.255 111.847 151.258C111.931 151.262 112.014 151.283 112.089 151.321C112.165 151.359 112.232 151.412 112.285 151.477C112.339 151.543 112.378 151.619 112.4 151.7C112.442 151.839 112.446 151.987 112.411 152.128C112.376 152.269 112.303 152.397 112.2 152.5Z" fill="#F0BEB4"/>
</g>
<defs>
<linearGradient id="paint0_linear" x1="132.43" y1="237.24" x2="132.43" y2="170.11" gradientUnits="userSpaceOnUse">
<stop stop-color="#FFE2D9"/>
<stop offset="1" stop-color="#EBBEAE"/>
</linearGradient>
<linearGradient id="paint1_linear" x1="130.88" y1="131.48" x2="130.88" y2="37.5" gradientUnits="userSpaceOnUse">
<stop stop-color="#F0BEB4"/>
<stop offset="0.11" stop-color="#E1B4AD"/>
<stop offset="0.33" stop-color="#BB9B9C"/>
<stop offset="0.63" stop-color="#7C7280"/>
<stop offset="0.99" stop-color="#273A59"/>
<stop offset="1" stop-color="#253858"/>
</linearGradient>
<clipPath id="clip0">
<path d="M0 0.900391H256V256.9H0V0.900391Z" fill="white"/>
</clipPath>
</defs>
</svg>
