<svg width="256" height="257" viewBox="0 0 256 257" fill="none" xmlns="http://www.w3.org/2000/svg">
<g clip-path="url(#clip0)">
<path d="M0 0.900391H256V256.9H0V0.900391Z" fill="white" fill-opacity="0.01"/>
<path d="M128 256.9C198.692 256.9 256 199.593 256 128.9C256 58.2079 198.692 0.900391 128 0.900391C57.3075 0.900391 0 58.2079 0 128.9C0 199.593 57.3075 256.9 128 256.9Z" fill="#FFAB00"/>
<path d="M207.3 229.3L178.5 213.2C177.705 212.741 176.816 212.468 175.9 212.4L128 209.9L80.1002 212.4C79.1844 212.468 78.2956 212.741 77.5002 213.2L48.7002 229.3C71.266 247.178 99.2107 256.906 128 256.906C156.79 256.906 184.734 247.178 207.3 229.3Z" fill="#FFC400"/>
<path d="M173 217.401C172 218.901 153.6 243.301 123.4 240.901C98.9 239.001 85.1 221.001 83 218.201C89.0836 213.63 93.395 207.093 95.2 199.701C98.8 184.101 89 172.201 87.8 170.801H164.4C163.9 171.501 152.6 187.101 159.7 203.201C162.458 209.263 167.131 214.252 173 217.401Z" fill="url(#paint0_linear)"/>
<path d="M60.8003 101.9C60.9003 99.1999 63.2003 96.7999 63.6003 94.1999C64.0003 91.5999 62.6003 88.5999 63.4003 85.9999C64.2003 83.3999 66.8003 81.5999 67.8003 79.1999C68.8003 76.7999 68.1003 73.4999 69.4003 71.0999C70.7003 68.6999 73.7003 67.5999 75.2003 65.3999C76.7003 63.1999 76.8003 59.8999 78.5003 57.8999C80.2003 55.8999 83.5003 55.3999 85.5003 53.5999C87.5003 51.7999 88.2003 48.5999 90.4003 47.0999C92.6003 45.5999 95.8003 45.7999 98.1003 44.4999C100.4 43.1999 101.9 40.2999 104.4 39.2999C106.9 38.2999 110 39.3999 112.6 38.6999C115.2 37.9999 117.3 35.5999 120 35.1999C122.7 34.7999 125.3 36.6999 128 36.6999C130.7 36.6999 133.5 34.8999 136 35.1999C138.5 35.4999 140.9 37.9999 143.4 38.6999C145.9 39.3999 149.2 38.2999 151.6 39.2999C154 40.2999 155.6 43.1999 157.9 44.4999C160.2 45.7999 163.5 45.4999 165.6 47.0999C167.7 48.6999 168.6 51.8999 170.5 53.5999C172.4 55.2999 175.7 55.8999 177.5 57.8999C179.3 59.8999 179.3 63.2999 180.8 65.3999C182.3 67.4999 185.3 68.7999 186.6 71.0999C187.9 73.3999 187.2 76.6999 188.2 79.1999C189.2 81.6999 191.9 83.4999 192.6 85.9999C193.3 88.4999 192 91.5999 192.4 94.1999C192.8 96.7999 195.1 99.1999 195.2 101.9C195.3 104.6 193.3 107.4 193 110.2C192.7 113 194.4 116.1 193.8 118.8C193.2 121.5 190.6 123.7 189.7 126.4C188.8 129.1 189.6 132.3 188.4 134.9C187.2 137.5 184.1 138.9 182.6 141.3C181.1 143.7 181.2 147.1 179.5 149.3C177.8 151.5 174.4 152.3 172.4 154.2C170.4 156.1 169.7 159.6 167.4 161.3C165.1 163 161.8 162.9 159.4 164.4C157 165.9 155.4 168.9 152.9 170C150.4 171.1 147 170.1 144.3 170.9C141.6 171.7 139.3 174.1 136.5 174.5C133.7 174.9 130.8 173.1 128 173.1C125.2 173.1 122.2 174.9 119.5 174.5C116.8 174.1 114.4 171.6 111.7 170.9C109 170.2 105.7 171.1 103.1 170C100.5 168.9 99.0003 165.8 96.6003 164.4C94.2003 163 90.7003 163 88.5003 161.3C86.3003 159.6 85.6003 156.2 83.6003 154.2C81.6003 152.2 78.3003 151.5 76.5003 149.3C74.7003 147.1 74.8003 143.7 73.4003 141.3C72.0003 138.9 68.8003 137.4 67.6003 134.9C66.4003 132.4 67.2003 129 66.3003 126.3C65.4003 123.6 62.8003 121.5 62.2003 118.8C61.6003 116.1 63.2003 113 63.0003 110.2C62.8003 107.4 60.7003 104.7 60.8003 101.9Z" fill="#230F05"/>
<path d="M77.5942 146.506C84.7152 144.705 88.6757 136.082 86.4403 127.248C84.2049 118.414 76.62 112.713 69.4991 114.515C62.3781 116.317 58.4176 124.939 60.653 133.773C62.8885 142.607 70.4733 148.308 77.5942 146.506Z" fill="url(#paint1_linear)"/>
<path d="M196.075 133.752C198.31 124.918 194.35 116.295 187.229 114.494C180.108 112.692 172.523 118.393 170.288 127.227C168.052 136.061 172.013 144.683 179.134 146.485C186.255 148.287 193.84 142.586 196.075 133.752Z" fill="url(#paint2_linear)"/>
<path d="M127.9 47C155.6 47.2 172.5 65.9 175.1 68.9C192.6 89.1 190.8 113.2 190.4 118.3C189.4 130.7 184.4 140.6 174.7 160.6C170.311 169.804 165.403 178.752 160 187.4C158.46 189.84 156.281 191.811 153.7 193.1C145.689 197.181 136.885 199.467 127.9 199.8C118.882 199.478 110.043 197.192 102 193.1C99.4672 191.78 97.3283 189.813 95.8002 187.4C90.3601 178.756 85.4187 169.808 81.0002 160.6C71.4002 140.6 66.3002 130.7 65.4002 118.3C65.0002 113.2 63.1002 89.1 80.7002 68.9C83.3002 65.9 100.2 47.2 127.9 47Z" fill="#9B7661"/>
<path d="M139.4 106.6L140.6 105.6L141.8 104.8C142.6 104.2 143.5 103.8 144.3 103.3C146.01 102.519 147.783 101.883 149.6 101.4C153.259 100.485 157.049 100.214 160.8 100.6C164.556 101.015 168.193 102.17 171.5 104C173.101 104.917 174.608 105.989 176 107.2C177.441 108.441 178.688 109.89 179.7 111.5C179.79 111.636 179.852 111.79 179.88 111.951C179.909 112.112 179.905 112.277 179.867 112.436C179.83 112.595 179.76 112.745 179.663 112.876C179.565 113.008 179.442 113.118 179.3 113.2C179.065 113.344 178.788 113.402 178.515 113.366C178.242 113.329 177.989 113.2 177.8 113H177.7C176.627 111.817 175.379 110.806 174 110C172.656 109.077 171.214 108.306 169.7 107.7C166.752 106.429 163.605 105.685 160.4 105.5C157.208 105.397 154.016 105.7 150.9 106.4C149.334 106.794 147.797 107.295 146.3 107.9L144.2 108.9L143.2 109.4L142.3 110H142C141.548 110.201 141.042 110.244 140.562 110.122C140.083 110 139.658 109.719 139.358 109.326C139.057 108.933 138.898 108.45 138.906 107.956C138.913 107.461 139.088 106.983 139.4 106.6Z" fill="#230F05"/>
<path d="M114.8 109.9L113.9 109.3L112.9 108.8L110.8 107.8C109.303 107.195 107.766 106.694 106.2 106.3C103.084 105.605 99.8922 105.303 96.7004 105.4C93.4958 105.585 90.3483 106.33 87.4004 107.6C85.887 108.206 84.4449 108.978 83.1004 109.9C81.7217 110.706 80.474 111.718 79.4004 112.9H79.3004C79.1889 113.012 79.0565 113.101 78.9106 113.161C78.7647 113.222 78.6083 113.253 78.4504 113.253C78.2925 113.253 78.1361 113.222 77.9902 113.161C77.8444 113.101 77.7119 113.012 77.6004 112.9C77.3999 112.711 77.2706 112.459 77.2342 112.186C77.1977 111.912 77.2564 111.635 77.4004 111.4C78.4128 109.791 79.6599 108.341 81.1004 107.1C82.4745 105.867 83.9842 104.793 85.6004 103.9C88.9074 102.071 92.5441 100.915 96.3004 100.5C100.052 100.115 103.842 100.386 107.5 101.3C109.317 101.784 111.09 102.419 112.8 103.2C113.6 103.7 114.5 104.1 115.3 104.7L116.5 105.5L117.7 106.5C118.013 106.884 118.187 107.361 118.195 107.856C118.203 108.351 118.044 108.834 117.743 109.227C117.442 109.62 117.018 109.9 116.539 110.022C116.059 110.144 115.552 110.101 115.1 109.9H114.8Z" fill="#230F05"/>
<path d="M89.0005 118.4C92.0555 116.252 95.6682 115.036 99.4005 114.9C103.192 114.767 106.931 115.815 110.101 117.9C110.21 117.961 110.306 118.045 110.381 118.145C110.457 118.246 110.511 118.361 110.539 118.483C110.567 118.606 110.569 118.733 110.546 118.856C110.522 118.98 110.472 119.097 110.401 119.2C110.263 119.377 110.07 119.503 109.852 119.558C109.635 119.612 109.405 119.592 109.201 119.5C107.719 118.648 106.141 117.977 104.501 117.5C102.864 117.097 101.185 116.896 99.5005 116.9C97.7805 116.852 96.0626 117.055 94.4005 117.5C92.7596 117.977 91.1817 118.648 89.7005 119.5C89.5381 119.553 89.3632 119.552 89.2013 119.498C89.0393 119.444 88.8989 119.339 88.8005 119.2C88.7581 119.061 88.7543 118.913 88.7895 118.772C88.8247 118.631 88.8977 118.503 89.0005 118.4Z" fill="#230F05"/>
<path d="M166.3 119.5C164.784 118.648 163.173 117.976 161.5 117.5C159.871 117.06 158.187 116.858 156.5 116.9C154.816 116.896 153.136 117.097 151.5 117.5C149.853 117.959 148.273 118.631 146.8 119.5C146.57 119.589 146.317 119.598 146.081 119.525C145.845 119.452 145.641 119.303 145.5 119.1C145.388 118.899 145.356 118.663 145.412 118.44C145.467 118.217 145.607 118.024 145.8 117.9C148.97 115.815 152.709 114.767 156.5 114.9C160.233 115.036 163.845 116.252 166.9 118.4C167.037 118.5 167.133 118.647 167.17 118.812C167.206 118.978 167.182 119.151 167.1 119.3C166.998 119.403 166.869 119.476 166.728 119.511C166.587 119.546 166.439 119.542 166.3 119.5Z" fill="#230F05"/>
<path d="M155.4 123.099C157.168 123.099 158.6 121.667 158.6 119.899C158.6 118.132 157.168 116.699 155.4 116.699C153.633 116.699 152.2 118.132 152.2 119.899C152.2 121.667 153.633 123.099 155.4 123.099Z" fill="#230F05"/>
<path d="M100.1 123.099C101.868 123.099 103.3 121.667 103.3 119.899C103.3 118.132 101.868 116.699 100.1 116.699C98.3331 116.699 96.9004 118.132 96.9004 119.899C96.9004 121.667 98.3331 123.099 100.1 123.099Z" fill="#230F05"/>
<path d="M126.5 80.8005C130.5 80.8005 134.4 82.3005 137.7 81.4005C141 80.5005 144.3 77.2005 147.4 75.7005C150.5 74.2005 155.3 74.1005 158.3 72.8005C161.3 71.5005 166 68.6005 169 70.8005C172 73.0005 170.2 75.4005 170.6 78.1005C171 80.8005 173.1 82.3005 173.5 85.0005C173.9 87.7005 172.2 89.9005 173 92.5005C173.8 95.1005 176.4 96.0005 177.7 98.3005C179 100.6 178.2 102.9 179.4 104.4C180.6 105.9 183.5 106.1 184.9 107.5C186.3 108.9 186.8 111.7 188.3 112.8C189.8 113.9 192.3 113.3 193.9 114.2C194.958 108.926 195.026 103.5 194.1 98.2005C193.3 93.3005 189.9 88.3005 187.6 82.5005C185.3 76.7005 184.8 71.6005 181.2 66.8005C177.6 62.0005 172.7 59.9005 168 56.2005C163.3 52.5005 160.7 48.8005 156.5 46.9005C152.3 45.0005 146.4 45.2005 141.9 44.4005C137.4 43.6005 131.7 41.0005 127.4 41.1005C119.7 41.3005 114.5 44.6005 113.2 45.0005C111.9 45.4005 106 44.9005 99.5005 48.2005C96.0005 50.1005 93.1005 54.2005 89.0005 57.5005C84.9005 60.8005 80.9005 61.9005 77.8005 65.8005C74.7005 69.7005 74.2005 74.1005 72.0005 78.6005C70.5005 81.4005 67.5005 83.5005 66.5005 86.3005C65.5005 89.1005 66.7005 92.9005 66.2005 95.7005C65.7005 98.5005 63.2005 101.8 63.1005 104.6C63.0005 107.4 64.5005 110.7 64.7005 113C66.3005 111.7 68.3005 111.8 70.0005 110.1C71.7005 108.4 71.5005 105.6 73.0005 103.7C74.5005 101.8 77.3005 101.2 78.4005 99.2005C79.5005 97.2005 78.5005 94.4005 79.3005 92.2005C80.1005 90.0005 82.4005 89.4005 82.7005 87.9005C83.0005 86.4005 81.3005 84.0005 81.4005 82.5005C81.5005 81.0005 83.7005 79.2005 84.0005 77.7005C84.3005 76.2005 83.3005 73.6005 84.7005 72.4005C86.1005 71.2005 91.0005 72.4005 95.2005 74.0005C99.4005 75.6005 102.2 74.8005 105.9 76.3005C109.6 77.8005 111.8 80.8005 115.6 81.6005C119.4 82.4005 122.7 80.8005 126.5 80.8005Z" fill="#230F05"/>
<path d="M188.101 104.301L184.501 120.101C184.084 121.967 184.201 123.914 184.837 125.717C185.474 127.521 186.605 129.109 188.101 130.301C188.101 130.301 191.701 120.801 192.501 116.301C193.301 111.801 188.101 104.301 188.101 104.301Z" fill="#230F05"/>
<path d="M67.3004 104.301L70.6004 120.101C71.0512 121.94 70.9813 123.868 70.3985 125.669C69.8157 127.471 68.7429 129.074 67.3004 130.301C67.3004 130.301 63.9004 120.801 63.1004 116.301C62.3004 111.801 67.3004 104.301 67.3004 104.301Z" fill="#230F05"/>
<path d="M116.8 148.1C118.746 146.917 121.047 146.457 123.3 146.8L125 147.3L126.3 147.9C127.114 148.115 127.961 148.182 128.8 148.1L131.5 147.1C132.501 146.604 133.586 146.299 134.7 146.2C136.902 146.023 139.111 146.437 141.1 147.4C141.2 147.498 141.268 147.624 141.296 147.761C141.324 147.898 141.31 148.04 141.256 148.169C141.202 148.299 141.111 148.409 140.994 148.485C140.877 148.562 140.739 148.602 140.6 148.6C138.773 147.954 136.82 147.749 134.9 148C133.993 148.114 133.113 148.385 132.3 148.8C131.305 149.293 130.267 149.695 129.2 150C128.035 150.236 126.83 150.167 125.7 149.8L124.1 149.1L122.9 148.7C121.047 148.35 119.133 148.559 117.4 149.3C117.227 149.365 117.036 149.36 116.867 149.285C116.699 149.21 116.567 149.072 116.5 148.9C116.454 148.752 116.459 148.594 116.513 148.449C116.568 148.304 116.668 148.182 116.8 148.1Z" fill="#745949"/>
<path d="M121.7 116.701C122.493 118.396 123.097 120.174 123.5 122.001C123.833 123.882 123.967 125.792 123.9 127.701C123.815 131.463 122.783 135.143 120.9 138.401C120.859 138.49 120.798 138.57 120.724 138.634C120.649 138.699 120.562 138.747 120.468 138.775C120.373 138.803 120.274 138.811 120.176 138.799C120.078 138.786 119.984 138.753 119.9 138.701C119.761 138.603 119.657 138.462 119.603 138.3C119.549 138.139 119.548 137.964 119.6 137.801C120.313 136.197 120.85 134.521 121.2 132.801C121.63 131.1 121.864 129.355 121.9 127.601C122.003 125.862 121.902 124.117 121.6 122.401C121.366 120.666 120.964 118.958 120.4 117.301C120.351 117.211 120.323 117.111 120.317 117.008C120.311 116.905 120.327 116.803 120.366 116.707C120.404 116.612 120.463 116.526 120.538 116.456C120.613 116.386 120.703 116.333 120.8 116.301C120.974 116.258 121.156 116.274 121.319 116.346C121.482 116.419 121.616 116.544 121.7 116.701Z" fill="#745949"/>
<path d="M145.6 167.199C139.8 166.899 137.4 163.899 132.1 164.099C131.2 164.099 128 165.799 128 165.799C128 165.799 124.8 164.099 123.9 164.099C118.6 163.899 116.2 166.899 110.4 167.199C109.034 167.337 107.657 167.303 106.3 167.099C107.3 168.299 115 177.299 128 177.299C141 177.299 148.7 168.299 149.7 167.099C148.343 167.303 146.965 167.337 145.6 167.199Z" fill="#745949"/>
<path d="M149.7 167.101L145.4 166.401C138.9 165.101 136.4 163.601 132.1 164.101C130.765 164.225 129.454 164.528 128.2 165.001C126.828 164.459 125.374 164.154 123.9 164.101C119.5 163.701 117 165.301 110.5 166.501L106.3 167.101C113.393 169.62 120.873 170.872 128.4 170.801C135.66 170.806 142.867 169.554 149.7 167.101Z" fill="#4E3B31"/>
<path d="M104.2 164.901C107.96 166.588 111.879 167.894 115.9 168.801C119.868 169.716 123.927 170.185 128 170.201C132.106 170.102 136.192 169.6 140.2 168.701C142.2 168.201 144.1 167.701 146.1 167.001C148.1 166.301 149.9 165.501 151.8 164.601C151.945 164.535 152.112 164.529 152.262 164.585C152.412 164.642 152.533 164.755 152.6 164.901C152.666 165.047 152.672 165.213 152.615 165.363C152.559 165.513 152.445 165.635 152.3 165.701C148.692 167.913 144.785 169.597 140.7 170.701C136.558 171.819 132.289 172.39 128 172.401C125.893 172.417 123.787 172.284 121.7 172.001C119.565 171.814 117.454 171.412 115.4 170.801C111.286 169.733 107.346 168.083 103.7 165.901C103.624 165.873 103.555 165.826 103.501 165.766C103.447 165.705 103.409 165.632 103.389 165.554C103.369 165.475 103.369 165.393 103.388 165.314C103.408 165.235 103.446 165.162 103.5 165.101C103.511 165.025 103.544 164.954 103.595 164.896C103.645 164.839 103.712 164.797 103.785 164.776C103.859 164.755 103.937 164.755 104.011 164.778C104.084 164.8 104.15 164.843 104.2 164.901Z" fill="#230F05"/>
<path d="M97.3005 166.101C97.0179 165.434 96.8807 164.715 96.8979 163.99C96.9152 163.266 97.0865 162.554 97.4005 161.901C97.6544 161.218 98.0415 160.592 98.5394 160.06C99.0372 159.528 99.6358 159.1 100.3 158.801C100.5 158.701 100.7 158.801 100.8 159.101C100.9 159.401 100.8 159.301 100.8 159.401C100.148 160.404 99.6117 161.478 99.2005 162.601C98.8048 163.66 98.5689 164.773 98.5005 165.901C98.4436 166.043 98.3474 166.165 98.2234 166.253C98.0994 166.342 97.9527 166.393 97.8005 166.401C97.6077 166.353 97.4337 166.249 97.3005 166.101Z" fill="#745949"/>
</g>
<defs>
<linearGradient id="paint0_linear" x1="128" y1="241.091" x2="128" y2="170.801" gradientUnits="userSpaceOnUse">
<stop stop-color="#9B7661"/>
<stop offset="0.43" stop-color="#997460"/>
<stop offset="0.64" stop-color="#916F5B"/>
<stop offset="0.79" stop-color="#856553"/>
<stop offset="0.92" stop-color="#735747"/>
<stop offset="1" stop-color="#624A3D"/>
</linearGradient>
<linearGradient id="paint1_linear" x1="60.0329" y1="130.501" x2="87.0229" y2="130.501" gradientUnits="userSpaceOnUse">
<stop stop-color="#9B7661"/>
<stop offset="0.45" stop-color="#846452"/>
<stop offset="1" stop-color="#624A3D"/>
</linearGradient>
<linearGradient id="paint2_linear" x1="169.767" y1="130.425" x2="196.757" y2="130.425" gradientUnits="userSpaceOnUse">
<stop stop-color="#624A3D"/>
<stop offset="0.55" stop-color="#846452"/>
<stop offset="1" stop-color="#9B7661"/>
</linearGradient>
<clipPath id="clip0">
<path d="M0 0.900391H256V256.9H0V0.900391Z" fill="white"/>
</clipPath>
</defs>
</svg>
