<svg width="256" height="257" viewBox="0 0 256 257" fill="none" xmlns="http://www.w3.org/2000/svg">
<g clip-path="url(#clip0)">
<path d="M0 0.900391H256V256.9H0V0.900391Z" fill="white" fill-opacity="0.01"/>
<path d="M128 256.9C198.692 256.9 256 199.593 256 128.9C256 58.2079 198.692 0.900391 128 0.900391C57.3075 0.900391 0 58.2079 0 128.9C0 199.593 57.3075 256.9 128 256.9Z" fill="#57D9A3"/>
<path d="M238.4 200.4C236.2 219.5 219 231.2 210.3 237.1C172.1 263.1 126.6 252.2 120.5 250.6C106.258 246.883 92.8067 240.615 80.8 232.1C71.4 228.4 55.5 220.4 44.3 204C18 165.3 32.8 101 66.3 85.6998C78.2 80.1998 94.8 84.4998 128 93.0998C189.3 109 195.3 124.4 196.3 128.3C197.583 133.996 198.452 139.778 198.9 145.6C199.9 158 197.9 158.6 199.5 162.2C204.7 173.6 225.4 167 234.9 179.7C240.1 186.8 238.9 195.8 238.4 200.4Z" fill="url(#paint0_linear)"/>
<path d="M169 214L130 212L90.8998 214C90.1614 214.096 89.4484 214.334 88.7998 214.7L57.2998 235.6C78.6053 249.712 103.645 257.129 129.199 256.897C154.753 256.665 179.654 248.796 200.7 234.3L171.1 214.7C170.464 214.306 169.745 214.067 169 214Z" fill="#ABF5D1"/>
<path d="M166.7 215.401C165.8 216.601 150.8 236.801 126.2 234.901C106.2 233.301 94.9998 218.401 93.2998 216.001C95.8877 211.224 97.6779 206.056 98.5998 200.701C100.003 192.701 99.5238 184.484 97.1998 176.701H159.6C156.735 184.428 156.385 192.863 158.6 200.801C160.149 206.223 162.92 211.217 166.7 215.401Z" fill="url(#paint1_linear)"/>
<path d="M198.8 163.901L199 138.001L199.4 86.8008L57.5002 82.3008L57.2002 163.901H198.8Z" fill="#F0D0B6"/>
<path d="M118.901 143.6C152.756 143.6 180.201 116.155 180.201 82.3C180.201 48.4449 152.756 21 118.901 21C85.0455 21 57.6006 48.4449 57.6006 82.3C57.6006 116.155 85.0455 143.6 118.901 143.6Z" fill="#F0D0B6"/>
<path d="M81.5006 126.101C81.5006 132.401 80.2006 144.501 73.9006 144.501C67.6006 144.501 58.6006 132.401 58.6006 126.101C58.8674 123.249 60.1891 120.599 62.3068 118.67C64.4246 116.741 67.186 115.672 70.0506 115.672C72.9151 115.672 75.6766 116.741 77.7943 118.67C79.9121 120.599 81.2338 123.249 81.5006 126.101Z" fill="#473630"/>
<path d="M197.4 126.101C197.4 132.401 188.5 144.501 182.1 144.501C175.7 144.501 174.5 132.401 174.5 126.101C174.767 123.249 176.088 120.599 178.206 118.67C180.324 116.741 183.085 115.672 185.95 115.672C188.815 115.672 191.576 116.741 193.694 118.67C195.812 120.599 197.133 123.249 197.4 126.101Z" fill="#473630"/>
<path d="M187.301 137.501C187.222 139.915 186.679 142.292 185.701 144.501C182.812 151.04 178.859 157.055 174.001 162.301L160.101 176.501C152.066 184.854 141.085 189.735 129.501 190.101H127.301C115.549 189.833 104.376 184.947 96.2005 176.501L85.2005 165.201C78.866 159.396 73.7941 152.35 70.3005 144.501C69.3224 142.292 68.7792 139.915 68.7005 137.501L66.8005 82.5005C66.7152 80.4364 66.9858 78.3729 67.6005 76.4006C71.5366 63.4065 79.5589 52.0286 90.4759 43.9566C101.393 35.8846 114.622 31.5492 128.199 31.5941C141.776 31.639 154.977 36.0619 165.84 44.206C176.704 52.35 184.65 63.7808 188.501 76.8006C189.084 78.6066 189.321 80.5065 189.201 82.4006L187.301 137.501Z" fill="#533E37"/>
<path d="M199.1 82.3C196.3 61.6 177.4 44.5 162 44.5C151 44.5 141.2 50.1 134.4 57.7C138 69 143.5 75.3 147.6 78.9C159.7 89.6 172.3 87.3 181.3 98.3C186.5 104.6 187.8 112 188.2 116.7C190.6 113.9 201.5 100.3 199.1 82.3Z" fill="url(#paint2_linear)"/>
<path d="M115.6 103.1C113.211 101.881 110.647 101.038 108 100.6C105.401 100.085 102.744 99.9169 100.1 100.1C97.4879 100.295 94.9228 100.902 92.5004 101.9C90.0052 102.877 87.728 104.338 85.8004 106.2H85.7004C85.6164 106.288 85.5155 106.357 85.4038 106.405C85.2921 106.453 85.1719 106.477 85.0504 106.477C84.9289 106.477 84.8087 106.453 84.697 106.405C84.5853 106.357 84.4844 106.288 84.4004 106.2C84.2862 106.062 84.2156 105.893 84.1978 105.715C84.18 105.537 84.2157 105.358 84.3004 105.2C85.046 103.837 86.028 102.618 87.2004 101.6C88.3329 100.525 89.6124 99.6155 91.0004 98.8999C92.3258 98.139 93.7353 97.5349 95.2004 97.0999C96.6966 96.6141 98.2376 96.2791 99.8004 96.0999C102.863 95.8469 105.947 96.1518 108.9 96.9999C110.35 97.4778 111.755 98.0801 113.1 98.7999C114.48 99.5633 115.729 100.542 116.8 101.7C116.882 101.79 116.944 101.897 116.984 102.012C117.023 102.128 117.038 102.25 117.029 102.371C117.02 102.493 116.986 102.611 116.929 102.719C116.873 102.827 116.795 102.923 116.7 103C116.563 103.114 116.394 103.185 116.216 103.202C116.038 103.22 115.858 103.185 115.7 103.1H115.6Z" fill="#230F05"/>
<path d="M138.5 101.699C140.697 99.5154 143.417 97.9316 146.4 97.0995C149.349 96.2199 152.432 95.8811 155.5 96.0995C158.62 96.384 161.649 97.3028 164.4 98.7995C165.735 99.551 166.977 100.457 168.1 101.499C169.309 102.509 170.325 103.729 171.1 105.099C171.189 105.33 171.198 105.583 171.125 105.819C171.053 106.054 170.903 106.259 170.7 106.399C170.507 106.481 170.297 106.514 170.088 106.497C169.879 106.479 169.678 106.412 169.5 106.299C167.535 104.512 165.266 103.089 162.8 102.099C161.586 101.55 160.31 101.147 159 100.899C157.767 100.513 156.491 100.277 155.2 100.199C152.562 99.9338 149.898 100.069 147.3 100.599C144.657 101.103 142.098 101.978 139.7 103.199H139.6C139.373 103.309 139.113 103.329 138.872 103.255C138.631 103.18 138.427 103.018 138.3 102.799C138.205 102.62 138.173 102.414 138.209 102.215C138.245 102.015 138.348 101.833 138.5 101.699Z" fill="#230F05"/>
<path d="M118.9 20.9004C102.616 20.9004 86.9984 27.3693 75.4836 38.884C63.9689 50.3988 57.5 66.0161 57.5 82.3004C57.5758 87.5984 58.2807 92.8687 59.6 98.0004C61.2993 104.037 64.1146 109.701 67.9 114.7C68.4175 111.206 69.606 107.844 71.4 104.8C83.7 84.2004 116.3 93.4004 143.2 75.2004C150.5 70.3004 160 61.6004 167.7 45.1004C161.981 37.5784 154.601 31.4802 146.136 27.2823C137.67 23.0843 128.349 20.9001 118.9 20.9004Z" fill="#F0D0B6"/>
<path d="M141.5 115.401C142.658 112.931 144.542 110.872 146.9 109.501C149.273 108.081 152.061 107.516 154.8 107.901C157.47 108.377 159.979 109.511 162.1 111.201L165.2 113.301C165.582 113.628 166.03 113.868 166.513 114.006C166.996 114.144 167.503 114.177 168 114.101H168.1C168.298 114.07 168.5 114.115 168.667 114.226C168.834 114.337 168.953 114.507 169 114.701C169.037 114.86 169.018 115.027 168.945 115.173C168.872 115.319 168.75 115.435 168.6 115.501C167.854 115.868 166.997 115.939 166.2 115.701C165.521 115.559 164.876 115.287 164.3 114.901L161 112.801C159.104 111.317 156.872 110.321 154.5 109.901C152.197 109.603 149.857 110.022 147.8 111.101C146.786 111.686 145.846 112.391 145 113.201C144.206 114.085 143.471 115.02 142.8 116.001C142.748 116.094 142.678 116.175 142.595 116.24C142.511 116.306 142.415 116.354 142.313 116.382C142.211 116.409 142.104 116.417 141.999 116.403C141.893 116.389 141.792 116.355 141.7 116.301C141.578 116.19 141.493 116.044 141.458 115.883C141.422 115.722 141.437 115.553 141.5 115.401Z" fill="#230F05"/>
<path d="M153.4 115.4C155.168 115.4 156.6 113.967 156.6 112.2C156.6 110.433 155.168 109 153.4 109C151.633 109 150.2 110.433 150.2 112.2C150.2 113.967 151.633 115.4 153.4 115.4Z" fill="#230F05"/>
<path d="M110.901 115.901C110.274 114.89 109.499 113.98 108.601 113.201C107.351 111.965 105.839 111.027 104.177 110.456C102.515 109.884 100.746 109.695 99.0006 109.901C97.8176 110.034 96.6669 110.372 95.6006 110.901C94.4837 111.368 93.4125 111.937 92.4006 112.601L89.1006 114.701C88.5099 115.037 87.868 115.274 87.2006 115.401C86.4774 115.621 85.7008 115.585 85.0006 115.301C84.9314 115.28 84.8677 115.244 84.8139 115.195C84.76 115.147 84.7174 115.087 84.6889 115.02C84.6603 114.954 84.6466 114.882 84.6486 114.81C84.6507 114.737 84.6684 114.666 84.7006 114.601C84.7622 114.504 84.8556 114.431 84.965 114.394C85.0743 114.358 85.1929 114.36 85.3006 114.401H85.4006C86.4006 114.701 87.4006 114.201 88.5006 113.601L91.5006 111.301C93.5781 109.583 96.0538 108.414 98.7006 107.901C101.439 107.516 104.228 108.081 106.601 109.501C108.888 110.944 110.698 113.032 111.801 115.501C111.835 115.625 111.834 115.756 111.799 115.879C111.763 116.003 111.695 116.114 111.601 116.201C111.55 116.235 111.492 116.257 111.432 116.265C111.371 116.273 111.309 116.268 111.252 116.248C111.194 116.229 111.141 116.197 111.097 116.154C111.054 116.111 111.021 116.059 111.001 116.001L110.901 115.901Z" fill="#230F05"/>
<path d="M100.1 115.4C101.868 115.4 103.3 113.967 103.3 112.2C103.3 110.433 101.868 109 100.1 109C98.3331 109 96.9004 110.433 96.9004 112.2C96.9004 113.967 98.3331 115.4 100.1 115.4Z" fill="#230F05"/>
<path d="M143.1 158.901C137.3 158.501 134.8 155.501 129.5 155.701C128.7 155.701 125.4 157.401 125.4 157.401C125.4 157.401 122.2 155.701 121.3 155.701C116.1 155.501 113.6 158.501 107.8 158.901C106.43 158.963 105.058 158.896 103.7 158.701C104.1 159.301 111.8 170.201 125.4 170.201C139 170.201 146.7 159.301 147.2 158.701C145.842 158.892 144.47 158.959 143.1 158.901Z" fill="#8C715D"/>
<path d="M147.2 158.701C145.842 158.892 144.47 158.959 143.1 158.901C137.3 158.501 134.8 155.501 129.5 155.701C128.7 155.701 125.4 157.401 125.4 157.401C125.4 157.401 122.2 155.701 121.3 155.701C116.1 155.501 113.6 158.501 107.8 158.901C106.43 158.963 105.058 158.896 103.7 158.701C110.796 161.21 118.274 162.462 125.8 162.401C133.092 162.396 140.33 161.144 147.2 158.701Z" fill="#72594B"/>
<path d="M101.7 156.5C105.417 158.234 109.305 159.574 113.3 160.5C121.308 162.302 129.623 162.233 137.6 160.3C139.608 159.886 141.58 159.318 143.5 158.6L149.2 156.2C149.272 156.167 149.35 156.148 149.43 156.145C149.509 156.142 149.588 156.155 149.663 156.183C149.737 156.211 149.805 156.253 149.863 156.308C149.921 156.362 149.968 156.427 150 156.5C150.042 156.639 150.046 156.787 150.011 156.928C149.976 157.069 149.903 157.197 149.8 157.3C140.632 162.961 129.756 165.193 119.1 163.6C116.968 163.394 114.859 162.992 112.8 162.4C108.686 161.332 104.747 159.682 101.1 157.5C101.024 157.472 100.956 157.425 100.902 157.365C100.848 157.304 100.809 157.231 100.789 157.153C100.77 157.074 100.769 156.992 100.789 156.913C100.808 156.834 100.846 156.761 100.9 156.7C101.003 156.597 101.131 156.524 101.272 156.489C101.413 156.454 101.561 156.458 101.7 156.5Z" fill="#230F05"/>
<path d="M121.4 113.1C122.662 116.728 123.238 120.56 123.1 124.4C123.014 126.315 122.78 128.221 122.4 130.1C121.999 131.948 121.43 133.755 120.7 135.5C120.668 135.597 120.615 135.687 120.545 135.762C120.475 135.837 120.389 135.896 120.293 135.934C120.198 135.973 120.095 135.989 119.993 135.983C119.89 135.977 119.79 135.949 119.7 135.9C119.55 135.834 119.428 135.718 119.355 135.572C119.282 135.426 119.262 135.259 119.3 135.1C119.795 133.322 120.195 131.52 120.5 129.7C120.847 127.919 121.048 126.113 121.1 124.3C121.183 122.497 121.116 120.691 120.9 118.9C120.705 117.117 120.405 115.347 120 113.6C119.969 113.508 119.958 113.411 119.967 113.314C119.976 113.218 120.005 113.125 120.052 113.04C120.099 112.955 120.163 112.882 120.24 112.823C120.317 112.764 120.406 112.722 120.5 112.7C120.673 112.656 120.855 112.672 121.018 112.745C121.182 112.817 121.316 112.942 121.4 113.1Z" fill="#230F05"/>
<path d="M119.2 139.701C120.392 139.894 121.563 140.196 122.7 140.601L124.4 141.001L126 141.401C127.116 141.367 128.224 141.199 129.3 140.901L132.6 139.901C132.673 139.867 132.751 139.848 132.83 139.846C132.909 139.843 132.989 139.855 133.063 139.883C133.138 139.911 133.206 139.954 133.264 140.008C133.322 140.063 133.368 140.128 133.4 140.201C133.454 140.261 133.492 140.334 133.512 140.413C133.531 140.492 133.531 140.575 133.511 140.653C133.491 140.732 133.453 140.805 133.399 140.865C133.345 140.926 133.276 140.972 133.2 141.001C132.142 141.706 131 142.277 129.8 142.701C128.541 143.109 127.224 143.312 125.9 143.301C125.216 143.284 124.539 143.149 123.9 142.901L122.1 142.401L118.8 140.901C118.4 140.801 118.3 140.401 118.5 140.001C118.522 139.931 118.558 139.868 118.606 139.814C118.655 139.76 118.715 139.717 118.781 139.689C118.848 139.66 118.92 139.647 118.992 139.649C119.064 139.651 119.136 139.668 119.2 139.701Z" fill="#230F05"/>
<path d="M129.5 74.1996C119.361 77.2439 108.878 78.9912 98.2997 79.3996C90.3997 79.5996 85.6997 78.9996 78.3997 80.6996C70.7427 82.6122 63.6048 86.1982 57.4997 91.1996C56.8878 85.3333 57.0897 79.4106 58.0997 73.5996C59.7768 62.3822 64.494 51.8382 71.7394 43.112C78.9848 34.3857 88.4818 27.8104 99.1997 24.0996L129.5 74.1996Z" fill="url(#paint3_linear)"/>
</g>
<defs>
<linearGradient id="paint0_linear" x1="134.84" y1="254.22" x2="134.84" y2="83.2598" gradientUnits="userSpaceOnUse">
<stop stop-color="#CEA28B"/>
<stop offset="0.16" stop-color="#DDB69E"/>
<stop offset="0.36" stop-color="#EBC9B0"/>
<stop offset="0.49" stop-color="#F0D0B6"/>
</linearGradient>
<linearGradient id="paint1_linear" x1="129.98" y1="235.011" x2="129.98" y2="176.741" gradientUnits="userSpaceOnUse">
<stop stop-color="#533E37"/>
<stop offset="0.43" stop-color="#503B34"/>
<stop offset="0.75" stop-color="#47312B"/>
<stop offset="1" stop-color="#3B241E"/>
</linearGradient>
<linearGradient id="paint2_linear" x1="134.38" y1="80.6" x2="199.41" y2="80.6" gradientUnits="userSpaceOnUse">
<stop stop-color="#CEA28B"/>
<stop offset="0.32" stop-color="#DDB69E"/>
<stop offset="0.72" stop-color="#EBC9B0"/>
<stop offset="1" stop-color="#F0D0B6"/>
</linearGradient>
<linearGradient id="paint3_linear" x1="57.1397" y1="57.6496" x2="129.47" y2="57.6496" gradientUnits="userSpaceOnUse">
<stop stop-color="#CEA28B"/>
<stop offset="0.15" stop-color="#DDB69E"/>
<stop offset="0.33" stop-color="#EBC9B0"/>
<stop offset="0.46" stop-color="#F0D0B6"/>
</linearGradient>
<clipPath id="clip0">
<path d="M0 0.900391H256V256.9H0V0.900391Z" fill="white"/>
</clipPath>
</defs>
</svg>
