<svg width="256" height="257" viewBox="0 0 256 257" fill="none" xmlns="http://www.w3.org/2000/svg">
<g clip-path="url(#clip0)">
<path d="M0 0.900391H256V256.9H0V0.900391Z" fill="white" fill-opacity="0.01"/>
<path d="M128 256.9C198.692 256.9 256 199.593 256 128.9C256 58.2079 198.692 0.900391 128 0.900391C57.3075 0.900391 0 58.2079 0 128.9C0 199.593 57.3075 256.9 128 256.9Z" fill="#6554C0"/>
<path d="M87.2998 192L176.8 193.4L175.1 210.6L88.6998 210.1L87.2998 192Z" fill="#5243AA"/>
<path d="M126.399 74.3008C143.52 74.3008 157.399 60.4216 157.399 43.3008C157.399 26.18 143.52 12.3008 126.399 12.3008C109.279 12.3008 95.3994 26.18 95.3994 43.3008C95.3994 60.4216 109.279 74.3008 126.399 74.3008Z" fill="#572000"/>
<path d="M192.9 97.4008C192.9 64.5008 164.3 37.8008 128.9 37.8008C93.5 37.8008 65 64.5008 65 97.4008V110.501C65 143.401 93.6 170.101 128.9 170.101C164.2 170.101 192.9 143.401 192.9 110.501V97.4008Z" fill="#6A330D"/>
<path d="M205.7 230.602L172.8 208.802C172.151 208.436 171.438 208.198 170.7 208.102L131.6 206.102L92.5998 208.102C91.8548 208.168 91.1357 208.408 90.4998 208.802L55.0998 232.202L53.7998 233.202C76.0778 249.046 102.843 257.342 130.177 256.874C157.511 256.406 183.977 247.199 205.7 230.602Z" fill="#5243AA"/>
<path d="M159 220.002L132.1 249.402L102.7 219.302C100.492 217.055 99.0807 214.147 98.6833 211.022C98.2859 207.898 98.9241 204.729 100.5 202.002C101.875 199.679 102.855 197.145 103.4 194.502C106.2 180.702 97.1 170.302 96 169.102L163.4 166.602C162.1 168.602 155 179.902 158.6 193.802C159.23 196.071 160.137 198.254 161.3 200.302C163.012 203.417 163.71 206.988 163.298 210.519C162.886 214.05 161.383 217.364 159 220.002Z" fill="url(#paint0_linear)"/>
<path d="M77.3 141.202C84.9215 141.202 91.1 135.023 91.1 127.402C91.1 119.78 84.9215 113.602 77.3 113.602C69.6785 113.602 63.5 119.78 63.5 127.402C63.5 135.023 69.6785 141.202 77.3 141.202Z" fill="url(#paint1_linear)"/>
<path d="M84.9999 165.101C80.9415 165.102 77.0253 163.607 73.9999 160.901C72.3634 159.491 71.0317 157.761 70.0861 155.818C69.1404 153.875 68.6007 151.76 68.4999 149.601C68.3581 147.43 68.6474 145.251 69.351 143.192C70.0547 141.132 71.1588 139.232 72.5999 137.601C73.0508 137.098 73.6833 136.793 74.3585 136.756C75.0336 136.718 75.696 136.951 76.1999 137.401C76.7038 137.852 77.008 138.485 77.0455 139.16C77.083 139.835 76.8508 140.498 76.3999 141.001C75.3912 142.124 74.6154 143.436 74.1176 144.861C73.6197 146.285 73.4098 147.795 73.4999 149.301C73.7312 152.34 75.1287 155.17 77.3999 157.201C78.5092 158.315 79.835 159.189 81.2952 159.769C82.7555 160.35 84.3193 160.626 85.8901 160.578C87.4609 160.531 89.0054 160.163 90.4282 159.495C91.8511 158.828 93.122 157.876 94.1627 156.699C95.2034 155.521 95.9916 154.143 96.4788 152.649C96.966 151.155 97.1418 149.577 96.9954 148.012C96.8489 146.447 96.3833 144.929 95.6273 143.551C94.8713 142.174 93.841 140.966 92.5999 140.001C92.1142 139.561 91.821 138.947 91.7836 138.292C91.7462 137.638 91.9675 136.995 92.3999 136.501C92.6194 136.246 92.8881 136.038 93.1901 135.889C93.4921 135.74 93.8211 135.653 94.1573 135.635C94.4935 135.616 94.83 135.665 95.1466 135.78C95.4633 135.895 95.7535 136.072 95.9999 136.301C98.4912 138.529 100.247 141.461 101.036 144.708C101.824 147.956 101.608 151.367 100.416 154.489C99.2232 157.611 97.1108 160.297 94.358 162.192C91.6053 164.087 88.3419 165.102 84.9999 165.101Z" fill="#5243AA"/>
<path d="M179.3 141.202C186.922 141.202 193.1 135.023 193.1 127.402C193.1 119.78 186.922 113.602 179.3 113.602C171.678 113.602 165.5 119.78 165.5 127.402C165.5 135.023 171.678 141.202 179.3 141.202Z" fill="url(#paint2_linear)"/>
<path d="M172.6 165.101C170.264 165.097 167.955 164.606 165.82 163.659C163.685 162.712 161.771 161.33 160.2 159.601C157.319 156.315 155.851 152.026 156.113 147.664C156.375 143.302 158.347 139.219 161.6 136.301C161.846 136.072 162.136 135.895 162.453 135.78C162.77 135.665 163.106 135.616 163.442 135.635C163.779 135.653 164.107 135.74 164.409 135.889C164.711 136.038 164.98 136.246 165.2 136.501C165.632 136.995 165.853 137.638 165.816 138.292C165.779 138.947 165.485 139.561 165 140.001C162.936 142.073 161.738 144.852 161.65 147.775C161.563 150.697 162.592 153.544 164.528 155.735C166.464 157.926 169.162 159.297 172.074 159.569C174.985 159.842 177.891 158.995 180.2 157.201C181.332 156.208 182.252 154.996 182.905 153.639C183.558 152.281 183.93 150.806 184 149.301C184.103 147.802 183.909 146.296 183.429 144.872C182.948 143.447 182.191 142.132 181.2 141.001C180.97 140.755 180.793 140.465 180.678 140.148C180.564 139.832 180.514 139.495 180.533 139.159C180.552 138.823 180.638 138.494 180.787 138.192C180.936 137.89 181.144 137.621 181.4 137.401C181.893 136.969 182.536 136.748 183.191 136.785C183.845 136.823 184.459 137.116 184.9 137.601C186.354 139.228 187.473 141.124 188.194 143.183C188.915 145.243 189.223 147.423 189.1 149.601C188.976 151.755 188.427 153.863 187.483 155.803C186.538 157.743 185.219 159.476 183.6 160.901C180.565 163.591 176.655 165.083 172.6 165.101Z" fill="#5243AA"/>
<path d="M184.2 122.201C183 151.801 159.3 185.801 128.5 185.801C97.6996 185.801 73.9996 151.801 72.7996 122.201C71.4996 89.5012 85.8996 52.7012 128.5 52.7012C171.1 52.7012 185.5 89.5012 184.2 122.201Z" fill="#FFE2D9"/>
<path d="M171.1 110.002C168.578 108.287 165.899 106.813 163.1 105.602C160.313 104.443 157.318 103.864 154.3 103.902C148.272 104.033 142.504 106.383 138.1 110.502C137.9 110.672 137.641 110.757 137.38 110.738C137.118 110.72 136.874 110.599 136.7 110.402C136.545 110.22 136.46 109.99 136.46 109.752C136.46 109.513 136.545 109.283 136.7 109.102C138.984 106.695 141.742 104.788 144.8 103.502C147.82 102.279 151.042 101.634 154.3 101.602C157.592 101.707 160.84 102.383 163.9 103.602C166.973 104.802 169.619 106.891 171.5 109.602C171.515 109.743 171.48 109.884 171.4 110.002H171.1Z" fill="#6A330D"/>
<path d="M81.4998 109.602C83.3215 106.876 85.9411 104.781 88.9998 103.602C92.0596 102.383 95.308 101.707 98.5998 101.602C101.891 101.624 105.148 102.269 108.2 103.502C111.228 104.79 113.953 106.698 116.2 109.102C116.383 109.288 116.486 109.54 116.486 109.802C116.486 110.063 116.383 110.315 116.2 110.502C115.996 110.648 115.751 110.727 115.5 110.727C115.249 110.727 115.004 110.648 114.8 110.502C112.638 108.426 110.09 106.795 107.3 105.702C104.542 104.549 101.588 103.938 98.5998 103.902C95.5814 103.864 92.5871 104.443 89.7998 105.602C87.0113 106.835 84.3347 108.307 81.7998 110.002H81.4998C81.4735 110.002 81.4475 109.996 81.4233 109.986C81.399 109.976 81.377 109.962 81.3584 109.943C81.3398 109.924 81.3251 109.902 81.315 109.878C81.305 109.854 81.2998 109.828 81.2998 109.802C81.2998 109.775 81.305 109.749 81.315 109.725C81.3251 109.701 81.3398 109.679 81.3584 109.66C81.377 109.642 81.399 109.627 81.4233 109.617C81.4475 109.607 81.4735 109.602 81.4998 109.602Z" fill="#6A330D"/>
<path d="M102.1 119.401C103.812 119.401 105.2 118.013 105.2 116.301C105.2 114.589 103.812 113.201 102.1 113.201C100.388 113.201 99 114.589 99 116.301C99 118.013 100.388 119.401 102.1 119.401Z" fill="#253858"/>
<path d="M88.5998 117.1C88.9937 117.287 89.4268 117.375 89.8621 117.357C90.2974 117.34 90.7221 117.218 91.0998 117C91.187 116.99 91.2698 116.957 91.34 116.904C91.4102 116.851 91.4654 116.781 91.4998 116.7H91.6998L91.9998 116.4L93.2998 115.2C95.1887 113.786 97.3791 112.828 99.6998 112.4C102.038 111.966 104.448 112.138 106.7 112.9C108.915 113.624 110.91 114.897 112.5 116.6C112.69 116.804 112.795 117.072 112.795 117.35C112.795 117.629 112.69 117.897 112.5 118.1C112.296 118.247 112.051 118.326 111.8 118.326C111.549 118.326 111.304 118.247 111.1 118.1C108.898 116.05 106.062 114.813 103.061 114.595C100.06 114.377 97.0751 115.19 94.5998 116.9L93.3998 117.9L93.0998 118.1L92.6998 118.4L91.6998 118.9C91.0453 119.122 90.333 119.103 89.6913 118.847C89.0496 118.59 88.5207 118.113 88.1998 117.5C88.1828 117.475 88.1719 117.446 88.1678 117.416C88.1637 117.386 88.1666 117.355 88.1763 117.326C88.1859 117.297 88.2021 117.271 88.2235 117.249C88.2449 117.227 88.271 117.21 88.2998 117.2C88.3998 117.1 88.4998 117.1 88.4998 117.2L88.5998 117.1Z" fill="#253858"/>
<path d="M151.9 119.401C153.612 119.401 155 118.013 155 116.301C155 114.589 153.612 113.201 151.9 113.201C150.188 113.201 148.8 114.589 148.8 116.301C148.8 118.013 150.188 119.401 151.9 119.401Z" fill="#253858"/>
<path d="M165.8 117.902C165.479 118.514 164.95 118.991 164.309 119.248C163.667 119.505 162.955 119.524 162.3 119.302L161.3 118.902L160.9 118.502L160.6 118.302C160.247 117.916 159.843 117.579 159.4 117.302C157.756 116.164 155.876 115.412 153.9 115.102C151.962 114.785 149.977 114.922 148.1 115.502C146.165 116.102 144.388 117.127 142.9 118.502C142.692 118.651 142.438 118.722 142.182 118.704C141.927 118.686 141.685 118.579 141.5 118.402C141.412 118.318 141.343 118.217 141.295 118.105C141.247 117.993 141.223 117.873 141.223 117.752C141.223 117.63 141.247 117.51 141.295 117.398C141.343 117.287 141.412 117.186 141.5 117.102C143.074 115.31 145.118 113.994 147.4 113.302C149.628 112.588 151.993 112.417 154.3 112.802C156.632 113.192 158.831 114.154 160.7 115.602L162 116.802L162.3 117.102C162.4 117.102 162.4 117.202 162.5 117.302L163 117.602C163.394 117.775 163.82 117.865 164.25 117.865C164.681 117.865 165.106 117.775 165.5 117.602C165.526 117.585 165.554 117.574 165.585 117.57C165.615 117.566 165.646 117.568 165.675 117.578C165.704 117.588 165.73 117.604 165.752 117.625C165.774 117.647 165.79 117.673 165.8 117.702C165.9 117.802 165.9 117.902 165.8 117.902Z" fill="#253858"/>
<path d="M129.1 38.7012C98.0002 38.7012 72.2002 64.5012 66.7002 98.7012H191.4C185.9 64.5012 160.1 38.7012 129.1 38.7012Z" fill="#6A330D"/>
<path d="M144 159.401C139.35 161.844 134.15 163.049 128.9 162.901C119.4 162.501 109.8 157.301 109.8 157.301L115 154.901C117.6 153.601 120.7 153.901 123.7 155.701L124.7 156.201C125.828 156.884 127.118 157.254 128.436 157.271C129.755 157.289 131.054 156.954 132.2 156.301C133.338 155.699 134.619 155.418 135.905 155.489C137.191 155.559 138.434 155.978 139.5 156.701L144 159.401Z" fill="#FF7143"/>
<path d="M144 159.401C144 159.401 140.8 170.101 129.7 170.101C118.6 170.101 109.8 157.301 109.8 157.301C114.6 159.801 121.5 162.601 128.9 162.901C134.155 163.096 139.367 161.888 144 159.401Z" fill="#FF8A63"/>
<path d="M108.5 156.5C111.339 158.044 114.364 159.22 117.5 160C119.08 160.397 120.683 160.697 122.3 160.9C123.847 161.22 125.421 161.387 127 161.4C130.202 161.602 133.417 161.502 136.6 161.1C139.812 160.718 142.988 160.083 146.1 159.2C146.193 159.166 146.296 159.167 146.389 159.204C146.481 159.241 146.557 159.311 146.6 159.4C146.6 159.6 146.6 159.8 146.4 159.9C143.392 161.347 140.193 162.357 136.9 162.9C130.284 164.042 123.49 163.562 117.1 161.5C113.902 160.509 110.894 158.988 108.2 157C108.1 156.9 108 156.7 108.1 156.6C108.2 156.5 108.4 156.4 108.5 156.5Z" fill="#7A4F2C"/>
<path d="M122.5 114.701C123.069 116.055 123.504 117.462 123.8 118.901C124.065 120.355 124.232 121.825 124.3 123.301C124.296 124.773 124.196 126.243 124 127.701C123.809 129.131 123.474 130.539 123 131.901C122.98 132.008 122.936 132.108 122.871 132.195C122.806 132.282 122.721 132.352 122.624 132.4C122.527 132.449 122.42 132.474 122.312 132.474C122.204 132.475 122.097 132.449 122 132.401C121.816 132.336 121.657 132.214 121.549 132.051C121.441 131.889 121.389 131.696 121.4 131.501C121.6 130.101 121.8 128.801 121.9 127.401C122.034 126.039 122.068 124.668 122 123.301C121.999 121.962 121.899 120.625 121.7 119.301C121.5 117.901 121.2 116.601 120.9 115.201C120.886 115.096 120.893 114.989 120.92 114.887C120.948 114.784 120.996 114.688 121.061 114.605C121.126 114.521 121.207 114.451 121.3 114.399C121.392 114.347 121.494 114.314 121.6 114.301C121.773 114.258 121.955 114.274 122.118 114.346C122.281 114.419 122.416 114.544 122.5 114.701Z" fill="#F0BEB4"/>
<path d="M119.1 141.401C120.289 140.649 121.702 140.331 123.1 140.501L124.3 140.901L125 141.201H126.2C126.714 141.081 127.216 140.914 127.7 140.701C128.32 140.386 129.004 140.215 129.7 140.201C131.049 140.096 132.401 140.374 133.6 141.001C133.692 141.053 133.773 141.123 133.839 141.207C133.904 141.29 133.952 141.386 133.98 141.489C134.008 141.591 134.015 141.698 134.001 141.803C133.988 141.908 133.953 142.01 133.9 142.101C133.867 142.174 133.821 142.239 133.763 142.294C133.705 142.348 133.637 142.391 133.562 142.419C133.488 142.447 133.409 142.46 133.329 142.457C133.25 142.454 133.172 142.435 133.1 142.401C132.063 142.088 130.967 142.02 129.9 142.201L128.5 142.701C127.904 143.027 127.264 143.263 126.6 143.401C125.837 143.568 125.045 143.534 124.3 143.301L123.3 142.901L122.7 142.601C121.731 142.425 120.734 142.494 119.8 142.801C119.601 142.865 119.385 142.849 119.198 142.755C119.011 142.662 118.868 142.499 118.8 142.301C118.747 142.139 118.748 141.964 118.802 141.802C118.856 141.64 118.96 141.5 119.1 141.401Z" fill="#F0BEB4"/>
<path d="M189.399 83.9004C197.199 105.6 194.999 114.2 191.399 118C190.099 119.4 187.899 120.8 185.999 124.3C182.499 130.3 182.799 136.8 182.899 138.7C183.299 144.3 184.699 144.3 184.699 148.3C184.699 152.3 181.099 156 178.399 161.5C175.699 167 175.299 173.7 176.399 179.8C176.099 178.1 174.099 175.9 173.499 174.1C172.694 171.878 172.189 169.557 171.999 167.2C171.599 162.5 172.799 158 174.399 153.6C175.999 149.2 174.799 145.7 174.099 141.1C173.399 136.5 174.799 133.4 175.499 129.6C176.799 122.9 174.399 116.8 170.699 111.3C168.699 106.9 167.099 99.9004 169.399 89.1004L189.399 83.9004Z" fill="#6A330D"/>
<path d="M68.2997 83.9004C60.4997 105.6 62.6997 114.2 66.2997 118C67.5997 119.4 69.7997 120.8 71.6997 124.3C75.1997 130.3 74.8997 136.8 74.7997 138.7C74.3997 144.3 72.9997 144.3 72.9997 148.3C72.9997 152.3 76.5997 156 79.2997 161.5C81.9997 167 82.3997 173.7 81.2997 179.8C81.5997 178.1 83.5997 175.9 84.1997 174.1C85.0053 171.878 85.5098 169.557 85.6997 167.2C86.0997 162.5 84.8997 158 83.2997 153.6C81.6997 149.2 82.8997 145.7 83.5997 141.1C84.2997 136.5 82.8997 133.4 82.1997 129.6C80.8997 122.9 83.2997 116.8 86.9997 111.3C88.9997 106.9 90.5997 99.9004 88.2997 89.1004L68.2997 83.9004Z" fill="#6A330D"/>
</g>
<defs>
<linearGradient id="paint0_linear" x1="129.73" y1="168.222" x2="129.73" y2="248.962" gradientUnits="userSpaceOnUse">
<stop stop-color="#EBBEAE"/>
<stop offset="0.64" stop-color="#FFE2D9"/>
</linearGradient>
<linearGradient id="paint1_linear" x1="63.57" y1="127.412" x2="91.11" y2="127.412" gradientUnits="userSpaceOnUse">
<stop stop-color="#FFE2D9"/>
<stop offset="1" stop-color="#EBBEAE"/>
</linearGradient>
<linearGradient id="paint2_linear" x1="165.5" y1="127.412" x2="193.04" y2="127.412" gradientUnits="userSpaceOnUse">
<stop stop-color="#EBBEAE"/>
<stop offset="1" stop-color="#FFE2D9"/>
</linearGradient>
<clipPath id="clip0">
<path d="M0 0.900391H256V256.9H0V0.900391Z" fill="white"/>
</clipPath>
</defs>
</svg>
