<svg width="256" height="258" viewBox="0 0 256 258" fill="none" xmlns="http://www.w3.org/2000/svg">
<g clip-path="url(#clip0)">
<path d="M0 0.900391H256V257.6H0V0.900391Z" fill="white" fill-opacity="0.01"/>
<path d="M256 130.601V127.901C255.995 105.839 250.178 84.1675 239.136 65.0679C228.094 45.9682 212.216 30.1139 193.1 19.1006L190.9 17.7006C171.763 6.69832 150.074 0.908203 128 0.908203C105.926 0.908203 84.2372 6.69832 65.1 17.7006L62.9 19.1006C43.7838 30.1139 27.9057 45.9682 16.8637 65.0679C5.8217 84.1675 0.0053515 105.839 0 127.901L0 130.601C0.0053515 152.662 5.8217 174.334 16.8637 193.433C27.9057 212.533 43.7838 228.387 62.9 239.401L65.1 240.801C84.2372 251.803 105.926 257.593 128 257.593C150.074 257.593 171.763 251.803 190.9 240.801L193.1 239.401C212.216 228.387 228.094 212.533 239.136 193.433C250.178 174.334 255.995 152.662 256 130.601Z" fill="#0065FF"/>
<path d="M170.2 214.301L131.6 212.301L93.0002 214.301C92.2462 214.321 91.5152 214.564 90.9002 215.001L58.5002 236.401L58.2002 236.601C59.7002 237.601 61.3002 238.501 62.9002 239.401L65.1002 240.801C84.2374 251.803 105.926 257.593 128 257.593C150.075 257.593 171.763 251.803 190.9 240.801L193.1 239.401C195.96 237.821 198.731 236.085 201.4 234.201L172.3 215.001C171.671 214.592 170.948 214.351 170.2 214.301Z" fill="#B2D4FF"/>
<path d="M83.6 127.302C83.6 133.602 82.4 145.502 76.1 145.502C69.8 145.502 61 133.602 61 127.302C61 125.818 61.2923 124.349 61.8602 122.978C62.428 121.607 63.2604 120.361 64.3097 119.312C65.359 118.262 66.6047 117.43 67.9757 116.862C69.3467 116.294 70.8161 116.002 72.3 116.002C73.7839 116.002 75.2533 116.294 76.6243 116.862C77.9953 117.43 79.241 118.262 80.2903 119.312C81.3396 120.361 82.172 121.607 82.7398 122.978C83.3077 124.349 83.6 125.818 83.6 127.302Z" fill="#473630"/>
<path d="M198.3 127.3C198.3 133.6 189.4 145.5 183.2 145.5C177 145.5 175.6 133.6 175.6 127.3C175.866 124.474 177.176 121.848 179.275 119.937C181.375 118.026 184.111 116.967 186.95 116.967C189.789 116.967 192.526 118.026 194.625 119.937C196.724 121.848 198.035 124.474 198.3 127.3Z" fill="#473630"/>
<path d="M167.9 215.6C167 216.8 152.2 236.8 127.8 234.9C108.1 233.3 97.0003 218.6 95.3003 216.3C97.8306 211.533 99.6179 206.407 100.6 201.1C101.957 193.198 101.478 185.089 99.2003 177.4H160.9C158.032 185.023 157.681 193.364 159.9 201.2C161.415 206.556 164.154 211.485 167.9 215.6Z" fill="url(#paint0_linear)"/>
<path d="M188.3 138.6C188.173 140.976 187.632 143.311 186.7 145.5C183.882 151.995 179.957 157.95 175.1 163.1L161.4 177.2C153.419 185.427 142.555 190.231 131.1 190.6H128.9C117.3 190.356 106.266 185.54 98.2001 177.2L87.3001 166C81.0619 160.234 76.0607 153.259 72.6001 145.5C71.6225 143.327 71.079 140.983 71.0001 138.6L69.1001 84.2005C69.0079 82.1688 69.2788 80.137 69.9001 78.2005C77.6001 52.9005 101.1 37.7005 128.7 37.3005C156.3 36.9005 181.8 52.5005 189.5 78.6005C189.978 80.3944 190.213 82.2441 190.2 84.1005L188.3 138.6Z" fill="#533E37"/>
<path d="M70.8004 148.601C73.7827 148.601 76.2004 146.183 76.2004 143.201C76.2004 140.218 73.7827 137.801 70.8004 137.801C67.8181 137.801 65.4004 140.218 65.4004 143.201C65.4004 146.183 67.8181 148.601 70.8004 148.601Z" fill="#DEEBFF"/>
<path d="M188.5 148.601C191.482 148.601 193.9 146.183 193.9 143.201C193.9 140.218 191.482 137.801 188.5 137.801C185.518 137.801 183.1 140.218 183.1 143.201C183.1 146.183 185.518 148.601 188.5 148.601Z" fill="#DEEBFF"/>
<path d="M117.4 104.602C112.613 102.285 107.306 101.251 102 101.602C99.4216 101.809 96.8913 102.416 94.5 103.402C92.0519 104.368 89.8115 105.793 87.9 107.602H87.8C87.6114 107.74 87.3837 107.815 87.15 107.815C86.9162 107.815 86.6885 107.74 86.5 107.602C86.3878 107.444 86.3194 107.259 86.3019 107.065C86.2843 106.872 86.3182 106.678 86.4 106.502C87.165 105.153 88.1444 103.937 89.3 102.902C90.4307 101.926 91.6726 101.087 93 100.402C94.3254 99.6411 95.7349 99.0371 97.2 98.602C98.6527 98.1012 100.166 97.7985 101.7 97.702C104.723 97.3629 107.784 97.635 110.7 98.502C112.169 98.9713 113.578 99.6089 114.9 100.402C116.25 101.124 117.467 102.071 118.5 103.202C118.582 103.293 118.644 103.399 118.683 103.514C118.723 103.63 118.738 103.752 118.729 103.873C118.719 103.995 118.685 104.113 118.629 104.221C118.572 104.33 118.494 104.425 118.4 104.502C118.286 104.623 118.133 104.699 117.968 104.717C117.803 104.735 117.638 104.695 117.5 104.602H117.4Z" fill="#230F05"/>
<path d="M140 103.201C142.16 101.021 144.847 99.4362 147.8 98.6009C150.714 97.7225 153.765 97.3836 156.8 97.6009C159.888 97.8877 162.883 98.8067 165.6 100.301C166.935 101.052 168.177 101.959 169.3 103.001C170.501 103.992 171.487 105.217 172.2 106.601C172.269 106.71 172.313 106.833 172.329 106.961C172.346 107.089 172.335 107.219 172.297 107.342C172.259 107.466 172.195 107.579 172.11 107.676C172.024 107.772 171.918 107.849 171.8 107.901C171.621 107.996 171.415 108.029 171.216 107.992C171.016 107.956 170.834 107.853 170.7 107.701H170.6C168.657 105.959 166.423 104.571 164 103.601C162.82 103.052 161.578 102.649 160.3 102.401C159.055 102.062 157.784 101.828 156.5 101.701C153.894 101.532 151.276 101.667 148.7 102.101C146.089 102.604 143.563 103.48 141.2 104.701H141.1C140.87 104.79 140.617 104.798 140.381 104.726C140.145 104.653 139.941 104.504 139.8 104.301C139.705 104.122 139.673 103.916 139.709 103.716C139.745 103.516 139.848 103.335 140 103.201Z" fill="#230F05"/>
<path d="M142.9 116.702C144.123 114.301 145.993 112.292 148.3 110.902C150.673 109.481 153.462 108.916 156.2 109.302C158.827 109.819 161.294 110.95 163.4 112.602C164.4 113.302 165.4 114.102 166.4 114.702C167.195 115.32 168.199 115.606 169.2 115.502H169.3C169.392 115.471 169.489 115.46 169.586 115.469C169.682 115.478 169.775 115.507 169.86 115.554C169.945 115.601 170.018 115.665 170.077 115.742C170.136 115.819 170.178 115.908 170.2 116.002C170.232 116.08 170.246 116.164 170.242 116.249C170.238 116.333 170.217 116.415 170.179 116.491C170.142 116.566 170.088 116.633 170.023 116.687C169.958 116.74 169.882 116.779 169.8 116.802C169.067 117.202 168.21 117.309 167.4 117.102L165.5 116.302L162.3 114.202C160.419 112.755 158.229 111.762 155.9 111.302C153.597 110.99 151.253 111.41 149.2 112.502C148.203 113.112 147.266 113.815 146.4 114.602C145.56 115.421 144.852 116.366 144.3 117.402H144.2C144.159 117.491 144.098 117.57 144.024 117.635C143.949 117.699 143.862 117.747 143.768 117.775C143.673 117.804 143.574 117.812 143.476 117.799C143.378 117.786 143.284 117.753 143.2 117.702C143.039 117.598 142.92 117.441 142.865 117.257C142.81 117.074 142.822 116.877 142.9 116.702Z" fill="#230F05"/>
<path d="M154.7 116.8C156.467 116.8 157.9 115.368 157.9 113.6C157.9 111.833 156.467 110.4 154.7 110.4C152.933 110.4 151.5 111.833 151.5 113.6C151.5 115.368 152.933 116.8 154.7 116.8Z" fill="#230F05"/>
<path d="M112.7 117.302C112.076 116.26 111.301 115.316 110.4 114.502C109.577 113.692 108.633 113.017 107.6 112.502C105.545 111.416 103.204 110.997 100.9 111.302C99.7521 111.449 98.6368 111.787 97.6001 112.302C96.4648 112.728 95.3892 113.3 94.4001 114.002L91.2001 116.002L89.3001 116.802C88.5649 116.982 87.7907 116.911 87.1001 116.602C87.0209 116.602 86.9428 116.583 86.8723 116.547C86.8017 116.511 86.7408 116.458 86.6945 116.394C86.6482 116.33 86.6178 116.255 86.6058 116.177C86.5939 116.099 86.6007 116.019 86.6258 115.943C86.6508 115.868 86.6934 115.8 86.7499 115.745C86.8065 115.689 86.8754 115.648 86.951 115.624C87.0266 115.601 87.1068 115.595 87.1849 115.609C87.2629 115.622 87.3367 115.654 87.4001 115.702H87.5001C88.028 115.808 88.5733 115.791 89.0937 115.652C89.614 115.514 90.0953 115.257 90.5001 114.902C91.5468 114.234 92.5489 113.499 93.5001 112.702C95.5512 111.002 97.9899 109.834 100.6 109.302C103.339 108.916 106.127 109.481 108.5 110.902C110.732 112.337 112.503 114.385 113.6 116.802C113.648 116.924 113.655 117.059 113.618 117.185C113.582 117.312 113.506 117.423 113.4 117.502C113.292 117.542 113.174 117.545 113.064 117.508C112.955 117.472 112.862 117.399 112.8 117.302H112.7Z" fill="#230F05"/>
<path d="M102 116.8C103.768 116.8 105.2 115.368 105.2 113.6C105.2 111.833 103.768 110.4 102 110.4C100.233 110.4 98.8003 111.833 98.8003 113.6C98.8003 115.368 100.233 116.8 102 116.8Z" fill="#230F05"/>
<path d="M144.5 159.702C138.8 159.302 136.4 156.402 131.1 156.602C130.3 156.602 127.1 158.302 127.1 158.302C127.1 158.302 123.9 156.602 123 156.602C117.8 156.402 115.4 159.302 109.6 159.702C108.264 159.817 106.918 159.749 105.6 159.502C106 160.202 113.6 171.002 127.1 170.902C140.6 170.802 148.1 160.202 148.6 159.502C147.248 159.747 145.87 159.815 144.5 159.702Z" fill="#8C715D"/>
<path d="M148.6 159.502C147.248 159.747 145.87 159.815 144.5 159.702C138.8 159.302 136.4 156.402 131.1 156.602C130.3 156.602 127.1 158.302 127.1 158.302C127.1 158.302 123.9 156.602 123 156.602C117.8 156.402 115.4 159.302 109.6 159.702C108.264 159.817 106.918 159.749 105.6 159.502C112.63 162.007 120.037 163.292 127.5 163.302C134.697 163.227 141.829 161.942 148.6 159.502Z" fill="#72594B"/>
<path d="M103.6 157.401C107.286 159.102 111.141 160.409 115.1 161.301C123.007 163.068 131.209 163.034 139.1 161.201C141.065 160.707 143.001 160.106 144.9 159.401C146.857 158.782 148.762 158.013 150.6 157.101C150.748 157.056 150.907 157.061 151.051 157.115C151.196 157.169 151.319 157.27 151.4 157.401C151.443 157.54 151.447 157.688 151.411 157.829C151.376 157.97 151.303 158.098 151.2 158.201C143.928 162.589 135.594 164.906 127.1 164.901C125 164.901 122.9 164.701 120.8 164.501C118.704 164.222 116.632 163.788 114.6 163.201C110.509 162.211 106.596 160.591 103 158.401C102.914 158.374 102.834 158.328 102.768 158.265C102.702 158.203 102.651 158.127 102.618 158.042C102.586 157.957 102.573 157.866 102.581 157.775C102.589 157.685 102.618 157.598 102.665 157.52C102.711 157.442 102.775 157.376 102.851 157.326C102.927 157.276 103.014 157.245 103.104 157.233C103.194 157.222 103.285 157.231 103.371 157.26C103.457 157.289 103.536 157.337 103.6 157.401Z" fill="#230F05"/>
<path d="M123.1 114.501C124.443 118.354 125.054 122.424 124.9 126.501C124.837 128.556 124.569 130.599 124.1 132.601C123.713 134.594 123.109 136.539 122.3 138.401C122.282 138.496 122.241 138.585 122.181 138.661C122.121 138.737 122.043 138.797 121.955 138.836C121.866 138.875 121.77 138.893 121.673 138.887C121.576 138.88 121.483 138.851 121.4 138.801C121.232 138.754 121.088 138.646 120.995 138.498C120.903 138.35 120.869 138.173 120.9 138.001C121.5 136.101 121.9 134.201 122.3 132.301C122.7 130.401 122.8 128.401 122.9 126.501C122.985 124.565 122.918 122.626 122.7 120.701C122.472 118.751 122.139 116.815 121.7 114.901C121.67 114.809 121.659 114.712 121.668 114.616C121.677 114.519 121.706 114.426 121.753 114.341C121.8 114.257 121.864 114.183 121.941 114.124C122.018 114.066 122.106 114.024 122.2 114.001C122.385 113.965 122.577 113.996 122.741 114.087C122.906 114.178 123.033 114.325 123.1 114.501Z" fill="#230F05"/>
<path d="M120.8 142.901L124.5 143.901L126.4 144.401L128.1 144.801C129.282 144.769 130.457 144.601 131.6 144.301C132.801 144.007 133.972 143.605 135.1 143.101C135.5 143.001 135.9 143.101 136 143.501C136.046 143.649 136.041 143.808 135.986 143.952C135.932 144.097 135.832 144.22 135.7 144.301C134.582 145.026 133.371 145.598 132.1 146.001C130.758 146.501 129.332 146.739 127.9 146.701C127.184 146.675 126.476 146.54 125.8 146.301L124 145.701L120.3 144.201C120.161 144.103 120.056 143.962 120.002 143.8C119.949 143.638 119.948 143.464 120 143.301C120.066 143.152 120.182 143.03 120.328 142.957C120.474 142.884 120.641 142.864 120.8 142.901Z" fill="#230F05"/>
<path d="M77.1001 117.102L80.2001 117.302L83.2001 117.102H83.3001C83.6001 117.002 83.9001 117.302 84.0001 117.602C84.0043 117.719 83.9791 117.835 83.9267 117.94C83.8743 118.045 83.7964 118.135 83.7001 118.202C82.648 118.864 81.4422 119.243 80.2001 119.302C78.9408 119.355 77.7027 118.966 76.7001 118.202C76.6295 118.153 76.5702 118.089 76.5262 118.016C76.4822 117.942 76.4546 117.86 76.4451 117.774C76.4356 117.689 76.4445 117.603 76.4713 117.521C76.498 117.44 76.542 117.365 76.6001 117.302C76.7001 117.102 76.9001 117.102 77.1001 117.102Z" fill="#230F05"/>
<path d="M173.6 117.101L176.7 117.301L179.7 117.101C179.78 117.066 179.867 117.052 179.953 117.061C180.039 117.07 180.122 117.101 180.193 117.152C180.263 117.202 180.319 117.27 180.356 117.349C180.392 117.428 180.407 117.515 180.4 117.601C180.441 117.709 180.443 117.827 180.407 117.937C180.371 118.046 180.297 118.139 180.2 118.201C179.148 118.864 177.942 119.243 176.7 119.301C175.439 119.372 174.194 118.981 173.2 118.201C173.13 118.152 173.07 118.089 173.026 118.015C172.982 117.942 172.955 117.859 172.945 117.774C172.936 117.689 172.945 117.602 172.971 117.521C172.998 117.439 173.042 117.364 173.1 117.301C173.2 117.101 173.4 117.101 173.6 117.101Z" fill="#230F05"/>
<path d="M173.3 119.902L176 121.302L178.8 122.302H178.9C179.2 122.302 179.4 122.702 179.3 123.002L178.8 123.502C177.577 123.686 176.326 123.513 175.2 123.002C174.018 122.548 173.029 121.7 172.4 120.602C172.328 120.441 172.319 120.26 172.374 120.093C172.43 119.926 172.546 119.787 172.7 119.702C172.776 119.658 172.862 119.635 172.95 119.635C173.038 119.635 173.124 119.658 173.2 119.702L173.3 119.902Z" fill="#230F05"/>
<path d="M77.9 123.502L80.7 122.302L83.3 120.702C83.4049 120.631 83.5293 120.596 83.6557 120.6C83.782 120.604 83.9037 120.648 84.0035 120.726C84.1033 120.804 84.176 120.911 84.2113 121.032C84.2466 121.154 84.2426 121.283 84.2 121.402C83.6379 122.494 82.7689 123.397 81.7 124.002C80.5939 124.68 79.2774 124.929 78 124.702C77.7 124.702 77.5 124.302 77.5 124.002C77.5 123.702 77.7 123.602 77.9 123.602V123.502Z" fill="#230F05"/>
<path d="M96.5 159.802C95.9551 158.455 95.9551 156.949 96.5 155.602C97.0766 154.287 98.1055 153.223 99.4 152.602C99.4574 152.568 99.5224 152.549 99.5891 152.547C99.6557 152.545 99.7218 152.559 99.7814 152.589C99.841 152.619 99.8922 152.663 99.9304 152.718C99.9686 152.772 99.9925 152.836 100 152.902C100.005 152.956 99.9981 153.011 99.9809 153.062C99.9637 153.114 99.9362 153.161 99.9 153.202C99.3186 154.229 98.8172 155.298 98.4 156.402C98.0165 157.436 97.7482 158.509 97.6 159.602C97.5761 159.743 97.5025 159.871 97.3925 159.963C97.2824 160.055 97.1432 160.104 97 160.102C96.9 160.091 96.8035 160.058 96.7172 160.006C96.631 159.955 96.5569 159.885 96.5 159.802Z" fill="#230F05"/>
<path d="M155.7 152.602C156.368 152.869 156.971 153.274 157.471 153.791C157.971 154.308 158.355 154.925 158.6 155.602C158.912 156.237 159.082 156.933 159.1 157.641C159.117 158.348 158.981 159.052 158.7 159.702C158.657 159.791 158.581 159.861 158.489 159.898C158.396 159.935 158.293 159.936 158.2 159.902C158 159.902 158 159.802 157.9 159.702C157.67 158.561 157.301 157.452 156.8 156.402C156.273 155.391 155.671 154.422 155 153.502C154.942 153.438 154.898 153.364 154.871 153.282C154.844 153.2 154.835 153.114 154.845 153.029C154.854 152.943 154.882 152.861 154.926 152.787C154.97 152.714 155.029 152.65 155.1 152.602H155.7Z" fill="#230F05"/>
<path d="M130.3 36.7012C189.9 36.7012 196 87.0012 188.8 114.701C188.541 109.583 187.838 104.498 186.7 99.5012C184.4 89.1012 181.3 75.2012 172.3 68.0012C164.8 62.0012 159.4 65.6012 129.5 65.4012C99.6004 65.2012 94.1004 62.0012 86.6004 68.0012C79.1004 74.0012 74.6004 89.1012 72.2004 99.5012C71.1121 104.507 70.4101 109.588 70.1004 114.701C63.0004 87.0012 69.0004 36.7012 128.6 36.7012H130.3Z" fill="url(#paint1_linear)"/>
</g>
<defs>
<linearGradient id="paint0_linear" x1="131.58" y1="235.02" x2="131.58" y2="177.4" gradientUnits="userSpaceOnUse">
<stop stop-color="#533E37"/>
<stop offset="0.43" stop-color="#503B34"/>
<stop offset="0.75" stop-color="#47312B"/>
<stop offset="1" stop-color="#3B241E"/>
</linearGradient>
<linearGradient id="paint1_linear" x1="129.48" y1="114.691" x2="129.48" y2="36.6512" gradientUnits="userSpaceOnUse">
<stop stop-color="#533E37"/>
<stop offset="0.12" stop-color="#5F4C46"/>
<stop offset="0.34" stop-color="#80716C"/>
<stop offset="0.66" stop-color="#B4ACAB"/>
<stop offset="1" stop-color="#F4F5F7"/>
</linearGradient>
<clipPath id="clip0">
<path d="M0 0.900391H256V257.6H0V0.900391Z" fill="white"/>
</clipPath>
</defs>
</svg>
