<svg width="256" height="258" viewBox="0 0 256 258" fill="none" xmlns="http://www.w3.org/2000/svg">
<g clip-path="url(#clip0)">
<path d="M0 0.900391H256V257.6H0V0.900391Z" fill="white" fill-opacity="0.01"/>
<path d="M256 130.601V127.901C255.995 105.839 250.178 84.1675 239.136 65.0679C228.094 45.9682 212.216 30.1139 193.1 19.1006L190.9 17.7006C171.763 6.69832 150.074 0.908203 128 0.908203C105.926 0.908203 84.2372 6.69832 65.1 17.7006L62.9 19.1006C43.7838 30.1139 27.9057 45.9682 16.8637 65.0679C5.8217 84.1675 0.0053515 105.839 0 127.901L0 130.601C0.0053515 152.662 5.8217 174.334 16.8637 193.433C27.9057 212.533 43.7838 228.387 62.9 239.401L65.1 240.801C84.2372 251.803 105.926 257.593 128 257.593C150.074 257.593 171.763 251.803 190.9 240.801L193.1 239.401C212.216 228.387 228.094 212.533 239.136 193.433C250.178 174.334 255.995 152.662 256 130.601Z" fill="#FFAB00"/>
<path d="M130.4 193.201C143.3 165.201 140.8 130.601 130.4 106.301C120 130.601 117.5 165.201 130.4 193.201Z" fill="#0C1F41"/>
<path d="M216.4 203.3C211.9 193.1 204.8 192.2 203 182.4C201.2 172.6 207.7 169.6 212 153.4C213.2 148.6 217.4 131.7 211.3 113.1C209.388 106.386 206.196 100.104 201.9 94.6004C201.7 92.4004 201.6 90.1004 201.4 87.9004H59.6003C59.3003 89.3004 59.0003 91.8004 58.7003 95.0004C54.5506 100.419 51.4321 106.554 49.5003 113.1C43.4003 131.7 47.6003 148.6 48.8003 153.4C53.1003 169.6 59.7003 172.5 57.8003 182.4C55.9003 192.3 48.9003 193.1 44.5003 203.3C41.7003 209.5 40.9003 217.1 41.7003 224.1C48.1911 229.954 55.2996 235.084 62.9003 239.4L65.1003 240.8L72.3003 244.6C88.3003 240 108.1 226.6 121.5 208.3C127.2 208.4 133.4 208.3 139.1 208C151.7 225.3 170 238.3 185.5 243.6L190.9 240.8L193.1 239.4C202.722 233.9 211.567 227.14 219.4 219.3C219.499 213.819 218.478 208.374 216.4 203.3Z" fill="#0C1F41"/>
<path d="M156 245C151.14 245.005 146.362 243.744 142.136 241.342C137.91 238.94 134.383 235.479 131.9 231.3C128.779 236.603 124.01 240.739 118.319 243.079C112.628 245.418 106.328 245.832 100.38 244.257C94.4319 242.682 89.1621 239.205 85.3743 234.356C81.5865 229.507 79.4886 223.553 79.4004 217.4L55.2004 233.5C54.8765 233.61 54.5961 233.82 54.4004 234.1C57.1004 235.9 59.9004 237.8 62.9004 239.4L65.1004 240.8C84.2376 251.803 105.926 257.593 128 257.593C150.075 257.593 171.763 251.803 190.9 240.8L193.1 239.4C197.338 237.003 201.413 234.331 205.3 231.4L184.1 217.5C183.943 224.849 180.914 231.843 175.661 236.983C170.408 242.124 163.35 245.002 156 245Z" fill="#FFAB00"/>
<path d="M107.6 245.2C112.508 245.19 117.329 243.902 121.589 241.466C125.85 239.029 129.403 235.526 131.9 231.3C129.258 226.964 127.874 221.978 127.9 216.9C127.92 213.668 128.46 210.461 129.5 207.4L92.7004 209.4C91.9575 209.396 91.229 209.604 90.6004 210L79.4004 217.4C79.4795 224.818 82.4887 231.904 87.7715 237.112C93.0543 242.32 100.182 245.227 107.6 245.2Z" fill="#FFF0B2"/>
<path d="M131.9 231.3C135.031 236.527 139.775 240.595 145.419 242.891C151.062 245.187 157.299 245.586 163.19 244.029C169.08 242.472 174.305 239.043 178.076 234.258C181.848 229.473 183.962 223.592 184.1 217.5L172.9 210C172.277 209.594 171.545 209.385 170.8 209.4L134 207.4C135.409 211.297 135.951 215.454 135.588 219.582C135.225 223.71 133.967 227.709 131.9 231.3Z" fill="#FFF0B2"/>
<path d="M131.901 231.3C133.967 227.709 135.226 223.71 135.588 219.582C135.951 215.454 135.409 211.297 134.001 207.4H129.501C128.461 210.461 127.921 213.668 127.901 216.9C127.874 221.978 129.259 226.964 131.901 231.3Z" fill="#FFF0B2"/>
<path d="M167 212.001C166.1 213.201 151.1 233.201 126.3 231.301C106.2 229.701 94.9002 215.001 93.2002 212.701C98.193 208.926 101.754 203.566 103.3 197.501C106.2 184.701 98.1002 174.901 97.2002 173.801H159.9C159.5 174.401 150.2 187.201 156.1 200.401C158.366 205.356 162.196 209.431 167 212.001Z" fill="url(#paint0_linear)"/>
<path d="M78.7004 146.102C86.3219 146.102 92.5004 139.923 92.5004 132.302C92.5004 124.68 86.3219 118.502 78.7004 118.502C71.0789 118.502 64.9004 124.68 64.9004 132.302C64.9004 139.923 71.0789 146.102 78.7004 146.102Z" fill="#8E572A"/>
<path d="M181.101 146.102C188.722 146.102 194.901 139.923 194.901 132.302C194.901 124.68 188.722 118.502 181.101 118.502C173.479 118.502 167.301 124.68 167.301 132.302C167.301 139.923 173.479 146.102 181.101 146.102Z" fill="#8E572A"/>
<path d="M81.3001 104.502C81.3001 110.902 81.1001 117.002 80.8001 122.802C80.5001 128.602 80.5001 127.702 80.2001 133.202C79.4001 148.802 80.2001 152.802 76.8001 156.502C73.4001 160.202 71.4001 160.702 70.1001 159.802C68.8001 158.902 70.7001 155.202 71.5001 149.702C73.4001 136.202 68.9001 122.502 68.6001 121.402C67.6001 118.602 66.5001 115.902 66.6001 111.902C66.7001 109.502 67.0001 104.202 70.7001 102.202C74.4001 100.202 78.0001 101.602 81.3001 104.502Z" fill="#0C1F41"/>
<path d="M190.5 104.502C190.5 110.902 190.3 117.002 190 122.802C189.7 128.602 189.6 127.702 189.3 133.202C188.5 148.802 189.3 152.802 186 156.502C182.7 160.202 180.5 160.702 179.2 159.802C177.9 158.902 179.9 155.202 180.6 149.702C182.6 136.202 178.1 122.502 177.7 121.402C176.8 118.602 175.6 115.902 175.8 111.902C175.9 109.502 176.1 104.202 179.9 102.202C183.7 100.202 187.1 101.602 190.5 104.502Z" fill="#0C1F41"/>
<path d="M186.101 127.101C183.001 156.601 154.001 190.901 130.101 190.901C106.201 190.901 75.3008 156.801 74.1008 127.101C72.8008 94.2012 97.5008 57.2012 130.101 57.2012C162.701 57.2012 191.601 74.1012 186.101 127.101Z" fill="#AD6736"/>
<path d="M174.4 110.401L172.3 109.401L170.4 108.301L168.4 107.301L166.4 106.501C163.729 105.433 160.877 104.89 158 104.901C155.12 104.952 152.274 105.528 149.6 106.601C146.901 107.664 144.425 109.224 142.3 111.201C142.007 111.463 141.623 111.599 141.23 111.58C140.837 111.562 140.467 111.389 140.2 111.101C139.954 110.826 139.818 110.47 139.818 110.101C139.818 109.732 139.954 109.376 140.2 109.101C142.461 106.642 145.223 104.698 148.3 103.401C151.373 102.12 154.672 101.474 158 101.501C161.315 101.495 164.591 102.211 167.6 103.601C168.362 103.907 169.098 104.275 169.8 104.701L171.9 106.001L173.6 107.801C174.179 108.419 174.652 109.129 175 109.901C175.035 109.994 175.034 110.097 174.997 110.189C174.96 110.282 174.89 110.357 174.8 110.401H174.4Z" fill="#091E42"/>
<path d="M85.8008 109.902C86.1853 109.15 86.6551 108.446 87.2008 107.802L88.9008 106.002L91.0008 104.702L93.2008 103.602C96.2101 102.212 99.4862 101.495 102.801 101.502C106.13 101.464 109.432 102.11 112.501 103.402C115.578 104.699 118.34 106.643 120.601 109.102C120.863 109.395 120.999 109.779 120.98 110.172C120.962 110.565 120.789 110.935 120.501 111.202C120.226 111.448 119.87 111.584 119.501 111.584C119.132 111.584 118.776 111.448 118.501 111.202C116.376 109.225 113.9 107.665 111.201 106.602C108.527 105.529 105.681 104.953 102.801 104.902C99.924 104.891 97.0721 105.434 94.4008 106.502L92.4008 107.302L90.5008 108.302L88.5008 109.402L86.4008 110.402H86.3008C86.2075 110.436 86.1045 110.435 86.0121 110.398C85.9196 110.361 85.8443 110.291 85.8008 110.202V109.902Z" fill="#091E42"/>
<path style="mix-blend-mode:multiply" opacity="0.24" d="M130.4 151.602C138.132 151.602 144.4 145.334 144.4 137.602C144.4 129.87 138.132 123.602 130.4 123.602C122.668 123.602 116.4 129.87 116.4 137.602C116.4 145.334 122.668 151.602 130.4 151.602Z" fill="url(#paint1_radial)"/>
<path d="M125.201 116.602C125.719 117.966 126.12 119.371 126.401 120.802C126.721 122.213 126.889 123.655 126.901 125.102C126.95 126.542 126.85 127.983 126.601 129.402C126.445 130.829 126.144 132.237 125.701 133.602C125.612 133.807 125.451 133.972 125.247 134.064C125.044 134.157 124.814 134.17 124.601 134.102C124.507 134.079 124.419 134.037 124.342 133.979C124.265 133.92 124.201 133.846 124.154 133.762C124.107 133.677 124.078 133.584 124.069 133.487C124.06 133.391 124.071 133.294 124.101 133.202C124.328 131.88 124.462 130.543 124.501 129.202C124.634 127.84 124.668 126.469 124.601 125.102C124.601 123.763 124.5 122.426 124.301 121.102C124.101 119.802 123.901 118.402 123.601 117.102C123.566 116.891 123.607 116.675 123.717 116.492C123.827 116.309 123.999 116.17 124.201 116.102C124.399 116.076 124.599 116.11 124.777 116.199C124.956 116.288 125.103 116.429 125.201 116.602Z" fill="#7D4921"/>
<path d="M120.901 142.901C121.586 142.516 122.329 142.246 123.101 142.101H124.301C124.868 142.149 125.4 142.397 125.801 142.801C126.187 143.31 126.622 143.779 127.101 144.201L127.601 144.401H128.401C128.877 144.379 129.333 144.204 129.701 143.901L130.201 143.201C130.441 142.75 130.83 142.396 131.301 142.201C131.722 141.942 132.207 141.803 132.701 141.801H133.901C134.675 141.882 135.423 142.12 136.101 142.501C136.188 142.531 136.266 142.581 136.33 142.646C136.394 142.711 136.443 142.79 136.472 142.877C136.501 142.964 136.509 143.056 136.497 143.147C136.485 143.238 136.452 143.325 136.401 143.401C136.34 143.531 136.24 143.64 136.115 143.712C135.989 143.783 135.845 143.814 135.701 143.801H135.601C134.989 143.596 134.347 143.494 133.701 143.501L132.201 143.701L131.801 144.201C131.644 144.553 131.403 144.861 131.101 145.101C130.817 145.468 130.453 145.766 130.038 145.974C129.622 146.182 129.166 146.293 128.701 146.301H127.301C126.796 146.206 126.318 146.001 125.901 145.701C125.311 145.221 124.804 144.646 124.401 144.001L124.101 143.801H123.201C122.594 143.852 121.992 143.952 121.401 144.101C121.309 144.131 121.212 144.142 121.116 144.133C121.02 144.124 120.926 144.095 120.842 144.048C120.757 144.001 120.683 143.937 120.625 143.86C120.566 143.783 120.524 143.695 120.501 143.601C120.488 143.457 120.519 143.313 120.59 143.187C120.662 143.062 120.77 142.962 120.901 142.901Z" fill="#7D4921"/>
<path d="M148.401 159.602C143.101 158.802 139.801 154.802 135.801 155.402H135.001C133.901 155.702 132.601 156.802 131.401 156.702C130.201 156.602 129.401 155.602 128.501 155.402H127.701C124.001 154.802 120.601 158.602 115.301 159.502L110.301 160.102C116.011 165.751 123.719 168.919 131.751 168.919C139.783 168.919 147.491 165.751 153.201 160.102L148.401 159.602Z" fill="#713C1A"/>
<path d="M107.801 158.502C111.617 159.688 115.533 160.525 119.501 161.002C127.398 162.102 135.413 162.068 143.301 160.902C145.301 160.702 147.201 160.302 149.201 159.902L155.001 158.402C155.066 158.363 155.14 158.344 155.215 158.346C155.291 158.348 155.364 158.371 155.427 158.413C155.489 158.455 155.539 158.513 155.57 158.582C155.601 158.651 155.611 158.727 155.601 158.802C155.635 158.859 155.653 158.924 155.656 158.991C155.658 159.057 155.643 159.123 155.614 159.183C155.584 159.243 155.54 159.294 155.485 159.332C155.43 159.37 155.367 159.394 155.301 159.402C151.527 160.908 147.606 162.014 143.601 162.702C139.573 163.419 135.492 163.787 131.401 163.802C129.401 163.802 127.301 163.702 125.301 163.502C123.257 163.373 121.221 163.139 119.201 162.802C115.18 162.088 111.231 161.017 107.401 159.602C107.201 159.402 107.001 159.102 107.101 158.902C107.162 158.771 107.262 158.662 107.387 158.591C107.513 158.519 107.657 158.488 107.801 158.502Z" fill="#4A0F00"/>
<path d="M93.8008 115.301C96.8505 113.142 100.466 111.925 104.201 111.801C107.913 111.692 111.571 112.702 114.701 114.701C114.902 114.843 115.044 115.054 115.099 115.294C115.155 115.533 115.12 115.785 115.001 116.001C114.863 116.178 114.67 116.304 114.453 116.359C114.235 116.413 114.006 116.393 113.801 116.301C112.297 115.523 110.723 114.887 109.101 114.401C107.493 114.014 105.853 113.78 104.201 113.701C102.512 113.73 100.833 113.965 99.2008 114.401C97.5635 114.843 95.9854 115.481 94.5008 116.301C94.44 116.355 94.367 116.393 94.2882 116.412C94.2093 116.432 94.1269 116.431 94.0482 116.412C93.9694 116.392 93.8966 116.353 93.8361 116.299C93.7756 116.245 93.7291 116.177 93.7008 116.101C93.6152 115.979 93.5779 115.83 93.5964 115.682C93.6149 115.534 93.6878 115.398 93.8008 115.301Z" fill="#172B4D"/>
<path d="M168.301 116.3C166.816 115.481 165.238 114.843 163.601 114.4C161.966 113.979 160.289 113.744 158.601 113.7C156.916 113.779 155.243 114.014 153.601 114.4C152.011 114.886 150.47 115.523 149.001 116.3C148.892 116.369 148.769 116.413 148.641 116.429C148.513 116.446 148.383 116.435 148.26 116.397C148.136 116.359 148.023 116.295 147.926 116.21C147.83 116.124 147.753 116.018 147.701 115.9C147.609 115.696 147.589 115.466 147.643 115.249C147.698 115.031 147.824 114.838 148.001 114.7C151.148 112.707 154.819 111.7 158.543 111.807C162.266 111.913 165.873 113.13 168.901 115.3C168.997 115.395 169.058 115.519 169.075 115.652C169.092 115.786 169.063 115.921 168.994 116.036C168.925 116.152 168.819 116.241 168.693 116.288C168.568 116.336 168.429 116.341 168.301 116.3Z" fill="#172B4D"/>
<path d="M157.501 118.9C159.268 118.9 160.701 117.467 160.701 115.7C160.701 113.933 159.268 112.5 157.501 112.5C155.733 112.5 154.301 113.933 154.301 115.7C154.301 117.467 155.733 118.9 157.501 118.9Z" fill="#172B4D"/>
<path d="M104.801 118.9C106.568 118.9 108.001 117.467 108.001 115.7C108.001 113.933 106.568 112.5 104.801 112.5C103.033 112.5 101.601 113.933 101.601 115.7C101.601 117.467 103.033 118.9 104.801 118.9Z" fill="#172B4D"/>
<path d="M90.1004 32.7013C105.882 22.1499 125.208 18.2979 143.829 21.9921C162.45 25.6863 178.842 36.6244 189.4 52.4013C195.2 61.1013 199.6 75.8013 201.4 87.9013C201.9 91.2013 186.6 118.401 186.7 121.001C186.7 83.1013 175.8 93.4013 159.2 70.4013C145.8 97.5013 91.2004 70.8013 76.0004 108.501C72.8004 108.301 61.3004 97.9013 58.4004 97.6013C59.7004 76.1013 70.7004 45.7013 90.1004 32.7013Z" fill="#0C1F41"/>
</g>
<defs>
<linearGradient id="paint0_linear" x1="130.1" y1="174.941" x2="130.1" y2="231.111" gradientUnits="userSpaceOnUse">
<stop stop-color="#8E572A"/>
<stop offset="1" stop-color="#AD6736"/>
</linearGradient>
<radialGradient id="paint1_radial" cx="0" cy="0" r="1" gradientUnits="userSpaceOnUse" gradientTransform="translate(130.607 138.018) scale(14.0434)">
<stop stop-color="#AD6736" stop-opacity="0.5"/>
<stop offset="0.18" stop-color="#B37142" stop-opacity="0.45"/>
<stop offset="0.47" stop-color="#C48B62" stop-opacity="0.33"/>
<stop offset="0.82" stop-color="#DFB696" stop-opacity="0.12"/>
<stop offset="1" stop-color="#F0D0B6" stop-opacity="0"/>
</radialGradient>
<clipPath id="clip0">
<path d="M0 0.900391H256V257.6H0V0.900391Z" fill="white"/>
</clipPath>
</defs>
</svg>
