<svg width="256" height="257" viewBox="0 0 256 257" fill="none" xmlns="http://www.w3.org/2000/svg">
<g clip-path="url(#clip0)">
<path d="M0 0.900391H256V256.9H0V0.900391Z" fill="white" fill-opacity="0.01"/>
<path d="M128 256.9C198.692 256.9 256 199.593 256 128.9C256 58.2079 198.692 0.900391 128 0.900391C57.3075 0.900391 0 58.2079 0 128.9C0 199.593 57.3075 256.9 128 256.9Z" fill="#0065FF"/>
<path d="M182.4 218.2C170.6 214.2 152.6 209.6 130.5 209.5C107.6 209.4 89 214.1 77 218.2C77 210.9 77 203.7 77 196.4C87.4 191.7 107 184.6 132.4 185.2C155.1 185.7 172.7 192.1 182.8 196.7C182.6 203.9 182.5 211 182.4 218.2Z" fill="#0049B0"/>
<path d="M112.4 224.3H146.2V255.6C172.3 251.9 195.9 240.3 214.4 223.3L192 211.1C186.3 208 179.9 206.2 173.3 205.8L130 203.5L85.9996 205.8C79.9996 206.1 74.1996 207.8 68.9996 210.6L43.0996 224.7C61.9996 241.5 85.9996 252.7 112.4 255.9V224.3Z" fill="#0049B0"/>
<path d="M112.399 224.299V255.899C117.499 256.499 122.699 256.799 127.999 256.799C134.199 256.799 140.299 256.399 146.299 255.499V224.199H112.399V224.299Z" fill="#4C9AFF"/>
<path d="M85.6999 122.801C87.9999 132.001 83.8999 141.001 76.4999 142.801C69.0999 144.701 61.1999 138.701 58.8999 129.501C56.5999 120.301 60.6999 111.301 68.0999 109.501C75.4999 107.701 83.2999 113.601 85.6999 122.801Z" fill="url(#paint0_linear)"/>
<path d="M170 122.8C167.7 132 171.8 141 179.2 142.8C186.6 144.6 194.5 138.7 196.8 129.5C199.1 120.3 195 111.3 187.6 109.5C180.2 107.6 172.3 113.6 170 122.8Z" fill="url(#paint1_linear)"/>
<path d="M174.499 211.5C167.699 216.3 160.899 221.1 154.199 225.9C138.699 236.9 117.799 236.7 102.499 225.2C96.6992 220.9 90.8992 216.5 85.1992 212.2C87.5992 208.1 90.3992 202.3 92.0992 195.1C94.3992 185.4 93.8992 177.1 93.1992 171.7C116.999 171.2 140.799 170.7 164.599 170.1C163.899 175.5 163.599 184.2 166.499 194.3C168.599 201.8 171.899 207.5 174.499 211.5Z" fill="url(#paint2_linear)"/>
<path d="M128.3 42C156 42.2 172.9 60.9 175.5 63.9C193.1 84.1 191.2 108.2 190.8 113.2C190.8 113.2 190.4 118.2 189.1 123.7C185.1 140.7 178 156.2 178 156.2C172.2 168.9 169.1 175.5 162 182.1C158.3 185.5 155 187.5 154.2 188.1C143.2 194.7 132.6 194.8 128.3 194.8C123.4 194.8 112.9 194.7 102.4 188.1C98.6001 185.7 96.2001 183.3 94.6 181.8C90.6 177.8 87.4 173.4 79.7 156.6C79.7 156.6 70.3001 136 67.4001 123.5C66.1001 118.2 65.7 113.2 65.7 113.2C65.3 108.1 63.4001 84.1 81.0001 63.9C83.7001 60.9 100.6 42.2 128.3 42Z" fill="#9B6435"/>
<path d="M111.3 109.2C111.3 109.3 111.1 109.2 111 109.1L110.6 108.9C110.3 108.8 110.1 108.7 109.8 108.6C109.3 108.4 108.7 108.2 108.2 108C107.1 107.6 105.9 107.3 104.8 107C103.6 106.7 102.4 106.5 101.2 106.4C99.9999 106.3 98.7999 106.2 97.5999 106.2C95.1999 106.3 92.7999 106.7 90.3999 107.5C89.1999 107.9 88.0999 108.4 86.8999 109C85.7999 109.6 84.6999 110.3 83.8999 111L83.5999 111.2C82.7999 111.9 81.4999 111.7 80.8999 110.9C80.3999 110.3 80.2999 109.5 80.6999 108.8C81.4999 107.2 82.5999 105.9 83.6999 104.8C84.8999 103.7 86.1999 102.7 87.5999 101.8C88.9999 101 90.4999 100.2 91.9999 99.7003C93.5999 99.1003 95.1999 98.7003 96.7999 98.5003C100.2 98.0003 103.4 98.3003 106.7 99.1003C108.3 99.5003 109.9 100.1 111.4 100.9C112.2 101.3 112.9 101.7 113.6 102.2C113.9 102.5 114.3 102.7 114.6 103C114.8 103.1 114.9 103.3 115.1 103.5C115.3 103.7 115.4 103.8 115.7 104.1C117.1 105.4 117.3 107.5 116 109C115 110.3 112.8 110.5 111.3 109.2Z" fill="#091E42"/>
<path d="M136.7 104.001C137 103.701 137.1 103.601 137.3 103.401C137.5 103.201 137.6 103.101 137.8 102.901C138.1 102.601 138.5 102.301 138.8 102.101C139.5 101.601 140.2 101.201 141 100.801C142.5 100.001 144.1 99.4007 145.7 99.0007C149 98.2007 152.2 97.9007 155.6 98.4007C157.3 98.6007 158.9 99.0007 160.4 99.6007C162 100.101 163.4 100.901 164.8 101.701C166.2 102.501 167.5 103.501 168.7 104.701C169.9 105.801 170.9 107.101 171.7 108.701C172.2 109.701 171.8 110.801 170.8 111.301C170.1 111.701 169.3 111.501 168.7 111.101L168.4 110.901C167.6 110.201 166.5 109.501 165.4 108.901C164.3 108.301 163.1 107.801 161.9 107.401C159.5 106.601 157.1 106.101 154.7 106.101C153.5 106.101 152.3 106.201 151.1 106.301C149.9 106.401 148.7 106.701 147.5 106.901C146.3 107.101 145.2 107.501 144.1 107.901C143.6 108.101 143 108.301 142.5 108.501C142.2 108.601 142 108.701 141.7 108.801L141.3 109.001C141.2 109.001 141 109.101 141 109.101C139.6 110.401 137.4 110.201 136.1 108.801C135.1 107.401 135.3 105.301 136.7 104.001Z" fill="#091E42"/>
<path d="M88.0996 116.9C91.0996 114.8 94.7996 113.5 98.4996 113.4C102.2 113.2 106.1 114.3 109.2 116.3C109.6 116.6 109.7 117.2 109.5 117.6C109.2 118 108.7 118.1 108.3 117.9C106.8 117.1 105.2 116.4 103.6 116C102 115.5 100.3 115.3 98.5996 115.3C96.8996 115.3 95.1996 115.5 93.5996 116C91.9996 116.4 90.2996 117.1 88.7996 117.9C88.4996 118.1 88.0996 118 87.9996 117.7C87.7996 117.5 87.8996 117.1 88.0996 116.9Z" fill="#091E42"/>
<path d="M163.4 118C161.9 117.2 160.3 116.5 158.6 116.1C156.9 115.7 155.3 115.4 153.6 115.4C151.9 115.4 150.2 115.6 148.6 116.1C147 116.5 145.4 117.2 143.9 118C143.5 118.2 142.9 118.1 142.6 117.6C142.4 117.2 142.5 116.6 142.9 116.4C146 114.3 149.8 113.3 153.6 113.5C157.4 113.6 161 114.9 164 117C164.3 117.2 164.3 117.6 164.1 117.9C164 118 163.6 118.1 163.4 118Z" fill="#091E42"/>
<path d="M152.5 120.701C154.267 120.701 155.7 119.268 155.7 117.501C155.7 115.733 154.267 114.301 152.5 114.301C150.732 114.301 149.3 115.733 149.3 117.501C149.3 119.268 150.732 120.701 152.5 120.701Z" fill="#091E42"/>
<path d="M99.2 120.701C100.967 120.701 102.4 119.268 102.4 117.501C102.4 115.733 100.967 114.301 99.2 114.301C97.4327 114.301 96 115.733 96 117.501C96 119.268 97.4327 120.701 99.2 120.701Z" fill="#091E42"/>
<path d="M90.5997 61.3996C99.3997 55.2996 107.2 57.9996 126.4 58.0996C152.3 58.2996 154.8 53.4996 163.7 58.0996C177.7 65.1996 182.3 82.2996 182.7 83.6996C186.5 98.3996 179.8 107.3 186.4 119C187.3 120.6 188.3 121.9 189.3 123.1C190.5 117.8 190.9 113.3 190.9 113.3C191.3 108.2 193.2 84.1996 175.6 63.9996C173 60.9996 156.1 42.2996 128.4 42.0996C100.6 42.1996 83.6997 60.8996 81.0997 63.8996C63.4997 84.0996 65.3997 108.2 65.7997 113.2C65.7997 113.2 66.1997 118.1 67.4997 123.5C78.8997 105.9 70.5997 91.0996 80.9997 72.8996C83.1997 69.0996 85.5997 64.7996 90.5997 61.3996Z" fill="url(#paint3_linear)"/>
<path d="M112.4 247.6L112.5 215.6L76.8998 196.4L71.2998 215.4L112.4 247.6Z" fill="#0049B0"/>
<path d="M146.3 251.6L145.6 214.3L182.9 196.4L188.5 215.4L146.3 251.6Z" fill="#0049B0"/>
<path d="M115.7 142.6C117.6 143.2 119.5 143.9 121.3 144.7C122.2 145.1 123.1 145.5 124 146C124.5 146.2 124.9 146.4 125.1 146.5C125.4 146.6 125.9 146.6 126.3 146.5C127.1 146.4 127.9 146 128.8 145.6C129.7 145.2 130.7 144.8 131.7 144.5C133.7 143.9 135.7 143.5 137.7 143.4C138.1 143.4 138.4 143.7 138.4 144C138.4 144.3 138.2 144.6 137.8 144.7C135.9 145 134 145.5 132.2 146.1C131.3 146.4 130.5 146.8 129.6 147.3C128.7 147.7 127.7 148.3 126.5 148.4C125.9 148.5 125.3 148.5 124.7 148.4C124 148.3 123.5 148 123.1 147.7C122.2 147.3 121.4 146.8 120.5 146.4C118.7 145.5 116.9 144.8 115.2 143.8C114.9 143.6 114.7 143.2 114.9 142.9C115 142.6 115.4 142.5 115.7 142.6Z" fill="#7A4F2C"/>
<path d="M118.8 112.9C119.9 114.4 120.7 116 121.3 117.8C121.9 119.6 122.2 121.4 122.3 123.3C122.4 127 121.6 130.7 119.9 134C119.7 134.4 119.3 134.5 118.9 134.3C118.6 134.1 118.4 133.7 118.5 133.4C119.1 131.8 119.6 130.1 119.9 128.5C120.2 126.8 120.4 125.1 120.2 123.4C120.1 121.7 119.8 120 119.4 118.4C118.9 116.8 118.2 115.2 117.4 113.7C117.2 113.3 117.3 112.9 117.7 112.7C118.2 112.5 118.6 112.6 118.8 112.9Z" fill="#7A4F2C"/>
<path d="M75.9995 117.699C77.1995 117.799 78.2995 117.999 79.3995 117.999C80.4995 117.999 81.5995 117.899 82.7995 117.699C83.0995 117.599 83.4995 117.899 83.4995 118.199C83.4995 118.399 83.3995 118.699 83.1995 118.799C82.0995 119.599 80.6995 119.899 79.2995 119.899C77.8995 119.899 76.4995 119.599 75.3995 118.799C75.0995 118.599 75.0995 118.199 75.2995 117.899C75.4995 117.799 75.7995 117.699 75.9995 117.699Z" fill="#7A4F2C"/>
<path d="M172.099 117.699C173.299 117.799 174.399 117.999 175.499 117.999C176.599 117.999 177.699 117.899 178.899 117.699C179.199 117.599 179.599 117.899 179.599 118.199C179.599 118.399 179.499 118.699 179.299 118.799C178.199 119.599 176.799 119.899 175.399 119.899C173.999 119.899 172.599 119.599 171.499 118.799C171.199 118.599 171.199 118.199 171.399 117.899C171.599 117.799 171.799 117.699 172.099 117.699Z" fill="#7A4F2C"/>
<path d="M171.7 121.799C172.8 122.399 173.7 122.999 174.7 123.399C175.7 123.899 176.8 124.199 177.9 124.499C178.2 124.599 178.4 124.899 178.3 125.299C178.2 125.499 178 125.699 177.8 125.699C176.5 125.899 175.1 125.699 173.8 125.199C172.5 124.699 171.4 123.799 170.7 122.599C170.5 122.299 170.6 121.899 171 121.799C171.2 121.599 171.4 121.699 171.7 121.799Z" fill="#7A4F2C"/>
<path d="M76.8995 124.899C77.9995 124.399 78.9995 124.099 79.9995 123.499C80.9995 122.999 81.8995 122.399 82.8995 121.599C83.1995 121.399 83.5995 121.499 83.7995 121.699C83.8995 121.899 83.9995 122.199 83.7995 122.399C83.1995 123.599 82.0995 124.599 80.8995 125.199C79.6995 125.899 78.2995 126.199 76.8995 125.999C76.5995 125.899 76.2995 125.599 76.3995 125.299C76.4995 125.099 76.6995 124.999 76.8995 124.899Z" fill="#7A4F2C"/>
<path d="M109.1 83.4996C111.5 83.3996 113.9 83.2996 116.3 83.1996C118.7 83.0996 121.1 83.0996 123.5 83.0996C125.9 83.0996 128.3 83.0996 130.7 83.0996C133.1 83.1996 135.5 83.1996 137.9 83.3996C138.2 83.3996 138.5 83.6996 138.5 84.0996C138.5 84.3996 138.2 84.5996 137.9 84.6996C135.5 84.8996 133.1 84.9996 130.7 84.9996C128.3 84.9996 125.9 85.0996 123.5 84.9996C121.1 84.9996 118.7 84.9996 116.3 84.8996C113.9 84.7996 111.5 84.7996 109.1 84.5996C108.8 84.5996 108.5 84.2996 108.5 83.8996C108.5 83.6996 108.8 83.4996 109.1 83.4996Z" fill="#7A4F2C"/>
<path d="M116.4 77.2008C118.8 77.1008 121.2 77.0008 123.6 76.9008C126 76.8008 128.4 76.8008 130.8 76.8008C133.2 76.8008 135.6 76.8008 138 76.8008C140.4 76.9008 142.8 76.9008 145.2 77.1008C145.5 77.1008 145.8 77.4008 145.8 77.8008C145.8 78.1008 145.5 78.3008 145.2 78.4008C142.8 78.6008 140.4 78.7008 138 78.7008C135.6 78.7008 133.2 78.8008 130.8 78.7008C128.4 78.7008 126 78.7008 123.6 78.6008C121.2 78.5008 118.8 78.5008 116.4 78.3008C116.1 78.3008 115.8 78.0008 115.8 77.6008C115.9 77.4008 116.1 77.2008 116.4 77.2008Z" fill="#7A4F2C"/>
<path d="M144.8 165.101C139.5 164.301 136 163.301 132.1 163.901C131.8 163.901 131.7 163.901 131.3 164.001C129.1 164.501 126.8 164.501 124.7 164.001C124.3 163.901 124.2 163.901 123.9 163.901C120.1 163.301 116.8 164.201 111.4 165.001C110.3 165.201 108.5 165.401 106.3 165.701C106.7 166.101 114.4 172.501 128 172.501C141.6 172.501 149.3 166.101 149.7 165.701C147.6 165.401 145.9 165.201 144.8 165.101Z" fill="#744B28"/>
<path d="M103.7 163.999C107.6 165.099 111.5 165.999 115.5 166.499C119.5 166.999 123.5 167.399 127.5 167.299C131.5 167.299 135.6 166.999 139.5 166.399C141.5 166.099 143.5 165.799 145.5 165.299C147.5 164.899 149.4 164.399 151.4 163.799C151.7 163.699 152 163.899 152.1 164.199C152.2 164.499 152 164.699 151.8 164.799C148 166.299 144 167.399 139.9 168.199C135.8 168.899 131.7 169.299 127.6 169.299C125.5 169.299 123.5 169.199 121.4 168.999C119.3 168.799 117.3 168.599 115.3 168.199C111.2 167.499 107.2 166.499 103.4 164.999C103.1 164.899 103 164.599 103.1 164.299C103.2 164.099 103.5 163.999 103.7 163.999Z" fill="#5C3B21"/>
</g>
<defs>
<linearGradient id="paint0_linear" x1="82.7969" y1="123.356" x2="62.4944" y2="128.803" gradientUnits="userSpaceOnUse">
<stop stop-color="#855731"/>
<stop offset="1" stop-color="#9A6439"/>
</linearGradient>
<linearGradient id="paint1_linear" x1="170.329" y1="126.181" x2="190.637" y2="126.181" gradientUnits="userSpaceOnUse">
<stop stop-color="#855731"/>
<stop offset="1" stop-color="#9A6439"/>
</linearGradient>
<linearGradient id="paint2_linear" x1="129.868" y1="234.003" x2="129.868" y2="170.108" gradientUnits="userSpaceOnUse">
<stop stop-color="#9A6439"/>
<stop offset="1" stop-color="#855731"/>
</linearGradient>
<linearGradient id="paint3_linear" x1="128.318" y1="129.566" x2="128.318" y2="35.5833" gradientUnits="userSpaceOnUse">
<stop stop-color="#9A6439"/>
<stop offset="0.1492" stop-color="#8B5D3A"/>
<stop offset="0.4348" stop-color="#654A3C"/>
<stop offset="0.8241" stop-color="#272D40"/>
<stop offset="1" stop-color="#091E42"/>
</linearGradient>
<clipPath id="clip0">
<path d="M0 0.900391H256V256.9H0V0.900391Z" fill="white"/>
</clipPath>
</defs>
</svg>
