<svg width="256" height="257" viewBox="0 0 256 257" fill="none" xmlns="http://www.w3.org/2000/svg">
<g clip-path="url(#clip0)">
<path d="M0 0.599609H256V256.6H0V0.599609Z" fill="white" fill-opacity="0.01"/>
<path d="M128 256.6C198.692 256.6 256 199.292 256 128.6C256 57.9072 198.692 0.599609 128 0.599609C57.3075 0.599609 0 57.9072 0 128.6C0 199.292 57.3075 256.6 128 256.6Z" fill="#00C7E5"/>
<path d="M80.2 53.5982C74.9 55.2982 68.7 58.2982 66.6 63.9982C64.5 69.6982 71.3 76.6982 67.9 83.6982C65.8 88.0982 62.2 87.6982 59.3 93.7982C57.901 96.6622 57.1823 99.8107 57.2 102.998C56.9 111.398 61.4 114.598 63.2 120.898C66.7 133.498 53.6 140.398 55.5 151.798C56.4 157.298 60.7 164.198 75.5 170.998C74.0902 175.558 74.0902 180.438 75.5 184.998C77.3693 190.036 80.7151 194.392 85.1 197.498C96.1 204.898 104.5 196.098 128.3 197.298C143.9 198.098 148.1 202.298 159.6 198.998C164 197.798 172.3 195.198 176.3 187.398C178.325 183.06 178.886 178.183 177.9 173.498C180.3 173.498 187.7 173.298 193.5 167.898C199.3 162.498 201.8 151.598 199.7 143.298C197.6 134.998 192 129.698 193.5 120.898C194.5 114.998 197.2 110.598 196.4 102.098C196.136 98.6634 195.148 95.3235 193.5 92.2982C190.7 87.3982 188.2 87.7982 186.6 84.5982C183.4 77.7982 192.7 71.0982 190.1 63.9982C187.5 56.8982 179.8 57.4982 176.5 53.5982C164.4 51.9982 164.9 44.4982 152.7 44.4982C140.5 44.4982 140.5 53.6982 128.3 53.6982C116.1 53.6982 115.7 43.5982 103.6 44.4982C91.5 45.3982 92.3 51.9982 80.2 53.5982Z" fill="#FF5630"/>
<path d="M170.7 207.799L131.6 205.799L92.5998 207.799C91.8548 207.865 91.1357 208.105 90.4998 208.499L55.0998 231.899L53.7998 232.899C76.0778 248.743 102.843 257.039 130.177 256.571C157.511 256.103 183.977 246.897 205.7 230.299L172.8 208.499C172.151 208.133 171.438 207.895 170.7 207.799Z" fill="#00A3BF"/>
<path d="M168.3 209.499C167.3 210.899 152.4 230.299 127.8 228.599C107.3 227.299 95.6999 212.399 93.8999 210.099C98.7848 206.035 102.136 200.426 103.4 194.199C106.2 180.399 97.0999 169.999 95.9999 168.799L163.4 166.299C162.1 168.299 155 179.599 158.6 193.499C160.283 199.63 163.642 205.171 168.3 209.499Z" fill="url(#paint0_linear)"/>
<path d="M77.3 140.899C84.9215 140.899 91.1 134.72 91.1 127.099C91.1 119.477 84.9215 113.299 77.3 113.299C69.6785 113.299 63.5 119.477 63.5 127.099C63.5 134.72 69.6785 140.899 77.3 140.899Z" fill="url(#paint1_linear)"/>
<path d="M179.3 140.899C186.922 140.899 193.1 134.72 193.1 127.099C193.1 119.477 186.922 113.299 179.3 113.299C171.678 113.299 165.5 119.477 165.5 127.099C165.5 134.72 171.678 140.899 179.3 140.899Z" fill="url(#paint2_linear)"/>
<path d="M80.9 99.398C80.9 105.798 80.7 111.798 80.5 117.598C80.3 123.398 80.1 122.498 79.8 127.998C79 143.498 79.8 147.498 76.5 151.198C73.2 154.898 71 155.398 69.7 154.498C68.4 153.598 70.4 149.898 71.1 144.398C73.1 130.898 68.6 117.398 68.2 116.198C67.8 114.998 66.1 110.798 66.3 106.798C66.4 104.398 66.7 99.098 70.4 97.098C74.1 95.098 77.6 96.498 80.9 99.398Z" fill="#FF5630"/>
<path d="M184.2 121.898C183 151.498 152.3 185.498 128.5 185.498C104.7 185.498 73.9999 151.498 72.7999 121.898C71.4999 89.1984 95.9999 52.3984 128.5 52.3984C161 52.3984 185.5 89.1984 184.2 121.898Z" fill="#FFE2D9"/>
<path d="M69.2001 136.399C70.0838 136.399 70.8001 135.683 70.8001 134.799C70.8001 133.916 70.0838 133.199 69.2001 133.199C68.3164 133.199 67.6001 133.916 67.6001 134.799C67.6001 135.683 68.3164 136.399 69.2001 136.399Z" fill="#00B8D9"/>
<path d="M188.1 136.399C188.984 136.399 189.7 135.683 189.7 134.799C189.7 133.916 188.984 133.199 188.1 133.199C187.216 133.199 186.5 133.916 186.5 134.799C186.5 135.683 187.216 136.399 188.1 136.399Z" fill="#00B8D9"/>
<path d="M171.1 104.699C168.555 103.022 165.88 101.55 163.1 100.299C160.306 99.1744 157.311 98.63 154.3 98.6993C151.32 98.7208 148.369 99.2973 145.6 100.399C142.842 101.554 140.304 103.178 138.1 105.199C137.913 105.382 137.662 105.485 137.4 105.485C137.138 105.485 136.887 105.382 136.7 105.199C136.553 104.995 136.475 104.75 136.475 104.499C136.475 104.248 136.553 104.003 136.7 103.799C139.016 101.456 141.768 99.5877 144.8 98.2993C147.827 97.0306 151.078 96.3855 154.36 96.4027C157.642 96.4199 160.887 97.0989 163.9 98.3993C166.973 99.5995 169.619 101.688 171.5 104.399C171.505 104.453 171.498 104.508 171.481 104.56C171.464 104.611 171.436 104.659 171.4 104.699C171.381 104.721 171.358 104.738 171.332 104.749C171.306 104.761 171.278 104.767 171.25 104.767C171.222 104.767 171.193 104.761 171.168 104.749C171.142 104.738 171.119 104.721 171.1 104.699Z" fill="#FF5630"/>
<path d="M81.4998 104.399C83.3215 101.674 85.9411 99.5783 88.9998 98.3993C92.03 97.0963 95.2912 96.416 98.5896 96.3988C101.888 96.3816 105.156 97.0279 108.2 98.2993C111.203 99.5877 113.922 101.457 116.2 103.799C116.314 103.885 116.409 103.995 116.478 104.121C116.546 104.246 116.587 104.385 116.597 104.528C116.607 104.671 116.587 104.815 116.537 104.949C116.487 105.083 116.408 105.205 116.307 105.306C116.206 105.408 116.084 105.486 115.949 105.536C115.815 105.586 115.672 105.607 115.529 105.597C115.386 105.587 115.247 105.546 115.121 105.477C114.995 105.409 114.886 105.314 114.8 105.199C112.613 103.156 110.071 101.53 107.3 100.399C104.536 99.2787 101.582 98.7015 98.5998 98.6993C95.5883 98.6301 92.5942 99.1744 89.7998 100.299C86.9998 101.399 84.5998 103.099 81.7998 104.699C81.6998 104.799 81.5998 104.799 81.4998 104.599C81.3998 104.399 81.3998 104.399 81.4998 104.399Z" fill="#FF5630"/>
<path d="M102.6 117.599C104.643 117.599 106.3 115.943 106.3 113.899C106.3 111.856 104.643 110.199 102.6 110.199C100.556 110.199 98.8999 111.856 98.8999 113.899C98.8999 115.943 100.556 117.599 102.6 117.599Z" fill="#253858"/>
<path d="M86.0996 112.598C86.5856 112.822 87.1144 112.939 87.6496 112.939C88.1848 112.939 88.7136 112.822 89.1996 112.598C89.4056 112.523 89.5813 112.383 89.6996 112.198L89.9996 111.998L90.2996 111.698C90.7852 111.18 91.3211 110.711 91.8996 110.298C94.1281 108.498 96.7778 107.293 99.5996 106.798C102.408 106.346 105.284 106.552 108 107.398C110.702 108.339 113.137 109.917 115.1 111.998C115.211 112.11 115.3 112.242 115.361 112.388C115.421 112.534 115.453 112.69 115.453 112.848C115.453 113.006 115.421 113.163 115.361 113.308C115.3 113.454 115.211 113.587 115.1 113.698C114.856 113.885 114.557 113.986 114.25 113.986C113.942 113.986 113.644 113.885 113.4 113.698C111.616 112.066 109.501 110.838 107.2 110.098C104.894 109.435 102.475 109.265 100.1 109.598C97.6934 109.989 95.4045 110.911 93.3996 112.298C92.9086 112.669 92.4411 113.07 91.9996 113.498L91.5996 113.798L91.0996 114.198C90.7367 114.443 90.3288 114.613 89.8996 114.698C89.1219 114.948 88.2825 114.925 87.5193 114.634C86.7561 114.343 86.1144 113.802 85.6996 113.098C85.6555 113.016 85.6414 112.922 85.6596 112.83C85.6779 112.739 85.7274 112.657 85.7996 112.598H86.0996Z" fill="#253858"/>
<path d="M154.3 117.599C156.343 117.599 158 115.943 158 113.899C158 111.856 156.343 110.199 154.3 110.199C152.256 110.199 150.6 111.856 150.6 113.899C150.6 115.943 152.256 117.599 154.3 117.599Z" fill="#253858"/>
<path d="M171.1 113.098C170.699 113.816 170.058 114.369 169.29 114.661C168.522 114.954 167.676 114.967 166.9 114.698L165.7 114.198L165.2 113.798L164.8 113.498C164.38 113.046 163.91 112.644 163.4 112.298C161.423 110.928 159.17 110.006 156.8 109.598C154.391 109.263 151.939 109.433 149.6 110.098C147.309 110.863 145.199 112.088 143.4 113.698C143.282 113.804 143.144 113.885 142.995 113.937C142.845 113.989 142.687 114.011 142.529 114.002C142.371 113.993 142.216 113.952 142.074 113.883C141.932 113.814 141.804 113.717 141.7 113.598C141.503 113.378 141.394 113.093 141.394 112.798C141.394 112.503 141.503 112.218 141.7 111.998C143.662 109.917 146.098 108.339 148.8 107.398C151.516 106.552 154.391 106.346 157.2 106.798C160.021 107.293 162.671 108.498 164.9 110.298C165.478 110.711 166.014 111.18 166.5 111.698L166.9 111.998L167.1 112.198L167.7 112.598C168.168 112.821 168.681 112.936 169.2 112.936C169.718 112.936 170.231 112.821 170.7 112.598C170.732 112.572 170.77 112.552 170.811 112.541C170.851 112.529 170.893 112.525 170.935 112.53C170.977 112.535 171.017 112.548 171.054 112.568C171.091 112.588 171.123 112.615 171.15 112.648C171.176 112.681 171.195 112.719 171.207 112.759C171.219 112.8 171.222 112.842 171.218 112.884C171.213 112.925 171.2 112.966 171.18 113.003C171.16 113.04 171.132 113.072 171.1 113.098Z" fill="#253858"/>
<path d="M64.4997 64.1994C69.6997 47.3994 84.0997 36.3994 95.9997 33.6994C99.9183 32.6792 104.01 32.5087 108 33.1994C113.888 34.4345 119.26 37.4344 123.4 41.7994C113.1 59.5994 102.8 69.7994 95.1997 75.8994C91.0997 79.0994 82.2997 85.4994 76.8997 97.2994C75.3 100.744 74.1247 104.371 73.3997 108.099C72.1997 106.599 57.1997 87.3994 64.4997 64.1994Z" fill="#FF5630"/>
<path d="M138.4 27.399C145.741 27.399 153.01 28.8448 159.792 31.6541C166.574 34.4633 172.736 38.5809 177.927 43.7717C183.118 48.9625 187.236 55.1248 190.045 61.9069C192.854 68.689 194.3 75.9581 194.3 83.299C194.233 88.1239 193.596 92.924 192.4 97.599C190.695 103.622 187.843 109.258 184 114.199C168.746 108.564 154.212 101.146 140.7 92.099C123.033 80.3507 107.253 65.9868 93.8999 49.499C97.5999 44.799 106.7 34.499 122 29.799C127.316 28.184 132.844 27.3751 138.4 27.399Z" fill="#FF5630"/>
<path d="M119.5 139.999L123 140.899L124.7 141.299L126.2 141.699C127.284 141.672 128.359 141.504 129.4 141.199C130.533 140.987 131.639 140.651 132.7 140.199H132.8C132.985 140.164 133.176 140.194 133.341 140.285C133.506 140.377 133.633 140.524 133.7 140.699C133.772 140.86 133.781 141.041 133.726 141.208C133.67 141.375 133.554 141.515 133.4 141.599C132.348 142.291 131.203 142.83 130 143.199C128.762 143.699 127.434 143.937 126.1 143.899L124.1 143.499L122.3 142.899C121.131 142.484 119.995 141.982 118.9 141.399C118.811 141.358 118.731 141.298 118.667 141.223C118.602 141.148 118.554 141.061 118.526 140.967C118.498 140.872 118.49 140.773 118.502 140.675C118.515 140.577 118.548 140.483 118.6 140.399C118.687 140.269 118.806 140.163 118.947 140.093C119.087 140.023 119.243 139.991 119.4 139.999H119.5Z" fill="#F0BEB4"/>
<path d="M121.5 116.399C122.069 117.753 122.505 119.16 122.8 120.599C123.071 122.052 123.238 123.522 123.3 124.999C123.3 126.437 123.199 127.874 123 129.299C122.806 130.752 122.505 132.189 122.1 133.599C122.011 133.804 121.85 133.968 121.646 134.061C121.443 134.153 121.213 134.167 121 134.099C120.816 134.034 120.658 133.911 120.55 133.749C120.442 133.587 120.389 133.393 120.4 133.199C120.6 131.799 120.8 130.499 120.9 129.099C121.033 127.736 121.067 126.366 121 124.999C121 123.66 120.899 122.323 120.7 120.999C120.5 119.599 120.2 118.299 120 116.899C119.968 116.71 120.005 116.517 120.103 116.353C120.201 116.189 120.355 116.066 120.536 116.006C120.717 115.946 120.914 115.952 121.091 116.024C121.267 116.096 121.413 116.229 121.5 116.399Z" fill="#F0BEB4"/>
<path d="M148.6 157.3C135.469 161.968 121.131 161.968 108 157.3L113.9 155.3C116.914 154.231 120.21 154.266 123.2 155.4H123.4C126.557 156.599 130.043 156.599 133.2 155.4C136.223 154.283 139.533 154.213 142.6 155.2L148.6 157.3Z" fill="#FF7143"/>
<path d="M148.6 157.301C148.6 157.301 143.9 167.301 128.3 167.301C112.7 167.301 108 157.301 108 157.301C121.131 161.969 135.469 161.969 148.6 157.301Z" fill="#FF8A63"/>
<path d="M105.4 155.3C107.226 156.104 109.096 156.805 111 157.4C120.365 160.616 130.439 161.17 140.1 159C143.955 158.126 147.709 156.853 151.3 155.2C151.351 155.166 151.408 155.145 151.469 155.136C151.529 155.128 151.591 155.134 151.649 155.153C151.707 155.173 151.76 155.205 151.803 155.248C151.847 155.291 151.88 155.343 151.9 155.4C152 155.6 151.9 155.8 151.7 156C144.71 160.362 136.639 162.682 128.4 162.7C126.326 162.72 124.254 162.586 122.2 162.3C120.133 162.094 118.091 161.692 116.1 161.1C112.128 160.082 108.323 158.499 104.8 156.4C104.663 156.3 104.568 156.154 104.531 155.988C104.494 155.822 104.519 155.649 104.6 155.5C104.628 155.424 104.675 155.356 104.735 155.302C104.796 155.248 104.868 155.209 104.947 155.19C105.026 155.17 105.108 155.17 105.187 155.189C105.266 155.208 105.339 155.247 105.4 155.3Z" fill="#FF5630"/>
</g>
<defs>
<linearGradient id="paint0_linear" x1="131.12" y1="167.529" x2="131.12" y2="228.429" gradientUnits="userSpaceOnUse">
<stop stop-color="#EBBEAE"/>
<stop offset="0.64" stop-color="#FFE2D9"/>
</linearGradient>
<linearGradient id="paint1_linear" x1="63.57" y1="127.109" x2="91.11" y2="127.109" gradientUnits="userSpaceOnUse">
<stop stop-color="#FFE2D9"/>
<stop offset="1" stop-color="#EBBEAE"/>
</linearGradient>
<linearGradient id="paint2_linear" x1="165.5" y1="127.109" x2="193.04" y2="127.109" gradientUnits="userSpaceOnUse">
<stop stop-color="#EBBEAE"/>
<stop offset="1" stop-color="#FFE2D9"/>
</linearGradient>
<clipPath id="clip0">
<path d="M0 0.599609H256V256.6H0V0.599609Z" fill="white"/>
</clipPath>
</defs>
</svg>
