<svg width="256" height="258" viewBox="0 0 256 258" fill="none" xmlns="http://www.w3.org/2000/svg">
<g clip-path="url(#clip0)">
<path d="M0 0.599609H256V257.3H0V0.599609Z" fill="white" fill-opacity="0.01"/>
<path d="M256 130.3V127.6C255.995 105.538 250.178 83.8668 239.136 64.7671C228.094 45.6674 212.216 29.8131 193.1 18.7998L190.9 17.3998C171.763 6.39754 150.074 0.607422 128 0.607422C105.926 0.607422 84.2372 6.39754 65.1 17.3998L62.9 18.7998C43.7838 29.8131 27.9057 45.6674 16.8637 64.7671C5.8217 83.8668 0.0053515 105.538 0 127.6L0 130.3C0.0053515 152.362 5.8217 174.033 16.8637 193.132C27.9057 212.232 43.7838 228.086 62.9 239.1L65.1 240.5C84.2372 251.502 105.926 257.292 128 257.292C150.074 257.292 171.763 251.502 190.9 240.5L193.1 239.1C212.216 228.086 228.094 212.232 239.136 193.132C250.178 174.033 255.995 152.362 256 130.3Z" fill="#57D9A3"/>
<path d="M171.3 205.7C170.664 205.306 169.945 205.067 169.2 205L130 203L90.8002 205C90.0552 205.067 89.3361 205.306 88.7002 205.7L53.1002 229.3C52.2203 229.785 51.4126 230.391 50.7002 231.1C54.5877 234.03 58.6631 236.703 62.9002 239.1L65.1002 240.5C84.2374 251.502 105.926 257.292 128 257.292C150.075 257.292 171.763 251.502 190.9 240.5L193.1 239.1C198.098 236.296 202.878 233.12 207.4 229.6L206.9 229.3L171.3 205.7Z" fill="#00875A"/>
<path d="M58.3001 82.9012C55.5001 93.3012 55.5001 120.101 55.0001 142.901C54.7001 155.201 53.8001 165.501 54.6001 168.801C57.3001 179.101 113.9 186.201 127.5 186.001C141.1 185.801 197.2 178.401 200.2 168.501C201.3 164.801 200.7 155.001 200.6 142.901C200.5 124.601 200.4 101.001 199.3 84.6012L127.9 64.7012L58.3001 82.9012Z" fill="#0C1F41"/>
<path d="M166.9 206.7C166 207.9 151 227.9 126.2 226C106.1 224.4 94.8001 209.7 93.1001 207.4C98.0929 203.625 101.654 198.265 103.2 192.2C106.1 179.4 98.0001 169.6 97.1001 168.5H159.8C159.4 169.1 150.1 181.9 156 195.1C158.266 200.055 162.095 204.13 166.9 206.7Z" fill="url(#paint0_linear)"/>
<path d="M76.6003 142.801C84.2218 142.801 90.4003 136.623 90.4003 129.001C90.4003 121.38 84.2218 115.201 76.6003 115.201C68.9788 115.201 62.8003 121.38 62.8003 129.001C62.8003 136.623 68.9788 142.801 76.6003 142.801Z" fill="#E4B69D"/>
<path d="M179 142.801C186.622 142.801 192.8 136.623 192.8 129.001C192.8 121.38 186.622 115.201 179 115.201C171.379 115.201 165.2 121.38 165.2 129.001C165.2 136.623 171.379 142.801 179 142.801Z" fill="#E4B69D"/>
<path d="M183.8 123.801C182.6 153.301 159 187.301 128.2 187.301C97.4002 187.301 73.6002 153.401 72.4002 123.801C71.1002 91.1012 85.5002 54.2012 128.1 54.2012C170.7 54.2012 185.2 91.1012 183.8 123.801Z" fill="#F0D0B4"/>
<path d="M148.101 100.001C150.186 99.1975 152.374 98.6925 154.601 98.5015C155.701 98.4015 156.801 98.5015 157.901 98.5015L161.201 98.9015C163.376 99.3857 165.466 100.195 167.401 101.301C169.441 102.239 171.15 103.773 172.301 105.701C172.401 105.801 172.301 106.001 172.201 106.101H172.001C169.901 105.201 168.301 104.101 166.501 103.201C164.657 102.298 162.709 101.627 160.701 101.201L157.701 100.801C156.701 100.801 155.701 100.701 154.701 100.801H153.201L151.701 101.101C151.192 101.153 150.69 101.254 150.201 101.401L148.701 101.801C148.449 101.863 148.183 101.824 147.959 101.694C147.735 101.563 147.571 101.351 147.501 101.101C147.438 100.876 147.466 100.635 147.578 100.43C147.69 100.225 147.877 100.071 148.101 100.001Z" fill="#253858"/>
<path d="M107 101.901L105.5 101.501C105.011 101.353 104.509 101.253 104 101.201L102.5 100.901H101C100 100.801 99.0004 100.901 98.0004 100.901L95.0004 101.301C93.0198 101.711 91.1028 102.383 89.3004 103.301C87.5004 104.201 85.8004 105.301 83.8004 106.201C83.6004 106.201 83.5004 106.201 83.4004 106.001V105.801C84.5995 103.913 86.2946 102.391 88.3004 101.401C90.25 100.326 92.3354 99.5192 94.5004 99.0011L97.8004 98.6011C99.0004 98.6011 100.1 98.5011 101.2 98.6011C103.425 98.8024 105.612 99.3071 107.7 100.101C107.939 100.21 108.131 100.402 108.241 100.64C108.351 100.879 108.372 101.148 108.3 101.401C108.195 101.619 108.019 101.797 107.802 101.905C107.585 102.014 107.339 102.047 107.1 102.001L107 101.901Z" fill="#253858"/>
<path d="M119.7 139.702C120.886 138.942 122.303 138.623 123.7 138.802C124.081 138.841 124.452 138.943 124.8 139.102L125.5 139.402C125.885 139.537 126.298 139.571 126.7 139.502L128.1 139.002C128.755 138.684 129.472 138.514 130.2 138.502C131.519 138.362 132.849 138.642 134 139.302C134.179 139.389 134.32 139.54 134.394 139.725C134.468 139.91 134.47 140.115 134.4 140.302C134.305 140.449 134.17 140.565 134.01 140.636C133.85 140.707 133.673 140.73 133.5 140.702C132.497 140.39 131.435 140.321 130.4 140.502C129.906 140.577 129.43 140.747 129 141.002L127.1 141.702C126.334 141.817 125.553 141.784 124.8 141.602L123.9 141.102L123.3 140.902C122.299 140.726 121.269 140.794 120.3 141.102C120.208 141.132 120.111 141.143 120.015 141.134C119.919 141.125 119.825 141.096 119.741 141.049C119.656 141.002 119.582 140.938 119.524 140.861C119.465 140.784 119.423 140.696 119.4 140.602C119.348 140.44 119.348 140.265 119.402 140.103C119.456 139.941 119.561 139.8 119.7 139.702Z" fill="#E4B69D"/>
<path d="M146.3 156.301C141 155.501 137.7 154.501 133.7 155.101H132.9C130.762 155.6 128.538 155.6 126.4 155.101H125.6C121.9 154.501 118.5 155.301 113.2 156.201L108.2 156.801C110.866 159.873 114.161 162.337 117.862 164.025C121.562 165.713 125.583 166.587 129.65 166.587C133.718 166.587 137.738 165.713 141.439 164.025C145.139 162.337 148.434 159.873 151.1 156.801L146.3 156.301Z" fill="#FF7452"/>
<path d="M105.7 155.201C109.516 156.388 113.432 157.224 117.4 157.701C125.298 158.801 133.312 158.768 141.2 157.601C143.2 157.401 145.1 157.001 147.1 156.601L152.9 155.101C152.965 155.062 153.039 155.043 153.115 155.045C153.19 155.047 153.263 155.07 153.326 155.112C153.389 155.154 153.438 155.213 153.469 155.281C153.5 155.35 153.511 155.426 153.5 155.501C153.534 155.558 153.553 155.623 153.555 155.69C153.557 155.756 153.543 155.823 153.513 155.882C153.483 155.942 153.439 155.993 153.384 156.031C153.33 156.069 153.266 156.093 153.2 156.101C149.427 157.608 145.505 158.714 141.5 159.401C137.473 160.118 133.391 160.486 129.3 160.501C127.3 160.501 125.2 160.401 123.2 160.201C121.156 160.072 119.12 159.838 117.1 159.501C113.079 158.787 109.13 157.717 105.3 156.301C105.1 156.101 104.9 155.801 105 155.601C105.061 155.47 105.162 155.362 105.287 155.29C105.412 155.218 105.557 155.187 105.7 155.201Z" fill="#72594B"/>
<path d="M91.7002 112.002C94.7499 109.843 98.3658 108.626 102.1 108.502C105.812 108.393 109.471 109.404 112.6 111.402C112.801 111.544 112.943 111.755 112.999 111.995C113.054 112.235 113.019 112.486 112.9 112.702C112.763 112.879 112.57 113.005 112.352 113.06C112.135 113.114 111.905 113.094 111.7 113.002C110.196 112.224 108.623 111.588 107 111.102C105.393 110.715 103.752 110.481 102.1 110.402C100.411 110.432 98.7323 110.667 97.1002 111.102C95.4629 111.544 93.8848 112.182 92.4002 113.002C92.3394 113.056 92.2664 113.094 92.1876 113.113C92.1087 113.133 92.0263 113.132 91.9476 113.113C91.8688 113.093 91.796 113.055 91.7355 113C91.675 112.946 91.6286 112.878 91.6002 112.802C91.5146 112.68 91.4774 112.531 91.4958 112.383C91.5143 112.235 91.5872 112.099 91.7002 112.002Z" fill="#172B4D"/>
<path d="M166.2 113.002C164.716 112.182 163.138 111.544 161.5 111.102C159.866 110.68 158.188 110.445 156.5 110.402C154.816 110.481 153.142 110.715 151.5 111.102C149.91 111.588 148.37 112.224 146.9 113.002C146.791 113.07 146.668 113.114 146.54 113.131C146.412 113.147 146.282 113.136 146.159 113.098C146.036 113.06 145.922 112.996 145.826 112.911C145.729 112.825 145.652 112.72 145.6 112.602C145.509 112.397 145.488 112.167 145.543 111.95C145.597 111.732 145.723 111.539 145.9 111.402C149.048 109.409 152.718 108.401 156.442 108.508C160.166 108.615 163.773 109.831 166.8 112.002C166.896 112.096 166.957 112.22 166.974 112.353C166.991 112.487 166.963 112.622 166.894 112.738C166.824 112.853 166.718 112.942 166.593 112.99C166.467 113.037 166.329 113.042 166.2 113.002Z" fill="#172B4D"/>
<path d="M155.4 117.703C157.168 117.703 158.6 116.27 158.6 114.503C158.6 112.735 157.168 111.303 155.4 111.303C153.633 111.303 152.2 112.735 152.2 114.503C152.2 116.27 153.633 117.703 155.4 117.703Z" fill="#172B4D"/>
<path d="M102.7 117.703C104.467 117.703 105.9 116.27 105.9 114.503C105.9 112.735 104.467 111.303 102.7 111.303C100.933 111.303 99.5 112.735 99.5 114.503C99.5 116.27 100.933 117.703 102.7 117.703Z" fill="#172B4D"/>
<path d="M199.3 84.6006C197.5 72.5006 193.1 57.8006 187.3 49.1006C176.742 33.3236 160.35 22.3855 141.729 18.6913C123.108 14.9971 103.782 18.8492 88.0001 29.4006C68.6001 42.4006 56.8001 74.9006 57.0001 97.1006C86.0001 100.001 132.3 93.3006 152 70.1006C151.621 71.6382 151.119 73.143 150.5 74.6006C149.058 77.9372 147.025 80.9861 144.5 83.6006C143.194 84.9059 141.79 86.1094 140.3 87.2006C138.804 88.302 137.195 89.2407 135.5 90.0006H135.4C135.093 90.1505 134.846 90.4007 134.701 90.7098C134.555 91.0189 134.52 91.3685 134.6 91.7006C134.717 92.0916 134.978 92.4234 135.332 92.6279C135.685 92.8323 136.103 92.8941 136.5 92.8006C138.513 92.2091 140.458 91.4046 142.3 90.4006C144.182 89.4576 145.958 88.3179 147.6 87.0006C151.015 84.4164 153.929 81.2309 156.2 77.6006C158.484 73.9094 160.109 69.8488 161 65.6006C161.114 65.2442 161.182 64.8744 161.2 64.5006C174.1 74.2006 183.9 92.2006 183.9 116.101C187.8 118.501 193.4 98.6006 199.4 99.5006C199.3 96.9006 199.8 87.9006 199.3 84.6006Z" fill="#091E42"/>
<path d="M186.1 114.001H177.5C177.681 113.413 177.815 112.811 177.9 112.201L178.1 111.301V110.801C178.182 110.577 178.216 110.339 178.2 110.101C178.185 109.219 177.936 108.356 177.48 107.601C177.023 106.846 176.375 106.225 175.6 105.801L174.3 105.301H173.3L171.5 105.001C166.728 104.282 161.922 103.815 157.1 103.601C152.3 103.401 147.3 103.301 142.4 104.601C139.806 105.183 137.421 106.463 135.5 108.301C134.496 109.274 133.742 110.475 133.3 111.801C133.089 112.285 132.922 112.787 132.8 113.301C131.306 112.528 129.655 112.109 127.974 112.074C126.292 112.039 124.625 112.391 123.1 113.101C123.013 112.655 122.879 112.219 122.7 111.801C122.259 110.475 121.504 109.274 120.5 108.301C118.58 106.463 116.194 105.183 113.6 104.601C108.7 103.301 103.7 103.401 98.9004 103.601C94.0792 103.815 89.2725 104.282 84.5004 105.001L82.7004 105.301H81.7004L80.4004 105.801C79.6261 106.225 78.9776 106.846 78.521 107.601C78.0643 108.356 77.8157 109.219 77.8004 110.101C77.7843 110.339 77.8184 110.577 77.9004 110.801V111.301L78.1004 112.201C78.1857 112.811 78.3195 113.413 78.5004 114.001H70.0004C69.576 114.001 69.1691 114.17 68.869 114.47C68.569 114.77 68.4004 115.177 68.4004 115.601C68.4004 116.025 68.569 116.432 68.869 116.732C69.1691 117.033 69.576 117.201 70.0004 117.201H79.4004L79.6004 117.701C81.2956 122.531 84.4382 126.721 88.6004 129.701C90.6941 131.166 93.0299 132.249 95.5004 132.901C97.9561 133.496 100.474 133.798 103 133.801C105.507 133.786 107.998 133.416 110.4 132.701C112.887 132.024 115.204 130.831 117.2 129.201C119.221 127.562 120.83 125.473 121.9 123.101C122.719 121.06 123.192 118.897 123.3 116.701C123.9 116.201 127.5 113.501 132.7 116.801C132.808 118.965 133.282 121.095 134.1 123.101C135.17 125.473 136.78 127.562 138.8 129.201C140.797 130.831 143.114 132.024 145.6 132.701C148.003 133.416 150.494 133.786 153 133.801C155.527 133.798 158.045 133.496 160.5 132.901C162.971 132.249 165.307 131.166 167.4 129.701C171.563 126.721 174.705 122.531 176.4 117.701L176.6 117.201H186.1C186.525 117.201 186.932 117.033 187.232 116.732C187.532 116.432 187.7 116.025 187.7 115.601C187.7 115.177 187.532 114.77 187.232 114.47C186.932 114.17 186.525 114.001 186.1 114.001ZM119.7 122.201C118.815 124.237 117.441 126.023 115.7 127.401C112.2 130.101 107.5 131.201 103 131.201C100.704 131.121 98.423 130.785 96.2004 130.201C94.0575 129.563 92.0315 128.584 90.2004 127.301C86.6003 124.605 83.913 120.871 82.5004 116.601C82.3004 116.101 82.2004 115.501 82.0004 115.001C81.8201 114.447 81.6863 113.878 81.6004 113.301C81.409 112.75 81.275 112.18 81.2004 111.601V110.801C81.2004 110.701 81.1004 110.501 81.1004 110.401V110.201C81.1027 109.868 81.1974 109.542 81.3739 109.26C81.5505 108.977 81.802 108.749 82.1004 108.601H83.3004L85.0004 108.401C89.6652 107.552 94.3718 106.951 99.1004 106.601C103.8 106.301 108.5 106.201 112.9 107.301C115.034 107.654 117.017 108.628 118.6 110.101C119.333 110.837 119.913 111.711 120.308 112.672C120.703 113.633 120.904 114.662 120.9 115.701C120.9 117.923 120.494 120.126 119.7 122.201ZM175 110.401C175 110.501 174.9 110.701 174.9 110.801V111.601C174.826 112.18 174.692 112.75 174.5 113.301C174.414 113.878 174.281 114.447 174.1 115.001C173.9 115.501 173.8 116.101 173.6 116.601C172.188 120.871 169.5 124.605 165.9 127.301C164.069 128.584 162.043 129.563 159.9 130.201C157.678 130.785 155.397 131.121 153.1 131.201C148.6 131.201 143.9 130.101 140.4 127.401C138.66 126.023 137.286 124.237 136.4 122.201C135.607 120.126 135.2 117.923 135.2 115.701C135.197 114.662 135.398 113.633 135.793 112.672C136.187 111.711 136.768 110.837 137.5 110.101C139.084 108.628 141.066 107.654 143.2 107.301C147.6 106.201 152.3 106.301 157 106.601C161.757 106.848 166.497 107.349 171.2 108.101L172.9 108.301H174C174.299 108.449 174.55 108.677 174.727 108.96C174.903 109.242 174.998 109.568 175 109.901V110.401Z" fill="#006644"/>
</g>
<defs>
<linearGradient id="paint0_linear" x1="130" y1="180.14" x2="130" y2="236.31" gradientUnits="userSpaceOnUse">
<stop stop-color="#ECC19C"/>
<stop offset="1" stop-color="#F1DBCB"/>
</linearGradient>
<clipPath id="clip0">
<path d="M0 0.599609H256V257.3H0V0.599609Z" fill="white"/>
</clipPath>
</defs>
</svg>
