<svg width="256" height="257" viewBox="0 0 256 257" fill="none" xmlns="http://www.w3.org/2000/svg">
<g clip-path="url(#clip0)">
<path d="M0 0H256V256.9H0V0Z" fill="white" fill-opacity="0.01"/>
<path d="M256 129.7V127C255.995 104.938 250.178 83.2672 239.136 64.1675C228.094 45.0678 212.216 29.2135 193.1 18.2002L190.9 16.8002C171.763 5.79793 150.074 0.0078125 128 0.0078125C105.926 0.0078125 84.2372 5.79793 65.1 16.8002L62.9 18.2002C43.7838 29.2135 27.9057 45.0678 16.8637 64.1675C5.8217 83.2672 0.0053515 104.938 0 127L0 129.7C0.0053515 151.762 5.8217 173.433 16.8637 192.533C27.9057 211.633 43.7838 227.487 62.9 238.5L65.1 239.9C84.2372 250.902 105.926 256.693 128 256.693C150.074 256.693 171.763 250.902 190.9 239.9L193.1 238.5C212.216 227.487 228.094 211.633 239.136 192.533C250.178 173.433 255.995 151.762 256 129.7Z" fill="#0065FF"/>
<path d="M170.2 206.4L131 204.4L91.8004 206.4C91.0554 206.467 90.3363 206.707 89.7004 207.1L54.1004 230.7L52.4004 231.9C55.77 234.362 59.2756 236.633 62.9004 238.7L65.1004 240C84.2211 251.051 105.916 256.87 128 256.87C150.085 256.87 171.78 251.051 190.9 240L193.1 238.7C197.795 236.004 202.305 232.997 206.6 229.7L172.3 207.1C171.664 206.707 170.945 206.467 170.2 206.4Z" fill="#4C9AFF"/>
<path d="M60.5005 84.0016C58.8005 93.0016 55.2005 143.702 57.7005 153.202C60.2005 162.702 89.2005 197.602 98.9005 201.802C108.6 206.002 153 205.202 162.3 200.702C171.6 196.202 200.3 162.802 203.2 152.902C206.1 143.002 204.1 111.202 202.4 84.0016L131 64.1016L60.5005 84.0016Z" fill="#0C1F41"/>
<path d="M167.9 208.1C167 209.3 152 229.3 127.2 227.4C107.2 225.8 95.9002 211.1 94.2002 208.8C99.1856 205.038 102.718 199.668 104.2 193.6C107.1 180.8 99.1002 171 98.1002 169.9H160.8C160.4 170.5 151.2 183.3 157 196.5C159.297 201.435 163.118 205.501 167.9 208.1Z" fill="url(#paint0_linear)"/>
<path d="M79.6008 142.202C87.2223 142.202 93.4008 136.023 93.4008 128.402C93.4008 120.78 87.2223 114.602 79.6008 114.602C71.9792 114.602 65.8008 120.78 65.8008 128.402C65.8008 136.023 71.9792 142.202 79.6008 142.202Z" fill="url(#paint1_linear)"/>
<path d="M182.001 142.202C189.623 142.202 195.801 136.023 195.801 128.402C195.801 120.78 189.623 114.602 182.001 114.602C174.38 114.602 168.201 120.78 168.201 128.402C168.201 136.023 174.38 142.202 182.001 142.202Z" fill="url(#paint2_linear)"/>
<path d="M83.2009 100.601C83.2009 107.001 83.0009 113.101 82.8009 118.901C82.6009 124.701 82.4009 123.801 82.1009 129.301C81.3009 144.901 82.1009 148.901 78.8009 152.601C75.5009 156.301 73.3009 156.801 72.0009 155.901C70.7009 155.001 72.6009 151.301 73.4009 145.801C75.3009 132.301 70.9009 118.601 70.5009 117.501C69.5009 114.701 68.4009 112.001 68.6009 108.001C68.7009 105.601 68.9009 100.301 72.6009 98.3012C76.3009 96.3012 79.9009 97.7011 83.2009 100.601Z" fill="#0C1F41"/>
<path d="M189.401 100.601C189.401 107.001 189.201 113.101 188.901 118.901C188.601 124.701 188.501 123.801 188.201 129.301C187.401 144.901 188.201 148.901 184.901 152.601C181.601 156.301 179.501 156.801 178.201 155.901C176.901 155.001 178.801 151.301 179.601 145.801C181.501 132.301 177.001 118.601 176.601 117.501C175.701 114.701 174.501 112.001 174.701 108.001C174.801 105.601 175.001 100.301 178.801 98.3012C182.601 96.3012 186.101 97.7011 189.401 100.601Z" fill="#0C1F41"/>
<path d="M187.001 123.201C185.801 152.901 154.901 187.001 131.101 187.001C107.301 187.001 76.3006 152.901 75.1006 123.201C73.7006 90.3008 98.4006 53.3008 131.001 53.3008C163.601 53.3008 188.301 90.3008 187.001 123.201Z" fill="#FFE1D7"/>
<path d="M71.4008 137.7C72.2844 137.7 73.0008 136.984 73.0008 136.1C73.0008 135.216 72.2844 134.5 71.4008 134.5C70.5171 134.5 69.8008 135.216 69.8008 136.1C69.8008 136.984 70.5171 137.7 71.4008 137.7Z" fill="#0065FF"/>
<path d="M190.901 137.7C191.784 137.7 192.501 136.984 192.501 136.1C192.501 135.216 191.784 134.5 190.901 134.5C190.017 134.5 189.301 135.216 189.301 136.1C189.301 136.984 190.017 137.7 190.901 137.7Z" fill="#0065FF"/>
<path d="M175.401 106.401C172.922 104.758 170.314 103.32 167.601 102.101C164.839 100.985 161.879 100.44 158.901 100.501C155.946 100.457 153.016 101.036 150.301 102.201C147.553 103.275 145.04 104.871 142.901 106.901C142.815 107.016 142.705 107.111 142.579 107.179C142.453 107.248 142.314 107.289 142.171 107.299C142.029 107.309 141.885 107.288 141.751 107.238C141.617 107.188 141.495 107.11 141.393 107.009C141.292 106.907 141.214 106.785 141.164 106.651C141.114 106.517 141.093 106.373 141.103 106.231C141.113 106.088 141.154 105.949 141.223 105.823C141.291 105.697 141.386 105.587 141.501 105.501C143.72 103.161 146.413 101.32 149.401 100.101C152.388 98.7733 155.632 98.1244 158.901 98.2015C162.139 98.2077 165.34 98.8888 168.301 100.201C171.373 101.306 174.004 103.376 175.801 106.101C175.901 106.201 175.901 106.301 175.701 106.401H175.401Z" fill="#253858"/>
<path d="M86.8011 106.102C88.5976 103.376 91.229 101.306 94.3011 100.202C97.2967 98.8895 100.531 98.2087 103.801 98.2018C107.036 98.1362 110.246 98.7849 113.201 100.102C116.218 101.318 118.944 103.159 121.201 105.502C121.372 105.702 121.457 105.96 121.438 106.222C121.419 106.484 121.298 106.728 121.101 106.902C121.017 106.99 120.916 107.059 120.804 107.107C120.693 107.155 120.573 107.179 120.451 107.179C120.33 107.179 120.209 107.155 120.098 107.107C119.986 107.059 119.885 106.99 119.801 106.902C117.629 104.913 115.124 103.322 112.401 102.202C109.681 101.053 106.754 100.475 103.801 100.502C100.821 100.423 97.858 100.968 95.1011 102.102C92.3557 103.319 89.7137 104.757 87.2011 106.402C87.1878 106.455 87.154 106.5 87.1071 106.529C87.0603 106.557 87.0041 106.565 86.9511 106.552C86.898 106.539 86.8524 106.505 86.8243 106.458C86.7962 106.411 86.7878 106.355 86.8011 106.302V106.102Z" fill="#253858"/>
<path d="M126.101 112.702C126.711 114.034 127.116 115.45 127.301 116.902C127.622 118.313 127.789 119.755 127.801 121.202C127.834 122.638 127.768 124.075 127.601 125.502C127.411 126.932 127.076 128.34 126.601 129.702C126.582 129.809 126.538 129.909 126.472 129.996C126.407 130.083 126.323 130.153 126.226 130.201C126.129 130.25 126.022 130.275 125.914 130.275C125.805 130.275 125.698 130.25 125.601 130.202C125.407 130.155 125.237 130.036 125.126 129.869C125.015 129.702 124.971 129.5 125.001 129.302C125.201 127.902 125.401 126.602 125.501 125.302C125.601 124.002 125.601 122.602 125.601 121.202C125.601 119.802 125.401 118.502 125.201 117.202C125.065 115.854 124.831 114.517 124.501 113.202C124.471 112.978 124.526 112.751 124.656 112.565C124.786 112.38 124.98 112.25 125.201 112.202C125.386 112.166 125.578 112.197 125.742 112.288C125.907 112.38 126.034 112.526 126.101 112.702Z" fill="#F0BEB4"/>
<path d="M122.701 139.101C123.887 138.341 125.304 138.022 126.701 138.201C127.082 138.24 127.453 138.341 127.801 138.501L128.501 138.801C128.887 138.932 129.299 138.966 129.701 138.901L131.201 138.401C131.821 138.085 132.505 137.914 133.201 137.901C134.553 137.76 135.915 138.039 137.101 138.701C137.263 138.804 137.382 138.962 137.437 139.145C137.492 139.329 137.479 139.526 137.401 139.701C137.306 139.848 137.171 139.964 137.011 140.035C136.851 140.106 136.674 140.129 136.501 140.101C135.498 139.789 134.436 139.72 133.401 139.901C132.907 139.976 132.431 140.146 132.001 140.401L130.101 141.101C129.335 141.216 128.554 141.182 127.801 141.001L126.901 140.501L126.301 140.301C125.333 140.12 124.335 140.189 123.401 140.501C123.202 140.565 122.986 140.548 122.799 140.455C122.612 140.361 122.47 140.198 122.401 140.001C122.349 139.839 122.349 139.664 122.403 139.502C122.457 139.34 122.562 139.199 122.701 139.101Z" fill="#F0BEB4"/>
<path d="M149.301 155.701C144.101 154.901 140.701 153.901 136.701 154.501H136.001C133.83 155.001 131.573 155.001 129.401 154.501H128.601C124.901 153.901 121.601 154.701 116.201 155.601L111.201 156.201C111.601 156.601 119.201 163.001 132.701 163.001C146.201 163.001 153.701 156.601 154.201 156.201L149.301 155.701Z" fill="#F0BEB4"/>
<path d="M108.701 154.602C112.517 155.789 116.433 156.626 120.401 157.102C128.299 158.203 136.313 158.169 144.201 157.002C146.184 156.775 148.154 156.441 150.101 156.002C152.101 155.602 154.001 155.002 155.901 154.502C156.047 154.47 156.199 154.493 156.328 154.567C156.458 154.641 156.555 154.761 156.601 154.902C156.605 155.02 156.58 155.136 156.528 155.241C156.475 155.346 156.397 155.436 156.301 155.502C152.489 156.996 148.535 158.102 144.501 158.802C140.474 159.52 136.392 159.888 132.301 159.902C130.301 159.902 128.201 159.802 126.201 159.602C124.201 159.402 122.101 159.202 120.101 158.902C116.08 158.189 112.131 157.118 108.301 155.702C108.101 155.502 107.901 155.202 108.001 155.002C108.062 154.872 108.163 154.763 108.288 154.692C108.413 154.62 108.558 154.589 108.701 154.602Z" fill="#CB8C84"/>
<path d="M94.8012 111.402C97.8118 109.241 101.397 108.023 105.101 107.902C108.814 107.781 112.477 108.792 115.601 110.802C115.711 110.864 115.807 110.947 115.882 111.048C115.958 111.148 116.011 111.263 116.039 111.386C116.068 111.508 116.07 111.635 116.046 111.759C116.022 111.882 115.973 111.999 115.901 112.102C115.764 112.28 115.571 112.406 115.353 112.46C115.135 112.515 114.906 112.494 114.701 112.402C113.205 111.607 111.63 110.97 110.001 110.502C108.393 110.116 106.753 109.881 105.101 109.802C103.413 109.839 101.735 110.073 100.101 110.502C98.4639 110.945 96.8858 111.582 95.4012 112.402C95.3404 112.456 95.2674 112.494 95.1885 112.514C95.1097 112.533 95.0273 112.533 94.9485 112.513C94.8698 112.493 94.797 112.455 94.7364 112.401C94.6759 112.347 94.6295 112.278 94.6012 112.202C94.5474 112.142 94.5092 112.069 94.4899 111.99C94.4706 111.911 94.4708 111.828 94.4905 111.75C94.5102 111.671 94.5488 111.598 94.6029 111.538C94.657 111.477 94.7251 111.431 94.8012 111.402Z" fill="#172B4D"/>
<path d="M169.202 112.402C167.717 111.582 166.139 110.945 164.502 110.502C162.868 110.073 161.19 109.839 159.502 109.802C157.85 109.881 156.209 110.116 154.602 110.502C152.973 110.97 151.398 111.607 149.902 112.402C149.8 112.47 149.685 112.514 149.564 112.53C149.443 112.547 149.319 112.535 149.204 112.497C149.088 112.458 148.982 112.393 148.895 112.308C148.808 112.222 148.742 112.118 148.702 112.002C148.589 111.802 148.557 111.566 148.613 111.343C148.669 111.12 148.808 110.926 149.002 110.802C152.126 108.792 155.788 107.781 159.502 107.902C163.206 108.023 166.791 109.241 169.802 111.402C169.931 111.485 170.024 111.614 170.061 111.763C170.098 111.911 170.077 112.069 170.002 112.202C169.973 112.278 169.927 112.347 169.866 112.401C169.806 112.455 169.733 112.493 169.654 112.513C169.576 112.533 169.493 112.533 169.414 112.514C169.335 112.494 169.262 112.456 169.202 112.402Z" fill="#172B4D"/>
<path d="M158.401 115.703C160.168 115.703 161.601 114.27 161.601 112.503C161.601 110.735 160.168 109.303 158.401 109.303C156.634 109.303 155.201 110.735 155.201 112.503C155.201 114.27 156.634 115.703 158.401 115.703Z" fill="#172B4D"/>
<path d="M105.701 115.703C107.468 115.703 108.901 114.27 108.901 112.503C108.901 110.735 107.468 109.303 105.701 109.303C103.934 109.303 102.501 110.735 102.501 112.503C102.501 114.27 103.934 115.703 105.701 115.703Z" fill="#172B4D"/>
<path d="M91.0008 28.801C106.782 18.2495 126.108 14.3975 144.73 18.0917C163.351 21.7859 179.742 32.724 190.301 48.501C196.201 57.201 200.601 71.901 202.401 84.001C202.801 87.301 202.801 91.101 203.001 93.701C163.701 95.601 139.801 95.901 131.001 67.501C116.201 97.201 91.6008 96.9009 59.3008 93.701C60.7008 72.201 71.7008 41.801 91.0008 28.801Z" fill="#0C1F41"/>
</g>
<defs>
<linearGradient id="paint0_linear" x1="131.02" y1="171.04" x2="131.02" y2="227.21" gradientUnits="userSpaceOnUse">
<stop stop-color="#EBBDAC"/>
<stop offset="1" stop-color="#FFE1D7"/>
</linearGradient>
<linearGradient id="paint1_linear" x1="2614.66" y1="3658.72" x2="1935.15" y2="3658.72" gradientUnits="userSpaceOnUse">
<stop stop-color="#EBBDAC"/>
<stop offset="1" stop-color="#FFE1D7"/>
</linearGradient>
<linearGradient id="paint2_linear" x1="4843.09" y1="3647.68" x2="5454.43" y2="3667.27" gradientUnits="userSpaceOnUse">
<stop stop-color="#EBBDAC"/>
<stop offset="1" stop-color="#FFE1D7"/>
</linearGradient>
<clipPath id="clip0">
<path d="M0 0H256V256.9H0V0Z" fill="white"/>
</clipPath>
</defs>
</svg>
