<svg width="256" height="256" viewBox="0 0 256 256" fill="none" xmlns="http://www.w3.org/2000/svg">
<g clip-path="url(#clip0)">
<path d="M0 0H256V256H0V0Z" fill="white" fill-opacity="0.01"/>
<path d="M128 256C198.692 256 256 198.692 256 128C256 57.3075 198.692 0 128 0C57.3075 0 0 57.3075 0 128C0 198.692 57.3075 256 128 256Z" fill="#6554C0"/>
<path d="M207.3 228.4L178.5 212.3C177.705 211.841 176.816 211.568 175.9 211.5L128 209L80.1002 211.5C79.1844 211.568 78.2956 211.841 77.5002 212.3L48.7002 228.4C71.266 246.278 99.2107 256.006 128 256.006C156.79 256.006 184.734 246.278 207.3 228.4Z" fill="#C0B6F2"/>
<path d="M173 216.5C172 218 153.6 242.4 123.4 240C98.9 238.1 85.1 220.1 83 217.3C89.0836 212.73 93.395 206.192 95.2 198.8C98.8 183.2 89 171.3 87.8 169.9H164.4C163.9 170.6 152.6 186.2 159.7 202.3C162.458 208.363 167.131 213.352 173 216.5Z" fill="#E4B69D"/>
<path d="M60.8003 100.999C60.9003 98.2995 63.2003 95.8995 63.6003 93.2995C64.0003 90.6995 62.6003 87.6995 63.4003 85.0995C64.2003 82.4995 66.8003 80.6995 67.8003 78.2995C68.8003 75.8995 68.1003 72.5995 69.4003 70.1995C70.7003 67.7995 73.7003 66.6995 75.2003 64.4995C76.7003 62.2995 76.8003 58.9995 78.5003 56.9995C80.2003 54.9995 83.5003 54.4995 85.5003 52.6995C87.5003 50.8995 88.2003 47.6995 90.4003 46.1995C92.6003 44.6995 95.8003 44.8995 98.1003 43.5995C100.4 42.2995 101.9 39.3995 104.4 38.3995C106.9 37.3995 110 38.4995 112.6 37.7995C115.2 37.0995 117.3 34.6995 120 34.2995C122.7 33.8995 125.3 35.7995 128 35.7995C130.7 35.7995 133.5 33.9995 136 34.2995C138.5 34.5995 140.9 37.0995 143.4 37.7995C145.9 38.4995 149.2 37.3995 151.6 38.3995C154 39.3995 155.6 42.2995 157.9 43.5995C160.2 44.8995 163.5 44.5995 165.6 46.1995C167.7 47.7995 168.6 50.9995 170.5 52.6995C172.4 54.3995 175.7 54.9995 177.5 56.9995C179.3 58.9995 179.3 62.3995 180.8 64.4995C182.3 66.5995 185.3 67.8995 186.6 70.1995C187.9 72.4995 187.2 75.7995 188.2 78.2995C189.2 80.7995 191.9 82.5995 192.6 85.0995C193.3 87.5995 192 90.6995 192.4 93.2995C192.8 95.8995 195.1 98.2995 195.2 100.999C195.3 103.699 193.3 106.499 193 109.299C192.7 112.099 194.4 115.199 193.8 117.899C193.2 120.599 190.6 122.799 189.7 125.499C188.8 128.199 189.6 131.399 188.4 133.999C187.2 136.599 184.1 137.999 182.6 140.399C181.1 142.799 181.2 146.199 179.5 148.399C177.8 150.599 174.4 151.399 172.4 153.299C170.4 155.199 169.7 158.699 167.4 160.399C165.1 162.099 161.8 161.999 159.4 163.499C157 164.999 155.4 167.999 152.9 169.099C150.4 170.199 147 169.199 144.3 169.999C141.6 170.799 139.3 173.199 136.5 173.599C133.7 173.999 130.8 172.199 128 172.199C125.2 172.199 122.2 173.999 119.5 173.599C116.8 173.199 114.4 170.699 111.7 169.999C109 169.299 105.7 170.199 103.1 169.099C100.5 167.999 99.0003 164.899 96.6003 163.499C94.2003 162.099 90.7003 162.099 88.5003 160.399C86.3003 158.699 85.6003 155.299 83.6003 153.299C81.6003 151.299 78.3003 150.599 76.5003 148.399C74.7003 146.199 74.8003 142.799 73.4003 140.399C72.0003 137.999 68.8003 136.499 67.6003 133.999C66.4003 131.499 67.2003 128.099 66.3003 125.399C65.4003 122.699 62.8003 120.599 62.2003 117.899C61.6003 115.199 63.2003 112.099 63.0003 109.299C62.8003 106.499 60.7003 103.799 60.8003 100.999Z" fill="#543E36"/>
<path d="M77.5942 145.606C84.7152 143.804 88.6757 135.182 86.4403 126.348C84.2049 117.513 76.62 111.812 69.4991 113.614C62.3781 115.416 58.4176 124.039 60.653 132.873C62.8885 141.707 70.4733 147.408 77.5942 145.606Z" fill="#E4B69D"/>
<path d="M196.075 132.852C198.31 124.017 194.35 115.395 187.229 113.593C180.108 111.791 172.523 117.492 170.288 126.326C168.052 135.161 172.013 143.783 179.134 145.585C186.255 147.387 193.84 141.686 196.075 132.852Z" fill="#E4B69D"/>
<path d="M127.9 46.0996C155.6 46.2996 172.5 64.9996 175.1 67.9996C192.6 88.1996 190.8 112.3 190.4 117.4C189.4 129.8 184.4 139.7 174.7 159.7C170.311 168.904 165.403 177.851 160 186.5C158.46 188.939 156.281 190.91 153.7 192.2C145.689 196.28 136.885 198.566 127.9 198.9C118.882 198.578 110.043 196.291 102 192.2C99.4672 190.879 97.3283 188.913 95.8002 186.5C90.3601 177.856 85.4187 168.908 81.0002 159.7C71.4002 139.7 66.3002 129.8 65.4002 117.4C65.0002 112.3 63.1002 88.1996 80.7002 67.9996C83.3002 64.9996 100.2 46.2996 127.9 46.0996Z" fill="#EFC7B0"/>
<path d="M139.4 105.699L140.6 104.699L141.8 103.899C142.6 103.299 143.5 102.899 144.3 102.399C146.01 101.618 147.783 100.983 149.6 100.499C153.259 99.5848 157.049 99.3141 160.8 99.6992C164.556 100.115 168.193 101.27 171.5 103.099C173.101 104.017 174.608 105.088 176 106.299C177.441 107.54 178.688 108.99 179.7 110.599C179.79 110.736 179.852 110.889 179.88 111.05C179.909 111.211 179.905 111.376 179.867 111.536C179.83 111.695 179.76 111.845 179.663 111.976C179.565 112.107 179.442 112.217 179.3 112.299C179.065 112.443 178.788 112.502 178.515 112.465C178.242 112.429 177.989 112.3 177.8 112.099H177.7C176.627 110.917 175.379 109.905 174 109.099C172.656 108.177 171.214 107.406 169.7 106.799C166.752 105.529 163.605 104.784 160.4 104.599C157.208 104.497 154.016 104.799 150.9 105.499C149.334 105.893 147.797 106.395 146.3 106.999L144.2 107.999L143.2 108.499L142.3 109.099H142C141.548 109.301 141.042 109.344 140.562 109.221C140.083 109.099 139.658 108.819 139.358 108.426C139.057 108.033 138.898 107.55 138.906 107.055C138.913 106.56 139.088 106.083 139.4 105.699Z" fill="#543E36"/>
<path d="M114.8 109L113.9 108.4L112.9 107.9L110.8 106.9C109.303 106.295 107.766 105.794 106.2 105.4C103.084 104.705 99.8922 104.402 96.7004 104.5C93.4958 104.685 90.3483 105.429 87.4004 106.7C85.887 107.306 84.4449 108.077 83.1004 109C81.7217 109.806 80.474 110.817 79.4004 112H79.3004C79.1889 112.112 79.0565 112.2 78.9106 112.261C78.7647 112.321 78.6083 112.353 78.4504 112.353C78.2925 112.353 78.1361 112.321 77.9902 112.261C77.8444 112.2 77.7119 112.112 77.6004 112C77.3999 111.811 77.2706 111.558 77.2342 111.285C77.1977 111.012 77.2564 110.735 77.4004 110.5C78.4128 108.89 79.6599 107.441 81.1004 106.2C82.4745 104.966 83.9842 103.893 85.6004 103C88.9074 101.17 92.5441 100.015 96.3004 99.5996C100.052 99.2145 103.842 99.4852 107.5 100.4C109.317 100.883 111.09 101.519 112.8 102.3C113.6 102.8 114.5 103.2 115.3 103.8L116.5 104.6L117.7 105.6C118.013 105.983 118.187 106.461 118.195 106.956C118.203 107.45 118.044 107.933 117.743 108.326C117.442 108.719 117.018 109 116.539 109.122C116.059 109.244 115.552 109.201 115.1 109H114.8Z" fill="#543E36"/>
<path d="M89.0005 117.5C92.0555 115.351 95.6682 114.135 99.4005 114C103.192 113.866 106.931 114.915 110.101 117C110.21 117.061 110.306 117.144 110.381 117.245C110.457 117.345 110.511 117.461 110.539 117.583C110.567 117.706 110.569 117.833 110.546 117.956C110.522 118.079 110.472 118.196 110.401 118.3C110.263 118.477 110.07 118.603 109.852 118.657C109.635 118.712 109.405 118.691 109.201 118.6C107.719 117.748 106.141 117.076 104.501 116.6C102.864 116.197 101.185 115.995 99.5005 116C97.7805 115.952 96.0626 116.154 94.4005 116.6C92.7596 117.076 91.1817 117.748 89.7005 118.6C89.5381 118.652 89.3632 118.651 89.2013 118.597C89.0393 118.543 88.8989 118.439 88.8005 118.3C88.7581 118.161 88.7543 118.013 88.7895 117.872C88.8247 117.731 88.8977 117.602 89.0005 117.5Z" fill="#230F05"/>
<path d="M166.3 118.6C164.784 117.747 163.173 117.076 161.5 116.6C159.871 116.16 158.187 115.957 156.5 116C154.816 115.995 153.136 116.197 151.5 116.6C149.853 117.058 148.273 117.731 146.8 118.6C146.57 118.688 146.317 118.697 146.081 118.625C145.845 118.552 145.641 118.402 145.5 118.2C145.388 117.999 145.356 117.763 145.412 117.54C145.467 117.317 145.607 117.123 145.8 117C148.97 114.915 152.709 113.866 156.5 114C160.233 114.135 163.845 115.351 166.9 117.5C167.037 117.6 167.133 117.746 167.17 117.912C167.206 118.078 167.182 118.251 167.1 118.4C166.998 118.502 166.869 118.575 166.728 118.611C166.587 118.646 166.439 118.642 166.3 118.6Z" fill="#230F05"/>
<path d="M155.4 121.5C157.168 121.5 158.6 120.067 158.6 118.3C158.6 116.532 157.168 115.1 155.4 115.1C153.633 115.1 152.2 116.532 152.2 118.3C152.2 120.067 153.633 121.5 155.4 121.5Z" fill="#230F05"/>
<path d="M100.1 121.5C101.868 121.5 103.3 120.067 103.3 118.3C103.3 116.532 101.868 115.1 100.1 115.1C98.3331 115.1 96.9004 116.532 96.9004 118.3C96.9004 120.067 98.3331 121.5 100.1 121.5Z" fill="#230F05"/>
<path d="M126.5 79.9001C130.5 79.9001 134.4 81.4001 137.7 80.5001C141 79.6001 144.3 76.3001 147.4 74.8001C150.5 73.3001 155.3 73.2001 158.3 71.9001C161.3 70.6001 166 67.7001 169 69.9001C172 72.1001 170.2 74.5001 170.6 77.2001C171 79.9001 173.1 81.4001 173.5 84.1001C173.9 86.8001 172.2 89.0001 173 91.6001C173.8 94.2001 176.4 95.1001 177.7 97.4001C179 99.7001 178.2 102 179.4 103.5C180.6 105 183.5 105.2 184.9 106.6C186.3 108 186.8 110.8 188.3 111.9C189.8 113 192.3 112.4 193.9 113.3C194.958 108.025 195.026 102.6 194.1 97.3001C193.3 92.4001 189.9 87.4001 187.6 81.6001C185.3 75.8001 184.8 70.7001 181.2 65.9001C177.6 61.1001 172.7 59.0001 168 55.3001C163.3 51.6001 160.7 47.9001 156.5 46.0001C152.3 44.1001 146.4 44.3001 141.9 43.5001C137.4 42.7001 131.7 40.1001 127.4 40.2001C119.7 40.4001 114.5 43.7001 113.2 44.1001C111.9 44.5001 106 44.0001 99.5005 47.3001C96.0005 49.2001 93.1005 53.3001 89.0005 56.6001C84.9005 59.9001 80.9005 61.0001 77.8005 64.9001C74.7005 68.8001 74.2005 73.2001 72.0005 77.7001C70.5005 80.5001 67.5005 82.6001 66.5005 85.4001C65.5005 88.2001 66.7005 92.0001 66.2005 94.8001C65.7005 97.6001 63.2005 100.9 63.1005 103.7C63.0005 106.5 64.5005 109.8 64.7005 112.1C66.3005 110.8 68.3005 110.9 70.0005 109.2C71.7005 107.5 71.5005 104.7 73.0005 102.8C74.5005 100.9 77.3005 100.3 78.4005 98.3001C79.5005 96.3001 78.5005 93.5001 79.3005 91.3001C80.1005 89.1001 82.4005 88.5001 82.7005 87.0001C83.0005 85.5001 81.3005 83.1001 81.4005 81.6001C81.5005 80.1001 83.7005 78.3001 84.0005 76.8001C84.3005 75.3001 83.3005 72.7001 84.7005 71.5001C86.1005 70.3001 91.0005 71.5001 95.2005 73.1001C99.4005 74.7001 102.2 73.9001 105.9 75.4001C109.6 76.9001 111.8 79.9001 115.6 80.7001C119.4 81.5001 122.7 79.9001 126.5 79.9001Z" fill="#543E36"/>
<path d="M188.101 103.4L184.501 119.2C184.084 121.067 184.201 123.013 184.837 124.817C185.474 126.62 186.605 128.209 188.101 129.4C188.101 129.4 191.701 119.9 192.501 115.4C193.301 110.9 188.101 103.4 188.101 103.4Z" fill="#543E36"/>
<path d="M67.3004 103.4L70.6004 119.2C71.0512 121.039 70.9813 122.967 70.3985 124.769C69.8157 126.57 68.7429 128.174 67.3004 129.4C67.3004 129.4 63.9004 119.9 63.1004 115.4C62.3004 110.9 67.3004 103.4 67.3004 103.4Z" fill="#543E36"/>
<path d="M121.8 115.799C122.592 117.494 123.196 119.272 123.6 121.099C123.982 122.974 124.116 124.89 124 126.799C123.972 128.692 123.703 130.574 123.2 132.399C122.699 134.222 121.96 135.971 121 137.599C120.948 137.692 120.878 137.773 120.794 137.838C120.711 137.904 120.615 137.952 120.513 137.98C120.41 138.007 120.303 138.015 120.198 138.001C120.093 137.987 119.992 137.953 119.9 137.899C119.713 137.794 119.57 137.625 119.497 137.423C119.423 137.221 119.424 137 119.5 136.799C120.183 135.184 120.718 133.511 121.1 131.799C121.901 128.424 122.037 124.926 121.5 121.499C121.195 119.778 120.794 118.076 120.3 116.399C120.252 116.302 120.227 116.195 120.227 116.087C120.227 115.978 120.252 115.872 120.301 115.775C120.349 115.678 120.419 115.593 120.506 115.528C120.593 115.463 120.693 115.419 120.8 115.399C120.89 115.35 120.99 115.322 121.093 115.316C121.196 115.31 121.298 115.326 121.394 115.365C121.489 115.403 121.575 115.461 121.645 115.537C121.715 115.612 121.768 115.701 121.8 115.799Z" fill="#CEA28B"/>
<path d="M144.1 167.401C138.8 166.401 135.3 165.101 131.4 165.801L130.6 166.001C128.407 166.601 126.093 166.601 123.9 166.001L123.2 165.801C119.4 165.101 116 166.201 110.6 167.201C109.5 167.401 107.8 167.801 105.5 168.101C108.379 170.919 111.788 173.139 115.53 174.632C119.271 176.125 123.272 176.862 127.3 176.801C140.9 176.801 148.6 168.601 149 168.101L144.1 167.401Z" fill="#DB9C94"/>
<path d="M103 167.101C106.911 168.183 110.885 169.018 114.9 169.601C118.88 170.116 122.887 170.383 126.9 170.401C130.915 170.35 134.923 170.049 138.9 169.501C140.9 169.201 142.9 168.901 144.9 168.401L150.7 167.001C151.1 166.901 151.4 167.001 151.5 167.401C151.532 167.546 151.509 167.699 151.435 167.828C151.361 167.958 151.242 168.055 151.1 168.101C147.261 169.641 143.273 170.78 139.2 171.501C135.139 172.219 131.024 172.587 126.9 172.601C124.8 172.601 122.8 172.501 120.7 172.301C118.65 172.189 116.61 171.921 114.6 171.501C110.49 170.849 106.466 169.742 102.6 168.201C102.531 168.179 102.467 168.143 102.413 168.095C102.36 168.046 102.317 167.987 102.288 167.92C102.26 167.854 102.246 167.782 102.248 167.709C102.25 167.637 102.268 167.566 102.3 167.501C102.346 167.359 102.444 167.24 102.573 167.166C102.702 167.092 102.855 167.069 103 167.101Z" fill="#CB8C84"/>
<path d="M118 143.7L122.6 144.9L124.9 145.6C125.592 145.772 126.293 145.906 127 146C128.49 146.034 129.975 145.831 131.4 145.4C132.896 144.99 134.366 144.489 135.8 143.9C135.985 143.864 136.177 143.894 136.342 143.986C136.506 144.077 136.633 144.224 136.7 144.4C136.773 144.56 136.782 144.742 136.726 144.909C136.671 145.075 136.554 145.215 136.4 145.3C134.998 146.167 133.484 146.84 131.9 147.3C130.287 147.971 128.546 148.278 126.8 148.2C125.948 148.15 125.106 147.982 124.3 147.7L121.9 147L117.5 145.1C117.403 145.068 117.313 145.016 117.238 144.945C117.163 144.875 117.104 144.789 117.066 144.694C117.028 144.598 117.011 144.496 117.017 144.393C117.023 144.29 117.051 144.19 117.1 144.1C117.166 143.95 117.282 143.829 117.428 143.756C117.574 143.682 117.741 143.663 117.9 143.7H118Z" fill="#CEA28B"/>
</g>
<defs>
<clipPath id="clip0">
<path d="M0 0H256V256H0V0Z" fill="white"/>
</clipPath>
</defs>
</svg>
