<svg width="256" height="257" viewBox="0 0 256 257" fill="none" xmlns="http://www.w3.org/2000/svg">
<g clip-path="url(#clip0)">
<path d="M0 0.900391H256V256.9H0V0.900391Z" fill="white" fill-opacity="0.01"/>
<path d="M128 256.9C198.692 256.9 256 199.593 256 128.9C256 58.2079 198.692 0.900391 128 0.900391C57.3075 0.900391 0 58.2079 0 128.9C0 199.593 57.3075 256.9 128 256.9Z" fill="#FFAB00"/>
<path d="M209.9 139.2C206.4 4.49952 51.1999 -7.80048 47.8999 139.2C47.6999 150.3 47.5999 161.6 53.8999 170.5C56.7596 174.572 60.6158 177.843 65.0999 180C69.0009 181.891 73.2655 182.914 77.5999 183C86.3999 183.3 172.2 181.9 182.4 182C185.942 182.143 189.469 181.458 192.7 180C197.254 177.951 201.136 174.658 203.9 170.5C210.3 161.6 210.2 150.3 209.9 139.2Z" fill="#0C1F41"/>
<path d="M168 208.1L128.9 206.1L89.8999 208.1C89.1549 208.166 88.4358 208.406 87.7999 208.8L52.3999 232.2C74.4963 248.348 101.181 257.001 128.549 256.893C155.916 256.785 182.532 247.922 204.5 231.6L170 208.8C169.394 208.42 168.71 208.181 168 208.1Z" fill="#FFE380"/>
<path d="M165.6 209.799C164.7 210.999 149.8 230.899 125.1 228.899C105.2 227.399 93.8997 212.699 92.1997 210.399C97.2093 206.702 100.751 201.354 102.2 195.299C105.1 182.599 97.0997 172.899 96.1997 171.799H158.6C158.1 172.399 149 185.099 154.8 198.199C157.07 203.118 160.855 207.183 165.6 209.799Z" fill="url(#paint0_linear)"/>
<path d="M75.4001 141.299C83.0216 141.299 89.2001 135.121 89.2001 127.499C89.2001 119.878 83.0216 113.699 75.4001 113.699C67.7786 113.699 61.6001 119.878 61.6001 127.499C61.6001 135.121 67.7786 141.299 75.4001 141.299Z" fill="#9C6439"/>
<path d="M177.3 141.299C184.922 141.299 191.1 135.121 191.1 127.499C191.1 119.878 184.922 113.699 177.3 113.699C169.678 113.699 163.5 119.878 163.5 127.499C163.5 135.121 169.678 141.299 177.3 141.299Z" fill="#9C6439"/>
<path d="M79.0003 99.7984C78.9003 106.098 78.8003 112.198 78.5003 117.998C78.2003 123.798 78.1003 122.898 77.8003 128.398C77.0003 143.898 77.8003 147.798 74.5003 151.598C71.2003 155.398 69.1003 155.698 67.8003 154.898C66.5003 154.098 68.4003 150.298 69.2003 144.798C71.1003 131.298 66.6003 117.698 66.2003 116.598C65.3003 113.798 64.2003 111.098 64.3003 107.198C64.4003 103.298 64.7003 99.4984 68.4003 97.4984C72.1003 95.4984 75.6003 96.8984 79.0003 99.7984Z" fill="#0C1F41"/>
<path d="M172.9 103.399C172.9 113.699 173.4 123.299 174.1 132.099C174.4 136.499 175.3 146.699 180.9 155.199C181.5 156.099 183.3 158.799 184.1 158.499C184.9 158.199 183.4 153.699 182.7 148.499C180.8 134.999 185.2 121.399 185.6 120.199C186 118.999 187.7 114.799 187.5 110.799C187.4 108.399 187.2 103.199 183.5 101.199C179.8 99.1993 176.2 100.499 172.9 103.399Z" fill="#0C1F41"/>
<path d="M182.2 122.299C171.5 163.299 157.3 191.799 126.5 191.799C95.7001 191.799 78.8001 158.199 70.8001 122.299C62.5001 84.7992 95.8 52.6992 126.5 52.6992C157.2 52.6992 191.9 85.0992 182.2 122.299Z" fill="#9C6439"/>
<path d="M167.4 108.5C164.857 106.791 162.182 105.286 159.4 104C156.592 102.922 153.608 102.379 150.6 102.4C147.619 102.412 144.667 102.988 141.9 104.1C139.124 105.266 136.583 106.926 134.4 109C134.2 109.17 133.942 109.255 133.68 109.236C133.418 109.218 133.174 109.097 133 108.9C132.912 108.816 132.843 108.715 132.795 108.603C132.747 108.491 132.723 108.371 132.723 108.25C132.723 108.128 132.747 108.008 132.795 107.896C132.843 107.785 132.912 107.684 133 107.6C135.247 105.196 137.972 103.288 141 102C144.054 100.776 147.31 100.131 150.6 100.1C153.898 100.156 157.155 100.835 160.2 102.1C163.259 103.279 165.878 105.374 167.7 108.1C167.726 108.106 167.751 108.118 167.773 108.134C167.795 108.15 167.813 108.17 167.827 108.194C167.841 108.217 167.85 108.242 167.854 108.269C167.858 108.296 167.857 108.323 167.85 108.35C167.844 108.376 167.832 108.401 167.816 108.422C167.8 108.444 167.779 108.462 167.756 108.476C167.733 108.49 167.707 108.5 167.681 108.504C167.654 108.508 167.626 108.506 167.6 108.5H167.4Z" fill="#0C1F41"/>
<path d="M100.2 116.499C101.912 116.499 103.3 115.111 103.3 113.399C103.3 111.687 101.912 110.299 100.2 110.299C98.488 110.299 97.1001 111.687 97.1001 113.399C97.1001 115.111 98.488 116.499 100.2 116.499Z" fill="#0C1F41"/>
<path d="M86.6 113.1C86.9801 113.32 87.4112 113.435 87.85 113.435C88.2889 113.435 88.72 113.32 89.1 113.1L89.6 112.8V112.6L89.9 112.4C90.3415 111.972 90.809 111.571 91.3 111.2C93.1174 109.73 95.2904 108.764 97.6 108.4C99.9377 107.966 102.348 108.138 104.6 108.9C106.845 109.621 108.874 110.893 110.5 112.6C110.649 112.809 110.721 113.063 110.702 113.318C110.684 113.574 110.577 113.815 110.4 114C110.323 114.095 110.228 114.173 110.12 114.229C110.011 114.286 109.893 114.32 109.771 114.329C109.65 114.338 109.528 114.323 109.412 114.284C109.297 114.244 109.191 114.182 109.1 114.1C107.581 112.791 105.812 111.805 103.9 111.2C101.99 110.619 99.9715 110.482 98 110.8C96.0169 111.082 94.1306 111.837 92.5 113L91.4 113.9L91 114.2L90.6 114.5L89.6 115C88.9445 115.202 88.2396 115.174 87.6027 114.919C86.9658 114.664 86.4355 114.199 86.1 113.6C86.0851 113.459 86.1205 113.318 86.2 113.2L86.6 113.1Z" fill="#0C1F41"/>
<path d="M149.9 116.499C151.612 116.499 153 115.111 153 113.399C153 111.687 151.612 110.299 149.9 110.299C148.188 110.299 146.8 111.687 146.8 113.399C146.8 115.111 148.188 116.499 149.9 116.499Z" fill="#0C1F41"/>
<path d="M163.9 114C163.565 114.598 163.034 115.064 162.398 115.318C161.761 115.573 161.056 115.602 160.4 115.4C160.039 115.295 159.7 115.126 159.4 114.9L158.9 114.6L158.6 114.4C158.283 114.016 157.913 113.679 157.5 113.4C155.846 112.28 153.97 111.53 152 111.2C150.029 110.882 148.011 111.019 146.1 111.6C144.188 112.204 142.419 113.191 140.9 114.5C140.692 114.649 140.438 114.721 140.182 114.702C139.927 114.684 139.685 114.577 139.5 114.4C139.354 114.196 139.275 113.951 139.275 113.7C139.275 113.449 139.354 113.204 139.5 113C141.127 111.293 143.155 110.021 145.4 109.3C147.651 108.533 150.063 108.361 152.4 108.8C154.696 109.209 156.858 110.17 158.7 111.6L160 112.9L160.3 113.2H160.5L161 113.5C161.378 113.717 161.803 113.84 162.238 113.857C162.673 113.874 163.106 113.786 163.5 113.6L163.9 113.8V114Z" fill="#0C1F41"/>
<path d="M81.7002 108.1C83.5578 105.367 86.2112 103.272 89.3002 102.1C92.3103 100.833 95.535 100.154 98.8002 100.1C102.091 100.122 105.349 100.767 108.4 102C111.428 103.288 114.153 105.196 116.4 107.6C116.583 107.787 116.686 108.038 116.686 108.3C116.686 108.561 116.583 108.813 116.4 109C116.219 109.155 115.989 109.24 115.75 109.24C115.512 109.24 115.281 109.155 115.1 109H115C112.833 106.906 110.288 105.243 107.5 104.1C101.921 101.871 95.7049 101.836 90.1002 104C87.3188 105.286 84.6438 106.791 82.1002 108.5H81.7002V108.1Z" fill="#0C1F41"/>
<path d="M142.2 158.999C137.003 161.752 131.177 163.096 125.3 162.899C114.6 162.499 103.9 156.699 103.9 156.699L109.7 153.999C112.6 152.599 116.1 152.899 119.4 154.899L120.5 155.499C121.787 156.251 123.247 156.656 124.737 156.673C126.227 156.691 127.696 156.321 129 155.599C130.269 154.897 131.708 154.563 133.157 154.633C134.605 154.704 136.005 155.177 137.2 155.999L142.2 158.999Z" fill="#FF7143"/>
<path d="M96.7002 156.999C96.3803 156.327 96.2144 155.592 96.2144 154.849C96.2144 154.105 96.3803 153.37 96.7002 152.699C97.253 151.368 98.2891 150.296 99.6002 149.699C99.708 149.658 99.8265 149.655 99.9359 149.692C100.045 149.728 100.139 149.801 100.2 149.899C100.215 150.04 100.18 150.181 100.1 150.299C99.4791 151.304 98.9758 152.378 98.6002 153.499C98.2165 154.567 97.9483 155.673 97.8002 156.799C97.8076 156.885 97.7923 156.972 97.756 157.051C97.7196 157.13 97.6633 157.198 97.5926 157.248C97.522 157.298 97.4395 157.33 97.3531 157.339C97.2668 157.347 97.1796 157.334 97.1002 157.299C96.9002 157.299 96.7002 157.199 96.7002 156.999Z" fill="#7A4F2C"/>
<path d="M142.2 158.999C142.2 158.999 138.6 170.999 126.2 170.999C112 170.999 103.9 156.699 103.9 156.699C109.3 159.499 117 162.599 125.3 162.899C131.183 163.164 137.027 161.816 142.2 158.999Z" fill="#FF8A63"/>
<path d="M102.5 155.899C105.666 157.592 109.023 158.902 112.5 159.799C114.245 160.261 116.015 160.628 117.8 160.899C119.589 161.164 121.392 161.331 123.2 161.399C126.801 161.649 130.418 161.549 134 161.099C137.589 160.664 141.135 159.928 144.6 158.899C144.693 158.864 144.796 158.865 144.889 158.902C144.981 158.939 145.056 159.009 145.1 159.099C145.093 159.284 145.022 159.46 144.9 159.599C141.505 161.193 137.903 162.303 134.2 162.899C130.534 163.516 126.806 163.684 123.1 163.399C119.364 163.197 115.668 162.525 112.1 161.399C108.527 160.262 105.153 158.575 102.1 156.399C102 156.299 101.9 156.099 102 155.999C102.1 155.899 102.3 155.799 102.5 155.899Z" fill="#7A4F2C"/>
<path d="M78.5002 90.1989C80.4002 92.8989 78.3002 95.9989 75.9002 105.499C74.5169 110.438 73.5798 115.492 73.1002 120.599C72.3002 131.899 75.6002 138.599 74.6002 138.999C73.6002 139.399 65.5002 127.599 63.8002 112.399C63.5002 109.999 61.4002 90.8989 69.1002 87.5989C70.7409 86.9848 72.5339 86.9056 74.2224 87.3726C75.9109 87.8397 77.4083 88.829 78.5002 90.1989Z" fill="#0C1F41"/>
<path d="M174.5 88.7988C172.6 91.4988 174.7 94.5988 177.1 104.099C178.441 109.043 179.344 114.096 179.8 119.199C180.7 130.499 177.4 137.199 178.4 137.599C179.4 137.999 187.5 126.199 189.2 110.999C189.5 108.599 191.6 89.4988 183.8 86.0988C182.161 85.534 180.387 85.4903 178.722 85.9737C177.057 86.4571 175.582 87.444 174.5 88.7988Z" fill="#0C1F41"/>
<path d="M181 95.1992C181 85.7992 183.5 69.1992 178.3 61.6992C173.1 54.1992 159.5 56.0992 151 51.9992C142.5 47.8992 136.3 36.1992 126.7 36.1992C117.1 36.1992 110.3 48.2992 102.4 51.9992C94.5001 55.6992 80.2001 54.3992 75.1001 61.6992C70.0001 68.9992 72.4001 85.7992 72.4001 95.1992C80.1508 96.9215 88.0607 97.8264 96.0001 97.8992C113.098 97.9232 129.994 94.2028 145.5 86.9992C150.212 91.3042 155.955 94.3208 162.174 95.7573C168.393 97.1937 174.877 97.0015 181 95.1992Z" fill="#0C1F41"/>
<path d="M117.7 140.199C118.871 139.405 120.301 139.083 121.7 139.299C122.08 139.339 122.452 139.44 122.8 139.599L123.5 139.899C123.92 140.031 124.365 140.065 124.8 139.999L126.3 139.399L128.3 138.899C129.645 138.854 130.982 139.128 132.2 139.699C132.339 139.798 132.444 139.938 132.498 140.1C132.552 140.262 132.552 140.437 132.5 140.599C132.434 140.749 132.318 140.871 132.172 140.944C132.026 141.017 131.859 141.037 131.7 140.999C130.67 140.656 129.575 140.554 128.5 140.699L127 141.199C126.441 141.527 125.833 141.763 125.2 141.899C124.438 142.066 123.645 142.032 122.9 141.799L122 141.399L121.3 141.099C120.292 140.907 119.25 141.011 118.3 141.399C118.128 141.431 117.951 141.397 117.803 141.304C117.655 141.212 117.547 141.068 117.5 140.899C117.452 140.777 117.445 140.642 117.482 140.516C117.518 140.389 117.594 140.278 117.7 140.199Z" fill="#7A4F2C"/>
<path d="M120.3 112.4C121.562 116.029 122.139 119.861 122 123.7C121.915 125.616 121.681 127.521 121.3 129.4C120.885 131.277 120.317 133.117 119.6 134.9C119.489 135.056 119.336 135.176 119.159 135.247C118.981 135.317 118.788 135.336 118.6 135.3C118.453 135.206 118.337 135.07 118.266 134.91C118.195 134.75 118.172 134.573 118.2 134.4C118.7 132.6 119.1 130.8 119.5 129C119.824 127.218 119.991 125.412 120 123.6C120.083 121.798 120.017 119.992 119.8 118.2C119.606 116.417 119.305 114.648 118.9 112.9C118.87 112.809 118.859 112.711 118.868 112.615C118.877 112.519 118.906 112.425 118.953 112.341C119 112.256 119.064 112.182 119.141 112.124C119.218 112.065 119.306 112.023 119.4 112C119.573 111.957 119.756 111.973 119.919 112.046C120.082 112.118 120.216 112.243 120.3 112.4Z" fill="#7A4F2C"/>
</g>
<defs>
<linearGradient id="paint0_linear" x1="128.91" y1="229.079" x2="128.91" y2="171.779" gradientUnits="userSpaceOnUse">
<stop stop-color="#9C6439"/>
<stop offset="1" stop-color="#875731"/>
</linearGradient>
<clipPath id="clip0">
<path d="M0 0.900391H256V256.9H0V0.900391Z" fill="white"/>
</clipPath>
</defs>
</svg>
