<svg width="256" height="257" viewBox="0 0 256 257" fill="none" xmlns="http://www.w3.org/2000/svg">
<g clip-path="url(#clip0)">
<path d="M0 0.900391H256V256.9H0V0.900391Z" fill="white" fill-opacity="0.01"/>
<path d="M128 256.9C198.692 256.9 256 199.593 256 128.9C256 58.2079 198.692 0.900391 128 0.900391C57.3075 0.900391 0 58.2079 0 128.9C0 199.593 57.3075 256.9 128 256.9Z" fill="#57D9A3"/>
<path d="M216.7 221.2L180 196.9C179.205 196.441 178.316 196.167 177.4 196.1L130.3 193.6L83.1002 196.1C82.213 196.152 81.3533 196.428 80.6002 196.9L41.2002 223C65.186 245.096 96.6964 257.212 129.307 256.877C161.917 256.543 193.173 243.783 216.7 221.2Z" fill="#79F2C0"/>
<path d="M161.9 176.201C161.54 182.033 161.977 187.887 163.2 193.601C163.9 196.101 167.2 197.101 169.9 198.601C170.241 198.843 170.473 199.209 170.548 199.62C170.623 200.031 170.534 200.455 170.3 200.801C165 207.601 156.2 214.201 146.6 218.501C146.062 218.734 145.632 219.163 145.4 219.701L132.4 247.401C132.179 247.82 131.848 248.17 131.443 248.415C131.038 248.66 130.573 248.789 130.1 248.789C129.627 248.789 129.162 248.66 128.757 248.415C128.352 248.17 128.021 247.82 127.8 247.401L114.7 219.701C114.578 219.422 114.4 219.171 114.176 218.965C113.952 218.758 113.688 218.6 113.4 218.501C103.9 214.201 95.1001 207.601 89.8001 200.801C89.6721 200.643 89.5801 200.459 89.5305 200.261C89.4809 200.064 89.4749 199.858 89.513 199.658C89.5511 199.458 89.6323 199.269 89.7509 199.104C89.8696 198.939 90.0229 198.801 90.2001 198.701C92.9001 197.101 96.2001 196.101 96.9001 193.601C98.1233 187.887 98.5606 182.033 98.2001 176.201H161.9Z" fill="#DDB28D"/>
<path d="M194.3 113.601C194.5 119.901 183.9 133.401 177.6 133.601C171.3 133.801 171.6 120.701 171.3 114.401C171.194 111.351 172.304 108.384 174.385 106.152C176.467 103.921 179.35 102.607 182.4 102.501C185.45 102.395 188.417 103.505 190.649 105.587C192.88 107.668 194.194 110.551 194.3 113.601Z" fill="#ECC19C"/>
<path d="M64.1003 113.601C63.8003 119.901 74.4003 133.401 80.7003 133.601C87.0003 133.801 86.8003 120.701 87.0003 114.401C87.1934 112.819 87.0554 111.214 86.5952 109.688C86.135 108.161 85.3626 106.748 84.3269 105.536C83.2913 104.324 82.0151 103.341 80.5793 102.649C79.1435 101.957 77.5795 101.57 75.9865 101.515C74.3935 101.459 72.8063 101.735 71.3257 102.326C69.8451 102.916 68.5034 103.808 67.3857 104.944C66.268 106.081 65.3988 107.437 64.8332 108.927C64.2677 110.418 64.0181 112.009 64.1003 113.601Z" fill="#ECC19C"/>
<path d="M121.8 187.7C126.736 189.099 131.964 189.099 136.9 187.7C176.2 176.7 169.9 172.7 185 106.2C193.6 68.0002 187.4 25.2002 129.4 27.0002C71.3002 25.2002 65.1002 68.0002 73.7002 106.2C88.8002 172.7 82.5002 176.7 121.8 187.7Z" fill="url(#paint0_linear)"/>
<path d="M129.1 164.901C140 164.501 144.5 169.901 148.6 166.801C152.7 163.701 152.7 157.501 150.2 155.001C149.4 154.101 148.5 154.001 143.3 153.701C134 153.201 133.1 153.501 128.8 153.001C124.5 152.501 123.8 152.101 120.8 152.201C118.168 152.283 115.553 152.652 113 153.301C109.9 154.001 108.3 154.301 107.8 155.001C105.7 157.501 107.5 164.601 111.8 167.101C116.1 169.601 119.5 165.201 129.1 164.901Z" fill="#ECC19C"/>
<path d="M129.4 136.5C145.6 136.5 157.1 145.8 165.2 140.6C173.3 135.4 177.8 115.8 180.1 108.6C182.159 101.863 182.571 94.7297 181.3 87.8003C180.9 85.1003 177.6 81.6003 176.2 75.3003C175.729 73.3974 175.428 71.4564 175.3 69.5003C168.529 68.6951 161.692 68.5946 154.9 69.2003C128.5 71.8003 116.5 85.0003 99.9 80.0003C96.3 79.0003 90.8 76.5003 85 70.1003C83.2054 72.1941 81.6925 74.5138 80.5 77.0003C78.8731 80.4028 77.8254 84.0529 77.4 87.8003C76.3899 94.7434 76.7982 101.819 78.6 108.6C80.9 115.8 85.5 135.5 93.5 140.6C101.5 145.7 113.1 136.5 129.4 136.5Z" fill="#ECC19C"/>
<path d="M145.8 153.6C140.5 152.6 137.1 151.2 133.1 152C132.8 152.1 132.7 152 132.3 152.2C130.141 152.802 127.859 152.802 125.7 152.2L124.9 152C121.1 151.2 117.7 152.4 112.4 153.5L107.3 154.4C110.101 157.335 113.468 159.671 117.198 161.267C120.928 162.863 124.943 163.685 129 163.685C133.057 163.685 137.071 162.863 140.801 161.267C144.531 159.671 147.899 157.335 150.7 154.4L145.8 153.6Z" fill="#B5917C"/>
<path d="M105.101 152.801C108.935 154.205 112.883 155.275 116.901 156.001C120.891 156.731 124.944 157.066 129.001 157.001C133.058 156.987 137.107 156.619 141.101 155.901C143.091 155.541 145.061 155.073 147.001 154.501C148.967 153.973 150.903 153.339 152.801 152.601C152.933 152.548 153.082 152.55 153.213 152.606C153.344 152.662 153.448 152.768 153.501 152.901C153.554 153.034 153.552 153.182 153.496 153.313C153.439 153.444 153.333 153.548 153.201 153.601C149.452 155.367 145.532 156.741 141.501 157.701C137.385 158.534 133.199 158.969 129.001 159.001C126.901 159.001 124.801 158.901 122.801 158.701C120.712 158.522 118.64 158.188 116.601 157.701C112.499 156.856 108.507 155.547 104.701 153.801C104.606 153.714 104.538 153.603 104.503 153.479C104.467 153.356 104.467 153.225 104.501 153.101C104.508 153.035 104.532 152.971 104.57 152.917C104.608 152.862 104.66 152.818 104.719 152.788C104.779 152.758 104.845 152.744 104.912 152.746C104.978 152.748 105.043 152.767 105.101 152.801Z" fill="#172B4D"/>
<path d="M120.8 132.101L125.7 133.801L128.1 134.901L129 135.301H129.9C130.642 135.221 131.359 134.982 132 134.601L134.5 133.601C136.22 133.084 138.004 132.814 139.8 132.801C139.986 132.801 140.164 132.874 140.295 133.006C140.426 133.137 140.5 133.315 140.5 133.501C140.506 133.682 140.45 133.861 140.341 134.006C140.232 134.151 140.076 134.255 139.9 134.301C138.265 134.593 136.659 135.028 135.1 135.601C134.339 135.869 133.603 136.204 132.9 136.601C132.044 137.043 131.138 137.379 130.2 137.601H128.5C127.991 137.52 127.51 137.314 127.1 137.001L124.8 135.901C123.3 135.101 121.7 134.501 120.2 133.601C120.111 133.559 120.031 133.499 119.967 133.424C119.903 133.35 119.855 133.262 119.826 133.168C119.798 133.073 119.79 132.974 119.803 132.876C119.815 132.779 119.849 132.685 119.9 132.601C119.967 132.425 120.094 132.278 120.259 132.187C120.424 132.095 120.615 132.065 120.8 132.101Z" fill="#CEA28B"/>
<path d="M124.5 99.7008C125.98 103.764 126.626 108.083 126.4 112.401C126.337 114.588 126.069 116.764 125.6 118.901C125.119 121.011 124.484 123.083 123.7 125.101C123.657 125.202 123.594 125.293 123.514 125.369C123.435 125.444 123.34 125.502 123.237 125.54C123.134 125.578 123.024 125.593 122.915 125.587C122.805 125.58 122.698 125.551 122.6 125.501C122.416 125.415 122.267 125.269 122.176 125.088C122.085 124.906 122.059 124.699 122.1 124.501C122.708 122.536 123.176 120.531 123.5 118.501C123.876 116.486 124.11 114.448 124.2 112.401C124.284 110.332 124.217 108.26 124 106.201C123.7 104.201 123.4 102.201 122.9 100.201C122.87 100.096 122.862 99.9855 122.877 99.8772C122.891 99.7689 122.928 99.6647 122.984 99.571C123.04 99.4773 123.115 99.3961 123.204 99.3324C123.293 99.2687 123.393 99.2239 123.5 99.2008C123.699 99.1591 123.906 99.1859 124.087 99.2767C124.269 99.3674 124.414 99.5169 124.5 99.7008Z" fill="#CEA28B"/>
<path d="M115.9 100.201L114.3 99.3012L112.5 98.5012C111.303 97.9969 110.065 97.5955 108.8 97.3012C106.248 96.6838 103.624 96.4147 101 96.5012C98.3549 96.6955 95.7567 97.3029 93.2998 98.3012L89.6998 100.201C88.5937 100.898 87.5849 101.739 86.6998 102.701H86.5998C86.4263 102.898 86.1822 103.019 85.9203 103.038C85.6583 103.057 85.3995 102.972 85.1998 102.801C85.0521 102.643 84.9544 102.445 84.9188 102.231C84.8832 102.018 84.9114 101.799 84.9998 101.601C85.8686 100.269 86.9111 99.0581 88.0998 98.0012C89.2503 97.0223 90.4889 96.1519 91.7998 95.4012C94.5103 93.8747 97.5056 92.9217 100.6 92.6012C103.678 92.2493 106.794 92.4526 109.8 93.2012C111.303 93.6293 112.773 94.164 114.2 94.8012L116.2 96.0012L118.2 97.5012C118.537 97.8236 118.736 98.2645 118.755 98.7309C118.774 99.1974 118.611 99.6528 118.3 100.001C118.019 100.29 117.65 100.476 117.252 100.531C116.853 100.585 116.447 100.504 116.1 100.301L115.9 100.201Z" fill="#172B4D"/>
<path d="M141.2 97.5012L143.2 96.0012L145.2 94.8012C146.627 94.164 148.097 93.6293 149.6 93.2012C152.606 92.4526 155.722 92.2493 158.8 92.6012C161.894 92.9217 164.889 93.8747 167.6 95.4012C168.911 96.1519 170.149 97.0223 171.3 98.0012C172.515 99.0313 173.562 100.246 174.4 101.601C174.468 101.711 174.512 101.833 174.529 101.961C174.545 102.089 174.534 102.219 174.497 102.342C174.459 102.466 174.395 102.579 174.309 102.676C174.223 102.772 174.118 102.849 174 102.901C173.911 102.976 173.808 103.03 173.696 103.06C173.585 103.091 173.468 103.097 173.354 103.078C173.24 103.059 173.131 103.015 173.035 102.95C172.94 102.885 172.859 102.8 172.8 102.701H172.7C171.815 101.739 170.806 100.898 169.7 100.201C168.544 99.4881 167.341 98.8533 166.1 98.3012C163.677 97.3035 161.112 96.696 158.5 96.5012C155.843 96.4201 153.187 96.6891 150.6 97.3012C149.339 97.61 148.102 98.0111 146.9 98.5012L145.1 99.3012L143.6 100.201H143.4C143.197 100.328 142.971 100.414 142.734 100.452C142.498 100.491 142.257 100.482 142.024 100.426C141.791 100.37 141.572 100.269 141.379 100.127C141.186 99.9853 141.023 99.8065 140.9 99.6012C140.721 99.2645 140.654 98.8797 140.708 98.5023C140.761 98.1249 140.934 97.7743 141.2 97.5012Z" fill="#172B4D"/>
<path d="M91.6 106.201C94.6497 104.042 98.2656 102.825 102 102.701C105.788 102.594 109.52 103.64 112.7 105.701C112.799 105.76 112.884 105.841 112.949 105.937C113.014 106.032 113.058 106.141 113.077 106.255C113.096 106.369 113.09 106.486 113.059 106.597C113.029 106.709 112.974 106.812 112.9 106.901C112.849 107.008 112.776 107.102 112.684 107.177C112.593 107.252 112.486 107.306 112.371 107.335C112.256 107.363 112.136 107.366 112.02 107.343C111.904 107.32 111.795 107.271 111.7 107.201C110.196 106.423 108.622 105.787 107 105.301C105.358 104.914 103.685 104.68 102 104.601C100.311 104.63 98.6321 104.865 97 105.301C95.3394 105.769 93.731 106.406 92.2 107.201C92.1392 107.255 92.0662 107.293 91.9874 107.312C91.9085 107.331 91.8261 107.331 91.7473 107.312C91.6686 107.292 91.5958 107.253 91.5353 107.199C91.4748 107.145 91.4283 107.077 91.4 107.001C91.3462 106.94 91.308 106.867 91.2887 106.788C91.2694 106.709 91.2697 106.627 91.2893 106.548C91.309 106.469 91.3476 106.397 91.4017 106.336C91.4559 106.276 91.5239 106.229 91.6 106.201Z" fill="#172B4D"/>
<path d="M166.8 107.201C165.269 106.405 163.661 105.769 162 105.301C160.368 104.865 158.689 104.63 157 104.601C153.603 104.658 150.271 105.551 147.3 107.201C147.203 107.296 147.086 107.369 146.957 107.412C146.828 107.456 146.691 107.47 146.555 107.453C146.42 107.435 146.291 107.388 146.177 107.313C146.063 107.239 145.967 107.14 145.897 107.023C145.827 106.906 145.784 106.775 145.772 106.639C145.76 106.503 145.779 106.367 145.828 106.239C145.876 106.112 145.953 105.997 146.052 105.904C146.151 105.811 146.27 105.741 146.4 105.701C149.539 103.63 153.242 102.581 157 102.701C160.766 102.823 164.415 104.039 167.5 106.201C167.621 106.314 167.697 106.467 167.716 106.632C167.734 106.797 167.693 106.963 167.6 107.101C167.503 107.214 167.368 107.286 167.22 107.305C167.072 107.323 166.922 107.286 166.8 107.201Z" fill="#172B4D"/>
<path d="M155.9 109.9C157.668 109.9 159.1 108.467 159.1 106.7C159.1 104.933 157.668 103.5 155.9 103.5C154.133 103.5 152.7 104.933 152.7 106.7C152.7 108.467 154.133 109.9 155.9 109.9Z" fill="#172B4D"/>
<path d="M102.6 109.9C104.368 109.9 105.8 108.467 105.8 106.7C105.8 104.933 104.368 103.5 102.6 103.5C100.833 103.5 99.4004 104.933 99.4004 106.7C99.4004 108.467 100.833 109.9 102.6 109.9Z" fill="#172B4D"/>
</g>
<defs>
<linearGradient id="paint0_linear" x1="129.36" y1="186.31" x2="129.36" y2="27.9002" gradientUnits="userSpaceOnUse">
<stop stop-color="#253858"/>
<stop offset="1" stop-color="#42526E"/>
</linearGradient>
<clipPath id="clip0">
<path d="M0 0.900391H256V256.9H0V0.900391Z" fill="white"/>
</clipPath>
</defs>
</svg>
