<svg width="256" height="257" viewBox="0 0 256 257" fill="none" xmlns="http://www.w3.org/2000/svg">
<g clip-path="url(#clip0)">
<path d="M0 0.900391H256V256.9H0V0.900391Z" fill="white" fill-opacity="0.01"/>
<path d="M128 256.9C198.692 256.9 256 199.593 256 128.9C256 58.2079 198.692 0.900391 128 0.900391C57.3075 0.900391 0 58.2079 0 128.9C0 199.593 57.3075 256.9 128 256.9Z" fill="#0065FF"/>
<path d="M216.2 222.301C204.6 215.901 176.5 200.301 175.8 200.301L128.6 198.201L81.4 200.301C80.7 200.301 52.6 215.901 41 222.301C64 243.701 94.8 256.901 128.7 256.901C162.6 256.901 193.3 243.701 216.2 222.301Z" fill="#0049B0"/>
<path d="M163.6 166.4C163.4 170.4 163.3 190.2 165.2 198.2C166 201.4 169.7 202.6 172.8 204.6C172.8 204.6 173.3 205.9 173.3 207.3C173.3 213.1 153.4 225.2 129.1 225.9C102.6 226.6 80.4998 213.4 80.2998 207.3C80.2998 205.9 80.6998 204.6 80.6998 204.6C83.7998 202.6 87.5998 201.4 88.3998 198.2C90.3998 190.2 90.1998 170.4 89.9998 166.4H163.6Z" fill="#C67B55"/>
<path d="M201.8 114.301C203.8 120.301 197.4 136.201 191.4 138.201C185.4 140.201 182 127.501 180 121.501C178 115.501 181.3 109.001 187.3 107.001C193.3 105.001 199.8 108.301 201.8 114.301Z" fill="#C67B55"/>
<path d="M54.2004 115.3C52.7004 121.5 60.4004 136.7 66.6004 138.2C72.8004 139.7 75.1004 126.8 76.6004 120.6C78.1004 114.4 74.3004 108.2 68.1004 106.8C61.9004 105.3 55.7004 109.1 54.2004 115.3Z" fill="#C67B55"/>
<path d="M182.9 56.2004C163.1 30.2004 129.5 33.6004 123.9 34.2004C120.5 34.5004 81.4004 39.1004 68.2004 71.5004C67.3004 73.6004 63.5004 83.6004 63.9004 95.2004C63.2004 103.2 65.0004 110.1 65.6004 112.4C65.6004 112.5 65.6004 112.5 65.6004 112.5C65.6004 112.5 65.6004 112.5 65.6004 112.6C66.8004 116.8 66.8004 122.4 66.8004 122.4C66.9004 129.6 66.6004 135.8 66.5004 138.2C69.2004 153.1 79.5004 164.8 90.1004 174.1C100.6 183.4 111.4 188.3 125.7 188.7C141.6 189.2 151.8 184.8 162 176.3C177.3 163.6 188.6 145.9 188.4 137.9C188.4 135.7 187.6 129.3 189.6 120.8C190.9 115 192.9 108.3 192.9 108.1C197.7 91.7004 194.4 71.3004 182.9 56.2004Z" fill="#D8885B"/>
<path d="M123.9 34.2009C120.5 34.5009 81.4004 39.1009 68.2004 71.5009C67.3004 73.6009 63.5004 83.6009 63.9004 95.2009C63.2004 103.201 65.0004 110.101 65.6004 112.401C65.6004 112.501 65.6004 112.501 65.6004 112.501C65.6004 112.501 65.6004 112.501 65.6004 112.601C65.9004 113.801 66.2004 115.101 66.4004 116.401C69.8004 114.101 73.2004 109.801 74.9004 105.601C78.9004 95.7009 72.7004 87.9009 78.2004 78.9009C80.6004 75.0009 83.9004 73.0009 85.2004 72.2009C96.3004 65.5009 106.9 73.8009 125.2 75.9009C151.8 78.8009 164.5 64.9009 175.7 74.3009C181.5 79.1009 183.3 87.2009 183.6 88.2009C186 99.1009 179.5 105.301 183.6 113.901C184.7 116.201 186.9 119.501 189.5 121.201C189.5 121.001 189.6 120.801 189.6 120.701C190.9 114.901 192.9 108.201 192.9 108.001C197.7 91.6009 194.4 71.2009 182.9 56.1009C163.1 30.3009 129.5 33.7009 123.9 34.2009Z" fill="url(#paint0_linear)"/>
<path d="M190.1 34.0008C189.9 33.5008 188.7 31.3008 186.4 30.7008C182 29.6008 178.7 36.0008 172.1 38.4008C165.4 40.9008 159.5 37.6008 150.8 34.9008C147 33.7008 123.4 26.5008 106.1 33.4008C97.3995 36.8008 88.3995 44.5008 85.8995 52.4008C85.2995 54.4008 85.0995 56.3008 85.3995 58.2008C85.9995 61.5008 87.9995 68.8008 95.9995 69.9008C103.8 70.4008 113.5 75.5008 125.8 76.7008C139.7 78.1008 149.8 75.3008 157.9 73.5008C167.1 71.5008 175.4 66.7008 181 59.7008C181.6 59.0008 182.1 58.3008 182.5 57.6008C184.9 54.1008 184.7 51.6008 184.3 49.2008C188.5 43.2008 191.6 37.0008 190.1 34.0008Z" fill="#D8885B"/>
<path d="M190.1 34.0008C189.9 33.5008 188.7 31.3008 186.4 30.7008C182 29.6008 178.7 36.0008 172.1 38.4008C165.4 40.9008 159.5 37.6008 150.8 34.9008C147 33.7008 123.4 26.5008 106.1 33.4008C97.3995 36.8008 88.3995 44.5008 85.8995 52.4008C85.2995 54.4008 85.0995 56.3008 85.3995 58.2008C85.9995 61.5008 87.9995 68.8008 95.9995 69.9008C103.8 70.4008 113.5 75.5008 125.8 76.7008C139.7 78.1008 149.8 75.3008 157.9 73.5008C167.1 71.5008 175.4 66.7008 181 59.7008C181.6 59.0008 182.1 58.3008 182.5 57.6008C184.9 54.1008 184.7 51.6008 184.3 49.2008C188.5 43.2008 191.6 37.0008 190.1 34.0008Z" fill="url(#paint1_linear)"/>
<path opacity="0.35" d="M144.2 160.4C138.9 159.2 135.4 157.6 131.5 158.5C131.2 158.6 131.1 158.6 130.7 158.7C128.5 159.4 126.2 159.4 124.1 158.7C123.7 158.6 123.6 158.6 123.3 158.5C119.5 157.6 116.2 158.9 110.8 160.2C109.7 160.5 107.9 160.9 105.7 161.3C106.1 161.9 113.8 172.2 127.4 172.2C141 172.3 148.7 161.9 149.1 161.3C147 161 145.3 160.6 144.2 160.4Z" fill="#6A330D"/>
<path d="M103.6 159.501C107.4 161.101 111.3 162.401 115.3 163.301C119.3 164.101 123.4 164.601 127.4 164.501C131.5 164.501 135.5 164.001 139.5 163.101C141.5 162.701 143.5 162.101 145.4 161.501C147.4 160.901 149.3 160.101 151.1 159.301C151.4 159.201 151.7 159.301 151.9 159.601C152 159.901 151.9 160.201 151.7 160.301C148.1 162.401 144.1 164.001 140 165.101C135.9 166.101 131.7 166.701 127.4 166.701C125.3 166.701 123.2 166.601 121.1 166.301C119 166.001 116.9 165.701 114.9 165.101C110.8 164.101 106.8 162.501 103.1 160.501C102.8 160.301 102.7 160.001 102.9 159.701C103 159.401 103.3 159.301 103.6 159.501Z" fill="#172B4D"/>
<g opacity="0.64">
<path opacity="0.64" d="M123.6 109.301C123.7 109.601 123.8 109.901 123.9 110.001C123.9 110.201 124 110.401 124 110.501C124.1 110.801 124.1 111.101 124.2 111.401C124.3 112.001 124.3 112.601 124.4 113.201C124.5 114.401 124.5 115.601 124.5 116.801C124.5 118.001 124.4 119.201 124.1 120.501C123.9 121.701 123.5 123.001 122.8 124.201C122.5 124.701 121.9 124.801 121.4 124.501C121 124.201 120.8 123.701 121 123.301V123.201C121.3 122.301 121.5 121.201 121.7 120.101C121.8 119.001 121.9 117.901 121.9 116.701C121.9 115.601 121.9 114.401 121.9 113.301C121.9 112.701 121.9 112.201 121.8 111.601C121.8 111.301 121.8 111.001 121.7 110.801C121.7 110.701 121.7 110.501 121.7 110.401C121.7 110.201 121.7 110.301 121.7 110.301C121.4 109.801 121.6 109.101 122.1 108.801C122.7 108.601 123.3 108.801 123.6 109.301Z" fill="#8E572A"/>
</g>
<path d="M113.9 103.199C113.6 102.999 113.1 102.699 112.6 102.499C112.1 102.299 111.7 101.999 111.2 101.799C110.2 101.399 109.2 100.999 108.2 100.699C106.2 99.9995 104 99.6995 101.9 99.4995C99.6998 99.2995 97.5998 99.3995 95.4998 99.7995C93.3998 100.199 91.1998 100.899 89.1998 101.799C88.6998 101.999 88.0998 101.799 87.8998 101.299C87.6998 100.899 87.7998 100.399 88.1998 100.099C90.0998 98.5995 92.2998 97.3995 94.6998 96.5995C97.0998 95.7995 99.5998 95.3995 102.1 95.4995C104.6 95.4995 107.1 95.8995 109.5 96.6995C110.7 97.0995 111.9 97.5995 113 98.1995C113.6 98.4995 114.1 98.8995 114.6 99.1995C115.1 99.5995 115.6 99.8995 116.2 100.499C116.9 101.199 116.9 102.299 116.2 102.999C115.6 103.599 114.7 103.699 114.1 103.299L113.9 103.199Z" fill="#172B4D"/>
<path d="M140.2 100.5C140.8 99.8996 141.3 99.5996 141.8 99.1996C142.3 98.7996 142.9 98.4996 143.5 98.1996C144.7 97.5996 145.9 97.0996 147.1 96.6996C149.6 95.8996 152.2 95.5996 154.7 95.5996C157.3 95.5996 159.9 95.9996 162.3 96.8996C164.7 97.7996 167 98.9996 168.9 100.6C169.3 101 169.4 101.6 169 102C168.7 102.4 168.2 102.5 167.8 102.3C165.7 101.3 163.6 100.5 161.4 99.9996C159.2 99.4996 157 99.3996 154.8 99.4996C152.6 99.6996 150.4 99.9996 148.3 100.7C147.2 101 146.2 101.4 145.2 101.8C144.7 102 144.2 102.2 143.7 102.5C143.2 102.7 142.7 103 142.4 103.2L142.2 103.3C141.4 103.8 140.3 103.5 139.8 102.7C139.5 102 139.7 101.1 140.2 100.5Z" fill="#172B4D"/>
<path d="M90.6005 110.201C93.6005 108.101 97.3005 106.801 101 106.701C104.7 106.501 108.6 107.601 111.7 109.601C112.1 109.901 112.2 110.501 112 110.901C111.7 111.301 111.2 111.401 110.8 111.201C109.3 110.401 107.7 109.701 106.1 109.301C104.5 108.801 102.8 108.601 101.1 108.601C99.4005 108.601 97.7005 108.801 96.1005 109.301C94.5005 109.801 92.8005 110.401 91.3005 111.201C91.0005 111.401 90.6005 111.301 90.5005 111.001C90.2005 110.701 90.3005 110.401 90.6005 110.201Z" fill="#172B4D"/>
<path d="M165.8 111.201C164.3 110.401 162.7 109.701 161 109.301C159.3 108.901 157.7 108.601 156 108.601C154.3 108.601 152.6 108.801 151 109.301C149.4 109.701 147.8 110.401 146.3 111.201C145.9 111.401 145.3 111.301 145 110.801C144.8 110.401 144.9 109.801 145.3 109.601C148.4 107.501 152.2 106.501 156 106.701C159.8 106.801 163.4 108.101 166.4 110.201C166.7 110.401 166.7 110.801 166.5 111.101C166.4 111.301 166.1 111.401 165.8 111.201Z" fill="#172B4D"/>
<path d="M154.9 114.201C156.668 114.201 158.1 112.768 158.1 111.001C158.1 109.233 156.668 107.801 154.9 107.801C153.133 107.801 151.7 109.233 151.7 111.001C151.7 112.768 153.133 114.201 154.9 114.201Z" fill="#172B4D"/>
<path d="M101.6 114.201C103.368 114.201 104.8 112.768 104.8 111.001C104.8 109.233 103.368 107.801 101.6 107.801C99.8331 107.801 98.4004 109.233 98.4004 111.001C98.4004 112.768 99.8331 114.201 101.6 114.201Z" fill="#172B4D"/>
<g opacity="0.64">
<path opacity="0.64" d="M117 139.601C118.6 138.601 120.7 138.101 122.7 138.401C123.2 138.501 123.8 138.701 124.2 138.901C124.7 139.101 125 139.301 125.3 139.401C125.9 139.601 126.7 139.701 127.4 139.501C128.1 139.401 128.8 139.001 129.7 138.701C130.6 138.301 131.6 138.101 132.6 138.001C134.6 137.801 136.6 138.301 138.2 139.101C138.6 139.301 138.7 139.701 138.5 140.101C138.3 140.401 137.9 140.601 137.6 140.501C136 140.001 134.3 139.801 132.8 140.001C132 140.101 131.3 140.401 130.5 140.701C129.7 141.001 128.9 141.501 127.8 141.701C126.7 141.901 125.6 141.901 124.6 141.501C124.1 141.301 123.6 141.101 123.3 140.901C123 140.701 122.7 140.601 122.3 140.501C120.8 140.201 119.2 140.401 117.6 140.901C117.2 141.001 116.8 140.801 116.6 140.401C116.6 140.101 116.8 139.801 117 139.601Z" fill="#8E572A"/>
</g>
<g opacity="0.32">
<path opacity="0.32" d="M117.6 178.3C119 177.2 120.7 176.5 122.4 176C124.1 175.5 125.9 175.4 127.7 175.4C129.5 175.5 131.2 175.7 132.9 176.2C134.6 176.7 136.2 177.4 137.7 178.3C138.1 178.5 138.2 179 137.9 179.4C137.7 179.7 137.4 179.8 137.1 179.7C135.5 179.4 133.9 179.1 132.3 178.9C130.7 178.7 129.2 178.6 127.6 178.6C126 178.6 124.5 178.7 123 178.9C121.5 179.1 120 179.4 118.4 179.9C117.9 180 117.4 179.8 117.2 179.3C117.1 178.9 117.3 178.5 117.6 178.3Z" fill="#8E572A"/>
</g>
</g>
<defs>
<linearGradient id="paint0_linear" x1="129.892" y1="62.2019" x2="128.828" y2="136.099" gradientUnits="userSpaceOnUse">
<stop offset="0.0914864" stop-color="#091E42"/>
<stop offset="1" stop-color="#091E42" stop-opacity="0"/>
</linearGradient>
<linearGradient id="paint1_linear" x1="87.2065" y1="62.674" x2="190.204" y2="40.7858" gradientUnits="userSpaceOnUse">
<stop offset="0.0914864" stop-color="#091E42"/>
<stop offset="0.618" stop-color="#4B362F"/>
<stop offset="1" stop-color="#7D4921"/>
</linearGradient>
<clipPath id="clip0">
<path d="M0 0.900391H256V256.9H0V0.900391Z" fill="white"/>
</clipPath>
</defs>
</svg>
