<svg width="256" height="257" viewBox="0 0 256 257" fill="none" xmlns="http://www.w3.org/2000/svg">
<g clip-path="url(#clip0)">
<path d="M0 0.900391H256V256.9H0V0.900391Z" fill="white" fill-opacity="0.01"/>
<path d="M128 256.9C198.692 256.9 256 199.593 256 128.9C256 58.2079 198.692 0.900391 128 0.900391C57.3075 0.900391 0 58.2079 0 128.9C0 199.593 57.3075 256.9 128 256.9Z" fill="#FF5630"/>
<path d="M126.399 74.3008C143.52 74.3008 157.399 60.4216 157.399 43.3008C157.399 26.18 143.52 12.3008 126.399 12.3008C109.279 12.3008 95.3994 26.18 95.3994 43.3008C95.3994 60.4216 109.279 74.3008 126.399 74.3008Z" fill="#091E42"/>
<path d="M205.8 230.7L172.8 208.8C172.151 208.434 171.438 208.196 170.7 208.1L131.6 206.1L92.5998 208.1C91.8548 208.166 91.1357 208.406 90.4998 208.8L55.0998 232.2L53.7998 233.1C76.072 248.981 102.843 257.316 130.194 256.884C157.545 256.452 184.04 247.276 205.8 230.7Z" fill="#DE350B"/>
<path d="M205.8 230.7L172.8 208.8C172.151 208.434 171.438 208.196 170.7 208.1L131.6 206.1L92.5998 208.1C91.8548 208.166 91.1357 208.406 90.4998 208.8L55.0998 232.2L53.7998 233.1C76.072 248.981 102.843 257.316 130.194 256.884C157.545 256.452 184.04 247.276 205.8 230.7Z" fill="#FF7452"/>
<path d="M107.4 244.001C122.919 244.001 135.5 231.42 135.5 215.901C135.5 200.382 122.919 187.801 107.4 187.801C91.8806 187.801 79.2998 200.382 79.2998 215.901C79.2998 231.42 91.8806 244.001 107.4 244.001Z" fill="#FFBDAD"/>
<path d="M155.9 243.7C171.419 243.7 184 231.119 184 215.6C184 200.081 171.419 187.5 155.9 187.5C140.381 187.5 127.8 200.081 127.8 215.6C127.8 231.119 140.381 243.7 155.9 243.7Z" fill="#FFBDAD"/>
<path d="M192.9 101.201C192.9 66.2008 164.3 37.8008 128.9 37.8008C93.5 37.8008 65 66.2008 65 101.201V115.101C65 150.101 93.6 178.501 128.9 178.501C164.2 178.501 192.9 150.101 192.9 115.101V101.201Z" fill="#172B4D"/>
<path d="M168.299 209.802C167.299 211.202 152.399 230.602 127.799 228.902C107.299 227.602 95.6994 212.702 93.8994 210.402C98.7843 206.338 102.136 200.729 103.399 194.502C106.199 180.702 97.0994 170.302 95.9994 169.102L163.399 166.602C162.099 168.602 154.999 179.902 158.599 193.802C160.283 199.933 163.642 205.474 168.299 209.802Z" fill="url(#paint0_linear)"/>
<path d="M77.3 141.202C84.9215 141.202 91.1 135.023 91.1 127.402C91.1 119.78 84.9215 113.602 77.3 113.602C69.6785 113.602 63.5 119.78 63.5 127.402C63.5 135.023 69.6785 141.202 77.3 141.202Z" fill="url(#paint1_linear)"/>
<path d="M84.9999 165.101C80.9415 165.102 77.0253 163.607 73.9999 160.901C72.3634 159.491 71.0317 157.761 70.0861 155.818C69.1404 153.875 68.6007 151.76 68.4999 149.601C68.3581 147.43 68.6474 145.251 69.351 143.192C70.0547 141.132 71.1588 139.232 72.5999 137.601C73.0508 137.098 73.6833 136.793 74.3585 136.756C75.0336 136.718 75.696 136.951 76.1999 137.401C76.7038 137.852 77.008 138.485 77.0455 139.16C77.083 139.835 76.8508 140.498 76.3999 141.001C75.3912 142.124 74.6154 143.436 74.1176 144.861C73.6197 146.285 73.4098 147.795 73.4999 149.301C73.7312 152.34 75.1287 155.17 77.3999 157.201C78.5092 158.315 79.835 159.189 81.2952 159.769C82.7555 160.35 84.3193 160.626 85.8901 160.578C87.4609 160.531 89.0054 160.163 90.4282 159.495C91.8511 158.828 93.122 157.876 94.1627 156.699C95.2034 155.521 95.9916 154.143 96.4788 152.649C96.966 151.155 97.1418 149.577 96.9954 148.012C96.8489 146.447 96.3833 144.929 95.6273 143.551C94.8713 142.174 93.841 140.966 92.5999 140.001C92.1142 139.561 91.821 138.947 91.7836 138.292C91.7462 137.638 91.9675 136.995 92.3999 136.501C92.6194 136.246 92.8881 136.038 93.1901 135.889C93.4921 135.74 93.8211 135.653 94.1573 135.635C94.4935 135.616 94.83 135.665 95.1466 135.78C95.4633 135.895 95.7535 136.072 95.9999 136.301C98.4912 138.529 100.247 141.461 101.036 144.708C101.824 147.956 101.608 151.367 100.416 154.489C99.2232 157.611 97.1108 160.297 94.358 162.192C91.6053 164.087 88.3419 165.102 84.9999 165.101Z" fill="#FFBDAD"/>
<path d="M179.3 141.202C186.922 141.202 193.1 135.023 193.1 127.402C193.1 119.78 186.922 113.602 179.3 113.602C171.678 113.602 165.5 119.78 165.5 127.402C165.5 135.023 171.678 141.202 179.3 141.202Z" fill="url(#paint2_linear)"/>
<path d="M172.6 165.101C170.264 165.097 167.955 164.606 165.82 163.659C163.685 162.712 161.771 161.33 160.2 159.601C157.319 156.315 155.851 152.026 156.113 147.664C156.375 143.302 158.347 139.219 161.6 136.301C161.846 136.072 162.136 135.895 162.453 135.78C162.77 135.665 163.106 135.616 163.442 135.635C163.779 135.653 164.107 135.74 164.409 135.889C164.711 136.038 164.98 136.246 165.2 136.501C165.632 136.995 165.853 137.638 165.816 138.292C165.779 138.947 165.485 139.561 165 140.001C162.936 142.073 161.738 144.852 161.65 147.775C161.563 150.697 162.592 153.544 164.528 155.735C166.464 157.926 169.162 159.297 172.074 159.569C174.985 159.842 177.891 158.995 180.2 157.201C181.332 156.208 182.252 154.996 182.905 153.639C183.558 152.281 183.93 150.806 184 149.301C184.103 147.802 183.909 146.296 183.429 144.872C182.948 143.447 182.191 142.132 181.2 141.001C180.97 140.755 180.793 140.465 180.678 140.148C180.564 139.832 180.514 139.495 180.533 139.159C180.552 138.823 180.638 138.494 180.787 138.192C180.936 137.89 181.144 137.621 181.4 137.401C181.893 136.969 182.536 136.748 183.191 136.785C183.845 136.823 184.459 137.116 184.9 137.601C186.354 139.228 187.473 141.124 188.194 143.183C188.915 145.243 189.223 147.423 189.1 149.601C188.976 151.755 188.427 153.863 187.483 155.803C186.538 157.743 185.219 159.476 183.6 160.901C180.565 163.591 176.655 165.083 172.6 165.101Z" fill="#FFBDAD"/>
<path d="M184.2 122.201C183 151.801 159.3 185.801 128.5 185.801C97.6996 185.801 73.9996 151.801 72.7996 122.201C71.4996 89.5012 85.8996 52.7012 128.5 52.7012C171.1 52.7012 185.5 89.5012 184.2 122.201Z" fill="#533E37"/>
<path d="M171.1 109.002C168.578 107.287 165.899 105.813 163.1 104.602C158.897 102.965 154.315 102.557 149.889 103.425C145.463 104.293 141.374 106.4 138.1 109.502C137.913 109.685 137.662 109.787 137.4 109.787C137.138 109.787 136.887 109.685 136.7 109.502C136.553 109.298 136.475 109.053 136.475 108.802C136.475 108.55 136.553 108.306 136.7 108.102C138.961 105.693 141.727 103.815 144.8 102.602C147.799 101.3 151.031 100.62 154.3 100.602C157.603 100.692 160.86 101.405 163.9 102.702C166.985 103.83 169.642 105.893 171.5 108.602C171.515 108.743 171.479 108.884 171.4 109.002H171.1Z" fill="#230F05"/>
<path d="M81.5003 108.602C83.2968 105.876 85.9283 103.806 89.0003 102.702C92.04 101.405 95.2968 100.692 98.6003 100.602C101.903 100.609 105.169 101.289 108.2 102.602C111.242 103.819 113.974 105.698 116.2 108.102C116.315 108.188 116.41 108.297 116.478 108.423C116.547 108.549 116.588 108.688 116.598 108.831C116.608 108.974 116.587 109.117 116.537 109.251C116.487 109.385 116.409 109.507 116.307 109.609C116.206 109.71 116.084 109.788 115.95 109.838C115.816 109.889 115.672 109.909 115.529 109.899C115.387 109.889 115.247 109.848 115.122 109.78C114.996 109.711 114.886 109.616 114.8 109.502C112.638 107.426 110.09 105.795 107.3 104.702C104.543 103.549 101.589 102.938 98.6003 102.902C95.5867 102.915 92.6022 103.492 89.8003 104.602C87.0118 105.835 84.3352 107.307 81.8003 109.002C81.7003 109.102 81.6003 109.002 81.5003 108.902C81.479 108.883 81.462 108.86 81.4503 108.834C81.4387 108.808 81.4326 108.78 81.4326 108.752C81.4326 108.723 81.4387 108.695 81.4503 108.669C81.462 108.643 81.479 108.62 81.5003 108.602Z" fill="#230F05"/>
<path d="M102.1 119.401C103.812 119.401 105.2 118.013 105.2 116.301C105.2 114.589 103.812 113.201 102.1 113.201C100.388 113.201 99 114.589 99 116.301C99 118.013 100.388 119.401 102.1 119.401Z" fill="#230F05"/>
<path d="M88.5998 117.1C88.9937 117.287 89.4268 117.375 89.8621 117.357C90.2974 117.34 90.7221 117.218 91.0998 117C91.187 116.99 91.2698 116.957 91.34 116.904C91.4102 116.851 91.4654 116.781 91.4998 116.7H91.6998L91.9998 116.4L93.2998 115.2C95.1887 113.786 97.3791 112.828 99.6998 112.4C102.038 111.966 104.448 112.138 106.7 112.9C108.915 113.624 110.91 114.897 112.5 116.6C112.69 116.804 112.795 117.072 112.795 117.35C112.795 117.629 112.69 117.897 112.5 118.1C112.296 118.247 112.051 118.326 111.8 118.326C111.549 118.326 111.304 118.247 111.1 118.1C108.898 116.05 106.062 114.813 103.061 114.595C100.06 114.377 97.0751 115.19 94.5998 116.9L93.3998 117.9L93.0998 118.1L92.6998 118.4L91.6998 118.9C91.0453 119.122 90.333 119.103 89.6913 118.847C89.0496 118.59 88.5207 118.113 88.1998 117.5C88.1828 117.475 88.1719 117.446 88.1678 117.416C88.1637 117.386 88.1666 117.355 88.1763 117.326C88.1859 117.297 88.2021 117.271 88.2235 117.249C88.2449 117.227 88.271 117.21 88.2998 117.2C88.3998 117.1 88.4998 117.1 88.4998 117.2L88.5998 117.1Z" fill="#230F05"/>
<path d="M151.9 119.401C153.612 119.401 155 118.013 155 116.301C155 114.589 153.612 113.201 151.9 113.201C150.188 113.201 148.8 114.589 148.8 116.301C148.8 118.013 150.188 119.401 151.9 119.401Z" fill="#230F05"/>
<path d="M165.8 117.902C165.479 118.514 164.95 118.991 164.309 119.248C163.667 119.505 162.955 119.524 162.3 119.302L161.3 118.902L160.9 118.502L160.6 118.302C160.247 117.916 159.843 117.579 159.4 117.302C157.756 116.164 155.876 115.412 153.9 115.102C151.962 114.785 149.977 114.922 148.1 115.502C146.165 116.102 144.388 117.127 142.9 118.502C142.692 118.651 142.438 118.722 142.182 118.704C141.927 118.686 141.685 118.579 141.5 118.402C141.412 118.318 141.343 118.217 141.295 118.105C141.247 117.993 141.223 117.873 141.223 117.752C141.223 117.63 141.247 117.51 141.295 117.398C141.343 117.287 141.412 117.186 141.5 117.102C143.074 115.31 145.118 113.994 147.4 113.302C149.628 112.588 151.993 112.417 154.3 112.802C156.632 113.192 158.831 114.154 160.7 115.602L162 116.802L162.3 117.102C162.4 117.102 162.4 117.202 162.5 117.302L163 117.602C163.394 117.775 163.82 117.865 164.25 117.865C164.681 117.865 165.106 117.775 165.5 117.602C165.526 117.585 165.554 117.574 165.585 117.57C165.615 117.566 165.646 117.568 165.675 117.578C165.704 117.588 165.73 117.604 165.752 117.625C165.774 117.647 165.79 117.673 165.8 117.702C165.9 117.802 165.9 117.902 165.8 117.902Z" fill="#230F05"/>
<path d="M129.1 38.7012C98.0002 38.7012 72.2002 64.5012 66.7002 98.7012H191.4C185.9 64.5012 160.1 38.7012 129.1 38.7012Z" fill="#172B4D"/>
<path d="M122.5 114.701C123.069 116.055 123.504 117.462 123.8 118.901C124.065 120.355 124.232 121.825 124.3 123.301C124.296 124.773 124.196 126.243 124 127.701C123.809 129.131 123.474 130.539 123 131.901C122.98 132.008 122.936 132.108 122.871 132.195C122.806 132.282 122.721 132.352 122.624 132.4C122.527 132.449 122.42 132.474 122.312 132.474C122.204 132.475 122.097 132.449 122 132.401C121.816 132.336 121.657 132.214 121.549 132.051C121.441 131.889 121.389 131.696 121.4 131.501C121.6 130.101 121.8 128.801 121.9 127.401C122.034 126.039 122.068 124.668 122 123.301C121.999 121.962 121.899 120.625 121.7 119.301C121.5 117.901 121.2 116.601 120.9 115.201C120.886 115.096 120.893 114.989 120.92 114.887C120.948 114.784 120.996 114.688 121.061 114.605C121.126 114.521 121.207 114.451 121.3 114.399C121.392 114.347 121.494 114.314 121.6 114.301C121.773 114.258 121.955 114.274 122.118 114.346C122.281 114.419 122.416 114.544 122.5 114.701Z" fill="#230F05"/>
<path d="M119.1 141.4C120.289 140.647 121.702 140.329 123.1 140.5L124.3 140.9L125 141.2H126.2C126.714 141.079 127.216 140.912 127.7 140.7C128.32 140.384 129.004 140.213 129.7 140.2C131.049 140.094 132.401 140.372 133.6 141C133.692 141.051 133.773 141.121 133.839 141.205C133.904 141.289 133.952 141.384 133.98 141.487C134.008 141.589 134.015 141.696 134.001 141.801C133.988 141.906 133.953 142.008 133.9 142.1C133.867 142.172 133.821 142.238 133.763 142.292C133.705 142.346 133.637 142.389 133.562 142.417C133.488 142.445 133.409 142.458 133.329 142.455C133.25 142.452 133.172 142.433 133.1 142.4C132.063 142.086 130.967 142.018 129.9 142.2L128.5 142.7C127.904 143.025 127.264 143.261 126.6 143.4C125.837 143.566 125.045 143.532 124.3 143.3L123.3 142.9L122.7 142.6C121.731 142.423 120.734 142.492 119.8 142.8C119.601 142.863 119.385 142.847 119.198 142.753C119.011 142.66 118.868 142.497 118.8 142.3C118.747 142.137 118.748 141.962 118.802 141.8C118.856 141.638 118.96 141.498 119.1 141.4Z" fill="#230F05"/>
<path d="M144.7 156.6C138.9 156.2 136.5 153.2 131.2 153.4C130.3 153.4 127.1 155.1 127.1 155.1C127.1 155.1 123.9 153.4 123 153.4C117.7 153.2 115.2 156.2 109.4 156.6C108.064 156.663 106.724 156.596 105.4 156.4C105.8 157 113.5 167.9 127.1 167.9C140.7 167.9 148.4 157 148.8 156.4C147.443 156.595 146.07 156.662 144.7 156.6Z" fill="#8C715D"/>
<path d="M148.8 156.4C147.443 156.595 146.07 156.662 144.7 156.6C138.9 156.2 136.5 153.2 131.2 153.4C130.3 153.4 127.1 155.1 127.1 155.1C127.1 155.1 123.9 153.4 123 153.4C117.7 153.2 115.2 156.2 109.4 156.6C108.064 156.663 106.724 156.596 105.4 156.4C112.498 158.912 119.971 160.198 127.5 160.2C134.763 160.131 141.962 158.846 148.8 156.4Z" fill="#72594B"/>
<path d="M103.3 154.201C107.057 155.919 110.977 157.259 115 158.201C118.971 159.088 123.03 159.524 127.1 159.501C131.18 159.507 135.245 159.003 139.2 158.001C141.207 157.587 143.18 157.018 145.1 156.301C147.1 155.601 149 154.801 150.8 154.001C150.861 153.947 150.934 153.909 151.013 153.889C151.091 153.87 151.174 153.87 151.253 153.89C151.331 153.91 151.404 153.948 151.465 154.002C151.525 154.056 151.572 154.125 151.6 154.201C151.654 154.261 151.692 154.334 151.711 154.413C151.73 154.492 151.73 154.574 151.711 154.653C151.691 154.732 151.652 154.805 151.598 154.865C151.544 154.926 151.476 154.972 151.4 155.001C147.792 157.213 143.886 158.897 139.8 160.001C135.673 161.2 131.397 161.806 127.1 161.801C124.957 161.783 122.819 161.616 120.7 161.301C118.599 161.103 116.523 160.702 114.5 160.101C110.386 159.033 106.446 157.383 102.8 155.201C102.727 155.168 102.662 155.122 102.607 155.064C102.553 155.006 102.51 154.938 102.483 154.863C102.455 154.789 102.442 154.71 102.445 154.63C102.448 154.551 102.466 154.473 102.5 154.401C102.602 154.298 102.731 154.225 102.872 154.19C103.013 154.154 103.161 154.158 103.3 154.201Z" fill="#230F05"/>
</g>
<defs>
<linearGradient id="paint0_linear" x1="131.119" y1="167.832" x2="131.119" y2="228.732" gradientUnits="userSpaceOnUse">
<stop stop-color="#3B241E"/>
<stop offset="0.25" stop-color="#47312B"/>
<stop offset="0.57" stop-color="#503B34"/>
<stop offset="1" stop-color="#533E37"/>
</linearGradient>
<linearGradient id="paint1_linear" x1="63.57" y1="127.412" x2="91.11" y2="127.412" gradientUnits="userSpaceOnUse">
<stop stop-color="#533E37"/>
<stop offset="0.43" stop-color="#503B34"/>
<stop offset="0.75" stop-color="#47312B"/>
<stop offset="1" stop-color="#3B241E"/>
</linearGradient>
<linearGradient id="paint2_linear" x1="4733.3" y1="3605.28" x2="5493.41" y2="3605.28" gradientUnits="userSpaceOnUse">
<stop stop-color="#533E37"/>
<stop offset="0.43" stop-color="#503B34"/>
<stop offset="0.75" stop-color="#47312B"/>
<stop offset="1" stop-color="#3B241E"/>
</linearGradient>
<clipPath id="clip0">
<path d="M0 0.900391H256V256.9H0V0.900391Z" fill="white"/>
</clipPath>
</defs>
</svg>
