<svg width="256" height="257" viewBox="0 0 256 257" fill="none" xmlns="http://www.w3.org/2000/svg">
<g clip-path="url(#clip0)">
<path d="M0 0.900391H256V256.9H0V0.900391Z" fill="white" fill-opacity="0.01"/>
<path d="M128 256.9C198.692 256.9 256 199.593 256 128.9C256 58.2079 198.692 0.900391 128 0.900391C57.3075 0.900391 0 58.2079 0 128.9C0 199.593 57.3075 256.9 128 256.9Z" fill="#00C7E5"/>
<path d="M207.3 229.3L178.5 213.2C177.705 212.741 176.816 212.468 175.9 212.4L128 209.9L80.1002 212.4C79.1844 212.468 78.2956 212.741 77.5002 213.2L48.7002 229.3C71.266 247.178 99.2107 256.906 128 256.906C156.79 256.906 184.734 247.178 207.3 229.3Z" fill="#79E2F2"/>
<path d="M173 217.401C172 218.901 153.6 243.301 123.4 240.901C98.9 239.001 85.1 221.001 83 218.201C89.0836 213.63 93.395 207.093 95.2 199.701C98.8 184.101 89 172.201 87.8 170.801H164.4C163.9 171.501 152.6 187.101 159.7 203.201C162.458 209.263 167.131 214.252 173 217.401Z" fill="url(#paint0_linear)"/>
<path d="M77.5937 146.506C84.7147 144.705 88.6752 136.082 86.4398 127.248C84.2044 118.414 76.6196 112.713 69.4986 114.515C62.3777 116.317 58.4171 124.939 60.6526 133.773C62.888 142.607 70.4728 148.308 77.5937 146.506Z" fill="url(#paint1_linear)"/>
<path d="M196.074 133.752C198.309 124.918 194.349 116.295 187.228 114.494C180.107 112.692 172.522 118.393 170.287 127.227C168.051 136.061 172.012 144.683 179.133 146.485C186.254 148.287 193.839 142.586 196.074 133.752Z" fill="url(#paint2_linear)"/>
<path d="M127.9 47C155.6 47.2 172.5 65.9 175.1 68.9C192.6 89.1 190.8 113.2 190.4 118.3C189.4 130.7 184.4 140.6 174.7 160.6C170.311 169.804 165.403 178.752 160 187.4C158.46 189.84 156.281 191.811 153.7 193.1C145.689 197.181 136.885 199.467 127.9 199.8C118.882 199.478 110.043 197.192 102 193.1C99.4672 191.78 97.3283 189.813 95.8002 187.4C90.3601 178.756 85.4187 169.808 81.0002 160.6C71.4002 140.6 66.3002 130.7 65.4002 118.3C65.0002 113.2 63.1002 89.1 80.7002 68.9C83.3002 65.9 100.2 47.2 127.9 47Z" fill="#533E37"/>
<path d="M139.4 106.6L140.6 105.6L141.8 104.8C142.6 104.2 143.5 103.8 144.3 103.3C146.01 102.519 147.783 101.883 149.6 101.4C153.259 100.485 157.049 100.214 160.8 100.6C164.556 101.015 168.193 102.17 171.5 104C173.101 104.917 174.608 105.989 176 107.2C177.441 108.441 178.688 109.89 179.7 111.5C179.79 111.636 179.852 111.79 179.88 111.951C179.909 112.112 179.905 112.277 179.867 112.436C179.83 112.595 179.76 112.745 179.663 112.876C179.565 113.008 179.442 113.118 179.3 113.2C179.065 113.344 178.788 113.402 178.515 113.366C178.242 113.329 177.989 113.2 177.8 113H177.7C176.627 111.817 175.379 110.806 174 110C172.656 109.077 171.214 108.306 169.7 107.7C166.752 106.429 163.605 105.685 160.4 105.5C157.208 105.397 154.016 105.7 150.9 106.4C149.334 106.794 147.797 107.295 146.3 107.9L144.2 108.9L143.2 109.4L142.3 110H142C141.548 110.201 141.042 110.244 140.562 110.122C140.083 110 139.658 109.719 139.358 109.326C139.057 108.933 138.898 108.45 138.906 107.956C138.913 107.461 139.088 106.983 139.4 106.6Z" fill="#230F05"/>
<path d="M114.8 109.9L113.9 109.3L112.9 108.8L110.8 107.8C109.303 107.195 107.766 106.694 106.2 106.3C103.083 105.605 99.8917 105.303 96.6999 105.4C93.4953 105.585 90.3478 106.33 87.3999 107.6C85.8865 108.206 84.4444 108.978 83.0999 109.9C81.7212 110.706 80.4735 111.718 79.3999 112.9H79.2999C79.1884 113.012 79.056 113.101 78.9101 113.161C78.7642 113.222 78.6079 113.253 78.4499 113.253C78.292 113.253 78.1356 113.222 77.9897 113.161C77.8439 113.101 77.7114 113.012 77.5999 112.9C77.3994 112.711 77.2701 112.459 77.2337 112.186C77.1973 111.912 77.256 111.635 77.3999 111.4C78.4123 109.791 79.6594 108.341 81.0999 107.1C82.474 105.867 83.9837 104.793 85.5999 103.9C88.9069 102.071 92.5437 100.915 96.2999 100.5C100.051 100.115 103.841 100.386 107.5 101.3C109.317 101.784 111.09 102.419 112.8 103.2C113.6 103.7 114.5 104.1 115.3 104.7L116.5 105.5L117.7 106.5C118.013 106.884 118.187 107.361 118.195 107.856C118.202 108.351 118.043 108.834 117.742 109.227C117.442 109.62 117.018 109.9 116.538 110.022C116.059 110.144 115.552 110.101 115.1 109.9H114.8Z" fill="#230F05"/>
<path d="M89 118.4C92.055 116.252 95.6678 115.036 99.4 114.9C103.191 114.767 106.931 115.815 110.1 117.9C110.21 117.961 110.305 118.045 110.381 118.145C110.456 118.246 110.51 118.361 110.538 118.483C110.567 118.606 110.569 118.733 110.545 118.856C110.521 118.98 110.472 119.097 110.4 119.2C110.263 119.377 110.07 119.503 109.852 119.558C109.634 119.612 109.405 119.592 109.2 119.5C107.719 118.648 106.141 117.977 104.5 117.5C102.864 117.097 101.185 116.896 99.5 116.9C97.78 116.852 96.0621 117.055 94.4 117.5C92.7591 117.977 91.1812 118.648 89.7 119.5C89.5376 119.553 89.3627 119.552 89.2008 119.498C89.0389 119.444 88.8984 119.339 88.8 119.2C88.7576 119.061 88.7538 118.913 88.789 118.772C88.8243 118.631 88.8972 118.503 89 118.4Z" fill="#230F05"/>
<path d="M166.3 119.5C164.784 118.648 163.173 117.976 161.5 117.5C159.871 117.06 158.187 116.858 156.5 116.9C154.815 116.896 153.136 117.097 151.5 117.5C149.853 117.959 148.273 118.631 146.8 119.5C146.57 119.589 146.317 119.598 146.081 119.525C145.845 119.452 145.64 119.303 145.5 119.1C145.387 118.899 145.355 118.663 145.411 118.44C145.467 118.217 145.606 118.024 145.8 117.9C148.969 115.815 152.709 114.767 156.5 114.9C160.232 115.036 163.845 116.252 166.9 118.4C167.037 118.5 167.132 118.647 167.169 118.812C167.206 118.978 167.181 119.151 167.1 119.3C166.997 119.403 166.869 119.476 166.728 119.511C166.587 119.546 166.439 119.542 166.3 119.5Z" fill="#230F05"/>
<path d="M155.4 123.099C157.168 123.099 158.6 121.667 158.6 119.899C158.6 118.132 157.168 116.699 155.4 116.699C153.633 116.699 152.2 118.132 152.2 119.899C152.2 121.667 153.633 123.099 155.4 123.099Z" fill="#230F05"/>
<path d="M100.1 123.099C101.867 123.099 103.3 121.667 103.3 119.899C103.3 118.132 101.867 116.699 100.1 116.699C98.3326 116.699 96.8999 118.132 96.8999 119.899C96.8999 121.667 98.3326 123.099 100.1 123.099Z" fill="#230F05"/>
<path d="M188.1 104.301L184.5 120.101C184.084 121.967 184.2 123.914 184.837 125.717C185.473 127.521 186.604 129.109 188.1 130.301C188.1 130.301 191.7 120.801 192.5 116.301C193.3 111.801 188.1 104.301 188.1 104.301Z" fill="#0C1F41"/>
<path d="M67.2999 104.301L70.5999 120.101C71.0507 121.94 70.9808 123.868 70.398 125.669C69.8152 127.471 68.7424 129.074 67.2999 130.301C67.2999 130.301 63.8999 120.801 63.0999 116.301C62.2999 111.801 67.2999 104.301 67.2999 104.301Z" fill="#0C1F41"/>
<path d="M116.8 148.1C118.747 146.917 121.048 146.457 123.3 146.8L125 147.3L126.3 147.9C127.115 148.115 127.961 148.182 128.8 148.1L131.5 147.1C132.502 146.604 133.587 146.299 134.7 146.2C136.902 146.023 139.112 146.437 141.1 147.4C141.2 147.498 141.268 147.624 141.296 147.761C141.324 147.898 141.31 148.04 141.256 148.169C141.203 148.299 141.111 148.409 140.994 148.485C140.877 148.562 140.74 148.602 140.6 148.6C138.774 147.954 136.821 147.749 134.9 148C133.994 148.114 133.114 148.385 132.3 148.8C131.305 149.293 130.268 149.695 129.2 150C128.036 150.236 126.83 150.167 125.7 149.8L124.1 149.1L122.9 148.7C121.048 148.35 119.133 148.559 117.4 149.3C117.228 149.365 117.036 149.36 116.868 149.285C116.699 149.21 116.567 149.072 116.5 148.9C116.455 148.752 116.46 148.594 116.514 148.449C116.568 148.304 116.669 148.182 116.8 148.1Z" fill="#230F05"/>
<path d="M121.7 116.701C122.493 118.396 123.096 120.174 123.5 122.001C123.832 123.882 123.966 125.792 123.9 127.701C123.815 131.463 122.783 135.143 120.9 138.401C120.858 138.49 120.798 138.57 120.723 138.634C120.649 138.699 120.561 138.747 120.467 138.775C120.373 138.803 120.273 138.811 120.176 138.799C120.078 138.786 119.984 138.753 119.9 138.701C119.76 138.603 119.656 138.462 119.602 138.3C119.548 138.139 119.547 137.964 119.6 137.801C120.313 136.197 120.849 134.521 121.2 132.801C121.629 131.1 121.864 129.355 121.9 127.601C122.002 125.862 121.902 124.117 121.6 122.401C121.366 120.666 120.964 118.958 120.4 117.301C120.351 117.211 120.322 117.111 120.316 117.008C120.31 116.905 120.327 116.803 120.365 116.707C120.403 116.612 120.462 116.526 120.537 116.456C120.612 116.386 120.702 116.333 120.8 116.301C120.973 116.258 121.156 116.274 121.319 116.346C121.482 116.419 121.616 116.544 121.7 116.701Z" fill="#230F05"/>
<path d="M145.6 167.199C139.8 166.899 137.4 163.899 132.1 164.099C131.2 164.099 128 165.799 128 165.799C128 165.799 124.8 164.099 123.9 164.099C118.6 163.899 116.2 166.899 110.4 167.199C109.034 167.337 107.657 167.303 106.3 167.099C107.3 168.299 115 177.299 128 177.299C141 177.299 148.7 168.299 149.7 167.099C148.343 167.303 146.965 167.337 145.6 167.199Z" fill="#8C715D"/>
<path d="M149.7 167.101L145.4 166.401C138.9 165.101 136.4 163.601 132.1 164.101C130.765 164.225 129.454 164.528 128.2 165.001C126.828 164.459 125.374 164.154 123.9 164.101C119.5 163.701 117 165.301 110.5 166.501L106.3 167.101C113.393 169.62 120.873 170.872 128.4 170.801C135.66 170.806 142.867 169.554 149.7 167.101Z" fill="#72594B"/>
<path d="M104.2 164.901C107.96 166.588 111.88 167.894 115.9 168.801C119.869 169.716 123.927 170.185 128 170.201C132.106 170.102 136.193 169.6 140.2 168.701C142.2 168.201 144.1 167.701 146.1 167.001C148.1 166.301 149.9 165.501 151.8 164.601C151.946 164.535 152.112 164.529 152.262 164.585C152.412 164.642 152.534 164.755 152.6 164.901C152.666 165.047 152.672 165.213 152.616 165.363C152.56 165.513 152.446 165.635 152.3 165.701C148.692 167.913 144.786 169.597 140.7 170.701C136.559 171.819 132.289 172.39 128 172.401C125.893 172.417 123.788 172.284 121.7 172.001C119.565 171.814 117.454 171.412 115.4 170.801C111.287 169.733 107.347 168.083 103.7 165.901C103.624 165.873 103.556 165.826 103.502 165.766C103.448 165.705 103.409 165.632 103.389 165.554C103.37 165.475 103.37 165.393 103.389 165.314C103.408 165.235 103.446 165.162 103.5 165.101C103.512 165.025 103.545 164.954 103.595 164.896C103.646 164.839 103.712 164.797 103.786 164.776C103.86 164.755 103.938 164.755 104.011 164.778C104.085 164.8 104.15 164.843 104.2 164.901Z" fill="#230F05"/>
<path d="M97.3 166.101C97.0174 165.434 96.8802 164.715 96.8974 163.99C96.9147 163.266 97.086 162.554 97.4 161.901C97.6539 161.218 98.041 160.592 98.5389 160.06C99.0367 159.528 99.6354 159.1 100.3 158.801C100.5 158.701 100.7 158.801 100.8 159.101C100.9 159.401 100.8 159.301 100.8 159.401C100.148 160.404 99.6112 161.478 99.2 162.601C98.8043 163.66 98.5684 164.773 98.5 165.901C98.4431 166.043 98.3469 166.165 98.2229 166.253C98.0989 166.342 97.9522 166.393 97.8 166.401C97.6072 166.353 97.4332 166.249 97.3 166.101Z" fill="#230F05"/>
<path d="M128 25.0996C131.7 25.0996 135.3 29.6996 139 29.9996C142.7 30.2996 147 26.1996 150.6 26.7996C154.2 27.3996 157 32.5996 160.5 33.5996C164 34.5996 169.2 31.5996 172.5 32.9996C175.8 34.3996 177.2 40.2996 180.1 42.2996C183 44.2996 189.1 43.5996 191.4 46.2996C193.7 48.9996 192 54.5996 193.3 58.0996C194.6 61.5996 199.5 64.2996 199.5 68.1996C199.5 72.0996 195 73.0996 194.9 75.4996C194.8 77.8996 199.1 80.7996 198.9 83.1996C198.7 85.5996 194 87.7996 193.7 90.0996C193.4 92.3996 197.6 95.6996 197.2 98.0996C196.8 100.5 192 102.3 191.5 104.6C191 106.9 194.9 110.6 194.4 112.8C193.9 115 188.8 116.8 188.2 118.8C186.9 123.1 187.4 128.4 186.9 128.3C186.4 128.2 189.3 120.7 188.5 113.5C188 109.9 182.9 106.6 181.7 102.3C180.5 97.9996 183.3 92.9996 181.4 89.1996C179.5 85.3996 173.6 84.6996 170.8 81.3996C168 78.0996 168.1 72.3996 164.5 69.9996C160.9 67.5996 155.6 69.9996 151.4 68.4996C147.2 66.9996 144.9 61.8996 140.5 61.2996C136.1 60.6996 132.3 64.8996 127.9 64.8996C123.5 64.8996 119 60.6996 115.3 61.2996C111.6 61.8996 108 67.2996 104.4 68.4996C100.8 69.6996 94.5 67.7996 91.3 69.9996C88.1 72.1996 87.6 78.4996 85 81.3996C82.4 84.2996 76.3 85.5996 74.5 89.1996C72.7 92.7996 75.3 98.4996 74.3 102.3C73.3 106.1 67.9 109.9 67.5 113.5C66.6 120.7 69.6 128.2 69.1 128.3C68.6 128.4 69.1 123.1 67.8 118.8C67.2 116.8 62.2 115.5 61.6 112.8C61 110.1 65 107.2 64.5 104.6C64 102 59.2 100.6 58.8 98.0996C58.4 95.5996 62.6 92.6996 62.3 90.0996C62 87.4996 57.3 85.6996 57.1 83.1996C56.9 80.6996 61.2 78.0996 61.1 75.5996C61 73.0996 56.5 70.6996 56.5 68.1996C56.5 65.6996 61.5 61.3996 62.7 58.0996C63.9 54.7996 62.1 49.1996 64.6 46.2996C67.1 43.3996 72.7 44.4996 75.9 42.2996C79.1 40.0996 80 34.5996 83.5 32.9996C87 31.3996 91.8 34.5996 95.5 33.5996C99.2 32.5996 101.7 27.3996 105.4 26.7996C109.1 26.1996 113.3 30.1996 117 29.9996C120.7 29.7996 124.3 25.0996 128 25.0996Z" fill="#0C1F41"/>
</g>
<defs>
<linearGradient id="paint0_linear" x1="128" y1="241.091" x2="128" y2="170.801" gradientUnits="userSpaceOnUse">
<stop offset="0.17" stop-color="#533E37"/>
<stop offset="0.81" stop-color="#412B24"/>
<stop offset="1" stop-color="#3B241E"/>
</linearGradient>
<linearGradient id="paint1_linear" x1="60.0324" y1="130.501" x2="87.0224" y2="130.501" gradientUnits="userSpaceOnUse">
<stop offset="0.17" stop-color="#533E37"/>
<stop offset="0.45" stop-color="#412B24"/>
<stop offset="0.54" stop-color="#3B241E"/>
</linearGradient>
<linearGradient id="paint2_linear" x1="169.766" y1="130.425" x2="196.756" y2="130.425" gradientUnits="userSpaceOnUse">
<stop offset="0.46" stop-color="#3B241E"/>
<stop offset="0.55" stop-color="#412B24"/>
<stop offset="0.83" stop-color="#533E37"/>
</linearGradient>
<clipPath id="clip0">
<path d="M0 0.900391H256V256.9H0V0.900391Z" fill="white"/>
</clipPath>
</defs>
</svg>
