<svg width="256" height="257" viewBox="0 0 256 257" fill="none" xmlns="http://www.w3.org/2000/svg">
<g clip-path="url(#clip0)">
<path d="M0 0.900391H256V256.9H0V0.900391Z" fill="white" fill-opacity="0.01"/>
<path d="M128 256.9C198.692 256.9 256 199.593 256 128.9C256 58.2079 198.692 0.900391 128 0.900391C57.3075 0.900391 0 58.2079 0 128.9C0 199.593 57.3075 256.9 128 256.9Z" fill="#FF5630"/>
<path d="M80.2 53.9009C74.9 55.6009 68.7 58.6009 66.6 64.3009C64.5 70.0009 71.3 77.0009 67.9 84.0009C65.8 88.4009 62.2 88.0009 59.3 94.1009C57.901 96.965 57.1823 100.113 57.2 103.301C56.9 111.701 61.4 114.901 63.2 121.201C66.7 133.801 53.6 140.701 55.5 152.101C56.4 157.601 60.7 164.501 75.5 171.301C74.0902 175.861 74.0902 180.741 75.5 185.301C77.3693 190.339 80.7151 194.695 85.1 197.801C96.1 205.201 104.5 196.401 128.3 197.601C143.9 198.401 148.1 202.601 159.6 199.301C164 198.101 172.3 195.501 176.3 187.701C178.325 183.363 178.886 178.485 177.9 173.801C180.3 173.801 187.7 173.601 193.5 168.201C199.3 162.801 201.8 151.901 199.7 143.601C197.6 135.301 192 130.001 193.5 121.201C194.5 115.301 197.2 110.901 196.4 102.401C196.136 98.9661 195.148 95.6262 193.5 92.6009C190.7 87.7009 188.2 88.1009 186.6 84.9009C183.4 78.1009 192.7 71.4009 190.1 64.3009C187.5 57.2009 179.8 57.8009 176.5 53.9009C164.4 52.3009 164.9 44.8009 152.7 44.8009C140.5 44.8009 140.5 54.0009 128.3 54.0009C116.1 54.0009 115.7 43.9009 103.6 44.8009C91.5 45.7009 92.3 52.3009 80.2 53.9009Z" fill="url(#paint0_linear)"/>
<path d="M170.7 208.1L131.6 206.1L92.5998 208.1C91.8548 208.166 91.1357 208.406 90.4998 208.8L55.0998 232.2L53.7998 233.2C76.0778 249.044 102.843 257.34 130.177 256.872C157.511 256.404 183.977 247.197 205.7 230.6L172.8 208.8C172.151 208.434 171.438 208.196 170.7 208.1Z" fill="#FFA687"/>
<path d="M168.3 209.8C167.3 211.2 152.4 230.6 127.8 228.9C107.3 227.6 95.6999 212.7 93.8999 210.4C98.7848 206.336 102.136 200.727 103.4 194.5C106.2 180.7 97.0999 170.3 95.9999 169.1L163.4 166.6C162.1 168.6 155 179.9 158.6 193.8C160.283 199.931 163.642 205.472 168.3 209.8Z" fill="url(#paint1_linear)"/>
<path d="M77.3 141.2C84.9215 141.2 91.1 135.021 91.1 127.4C91.1 119.778 84.9215 113.6 77.3 113.6C69.6785 113.6 63.5 119.778 63.5 127.4C63.5 135.021 69.6785 141.2 77.3 141.2Z" fill="url(#paint2_linear)"/>
<path d="M179.3 141.2C186.922 141.2 193.1 135.021 193.1 127.4C193.1 119.778 186.922 113.6 179.3 113.6C171.678 113.6 165.5 119.778 165.5 127.4C165.5 135.021 171.678 141.2 179.3 141.2Z" fill="url(#paint3_linear)"/>
<path d="M80.9 99.7008C80.9 106.101 80.7 112.101 80.5 117.901C80.3 123.701 80.1 122.801 79.8 128.301C79 143.801 79.8 147.801 76.5 151.501C73.2 155.201 71 155.701 69.7 154.801C68.4 153.901 70.4 150.201 71.1 144.701C73.1 131.201 68.6 117.701 68.2 116.501C67.8 115.301 66.1 111.101 66.3 107.101C66.4 104.701 66.7 99.4008 70.4 97.4008C74.1 95.4008 77.6 96.8008 80.9 99.7008Z" fill="#FFAB00"/>
<path d="M184.2 122.201C183 151.801 152.3 185.801 128.5 185.801C104.7 185.801 73.9999 151.801 72.7999 122.201C71.4999 89.5012 95.9999 52.7012 128.5 52.7012C161 52.7012 185.5 89.5012 184.2 122.201Z" fill="#FFE2D9"/>
<path d="M69.2001 136.7C70.0838 136.7 70.8001 135.984 70.8001 135.1C70.8001 134.216 70.0838 133.5 69.2001 133.5C68.3164 133.5 67.6001 134.216 67.6001 135.1C67.6001 135.984 68.3164 136.7 69.2001 136.7Z" fill="#F15538"/>
<path d="M188.1 136.7C188.984 136.7 189.7 135.984 189.7 135.1C189.7 134.216 188.984 133.5 188.1 133.5C187.216 133.5 186.5 134.216 186.5 135.1C186.5 135.984 187.216 136.7 188.1 136.7Z" fill="#F15538"/>
<path d="M151 158.1C143.714 160.708 136.039 162.06 128.3 162.1C120.563 162.047 112.889 160.695 105.6 158.1L112.2 155.9C115.566 154.683 119.258 154.718 122.6 156H122.9C126.421 157.315 130.304 157.28 133.8 155.9C137.184 154.684 140.873 154.614 144.3 155.7L151 158.1Z" fill="#FF7143"/>
<path d="M151 158.1C151 158.1 145.7 169.3 128.3 169.3C110.9 169.3 105.6 158.1 105.6 158.1C120.263 163.434 136.337 163.434 151 158.1Z" fill="#FF8A63"/>
<path d="M102.6 156C106.638 157.896 110.86 159.37 115.2 160.4C123.853 162.433 132.863 162.398 141.5 160.3C143.7 159.8 145.8 159.2 147.9 158.5C150 157.8 152.1 156.9 154.1 155.9C154.3 155.9 154.5 155.9 154.6 156.1C154.7 156.3 154.6 156.5 154.5 156.5C150.56 158.879 146.323 160.728 141.9 162C137.505 163.233 132.965 163.872 128.4 163.9C126.094 163.917 123.789 163.783 121.5 163.5C119.24 163.221 117.001 162.787 114.8 162.2C110.356 161.034 106.086 159.285 102.1 157C101.997 156.898 101.924 156.769 101.889 156.628C101.854 156.487 101.858 156.339 101.9 156.2C101.987 156.106 102.099 156.038 102.222 156.002C102.346 155.967 102.476 155.966 102.6 156Z" fill="#FF5630"/>
<path d="M102.1 115.501C103.812 115.501 105.2 114.113 105.2 112.401C105.2 110.689 103.812 109.301 102.1 109.301C100.388 109.301 99 110.689 99 112.401C99 114.113 100.388 115.501 102.1 115.501Z" fill="#253858"/>
<path d="M88.6001 112.101C88.994 112.275 89.4197 112.364 89.8501 112.364C90.2805 112.364 90.7062 112.275 91.1001 112.101L91.5001 111.801L91.7001 111.601L92.0001 111.301C92.3864 110.882 92.823 110.513 93.3001 110.201C95.1591 108.717 97.3588 107.72 99.7001 107.301C102.042 106.967 104.429 107.137 106.7 107.801C108.904 108.597 110.89 109.899 112.5 111.601C112.615 111.687 112.71 111.797 112.778 111.922C112.847 112.048 112.887 112.187 112.898 112.33C112.908 112.473 112.887 112.617 112.837 112.751C112.787 112.885 112.709 113.007 112.607 113.108C112.506 113.21 112.384 113.288 112.25 113.338C112.116 113.388 111.972 113.409 111.829 113.399C111.686 113.388 111.547 113.348 111.421 113.279C111.296 113.211 111.186 113.116 111.1 113.001C109.643 111.658 107.899 110.667 106 110.101C104.097 109.49 102.079 109.319 100.1 109.601C98.1048 109.901 96.215 110.691 94.6001 111.901L93.4001 112.801L93.1001 113.101L92.7001 113.401L91.7001 113.901C91.044 114.085 90.3455 114.047 89.7129 113.794C89.0802 113.541 88.5485 113.087 88.2001 112.501C88.1001 112.401 88.2001 112.201 88.3001 112.101H88.6001Z" fill="#253858"/>
<path d="M151.9 115.501C153.612 115.501 155 114.113 155 112.401C155 110.689 153.612 109.301 151.9 109.301C150.188 109.301 148.8 110.689 148.8 112.401C148.8 114.113 150.188 115.501 151.9 115.501Z" fill="#253858"/>
<path d="M165.8 113C165.452 113.586 164.92 114.04 164.287 114.293C163.655 114.546 162.956 114.584 162.3 114.4L161.3 113.9L160.9 113.6L160.6 113.3L159.4 112.4C157.8 111.182 155.899 110.422 153.9 110.2C151.964 109.835 149.967 109.972 148.1 110.6C146.188 111.205 144.419 112.191 142.9 113.5C142.814 113.615 142.705 113.71 142.579 113.778C142.453 113.847 142.314 113.888 142.171 113.898C142.028 113.908 141.885 113.887 141.75 113.837C141.616 113.787 141.494 113.709 141.393 113.607C141.292 113.506 141.213 113.384 141.163 113.25C141.113 113.116 141.092 112.972 141.103 112.829C141.113 112.686 141.154 112.547 141.222 112.422C141.291 112.296 141.385 112.186 141.5 112.1C143.109 110.372 145.144 109.096 147.4 108.4C149.619 107.654 151.985 107.448 154.3 107.8C156.653 108.18 158.863 109.182 160.7 110.7C161.177 111.012 161.614 111.381 162 111.8L162.3 112.1L162.5 112.3L163 112.6C163.394 112.774 163.82 112.863 164.25 112.863C164.681 112.863 165.106 112.774 165.5 112.6C165.6 112.6 165.8 112.6 165.8 112.8C165.8 113 165.9 112.9 165.8 113Z" fill="#253858"/>
<path d="M64.5002 64.5002C69.7002 47.7002 84.1002 36.7002 96.0002 34.0002C99.9188 32.98 104.01 32.8095 108 33.5002C113.888 34.7353 119.26 37.7351 123.4 42.1002C113.1 59.9002 102.8 70.1002 95.2002 76.2002C91.1002 79.4002 82.3002 85.8002 76.9002 97.6002C75.3005 101.045 74.1252 104.672 73.4002 108.4C72.2002 106.9 57.2002 87.7002 64.5002 64.5002Z" fill="#FFAB00"/>
<path d="M138.4 27.6997C145.741 27.6997 153.01 29.1456 159.792 31.9549C166.574 34.7641 172.736 38.8817 177.927 44.0725C183.118 49.2633 187.236 55.4256 190.045 62.2077C192.854 68.9898 194.3 76.2588 194.3 83.5997C194.233 88.4247 193.596 93.2248 192.4 97.8997C190.695 103.922 187.843 109.559 184 114.5C168.746 108.864 154.212 101.446 140.7 92.3997C123.033 80.6514 107.253 66.2876 93.8999 49.7997C97.5999 45.0997 106.7 34.7997 122 30.0997C127.316 28.4848 132.844 27.6758 138.4 27.6997Z" fill="#FFAB00"/>
<path d="M119.5 140.3L123 141.2L124.7 141.6L126.2 142C127.284 141.973 128.359 141.805 129.4 141.5C130.533 141.288 131.639 140.952 132.7 140.5H132.8C132.985 140.464 133.176 140.495 133.341 140.586C133.506 140.678 133.633 140.824 133.7 141C133.772 141.161 133.781 141.342 133.726 141.509C133.67 141.676 133.554 141.815 133.4 141.9C132.348 142.592 131.203 143.131 130 143.5C128.762 143.999 127.434 144.238 126.1 144.2L124.1 143.8L122.3 143.2C121.131 142.785 119.995 142.283 118.9 141.7C118.811 141.658 118.731 141.598 118.667 141.524C118.602 141.449 118.554 141.362 118.526 141.267C118.498 141.173 118.49 141.074 118.502 140.976C118.515 140.878 118.548 140.784 118.6 140.7C118.687 140.57 118.806 140.464 118.947 140.394C119.087 140.324 119.243 140.291 119.4 140.3H119.5Z" fill="#F0BEB4"/>
<path d="M121.5 116.699C122.069 118.054 122.505 119.46 122.8 120.899C123.071 122.352 123.238 123.823 123.3 125.299C123.3 126.738 123.199 128.175 123 129.599C122.806 131.053 122.505 132.49 122.1 133.899C122.011 134.104 121.85 134.269 121.646 134.361C121.443 134.454 121.213 134.467 121 134.399C120.816 134.335 120.658 134.212 120.55 134.05C120.442 133.887 120.389 133.694 120.4 133.499C120.6 132.099 120.8 130.799 120.9 129.399C121.033 128.037 121.067 126.667 121 125.299C121 123.96 120.899 122.623 120.7 121.299C120.5 119.899 120.2 118.599 120 117.199C119.968 117.011 120.005 116.818 120.103 116.654C120.201 116.49 120.355 116.367 120.536 116.307C120.717 116.246 120.914 116.253 121.091 116.325C121.267 116.397 121.413 116.53 121.5 116.699Z" fill="#F0BEB4"/>
<path d="M99.3 138.901C94.6917 138.901 90.1869 137.534 86.3552 134.974C82.5236 132.414 79.5371 128.775 77.7736 124.517C76.0101 120.26 75.5487 115.575 76.4477 111.055C77.3467 106.535 79.5659 102.384 82.8244 99.1252C86.083 95.8666 90.2347 93.6475 94.7544 92.7485C99.2742 91.8495 103.959 92.3109 108.217 94.0744C112.474 95.8379 116.113 98.8243 118.673 102.656C121.233 106.488 122.6 110.992 122.6 115.601C122.574 121.772 120.11 127.683 115.747 132.047C111.383 136.411 105.471 138.874 99.3 138.901ZM99.3 95.3008C95.2851 95.3008 91.3603 96.4914 88.0219 98.722C84.6836 100.953 82.0817 104.123 80.5453 107.832C79.0088 111.542 78.6068 115.623 79.3901 119.561C80.1734 123.499 82.1067 127.116 84.9457 129.955C87.7847 132.794 91.4019 134.727 95.3397 135.511C99.2775 136.294 103.359 135.892 107.068 134.356C110.778 132.819 113.948 130.217 116.179 126.879C118.409 123.541 119.6 119.616 119.6 115.601C119.6 110.217 117.461 105.054 113.654 101.247C109.847 97.4395 104.684 95.3008 99.3 95.3008Z" fill="#FF7143"/>
<path d="M153.5 138.901C148.892 138.901 144.387 137.534 140.555 134.974C136.724 132.414 133.737 128.775 131.974 124.517C130.21 120.26 129.749 115.575 130.648 111.055C131.547 106.535 133.766 102.384 137.025 99.1252C140.283 95.8666 144.435 93.6475 148.955 92.7485C153.474 91.8495 158.159 92.3109 162.417 94.0744C166.674 95.8379 170.313 98.8243 172.873 102.656C175.434 106.488 176.8 110.992 176.8 115.601C176.8 118.661 176.198 121.69 175.027 124.517C173.856 127.344 172.139 129.913 169.976 132.076C167.812 134.24 165.244 135.956 162.417 137.127C159.59 138.298 156.56 138.901 153.5 138.901ZM153.5 95.3008C149.485 95.3008 145.56 96.4914 142.222 98.722C138.884 100.953 136.282 104.123 134.745 107.832C133.209 111.542 132.807 115.623 133.59 119.561C134.374 123.499 136.307 127.116 139.146 129.955C141.985 132.794 145.602 134.727 149.54 135.511C153.478 136.294 157.559 135.892 161.269 134.356C164.978 132.819 168.148 130.217 170.379 126.879C172.61 123.541 173.8 119.616 173.8 115.601C173.8 110.217 171.661 105.054 167.854 101.247C164.047 97.4395 158.884 95.3008 153.5 95.3008Z" fill="#FF7143"/>
<path d="M77.5002 118H68.2002C67.8024 118 67.4208 117.842 67.1395 117.561C66.8582 117.279 66.7002 116.898 66.7002 116.5C66.7002 116.102 66.8582 115.721 67.1395 115.439C67.4208 115.158 67.8024 115 68.2002 115H77.5002C77.898 115 78.2796 115.158 78.5609 115.439C78.8422 115.721 79.0002 116.102 79.0002 116.5C79.0002 116.898 78.8422 117.279 78.5609 117.561C78.2796 117.842 77.898 118 77.5002 118Z" fill="#FF7143"/>
<path d="M186.3 117.1H175.3C174.902 117.1 174.52 116.942 174.239 116.66C173.958 116.379 173.8 115.997 173.8 115.6C173.8 115.202 173.958 114.82 174.239 114.539C174.52 114.258 174.902 114.1 175.3 114.1H186.3C186.698 114.1 187.079 114.258 187.36 114.539C187.642 114.82 187.8 115.202 187.8 115.6C187.8 115.997 187.642 116.379 187.36 116.66C187.079 116.942 186.698 117.1 186.3 117.1Z" fill="#FF7143"/>
<path d="M131.6 114.1H121.1V117.1H131.6V114.1Z" fill="#FF7143"/>
</g>
<defs>
<linearGradient id="paint0_linear" x1="127.91" y1="200.761" x2="127.91" y2="44.7709" gradientUnits="userSpaceOnUse">
<stop stop-color="#FF991F"/>
<stop offset="0.15" stop-color="#FFAB00"/>
</linearGradient>
<linearGradient id="paint1_linear" x1="131.12" y1="167.83" x2="131.12" y2="228.73" gradientUnits="userSpaceOnUse">
<stop stop-color="#EBBEAE"/>
<stop offset="0.64" stop-color="#FFE2D9"/>
</linearGradient>
<linearGradient id="paint2_linear" x1="63.57" y1="127.41" x2="91.11" y2="127.41" gradientUnits="userSpaceOnUse">
<stop stop-color="#FFE2D9"/>
<stop offset="1" stop-color="#EBBEAE"/>
</linearGradient>
<linearGradient id="paint3_linear" x1="165.5" y1="127.41" x2="193.04" y2="127.41" gradientUnits="userSpaceOnUse">
<stop stop-color="#EBBEAE"/>
<stop offset="1" stop-color="#FFE2D9"/>
</linearGradient>
<clipPath id="clip0">
<path d="M0 0.900391H256V256.9H0V0.900391Z" fill="white"/>
</clipPath>
</defs>
</svg>
