<svg width="256" height="257" viewBox="0 0 256 257" fill="none" xmlns="http://www.w3.org/2000/svg">
<g clip-path="url(#clip0)">
<path d="M0 0.900391H256V256.9H0V0.900391Z" fill="white" fill-opacity="0.01"/>
<path d="M128 256.9C198.692 256.9 256 199.593 256 128.9C256 58.2079 198.692 0.900391 128 0.900391C57.3075 0.900391 0 58.2079 0 128.9C0 199.593 57.3075 256.9 128 256.9Z" fill="#FFAB00"/>
<path d="M64.7998 104.3C66.1998 70.1996 94.0998 38.0996 131 38.0996C167.9 38.0996 195.7 70.1996 197.2 104.3C198.7 140.9 169.5 176.5 131 176.4C92.4998 176.3 63.1998 140.9 64.7998 104.3Z" fill="#253858"/>
<path d="M79.0708 142.796C86.4595 140.926 90.5601 131.945 88.2299 122.736C85.8996 113.527 78.0209 107.577 70.6323 109.447C63.2436 111.316 59.1429 120.297 61.4732 129.506C63.8034 138.716 71.6822 144.665 79.0708 142.796Z" fill="#F7D0C3"/>
<path d="M199.353 129.701C201.683 120.492 197.583 111.511 190.194 109.642C182.805 107.772 174.926 113.722 172.596 122.931C170.266 132.14 174.367 141.121 181.755 142.991C189.144 144.86 197.023 138.911 199.353 129.701Z" fill="#F7D0C3"/>
<path d="M211.5 225.9L185.5 211.4C184.725 210.81 183.775 210.493 182.8 210.5L132.4 207.9L82 210.5C81.0297 210.521 80.0883 210.834 79.3 211.4L48 228.8C71.3032 247.484 100.41 257.423 130.274 256.893C160.138 256.363 188.874 245.399 211.5 225.9Z" fill="#FF8B00"/>
<path d="M181 217.4C179.8 218.9 160 243.3 127.4 240.9C101 239 86.0999 221 83.8999 218.2C90.0331 212.375 94.1676 204.761 95.7122 196.445C97.2569 188.129 96.1325 179.538 92.4999 171.9L170.1 170.1C168.9 172.4 162.4 185.8 168.1 200.7C170.708 207.389 175.186 213.187 181 217.4Z" fill="url(#paint0_linear)"/>
<path d="M130.9 42C158.6 42.2 175.5 60.9 178.1 63.9C195.6 84.1 193.8 108.2 193.4 113.3C192.4 125.7 187.4 135.6 177.7 155.6C173.311 164.804 168.403 173.752 163 182.4C161.489 184.864 159.302 186.842 156.7 188.1C148.698 192.218 139.893 194.539 130.9 194.9C121.874 194.55 113.034 192.229 105 188.1C102.444 186.813 100.297 184.839 98.8002 182.4C93.3601 173.756 88.4187 164.808 84.0002 155.6C74.4002 135.6 69.3002 125.7 68.4002 113.3C68.0002 108.2 66.1002 84.1 83.7002 63.9C86.3002 60.9 103.2 42.2 130.9 42Z" fill="#FFE2D9"/>
<path d="M115 110.899L113.4 109.999L111.7 109.199C110.469 108.695 109.198 108.293 107.9 107.999C105.352 107.366 102.721 107.13 100.1 107.299C97.443 107.409 94.8304 108.019 92.4002 109.099C91.1844 109.599 90.0135 110.201 88.9002 110.899C87.763 111.595 86.7209 112.435 85.8002 113.399C85.6132 113.583 85.3619 113.685 85.1001 113.685C84.8384 113.685 84.5871 113.583 84.4002 113.399C84.3011 113.34 84.2161 113.259 84.1511 113.164C84.0861 113.068 84.0426 112.959 84.0236 112.845C84.0046 112.731 84.0105 112.615 84.041 112.503C84.0715 112.391 84.1258 112.288 84.2001 112.199C85.0085 110.881 86.0211 109.7 87.2001 108.699C88.3584 107.656 89.6335 106.75 91.0001 105.999C93.6685 104.459 96.6343 103.504 99.7001 103.199C102.783 102.825 105.909 103.063 108.9 103.899C110.431 104.238 111.91 104.776 113.3 105.499L115.4 106.599C116.062 107.098 116.696 107.632 117.3 108.199C117.477 108.342 117.621 108.521 117.723 108.724C117.825 108.927 117.883 109.15 117.893 109.377C117.902 109.604 117.863 109.83 117.778 110.041C117.693 110.252 117.564 110.442 117.4 110.599C117.144 110.924 116.771 111.137 116.361 111.193C115.95 111.249 115.534 111.144 115.2 110.899H115Z" fill="#253858"/>
<path d="M140.401 108.3C140.983 107.709 141.619 107.174 142.301 106.7L144.401 105.6C145.756 104.877 147.202 104.339 148.701 104C151.693 103.171 154.818 102.933 157.901 103.3C160.995 103.62 163.99 104.573 166.701 106.1C168.067 106.85 169.342 107.756 170.501 108.8C171.68 109.8 172.692 110.982 173.501 112.3C173.626 112.531 173.665 112.799 173.61 113.055C173.554 113.312 173.409 113.541 173.201 113.7C172.988 113.797 172.752 113.829 172.521 113.794C172.29 113.758 172.074 113.656 171.901 113.5C170.98 112.536 169.938 111.696 168.801 111C167.687 110.301 166.516 109.699 165.301 109.2C162.87 108.12 160.258 107.509 157.601 107.4C154.98 107.23 152.349 107.466 149.801 108.1C148.503 108.394 147.232 108.795 146.001 109.3L144.301 110.1L142.701 111H142.501C142.111 111.235 141.647 111.314 141.202 111.222C140.757 111.129 140.363 110.871 140.101 110.5C139.879 110.158 139.787 109.748 139.842 109.344C139.897 108.94 140.095 108.57 140.401 108.3Z" fill="#253858"/>
<path d="M90.7 116.9C93.7701 114.782 97.3738 113.569 101.1 113.4C104.891 113.267 108.631 114.315 111.8 116.4C112.012 116.533 112.163 116.744 112.219 116.988C112.275 117.232 112.233 117.488 112.1 117.7C111.967 117.912 111.756 118.063 111.512 118.119C111.268 118.175 111.012 118.133 110.8 118C109.327 117.131 107.747 116.459 106.1 116C104.464 115.597 102.785 115.396 101.1 115.4C99.4126 115.346 97.7267 115.548 96.1 116C94.4209 116.458 92.8076 117.13 91.3 118C91.1522 118.045 90.9936 118.04 90.8489 117.986C90.7042 117.932 90.5815 117.831 90.5 117.7C90.4248 117.566 90.4036 117.409 90.4408 117.26C90.478 117.111 90.5707 116.982 90.7 116.9Z" fill="#172B4D"/>
<path d="M165.9 118C164.418 117.148 162.841 116.477 161.2 116C159.538 115.555 157.82 115.352 156.1 115.4C152.685 115.329 149.321 116.231 146.4 118C146.184 118.082 145.947 118.087 145.728 118.014C145.51 117.941 145.323 117.795 145.2 117.6C145.087 117.399 145.055 117.163 145.111 116.94C145.167 116.717 145.306 116.524 145.5 116.4C148.669 114.315 152.408 113.267 156.2 113.4C159.923 113.585 163.522 114.796 166.6 116.9C166.67 116.949 166.73 117.012 166.774 117.086C166.818 117.16 166.845 117.242 166.855 117.327C166.864 117.412 166.855 117.499 166.829 117.58C166.802 117.662 166.758 117.737 166.7 117.8C166.605 117.914 166.476 117.994 166.332 118.03C166.188 118.066 166.037 118.056 165.9 118Z" fill="#172B4D"/>
<path d="M155.1 120.699C156.868 120.699 158.3 119.266 158.3 117.499C158.3 115.732 156.868 114.299 155.1 114.299C153.333 114.299 151.9 115.732 151.9 117.499C151.9 119.266 153.333 120.699 155.1 120.699Z" fill="#172B4D"/>
<path d="M101.801 120.699C103.568 120.699 105.001 119.266 105.001 117.499C105.001 115.732 103.568 114.299 101.801 114.299C100.033 114.299 98.6006 115.732 98.6006 117.499C98.6006 119.266 100.033 120.699 101.801 120.699Z" fill="#172B4D"/>
<path d="M183.3 98.2992C184.956 104.573 185.895 111.014 186.1 117.499C185.61 119.414 185.744 121.436 186.481 123.27C187.218 125.104 188.521 126.655 190.2 127.699C190.2 127.699 191.2 125.399 192.3 122.399C193.4 119.399 193.6 114.199 195.2 113.699C195.472 113.634 195.756 113.627 196.032 113.679C196.307 113.731 196.569 113.84 196.8 113.999C197.339 109.922 197.44 105.798 197.1 101.699C196.6 95.9992 195.1 77.8992 184.6 73.7992C183.9 73.4992 179.4 71.7992 177.4 73.7992C175.4 75.7992 179.8 85.0992 183.3 98.2992Z" fill="url(#paint1_linear)"/>
<path d="M78.5999 97.1C76.9436 103.374 76.0043 109.815 75.7999 116.3C76.2893 118.215 76.1556 120.237 75.4184 122.071C74.6811 123.905 73.3787 125.456 71.6999 126.5C71.6999 126.5 70.6999 124.2 69.5999 121.2C68.4999 118.2 68.2999 113 66.6999 112.5C66.4294 112.412 66.1412 112.394 65.8617 112.446C65.5822 112.498 65.3203 112.62 65.0999 112.8C64.5618 108.722 64.4613 104.599 64.7999 100.5C65.2999 94.8 66.7999 76.7 77.2999 72.6C77.9999 72.3 82.4999 70.6 84.4999 72.6C86.4999 74.6 82.0999 83.9 78.5999 97.1Z" fill="url(#paint2_linear)"/>
<path d="M146.9 162.599C141.6 161.799 138.2 160.799 134.2 161.399H133.4C131.229 161.9 128.972 161.9 126.8 161.399H126C122.2 160.799 118.8 161.599 113.5 162.499L108.4 163.099C108.8 163.499 116.5 169.999 130.1 169.899C143.7 169.799 151.4 163.499 151.8 163.099C149.7 162.999 148 162.699 146.9 162.599Z" fill="#F0BEB4"/>
<path d="M105.8 161.501C109.696 162.663 113.674 163.532 117.7 164.101C121.679 164.616 125.687 164.884 129.7 164.901C133.715 164.854 137.722 164.553 141.7 164.001L147.7 162.901C149.7 162.501 151.6 162.001 153.6 161.401C153.9 161.301 154.1 161.501 154.2 161.801C154.233 161.858 154.252 161.923 154.254 161.99C154.257 162.057 154.242 162.123 154.212 162.182C154.183 162.242 154.138 162.293 154.084 162.331C154.029 162.37 153.966 162.394 153.9 162.401C150.045 163.895 146.062 165.033 142 165.801C137.936 166.485 133.821 166.82 129.7 166.801L123.5 166.601C121.5 166.401 119.4 166.201 117.4 165.801C113.343 165.101 109.36 164.029 105.5 162.601C105.376 162.537 105.279 162.432 105.224 162.305C105.17 162.177 105.161 162.034 105.2 161.901C105.243 161.778 105.325 161.673 105.433 161.601C105.541 161.529 105.67 161.494 105.8 161.501Z" fill="#CB8C84"/>
<path d="M118.3 142.501L123.9 144.501L126.7 145.801C127.036 146.005 127.41 146.141 127.8 146.201H128.9C129.762 145.988 130.599 145.686 131.4 145.301L134.2 144.201C136.182 143.594 138.23 143.224 140.3 143.101C140.504 143.123 140.695 143.214 140.841 143.36C140.987 143.505 141.078 143.696 141.1 143.901C141.1 144.087 141.026 144.265 140.895 144.396C140.763 144.527 140.585 144.601 140.4 144.601C138.528 144.948 136.688 145.45 134.9 146.101C133.997 146.418 133.126 146.82 132.3 147.301C131.338 147.845 130.289 148.218 129.2 148.401H127.3C126.743 148.224 126.207 147.989 125.7 147.701L123 146.401L117.7 143.801C117.607 143.749 117.526 143.679 117.46 143.596C117.395 143.512 117.347 143.416 117.319 143.314C117.291 143.212 117.284 143.105 117.298 143C117.312 142.894 117.346 142.793 117.4 142.701C117.511 142.579 117.657 142.494 117.818 142.459C117.979 142.423 118.147 142.438 118.3 142.501Z" fill="#F0BEB4"/>
<path d="M121.5 112.901C122.601 114.399 123.476 116.05 124.1 117.801C124.644 119.589 124.979 121.435 125.1 123.301C125.212 127.012 124.386 130.692 122.7 134.001C122.654 134.099 122.589 134.188 122.509 134.261C122.429 134.334 122.335 134.391 122.233 134.429C122.131 134.466 122.022 134.482 121.914 134.478C121.805 134.473 121.699 134.447 121.6 134.401C121.502 134.355 121.413 134.29 121.34 134.21C121.266 134.13 121.209 134.036 121.172 133.934C121.135 133.831 121.118 133.723 121.123 133.614C121.128 133.506 121.154 133.399 121.2 133.301C121.739 131.697 122.173 130.06 122.5 128.401C122.796 126.752 122.897 125.073 122.8 123.401C122.786 121.703 122.516 120.018 122 118.401C121.558 116.795 120.92 115.25 120.1 113.801C120.03 113.706 119.981 113.596 119.958 113.48C119.935 113.364 119.938 113.245 119.966 113.13C119.995 113.015 120.049 112.908 120.124 112.817C120.199 112.725 120.293 112.651 120.4 112.601C120.492 112.547 120.593 112.513 120.698 112.499C120.804 112.485 120.911 112.492 121.013 112.52C121.115 112.548 121.211 112.596 121.295 112.662C121.378 112.727 121.448 112.808 121.5 112.901Z" fill="#F0BEB4"/>
<path d="M67.8999 84.2011C69.5364 75.9424 72.7262 68.0696 77.2999 61.0011C80.6553 55.7298 84.7657 50.9793 89.4999 46.9011C105.2 33.8011 124.6 32.4011 130.9 31.9011C147 30.8011 152.5 35.2011 163.6 30.0011C166.9 28.5011 170.9 26.0011 173.5 27.7011C176.1 29.4011 175.7 35.8011 174.5 41.2011C179.8 37.6011 183.5 38.1011 185 38.5011C193.4 40.4011 196.5 53.7011 196.5 61.6011C196.51 67.8479 194.704 73.963 191.3 79.2011L180 88.1011C177.98 85.6976 175.498 83.7251 172.7 82.3011C170.2 81.0011 163.6 78.2011 148.1 81.4011C135.4 84.0011 136.7 86.1011 130.1 87.0011C123.5 87.9011 105.7 74.5011 94.3999 76.2011C91.0999 76.7011 86.3999 78.8011 81.5999 86.4011L67.8999 84.2011Z" fill="#253858"/>
<path d="M190.8 79.501C191.322 78.9105 191.79 78.2746 192.2 77.601C195.035 72.747 196.52 67.2225 196.5 61.6011C196.5 60.5011 196.5 59.4011 196.4 58.1011C193 57.5011 186.6 67.9011 170.4 73.3011C163.3 75.6011 160.7 74.801 151.5 78.101C146.525 79.8989 141.709 82.1065 137.1 84.7011C140.643 83.227 144.33 82.1212 148.1 81.4011C163.6 78.201 170.2 81.0011 172.7 82.3011C175.497 83.7251 177.98 85.6976 180 88.101L190.8 79.501Z" fill="url(#paint3_linear)"/>
<path d="M101.6 141.301C96.9915 141.301 92.4867 139.935 88.655 137.374C84.8234 134.814 81.8369 131.175 80.0734 126.918C78.3099 122.66 77.8485 117.975 78.7475 113.456C79.6466 108.936 81.8657 104.784 85.1242 101.526C88.3828 98.267 92.5345 96.0479 97.0542 95.1489C101.574 94.2498 106.259 94.7113 110.516 96.4748C114.774 98.2383 118.413 101.225 120.973 105.056C123.533 108.888 124.9 113.393 124.9 118.001C124.9 124.181 122.445 130.107 118.075 134.477C113.706 138.846 107.779 141.301 101.6 141.301ZM101.6 97.7012C97.5849 97.7012 93.6601 98.8918 90.3217 101.122C86.9834 103.353 84.3815 106.523 82.8451 110.233C81.3086 113.942 80.9066 118.024 81.6899 121.962C82.4732 125.899 84.4065 129.516 87.2455 132.355C90.0846 135.194 93.7017 137.128 97.6395 137.911C101.577 138.694 105.659 138.292 109.368 136.756C113.078 135.219 116.248 132.618 118.479 129.279C120.709 125.941 121.9 122.016 121.9 118.001C121.9 112.617 119.761 107.454 115.954 103.647C112.147 99.8399 106.984 97.7012 101.6 97.7012Z" fill="#FF8B00"/>
<path d="M155.7 141.301C151.092 141.301 146.587 139.935 142.756 137.374C138.924 134.814 135.938 131.175 134.174 126.918C132.41 122.66 131.949 117.975 132.848 113.456C133.747 108.936 135.966 104.784 139.225 101.526C142.483 98.267 146.635 96.0479 151.155 95.1489C155.675 94.2498 160.359 94.7113 164.617 96.4748C168.874 98.2383 172.513 101.225 175.074 105.056C177.634 108.888 179 113.393 179 118.001C178.974 124.173 176.511 130.084 172.147 134.448C167.783 138.812 161.872 141.275 155.7 141.301ZM155.7 97.7012C151.685 97.7012 147.761 98.8918 144.422 101.122C141.084 103.353 138.482 106.523 136.946 110.233C135.409 113.942 135.007 118.024 135.79 121.962C136.574 125.899 138.507 129.516 141.346 132.355C144.185 135.194 147.802 137.128 151.74 137.911C155.678 138.694 159.76 138.292 163.469 136.756C167.178 135.219 170.349 132.618 172.579 129.279C174.81 125.941 176 122.016 176 118.001C176 115.335 175.475 112.696 174.455 110.233C173.435 107.77 171.94 105.532 170.055 103.647C168.17 101.762 165.932 100.267 163.469 99.2464C161.006 98.2263 158.366 97.7012 155.7 97.7012Z" fill="#FF8B00"/>
<path d="M79.8 120.4H70.5C70.1022 120.4 69.7206 120.242 69.4393 119.961C69.158 119.68 69 119.298 69 118.9C69 118.503 69.158 118.121 69.4393 117.84C69.7206 117.558 70.1022 117.4 70.5 117.4H79.8C80.1978 117.4 80.5794 117.558 80.8607 117.84C81.142 118.121 81.3 118.503 81.3 118.9C81.3 119.298 81.142 119.68 80.8607 119.961C80.5794 120.242 80.1978 120.4 79.8 120.4Z" fill="#FF8B00"/>
<path d="M188.6 119.502H177.5C177.102 119.502 176.721 119.344 176.439 119.063C176.158 118.781 176 118.4 176 118.002C176 117.604 176.158 117.223 176.439 116.941C176.721 116.66 177.102 116.502 177.5 116.502H188.6C188.998 116.502 189.379 116.66 189.661 116.941C189.942 117.223 190.1 117.604 190.1 118.002C190.1 118.4 189.942 118.781 189.661 119.063C189.379 119.344 188.998 119.502 188.6 119.502Z" fill="#FF8B00"/>
<path d="M133.9 116.502H123.4V119.502H133.9V116.502Z" fill="#FF8B00"/>
</g>
<defs>
<linearGradient id="paint0_linear" x1="132.43" y1="241.09" x2="132.43" y2="170.11" gradientUnits="userSpaceOnUse">
<stop stop-color="#FFE2D9"/>
<stop offset="1" stop-color="#EBBEAE"/>
</linearGradient>
<linearGradient id="paint1_linear" x1="186.89" y1="127.739" x2="186.89" y2="72.8692" gradientUnits="userSpaceOnUse">
<stop offset="0.39" stop-color="#97A0AF"/>
<stop offset="0.43" stop-color="#8A94A5"/>
<stop offset="0.54" stop-color="#667389"/>
<stop offset="0.66" stop-color="#495974"/>
<stop offset="0.77" stop-color="#354764"/>
<stop offset="0.89" stop-color="#293C5B"/>
<stop offset="1" stop-color="#253858"/>
</linearGradient>
<linearGradient id="paint2_linear" x1="75.0099" y1="126.54" x2="75.0099" y2="71.66" gradientUnits="userSpaceOnUse">
<stop offset="0.18" stop-color="#97A0AF"/>
<stop offset="0.22" stop-color="#8A94A5"/>
<stop offset="0.32" stop-color="#667389"/>
<stop offset="0.42" stop-color="#495974"/>
<stop offset="0.52" stop-color="#354764"/>
<stop offset="0.61" stop-color="#293C5B"/>
<stop offset="0.71" stop-color="#253858"/>
</linearGradient>
<linearGradient id="paint3_linear" x1="183.05" y1="87.741" x2="158.08" y2="62.7711" gradientUnits="userSpaceOnUse">
<stop stop-color="#091E42" stop-opacity="0.1"/>
<stop offset="1" stop-color="#091E42"/>
</linearGradient>
<clipPath id="clip0">
<path d="M0 0.900391H256V256.9H0V0.900391Z" fill="white"/>
</clipPath>
</defs>
</svg>
