<svg width="256" height="257" viewBox="0 0 256 257" fill="none" xmlns="http://www.w3.org/2000/svg">
<g clip-path="url(#clip0)">
<path d="M0 0.900391H256V256.9H0V0.900391Z" fill="white" fill-opacity="0.01"/>
<path d="M128 256.9C198.692 256.9 256 199.593 256 128.9C256 58.2079 198.692 0.900391 128 0.900391C57.3075 0.900391 0 58.2079 0 128.9C0 199.593 57.3075 256.9 128 256.9Z" fill="#6554C0"/>
<path d="M217.1 221.1L189.2 202.2C182.213 197.515 174.099 194.787 165.7 194.3L131.6 192.5L97.5004 194.3C89.1299 194.771 81.0435 197.501 74.1004 202.2L42.4004 223.7C66.4207 245.502 97.8279 257.362 130.264 256.879C162.699 256.397 193.74 243.607 217.1 221.1Z" fill="#998DD9"/>
<path d="M194.5 214.3C189.9 193.2 191 177 192.9 166.1C195.2 152.7 201.3 132.4 195.6 122.7C192.912 118.298 191.016 113.458 190 108.4C189.714 106.712 189.514 105.009 189.4 103.3L67.8004 97.4004C64.5385 102.508 62.2342 108.167 61.0004 114.1C59.4095 121.726 59.4777 129.604 61.2004 137.2C67.6004 168.1 50.2004 191.6 61.7004 223.8C64.3395 231.31 68.1904 238.336 73.1004 244.6C91.4338 253.257 111.555 257.452 131.82 256.844C152.086 256.236 171.919 250.841 189.7 241.1C193.427 232.681 195.073 223.489 194.5 214.3Z" fill="#403294"/>
<path d="M171.7 216C170.6 217.5 154.4 237.7 127.5 236C105.2 234.6 92.4 219.1 90.5 216.7C95.794 212.504 99.4694 206.602 100.9 200C103.9 185.7 94 174.9 92.8 173.7L166.3 171C164.9 173 157.1 184.8 161.1 199.3C162.883 205.802 166.576 211.619 171.7 216Z" fill="url(#paint0_linear)"/>
<path d="M67.8008 102.002L69.0008 116.202C66.8008 123.002 51.6008 172.302 80.2008 210.302C84.5008 216.102 105.501 243.902 134.401 241.302C160.101 239.002 175.401 214.402 177.801 210.402C183.101 201.602 185.401 191.702 190.101 172.002C192.801 160.402 194.501 153.602 195.001 144.402C195.833 129.715 193.795 115.008 189.001 101.102L67.8008 102.002Z" fill="url(#paint1_linear)"/>
<path d="M80.0004 95.2C80.3004 98.8 80.6004 102.5 81.0004 106.2C79.2942 119.937 79.5974 133.85 81.9004 147.5C83.9004 159.4 92.2004 172.1 98.2004 181.5C100.1 184.4 108.5 204.1 131.6 202.6C150.7 201.3 157.8 187.5 161.1 182.4C168.202 172.531 172.863 161.119 174.7 149.1C177.527 130.986 177.257 112.523 173.9 94.5L80.0004 95.2Z" fill="#B08874"/>
<path d="M82.3001 96.1007C91.4001 85.5007 104.5 81.3007 108.2 80.1007C109.9 79.6007 138.7 70.8007 158 85.6007C166.2 91.9007 167.1 98.3007 182.9 111.801C186.9 115.201 190.5 117.901 192.9 119.601C195.576 111.555 196.396 103.008 195.3 94.6007C191.5 67.3007 166.3 46.2007 140.7 40.7007C127.431 37.8556 113.617 39.0039 101 44.0007C75.2001 54.8007 66.0001 78.5007 64.7001 82.1007C55.9001 106.101 64.2001 126.801 66.2001 131.301C66.9299 127.355 67.8645 123.45 69.0001 119.601C70.7001 113.701 71.8001 110.201 74.0001 106.301C74.7001 105.101 77.5001 101.701 82.3001 96.1007Z" fill="#403294"/>
<path d="M186.5 124.7C186.4 125.5 186.2 126.2 186.1 127C183.5 142.4 165.7 190.001 127.3 190.001C97.5004 190.001 72.4004 147.2 70.3004 124.7C69.4004 116.1 67.7004 98.3005 78.7004 81.2005C88.5004 65.9005 107.8 52.0005 130.7 53.6005C153.6 55.2005 169.2 73.4005 172.8 78.0005C182.8 90.8005 188.5 108.4 186.5 124.7Z" fill="#E4B69D"/>
<path d="M173.3 111.501C170.655 109.757 167.88 108.219 165 106.901C162.094 105.79 159.011 105.214 155.9 105.201C152.778 105.198 149.686 105.81 146.8 107.001C143.904 108.199 141.259 109.929 139 112.101C138.776 112.257 138.505 112.333 138.232 112.315C137.959 112.297 137.701 112.186 137.5 112.001C137.316 111.814 137.214 111.563 137.214 111.301C137.214 111.039 137.316 110.788 137.5 110.601C139.859 108.097 142.722 106.12 145.9 104.801C149.07 103.486 152.468 102.806 155.9 102.801C159.337 102.85 162.733 103.564 165.9 104.901C169.08 106.108 171.806 108.275 173.7 111.101C173.8 111.301 173.8 111.401 173.6 111.501C173.581 111.522 173.558 111.539 173.532 111.551C173.506 111.562 173.478 111.568 173.45 111.568C173.421 111.568 173.393 111.562 173.367 111.551C173.342 111.539 173.318 111.522 173.3 111.501Z" fill="#253858"/>
<path d="M79.8997 111.101C81.8346 108.272 84.5927 106.108 87.7997 104.901C90.9362 103.534 94.3182 102.82 97.7394 102.803C101.161 102.786 104.55 103.466 107.7 104.801C110.891 106.095 113.759 108.075 116.1 110.601C116.29 110.804 116.395 111.072 116.395 111.351C116.395 111.629 116.29 111.897 116.1 112.101C115.896 112.247 115.651 112.326 115.4 112.326C115.149 112.326 114.904 112.247 114.7 112.101C112.405 109.926 109.726 108.196 106.8 107.001C103.919 105.791 100.824 105.179 97.6997 105.201C94.5887 105.214 91.5058 105.79 88.5997 106.901C85.7194 108.219 82.9446 109.757 80.2997 111.501C80.2865 111.554 80.2527 111.599 80.2058 111.627C80.1589 111.656 80.1028 111.664 80.0497 111.651C79.9967 111.637 79.9511 111.604 79.923 111.557C79.8948 111.51 79.8865 111.454 79.8997 111.401C79.8785 111.382 79.8614 111.359 79.8497 111.333C79.8381 111.307 79.832 111.279 79.832 111.251C79.832 111.222 79.8381 111.194 79.8497 111.168C79.8614 111.142 79.8785 111.119 79.8997 111.101Z" fill="#253858"/>
<path d="M110.1 84.2001C131.4 78.0001 149.6 86.3001 155.2 89.1001C162.673 93.0882 169.404 98.3312 175.1 104.6C179.585 109.262 183.511 114.43 186.8 120C189.227 112.694 189.979 104.936 189 97.3001C185.6 72.5001 162.8 53.4001 139.5 48.4001C127.493 45.8135 114.986 46.8935 103.6 51.5001C100.4 52.8001 79.2 62.0001 70.7 86.0001C66.9406 96.8088 66.3508 108.467 69 119.6C72.1154 113.755 75.9815 108.343 80.5 103.5C85.3 98.4001 94.7 88.6001 110.1 84.2001Z" fill="#5243AA"/>
<path d="M100.9 121.8C102.668 121.8 104.1 120.368 104.1 118.6C104.1 116.833 102.668 115.4 100.9 115.4C99.1329 115.4 97.7002 116.833 97.7002 118.6C97.7002 120.368 99.1329 121.8 100.9 121.8Z" fill="#253858"/>
<path d="M86.7002 118.302C87.111 118.478 87.5533 118.568 88.0002 118.568C88.4472 118.568 88.8894 118.478 89.3002 118.302L89.8002 118.002L90.0002 117.802L90.3002 117.502C90.7417 117.073 91.2092 116.672 91.7002 116.302C93.6153 114.766 95.8843 113.735 98.3002 113.302C100.746 112.9 103.253 113.106 105.6 113.902C107.949 114.627 110.057 115.974 111.7 117.802C111.883 117.989 111.986 118.24 111.986 118.502C111.986 118.763 111.883 119.015 111.7 119.202C111.515 119.379 111.274 119.486 111.018 119.504C110.763 119.522 110.509 119.451 110.3 119.302H110.2C108.675 117.925 106.866 116.901 104.9 116.302C102.904 115.636 100.777 115.464 98.7002 115.802C96.6421 116.157 94.6925 116.978 93.0002 118.202L91.8002 119.102L91.5002 119.402L91.0002 119.802L90.0002 120.202C89.317 120.436 88.5734 120.424 87.8979 120.169C87.2223 119.913 86.6573 119.429 86.3002 118.802C86.2899 118.723 86.3035 118.642 86.3391 118.571C86.3747 118.5 86.4308 118.441 86.5002 118.402L86.7002 118.302Z" fill="#253858"/>
<path d="M152.7 121.8C154.467 121.8 155.9 120.368 155.9 118.6C155.9 116.833 154.467 115.4 152.7 115.4C150.933 115.4 149.5 116.833 149.5 118.6C149.5 120.368 150.933 121.8 152.7 121.8Z" fill="#253858"/>
<path d="M167.3 119.2C166.932 119.82 166.371 120.302 165.702 120.573C165.034 120.844 164.296 120.888 163.6 120.7L162.6 120.2L162.2 119.8L161.8 119.6C161.447 119.214 161.043 118.878 160.6 118.6C158.911 117.389 156.956 116.6 154.9 116.3C152.865 115.931 150.77 116.068 148.8 116.7C146.798 117.333 144.956 118.39 143.4 119.8C143.184 119.977 142.909 120.065 142.63 120.046C142.352 120.028 142.091 119.904 141.9 119.7C141.737 119.503 141.648 119.255 141.648 119C141.648 118.745 141.737 118.497 141.9 118.3C143.586 116.502 145.696 115.157 148.038 114.388C150.379 113.619 152.877 113.451 155.3 113.9C157.708 114.3 159.977 115.297 161.9 116.8L163.3 118L163.6 118.3C163.7 118.4 163.7 118.5 163.8 118.5L164.3 118.8C164.698 119.019 165.145 119.134 165.6 119.134C166.054 119.134 166.502 119.019 166.9 118.8C167.1 118.8 167.2 118.8 167.3 119V119.2Z" fill="#253858"/>
<path d="M121.7 118.901C122.297 120.245 122.733 121.654 123 123.101C123.2 124.501 123.4 126.001 123.5 127.401C123.502 128.872 123.402 130.343 123.2 131.801C123.009 133.263 122.674 134.704 122.2 136.101C122.131 136.298 121.988 136.461 121.801 136.554C121.615 136.648 121.398 136.664 121.2 136.601C121.015 136.536 120.857 136.413 120.749 136.251C120.641 136.088 120.588 135.895 120.6 135.701C120.8 134.301 121 132.901 121.1 131.601C121.233 130.238 121.266 128.868 121.2 127.501C121.199 126.128 121.099 124.758 120.9 123.401C120.7 122.101 120.4 120.701 120.1 119.401C120.07 119.288 120.065 119.171 120.086 119.056C120.106 118.942 120.151 118.834 120.218 118.738C120.284 118.643 120.371 118.564 120.471 118.505C120.572 118.447 120.684 118.411 120.8 118.401C120.891 118.37 120.989 118.359 121.085 118.368C121.181 118.377 121.275 118.406 121.359 118.453C121.444 118.5 121.518 118.564 121.576 118.641C121.635 118.718 121.677 118.807 121.7 118.901Z" fill="#CEA28B"/>
<path d="M118.3 145.601C119.472 144.806 120.901 144.484 122.3 144.701L123.5 145.001L124.2 145.301H125.4L126.9 144.701L128.9 144.201C130.259 144.132 131.61 144.443 132.8 145.101C132.89 145.143 132.969 145.203 133.033 145.277C133.098 145.352 133.146 145.439 133.174 145.534C133.202 145.628 133.211 145.727 133.198 145.825C133.185 145.923 133.152 146.017 133.1 146.101C133.035 146.25 132.919 146.372 132.773 146.445C132.626 146.518 132.459 146.538 132.3 146.501C131.264 146.188 130.168 146.119 129.1 146.301C128.612 146.34 128.136 146.476 127.7 146.701C127.111 147.063 126.471 147.332 125.8 147.501C125.029 147.635 124.237 147.566 123.5 147.301L122.5 146.901L121.9 146.701C120.936 146.473 119.925 146.542 119 146.901H118.9C118.702 146.932 118.5 146.887 118.334 146.776C118.167 146.665 118.048 146.495 118 146.301C117.977 146.168 117.994 146.031 118.047 145.906C118.1 145.782 118.188 145.676 118.3 145.601Z" fill="#CEA28B"/>
<path d="M145.2 159.4C139.9 158.6 136.5 157.6 132.5 158.2H131.7C129.518 158.6 127.282 158.6 125.1 158.2H124.3C120.5 157.6 117.1 158.4 111.8 159.2C110.6 159.4 108.9 159.7 106.7 159.9C107.1 160.3 114.8 166.8 128.4 166.7C142 166.6 149.7 160.3 150.1 159.9L145.2 159.4Z" fill="#FF7143"/>
<path d="M104.1 158.3C107.999 159.43 111.977 160.266 116 160.8C119.97 161.415 123.985 161.683 128 161.6C132.017 161.603 136.029 161.302 140 160.7C142 160.5 144 160.1 146 159.7L151.9 158.2C152.2 158.1 152.5 158.3 152.5 158.5C152.533 158.565 152.55 158.636 152.552 158.709C152.554 158.781 152.541 158.853 152.512 158.92C152.484 158.986 152.441 159.046 152.387 159.094C152.333 159.143 152.27 159.179 152.2 159.2C148.346 160.695 144.363 161.833 140.3 162.6C136.237 163.285 132.121 163.619 128 163.6L121.8 163.4C119.8 163.2 117.7 163 115.7 162.6C111.631 161.913 107.643 160.807 103.8 159.3C103.731 159.279 103.668 159.243 103.614 159.194C103.56 159.146 103.517 159.086 103.489 159.02C103.46 158.953 103.446 158.881 103.448 158.809C103.45 158.736 103.468 158.665 103.5 158.6C103.6 158.4 103.9 158.2 104.1 158.3Z" fill="#7A4F2C"/>
<path d="M67.9762 115.21L61.3697 116.82C59.6527 117.239 58.5995 118.968 59.0174 120.682C59.4354 122.397 61.1661 123.447 62.8831 123.028L69.4896 121.418C71.2067 120.999 72.2598 119.27 71.8419 117.556C71.424 115.842 69.6933 114.791 67.9762 115.21Z" fill="#EAE6FF"/>
</g>
<defs>
<linearGradient id="paint0_linear" x1="131.1" y1="172.28" x2="131.1" y2="235.79" gradientUnits="userSpaceOnUse">
<stop stop-color="#EBBEAE"/>
<stop offset="0.64" stop-color="#FFE2D9"/>
</linearGradient>
<linearGradient id="paint1_linear" x1="129.101" y1="241.502" x2="129.101" y2="101.122" gradientUnits="userSpaceOnUse">
<stop stop-color="#8676D8"/>
<stop offset="0.15" stop-color="#6758BA"/>
<stop offset="0.29" stop-color="#5243A5"/>
<stop offset="0.43" stop-color="#443698"/>
<stop offset="0.55" stop-color="#403294"/>
</linearGradient>
<clipPath id="clip0">
<path d="M0 0.900391H256V256.9H0V0.900391Z" fill="white"/>
</clipPath>
</defs>
</svg>
