<svg width="256" height="257" viewBox="0 0 256 257" fill="none" xmlns="http://www.w3.org/2000/svg">
<g clip-path="url(#clip0)">
<path d="M0 0.900391H256V256.9H0V0.900391Z" fill="white" fill-opacity="0.01"/>
<path d="M128 256.9C198.692 256.9 256 199.593 256 128.9C256 58.2079 198.692 0.900391 128 0.900391C57.3075 0.900391 0 58.2079 0 128.9C0 199.593 57.3075 256.9 128 256.9Z" fill="#FF5630"/>
<path d="M216.9 221L189.2 202.3C182.2 197.6 174.1 194.9 165.7 194.4L131.6 192.5L97.4996 194.4C89.0996 194.9 80.9996 197.6 73.9996 202.3L42.0996 223.9C64.7996 244.4 94.9996 256.9 128 256.9C162.5 256.9 193.9 243.2 216.9 221Z" fill="#BF2600"/>
<path d="M194.5 214.3C189.9 193.2 191 177 192.9 166.1C195.2 152.6 201.4 132.4 195.7 122.7C195 121.4 191.6 116.2 190.1 108.4C189.7 106.2 189.5 104.4 189.5 103.3C149 101.3 108.4 99.4004 67.9002 97.4004C65.8002 100.8 62.7002 106.6 61.1002 114.2C58.7002 125.4 60.8002 134.5 61.4002 137.3C67.7002 168.2 50.4002 191.6 61.9002 223.9C64.8002 231.9 68.8002 238.9 73.4002 244.8C90.0002 252.6 108.5 257 128 257C150.5 257 171.6 251.2 189.9 241C193.3 232.8 195.1 223.7 194.5 214.3Z" fill="#FF8F73"/>
<path d="M171.7 216C170.6 217.5 154.4 237.6 127.5 236C105.1 234.6 92.4 219.1 90.5 216.7C92.7 214.9 99 209.3 100.9 200C103.9 185.6 94 174.9 92.8 173.6C117.3 172.7 141.8 171.8 166.3 171C164.9 173 157.1 184.8 161 199.3C163.5 208.2 169 213.7 171.7 216Z" fill="url(#paint0_linear)"/>
<path d="M67.7999 102C68.1999 106.8 68.5999 111.5 68.9999 116.3C66.7999 123.1 51.4999 172.3 80.0999 210.3C84.4999 216.1 105.4 244 134.4 241.4C160 239.1 175.4 214.5 177.8 210.5C183.1 201.7 185.4 191.8 190.1 172C192.8 160.4 194.4 153.6 195 144.4C195.6 134.7 195.2 119.6 189 101.1L67.7999 102Z" fill="url(#paint1_linear)"/>
<path d="M79.9995 95.2C80.2995 98.9 80.5995 102.5 80.9995 106.2C79.7995 115.8 79.0995 130.3 81.9995 147.6C83.9995 159.4 92.2995 172.1 98.2995 181.5C100.2 184.4 108.6 204.2 131.7 202.6C150.7 201.3 157.9 187.5 161.2 182.4C162.8 179.9 171.8 168.3 174.8 149.1C176.7 136.8 178.2 117.9 173.9 94.5L79.9995 95.2Z" fill="#A46C35"/>
<path d="M82.3001 96.1012C91.4001 85.5012 104.5 81.3012 108.2 80.1012C110 79.5012 138.8 70.7012 158 85.6012C166.2 92.0012 167.1 98.3012 182.9 111.801C186.9 115.201 190.5 117.901 192.9 119.601C194.6 114.301 196.8 105.301 195.3 94.6012C191.5 67.3012 166.3 46.2012 140.7 40.7012C120.3 36.3012 104.2 42.7012 101 44.0012C75.2001 54.8012 66.0001 78.5012 64.7001 82.1012C55.9001 106.101 64.2001 126.701 66.2001 131.301C66.8001 128.501 67.6001 124.401 69.1001 119.601C70.8001 113.701 71.9001 110.201 74.1001 106.301C74.7001 105.101 77.5001 101.701 82.3001 96.1012Z" fill="#FF8F73"/>
<path d="M186.5 124.702C186.4 125.502 186.3 126.202 186.2 127.002C183.5 142.402 165.8 190.002 127.4 190.002C97.7 190.002 72.6 147.302 70.4 124.802C69.6 116.202 67.9 98.4021 78.8 81.3021C88.6 66.0021 107.9 52.1021 130.8 53.7021C155.1 55.4021 169.2 73.5021 172.8 78.1021C182.8 90.8021 188.5 108.402 186.5 124.702Z" fill="#AC8457"/>
<path d="M173.3 111.501C170.5 109.801 167.9 108.101 165 106.901C162.1 105.801 159 105.201 155.9 105.201C152.8 105.201 149.7 105.801 146.8 107.001C143.9 108.201 141.3 109.901 139 112.001C138.6 112.401 137.9 112.401 137.5 112.001C137.1 111.601 137.1 111.001 137.5 110.601C139.8 108.101 142.7 106.101 145.9 104.801C149.1 103.501 152.5 102.801 155.9 102.801C159.3 102.801 162.7 103.501 165.9 104.901C169 106.201 172 108.201 173.8 111.101C173.9 111.201 173.8 111.401 173.7 111.501C173.5 111.601 173.4 111.601 173.3 111.501Z" fill="#172B4D"/>
<path d="M79.8997 111.101C81.6997 108.201 84.6997 106.201 87.7997 104.901C90.8997 103.501 94.2997 102.801 97.7997 102.801C101.2 102.801 104.6 103.501 107.8 104.801C111 106.101 113.8 108.101 116.2 110.601C116.6 111.001 116.6 111.701 116.2 112.101C115.8 112.501 115.2 112.501 114.8 112.101C112.5 110.001 109.9 108.201 107 107.101C104.1 105.901 101 105.301 97.8997 105.301C94.7997 105.301 91.6997 105.901 88.7997 107.001C85.8997 108.201 83.2997 109.901 80.4997 111.601C80.3997 111.701 80.1996 111.601 80.0996 111.501C79.7996 111.301 79.7997 111.201 79.8997 111.101Z" fill="#172B4D"/>
<path d="M110.101 84.2012C131.401 78.1012 149.601 86.3012 155.201 89.1012C165.101 94.1012 171.801 101.101 175.101 104.601C180.501 110.301 184.301 115.801 186.801 120.001C188.401 115.201 190.301 107.001 189.001 97.3012C185.601 72.5012 162.701 53.4012 139.501 48.4012C121.001 44.4012 106.401 50.2012 103.501 51.4012C100.401 52.7012 79.2005 62.0012 70.6005 85.9012C65.3005 100.901 67.6005 114.001 68.9005 119.501C71.2005 115.201 74.8005 109.301 80.4005 103.301C85.3005 98.4012 94.7005 88.6012 110.101 84.2012Z" fill="#FF7452"/>
<path d="M100.9 121.8C102.668 121.8 104.1 120.368 104.1 118.6C104.1 116.833 102.668 115.4 100.9 115.4C99.1329 115.4 97.7002 116.833 97.7002 118.6C97.7002 120.368 99.1329 121.8 100.9 121.8Z" fill="#172B4D"/>
<path d="M86.7002 118.3C87.7002 118.7 88.6002 118.6 89.3002 118.3C89.5002 118.2 89.6002 118.1 89.8002 118C89.9002 117.9 89.9002 117.9 90.0002 117.8L90.3002 117.5C90.7002 117.1 91.2002 116.6 91.7002 116.3C93.6002 114.8 95.9002 113.7 98.3002 113.3C100.7 112.9 103.2 113.1 105.6 113.8C107.9 114.6 110.1 115.9 111.7 117.7C112.1 118.1 112.1 118.8 111.6 119.2C111.2 119.6 110.6 119.6 110.2 119.2C108.6 117.8 106.8 116.7 104.8 116.1C102.8 115.4 100.7 115.4 98.7002 115.7C96.6002 116 94.7002 116.8 93.0002 118C92.6002 118.3 92.2002 118.6 91.8002 119L91.5002 119.3C91.4002 119.4 91.2002 119.5 91.0002 119.6C90.7002 119.8 90.3002 120 90.0002 120.1C88.6002 120.5 86.9002 119.9 86.3002 118.7C86.2002 118.6 86.3002 118.4 86.4002 118.3C86.5002 118.3 86.6002 118.3 86.7002 118.3Z" fill="#172B4D"/>
<path d="M152.7 121.8C154.467 121.8 155.9 120.368 155.9 118.6C155.9 116.833 154.467 115.4 152.7 115.4C150.933 115.4 149.5 116.833 149.5 118.6C149.5 120.368 150.933 121.8 152.7 121.8Z" fill="#172B4D"/>
<path d="M167.3 119.201C166.7 120.401 165.1 121.101 163.6 120.601C163.2 120.501 162.9 120.301 162.6 120.101C162.4 120.001 162.3 119.901 162.1 119.801L161.8 119.501C161.4 119.201 161 118.801 160.6 118.501C158.9 117.301 156.9 116.501 154.9 116.201C152.9 115.901 150.7 116.001 148.8 116.601C146.8 117.201 145 118.301 143.4 119.701C143 120.101 142.3 120.101 141.9 119.601C141.5 119.201 141.5 118.601 141.9 118.201C143.6 116.401 145.7 115.101 148 114.301C150.3 113.501 152.9 113.401 155.3 113.801C157.7 114.201 160 115.301 161.9 116.801C162.4 117.201 162.8 117.601 163.3 118.001L163.6 118.301C163.7 118.401 163.7 118.401 163.8 118.501C163.9 118.601 164.1 118.701 164.3 118.801C165 119.201 165.9 119.201 166.9 118.801C167 118.701 167.2 118.801 167.3 119.001C167.3 119.101 167.3 119.201 167.3 119.201Z" fill="#172B4D"/>
<path d="M121.6 118.901C122.1 120.201 122.5 121.701 122.8 123.101C123.1 124.501 123.2 126.001 123.3 127.401C123.4 130.301 123 133.201 122.1 136.001C122 136.401 121.6 136.601 121.2 136.501C120.8 136.401 120.6 136.001 120.7 135.701C120.9 134.301 121.1 133.001 121.2 131.601C121.3 130.201 121.4 128.901 121.3 127.501C121.3 126.101 121.2 124.801 121 123.401C120.8 122.001 120.6 120.701 120.2 119.401C120.1 119.001 120.4 118.601 120.8 118.501C121.1 118.401 121.5 118.601 121.6 118.901Z" fill="#7A4F2C"/>
<path d="M116.3 146.701C117.9 145.801 119.8 145.301 121.8 145.601C122.3 145.701 122.8 145.901 123.3 146.101C123.7 146.301 124.1 146.501 124.4 146.601C125 146.801 125.8 146.901 126.5 146.701C127.2 146.601 127.9 146.201 128.7 145.901C129.5 145.501 130.5 145.301 131.5 145.201C133.4 145.001 135.3 145.401 136.9 146.201C137.2 146.401 137.4 146.801 137.2 147.101C137.1 147.401 136.7 147.601 136.4 147.401C134.8 146.901 133.2 146.701 131.7 146.901C130.9 147.001 130.2 147.301 129.5 147.601C128.8 147.901 127.9 148.401 126.9 148.601C125.9 148.801 124.8 148.801 123.8 148.401C123.3 148.201 122.8 148.001 122.5 147.801C122.2 147.601 121.9 147.501 121.5 147.401C120.1 147.101 118.5 147.301 116.9 147.901C116.5 148.001 116.2 147.901 116 147.501C115.9 147.201 116 146.801 116.3 146.701Z" fill="#7A4F2C"/>
<path d="M149 162C149 162 139.9 165.6 128.7 165.6C117.5 165.6 108.4 162 108.4 162L114.3 160C117.3 159 120.6 159 123.7 160.1L123.9 160.2C127.1 161.4 130.5 161.4 133.7 160.2C136.7 159.1 140 159 143.1 160L149 162Z" fill="#72594B"/>
<path d="M149 162C149 162 144.3 172 128.7 172C113.1 172 108.4 162 108.4 162C112.8 163.6 119.9 165.6 128.7 165.6C137.5 165.6 144.6 163.6 149 162Z" fill="#72594B"/>
<path d="M105.8 160C107.6 160.8 109.5 161.6 111.3 162.2C113.2 162.8 115.1 163.4 117 163.8C120.9 164.6 124.8 165.1 128.7 165.1C132.6 165.1 136.6 164.6 140.4 163.8C142.3 163.4 144.2 162.8 146.1 162.2C148 161.6 149.8 160.8 151.7 160C151.9 159.9 152.1 160 152.2 160.2C152.3 160.4 152.2 160.6 152.1 160.7C150.4 161.8 148.6 162.7 146.7 163.6C144.8 164.4 142.9 165.1 140.9 165.7C136.9 166.8 132.8 167.4 128.7 167.4C126.6 167.4 124.6 167.3 122.5 167C120.5 166.7 118.4 166.4 116.4 165.8C112.4 164.7 108.6 163.2 105.1 161.1C104.8 160.9 104.7 160.6 104.9 160.3C105.2 160 105.5 159.9 105.8 160Z" fill="#230F05"/>
<path d="M99.8 141.401C86.9 141.401 76.5 130.901 76.5 118.101C76.5 105.301 87 94.8008 99.8 94.8008C112.6 94.8008 123.1 105.301 123.1 118.101C123.1 130.901 112.6 141.401 99.8 141.401ZM99.8 97.8008C88.6 97.8008 79.5 106.901 79.5 118.101C79.5 129.301 88.6 138.401 99.8 138.401C111 138.401 120.1 129.301 120.1 118.101C120.1 106.901 111 97.8008 99.8 97.8008Z" fill="#DFE1E5"/>
<path d="M153.901 141.401C141.001 141.401 130.601 130.901 130.601 118.101C130.601 105.301 141.101 94.8008 153.901 94.8008C166.701 94.8008 177.201 105.301 177.201 118.101C177.201 130.901 166.801 141.401 153.901 141.401ZM153.901 97.8008C142.701 97.8008 133.601 106.901 133.601 118.101C133.601 129.301 142.701 138.401 153.901 138.401C165.101 138.401 174.201 129.301 174.201 118.101C174.201 106.901 165.101 97.8008 153.901 97.8008Z" fill="#DFE1E5"/>
<path d="M78.0002 120.602H68.7002C67.9002 120.602 67.2002 119.902 67.2002 119.102C67.2002 118.302 67.9002 117.602 68.7002 117.602H78.0002C78.8002 117.602 79.5002 118.302 79.5002 119.102C79.5002 119.902 78.8002 120.602 78.0002 120.602Z" fill="#DFE1E5"/>
<path d="M186.7 119.602H175.7C174.9 119.602 174.2 118.902 174.2 118.102C174.2 117.302 174.9 116.602 175.7 116.602H186.7C187.5 116.602 188.2 117.302 188.2 118.102C188.2 118.902 187.6 119.602 186.7 119.602Z" fill="#DFE1E5"/>
<path d="M132.101 116.602H121.601V119.602H132.101V116.602Z" fill="#DFE1E5"/>
</g>
<defs>
<linearGradient id="paint0_linear" x1="131.103" y1="172.281" x2="131.103" y2="235.79" gradientUnits="userSpaceOnUse">
<stop stop-color="#EBBEAE"/>
<stop offset="0.6411" stop-color="#FFE2D9"/>
</linearGradient>
<linearGradient id="paint1_linear" x1="129.101" y1="241.498" x2="129.101" y2="101.12" gradientUnits="userSpaceOnUse">
<stop stop-color="#FFEBE5"/>
<stop offset="0.0131381" stop-color="#FFE7E0"/>
<stop offset="0.1275" stop-color="#FFC8B9"/>
<stop offset="0.2406" stop-color="#FFAF9A"/>
<stop offset="0.3508" stop-color="#FF9D85"/>
<stop offset="0.4566" stop-color="#FF9377"/>
<stop offset="0.5534" stop-color="#FF8F73"/>
</linearGradient>
<clipPath id="clip0">
<path d="M0 0.900391H256V256.9H0V0.900391Z" fill="white"/>
</clipPath>
</defs>
</svg>
