<svg width="256" height="257" viewBox="0 0 256 257" fill="none" xmlns="http://www.w3.org/2000/svg">
<g clip-path="url(#clip0)">
<path d="M0 0.900391H256V256.9H0V0.900391Z" fill="white" fill-opacity="0.01"/>
<path d="M128 256.9C198.692 256.9 256 199.593 256 128.9C256 58.2079 198.692 0.900391 128 0.900391C57.3075 0.900391 0 58.2079 0 128.9C0 199.593 57.3075 256.9 128 256.9Z" fill="#00C7E5"/>
<path d="M81.3254 142.131C88.3928 140.342 92.3099 131.731 90.0745 122.897C87.8391 114.062 80.2977 108.351 73.2303 110.139C66.1629 111.927 62.2458 120.539 64.4812 129.373C66.7166 138.207 74.258 143.919 81.3254 142.131Z" fill="#DFB28B"/>
<path d="M196.506 129.486C198.742 120.652 194.824 112.041 187.757 110.252C180.69 108.464 173.148 114.176 170.913 123.01C168.677 131.844 172.595 140.456 179.662 142.244C186.729 144.032 194.271 138.32 196.506 129.486Z" fill="#DFB28B"/>
<path d="M180.199 220.8C146.024 209.196 108.974 209.196 74.7992 220.8C74.7992 213.5 74.7992 206.3 74.6992 199C91.3469 191.544 109.39 187.714 127.632 187.766C145.873 187.818 163.894 191.75 180.499 199.3L180.199 220.8Z" fill="#008DA6"/>
<path d="M211.9 225.6L189.9 213.6C184.177 210.456 177.819 208.645 171.3 208.3L128 206.1L83.7996 208.4C77.8433 208.696 72.0313 210.337 66.7996 213.2L44.0996 225.6C67.3902 245.786 97.1783 256.899 128 256.899C158.821 256.899 188.609 245.786 211.9 225.6Z" fill="#008DA6"/>
<path d="M111.199 226.9V255.9C116.643 256.535 122.118 256.869 127.599 256.9C133.755 256.876 139.902 256.442 145.999 255.6V226.9H111.199Z" fill="#79E2F2"/>
<path d="M184 213.9C180.7 216.9 154.1 232.5 130.5 246C111.3 234.4 86.4 218.6 82 214.7C87.5225 209.66 91.5382 203.186 93.6 196C96.155 186.802 95.266 176.988 91.1 168.4L172.6 166.6C171.4 168.9 164.6 182.2 170.5 197.2C173.315 203.94 178 209.734 184 213.9Z" fill="url(#paint0_linear)"/>
<path d="M130.899 42C158.599 42.2 175.499 60.9 178.099 63.9C195.599 84.1 193.799 108.2 193.399 113.3C192.399 125.7 187.399 135.6 177.699 155.6C173.31 164.804 168.402 173.752 162.999 182.4C161.488 184.864 159.302 186.842 156.699 188.1C148.697 192.218 139.892 194.539 130.899 194.9C121.873 194.55 113.033 192.229 104.999 188.1C102.443 186.813 100.296 184.839 98.7993 182.4C93.3591 173.756 88.4177 164.808 83.9993 155.6C74.3993 135.6 69.2993 125.7 68.3993 113.3C67.9993 108.2 66.0993 84.1 83.6993 63.9C86.2993 60.9 103.199 42.2 130.899 42Z" fill="#ECC19C"/>
<path d="M109.699 105.4C107.701 104.88 105.659 104.545 103.599 104.4C101.596 104.2 99.5733 104.301 97.5995 104.7C95.5702 105.119 93.5921 105.756 91.6995 106.6C89.7156 107.548 87.8097 108.651 85.9995 109.9C85.85 110.015 85.6787 110.099 85.4958 110.147C85.3129 110.195 85.1223 110.205 84.9354 110.177C84.7486 110.149 84.5693 110.083 84.4084 109.984C84.2476 109.885 84.1085 109.754 83.9995 109.6C83.813 109.356 83.7119 109.057 83.7119 108.75C83.7119 108.442 83.813 108.144 83.9995 107.9C85.4229 105.792 87.219 103.962 89.2995 102.5C90.349 101.753 91.452 101.085 92.5995 100.5C93.7377 99.8875 94.9467 99.4174 96.1995 99.0997C98.7828 98.2859 101.506 98.0136 104.199 98.2997C106.837 98.512 109.396 99.2969 111.699 100.6C112.281 100.971 112.699 101.551 112.866 102.221C113.033 102.89 112.938 103.598 112.599 104.2C112.33 104.68 111.91 105.058 111.403 105.275C110.897 105.492 110.333 105.536 109.799 105.4H109.699Z" fill="#344563"/>
<path d="M144.099 101.201C147.75 99.033 151.959 97.9896 156.199 98.2005L158.299 98.5005L160.399 98.9005C163.089 99.5562 165.633 100.709 167.899 102.301C170.181 103.769 172.152 105.672 173.699 107.901C173.815 108.05 173.899 108.221 173.947 108.404C173.994 108.587 174.004 108.778 173.976 108.965C173.948 109.151 173.883 109.331 173.784 109.492C173.684 109.652 173.554 109.792 173.399 109.901C173.155 110.087 172.857 110.188 172.549 110.188C172.242 110.188 171.943 110.087 171.699 109.901C169.79 108.558 167.745 107.419 165.599 106.501C164.567 106.013 163.497 105.612 162.399 105.301C161.356 104.972 160.285 104.738 159.199 104.601C157.048 104.267 154.86 104.234 152.699 104.501C150.533 104.751 148.392 105.186 146.299 105.801H146.199C145.597 105.973 144.954 105.922 144.387 105.657C143.819 105.393 143.366 104.933 143.111 104.361C142.856 103.79 142.815 103.145 142.997 102.546C143.178 101.947 143.57 101.434 144.099 101.101V101.201Z" fill="#344563"/>
<path d="M90.6996 113.001C93.7493 110.842 97.3652 109.625 101.1 109.501C104.881 109.331 108.621 110.345 111.8 112.401C111.901 112.47 111.988 112.56 112.054 112.664C112.119 112.769 112.163 112.885 112.182 113.007C112.201 113.129 112.194 113.254 112.163 113.373C112.131 113.492 112.076 113.604 112 113.701C111.876 113.895 111.682 114.034 111.459 114.09C111.236 114.145 111 114.114 110.8 114.001C109.323 113.163 107.743 112.525 106.1 112.101C102.832 111.167 99.3675 111.167 96.0996 112.101C94.4242 112.524 92.8108 113.163 91.2996 114.001C91.2349 114.064 91.1566 114.113 91.0706 114.142C90.9845 114.171 90.893 114.18 90.8029 114.169C90.7128 114.157 90.6265 114.126 90.5504 114.076C90.4744 114.026 90.4106 113.96 90.3638 113.882C90.3171 113.804 90.2887 113.717 90.2807 113.626C90.2727 113.536 90.2853 113.445 90.3176 113.36C90.3499 113.275 90.4011 113.199 90.4673 113.136C90.5335 113.074 90.6129 113.028 90.6996 113.001Z" fill="#172B4D"/>
<path d="M165.9 114.001C164.415 113.181 162.837 112.543 161.2 112.101C159.543 111.623 157.825 111.387 156.1 111.401C154.408 111.388 152.723 111.624 151.1 112.101C149.463 112.543 147.885 113.181 146.4 114.001C146.298 114.069 146.183 114.112 146.062 114.129C145.941 114.145 145.818 114.133 145.702 114.095C145.586 114.056 145.481 113.992 145.394 113.906C145.307 113.82 145.24 113.716 145.2 113.601C145.108 113.396 145.088 113.166 145.142 112.949C145.197 112.731 145.323 112.538 145.5 112.401C148.678 110.345 152.418 109.331 156.2 109.501C159.932 109.637 163.545 110.852 166.6 113.001C166.733 113.094 166.823 113.235 166.851 113.395C166.879 113.554 166.843 113.718 166.75 113.851C166.657 113.983 166.515 114.074 166.356 114.102C166.197 114.13 166.033 114.094 165.9 114.001Z" fill="#172B4D"/>
<path d="M155.099 116.701C156.867 116.701 158.299 115.268 158.299 113.501C158.299 111.733 156.867 110.301 155.099 110.301C153.332 110.301 151.899 111.733 151.899 113.501C151.899 115.268 153.332 116.701 155.099 116.701Z" fill="#172B4D"/>
<path d="M101.8 116.701C103.567 116.701 105 115.268 105 113.501C105 111.733 103.567 110.301 101.8 110.301C100.032 110.301 98.5996 111.733 98.5996 113.501C98.5996 115.268 100.032 116.701 101.8 116.701Z" fill="#172B4D"/>
<path d="M102.7 251L116 223.9L74.6996 199L69.0996 218L102.7 251Z" fill="#008DA6"/>
<path d="M152.699 251L139.399 223.9L180.699 199L186.299 218L152.699 251Z" fill="#008DA6"/>
<path d="M182.299 142.6L181.599 142.8L181.199 143.3C176.999 148.1 171.499 154.2 168.699 155.5C163.499 157.9 155.199 158.2 150.599 153.5C148.905 151.724 146.783 150.414 144.436 149.696C142.089 148.978 139.597 148.876 137.199 149.4C133.101 150.467 128.798 150.467 124.699 149.4C122.502 148.79 120.184 148.765 117.974 149.326C115.765 149.888 113.739 151.016 112.099 152.6C107.599 157.4 98.9993 157.3 94.0993 154.4C91.1993 152.7 84.7993 146.4 80.1993 142.2C80.0966 142.061 79.9597 141.951 79.802 141.881C79.6443 141.811 79.4711 141.783 79.2993 141.8C78.9811 141.8 78.6758 141.926 78.4508 142.151C78.2258 142.376 78.0993 142.681 78.0993 143C78.0838 143.172 78.1185 143.346 78.1993 143.5C80.3993 148.1 83.3993 154.4 84.0993 155.7C88.4665 164.85 93.3753 173.733 98.7993 182.3C100.333 184.769 102.511 186.775 105.099 188.1C113.111 192.18 121.915 194.466 130.899 194.8C139.925 194.45 148.766 192.129 156.799 188C159.374 186.74 161.528 184.76 162.999 182.3C165.299 178.7 169.299 172.1 173.899 163.3C176.699 157.8 179.899 151.4 183.099 144.5C183.171 144.206 183.307 143.933 183.499 143.7C183.5 143.546 183.469 143.395 183.407 143.254C183.346 143.114 183.256 142.988 183.143 142.884C183.03 142.781 182.896 142.702 182.751 142.653C182.606 142.604 182.452 142.586 182.299 142.6Z" fill="#505F79"/>
<path d="M146.9 162.001C141.6 160.801 138.2 159.401 134.2 160.201L133.4 160.401C131.256 161.104 128.944 161.104 126.8 160.401L126 160.201C122.2 159.401 118.8 160.601 113.5 161.901L108.4 162.901C111.026 166.121 114.336 168.717 118.089 170.499C121.842 172.282 125.945 173.206 130.1 173.206C134.255 173.206 138.358 172.282 142.112 170.499C145.865 168.717 149.175 166.121 151.8 162.901L146.9 162.001Z" fill="#B5917C"/>
<path d="M105.8 161.501C109.711 162.583 113.685 163.418 117.7 164.001C121.677 164.533 125.689 164.767 129.7 164.701C133.713 164.684 137.721 164.417 141.7 163.901L147.7 162.801C149.7 162.401 151.6 161.901 153.6 161.301C153.746 161.269 153.898 161.292 154.028 161.366C154.157 161.44 154.254 161.56 154.3 161.701C154.338 161.86 154.318 162.027 154.245 162.173C154.172 162.32 154.05 162.436 153.9 162.501C150.076 163.982 146.127 165.12 142.1 165.901C138.002 166.582 133.854 166.916 129.7 166.901C127.6 166.901 125.6 166.901 123.5 166.701C121.4 166.501 119.4 166.301 117.4 165.901C113.331 165.214 109.343 164.108 105.5 162.601C105.351 162.536 105.229 162.42 105.156 162.273C105.083 162.127 105.063 161.96 105.1 161.801C105.164 161.678 105.269 161.581 105.397 161.526C105.524 161.471 105.667 161.463 105.8 161.501Z" fill="#172B4D"/>
<path d="M121.5 112.901C122.601 114.399 123.476 116.05 124.1 117.801C124.644 119.589 124.979 121.435 125.1 123.301C125.212 127.012 124.386 130.692 122.7 134.001C122.654 134.099 122.589 134.188 122.509 134.261C122.429 134.334 122.335 134.391 122.233 134.429C122.131 134.466 122.022 134.482 121.914 134.478C121.805 134.473 121.699 134.447 121.6 134.401C121.502 134.355 121.413 134.29 121.34 134.21C121.266 134.13 121.209 134.036 121.172 133.934C121.135 133.831 121.118 133.723 121.123 133.614C121.128 133.506 121.154 133.399 121.2 133.301C121.739 131.697 122.173 130.06 122.5 128.401C122.796 126.752 122.897 125.073 122.8 123.401C122.786 121.703 122.516 120.018 122 118.401C121.558 116.795 120.92 115.25 120.1 113.801C120.03 113.706 119.981 113.596 119.958 113.48C119.935 113.364 119.938 113.245 119.966 113.13C119.995 113.015 120.049 112.908 120.124 112.817C120.199 112.725 120.293 112.651 120.4 112.601C120.492 112.547 120.593 112.513 120.698 112.499C120.804 112.485 120.911 112.492 121.013 112.52C121.115 112.548 121.211 112.596 121.295 112.662C121.378 112.727 121.448 112.808 121.5 112.901Z" fill="#CEA28B"/>
<path d="M128.9 146.9H128C127.119 146.817 126.266 146.544 125.5 146.1C124.893 145.738 124.206 145.532 123.5 145.5C121.884 145.419 120.272 145.727 118.8 146.4C118.691 146.468 118.568 146.512 118.44 146.529C118.312 146.545 118.182 146.534 118.059 146.496C117.936 146.458 117.822 146.394 117.726 146.309C117.629 146.223 117.553 146.118 117.5 146C117.394 145.746 117.386 145.461 117.478 145.202C117.571 144.943 117.757 144.728 118 144.6C119.761 143.71 121.735 143.329 123.7 143.5C124.647 143.572 125.567 143.845 126.4 144.3C126.955 144.617 127.566 144.821 128.2 144.9C129.412 145.04 130.636 144.795 131.7 144.2C133.047 143.518 134.502 143.078 136 142.9C138.016 142.801 140.03 143.142 141.9 143.9C142.025 143.946 142.14 144.016 142.237 144.106C142.335 144.196 142.414 144.305 142.47 144.425C142.525 144.546 142.557 144.676 142.562 144.809C142.567 144.942 142.546 145.075 142.5 145.2C142.454 145.324 142.384 145.439 142.294 145.536C142.204 145.634 142.095 145.713 141.975 145.769C141.854 145.824 141.723 145.856 141.591 145.861C141.458 145.866 141.325 145.845 141.2 145.8C139.586 145.132 137.846 144.825 136.1 144.9C134.846 145.055 133.628 145.427 132.5 146C131.393 146.592 130.156 146.902 128.9 146.9Z" fill="#CEA28B"/>
</g>
<defs>
<linearGradient id="paint0_linear" x1="133.02" y1="245.98" x2="133.02" y2="166.56" gradientUnits="userSpaceOnUse">
<stop stop-color="#ECC19C"/>
<stop offset="1" stop-color="#DFB28B"/>
</linearGradient>
<clipPath id="clip0">
<path d="M0 0.900391H256V256.9H0V0.900391Z" fill="white"/>
</clipPath>
</defs>
</svg>
