<svg width="256" height="257" viewBox="0 0 256 257" fill="none" xmlns="http://www.w3.org/2000/svg">
<g clip-path="url(#clip0)">
<path d="M0 0.599609H256V256.6H0V0.599609Z" fill="white" fill-opacity="0.01"/>
<path d="M128 256.6C198.692 256.6 256 199.292 256 128.6C256 57.9072 198.692 0.599609 128 0.599609C57.3075 0.599609 0 57.9072 0 128.6C0 199.292 57.3075 256.6 128 256.6Z" fill="#57D9A3"/>
<path d="M217.9 219.601L177.7 193.101C176.948 192.611 176.092 192.303 175.2 192.201L128 189.801L80.8001 192.201C79.9084 192.303 79.0526 192.611 78.3001 193.101L38.1001 219.601C62.0154 243.307 94.3263 256.607 128 256.607C161.674 256.607 193.985 243.307 217.9 219.601Z" fill="#00875A"/>
<path d="M159.6 172.301C159.4 175.501 159.3 183.401 161 189.701C161.6 192.201 164.9 193.201 167.6 194.801C167.765 194.911 167.907 195.054 168.017 195.22C168.127 195.386 168.203 195.572 168.24 195.767C168.277 195.962 168.275 196.163 168.234 196.358C168.193 196.553 168.113 196.737 168 196.901C162.7 203.701 153.9 210.301 144.4 214.601C143.835 214.829 143.373 215.256 143.1 215.801L130.1 243.501C129.879 243.92 129.548 244.27 129.143 244.515C128.738 244.759 128.273 244.888 127.8 244.888C127.327 244.888 126.862 244.759 126.457 244.515C126.052 244.27 125.721 243.92 125.5 243.501L112.4 215.801C112.168 215.262 111.738 214.833 111.2 214.601C101.6 210.301 92.8001 203.701 87.5001 196.901C87.3869 196.737 87.3075 196.553 87.2663 196.358C87.2252 196.163 87.2232 195.962 87.2604 195.767C87.2976 195.572 87.3733 195.386 87.4832 195.22C87.593 195.054 87.7347 194.911 87.9001 194.801C90.6001 193.201 93.9001 192.201 94.6001 189.701C96.3001 183.401 96.1001 175.501 96.0001 172.301H159.6Z" fill="url(#paint0_linear)"/>
<path d="M192 109.701C192.2 116.001 181.7 129.501 175.3 129.701C168.9 129.901 169.3 116.801 169.1 110.501C168.907 108.918 169.045 107.313 169.505 105.787C169.966 104.261 170.738 102.847 171.774 101.636C172.809 100.424 174.085 99.4408 175.521 98.7485C176.957 98.0563 178.521 97.6701 180.114 97.6144C181.707 97.5588 183.294 97.8349 184.775 98.4253C186.256 99.0156 187.597 99.9073 188.715 101.044C189.833 102.18 190.702 103.537 191.267 105.027C191.833 106.517 192.083 108.109 192 109.701Z" fill="#F7D0C3"/>
<path d="M61.8 109.701C61.6 116.001 72.1 129.501 78.5 129.701C84.9 129.901 84.5 116.801 84.7 110.501C84.8931 108.918 84.7551 107.313 84.2949 105.787C83.8347 104.261 83.0623 102.847 82.0266 101.636C80.991 100.424 79.7148 99.4408 78.279 98.7485C76.8432 98.0563 75.2792 97.6701 73.6862 97.6144C72.0932 97.5588 70.506 97.8349 69.0254 98.4253C67.5448 99.0156 66.2031 99.9073 65.0854 101.044C63.9677 102.18 63.0985 103.537 62.533 105.027C61.9674 106.517 61.7178 108.109 61.8 109.701Z" fill="#F7D0C3"/>
<path d="M119.5 183.8C124.47 185.201 129.73 185.201 134.7 183.8C173.9 172.8 167.6 168.9 182.7 102.3C191.4 64.0998 185.1 21.2998 127.1 23.0998C69.0001 21.2998 62.8001 64.0998 71.5001 102.3C86.6001 168.9 80.3001 172.8 119.5 183.8Z" fill="#FF8800"/>
<path d="M126.9 161C137.7 160.6 142.2 166.1 146.4 162.9C150.6 159.7 150.4 153.6 147.9 151.1C147.1 150.3 146.2 150.1 141 149.8C131.7 149.3 130.8 149.6 126.5 149.2C122.2 148.8 121.6 148.2 118.5 148.3C115.905 148.426 113.327 148.794 110.8 149.4C107.6 150.1 106 150.4 105.5 151.1C103.4 153.6 105.2 160.7 109.5 163.2C113.8 165.7 117.2 161.3 126.9 161Z" fill="url(#paint1_linear)"/>
<path d="M127.1 132.601C143.3 132.701 154.8 142.001 162.9 136.801C171 131.601 175.5 111.901 177.8 104.701C179.841 97.9619 180.286 90.8409 179.1 83.9006C178.6 81.2006 175.3 77.7006 173.9 71.4006C173.438 69.5298 173.137 67.6228 173 65.7006C166.27 64.8011 159.46 64.6669 152.7 65.3006C126.2 67.9006 114.2 81.1006 97.6003 76.1006C94.1003 75.1006 88.5003 72.7006 82.7003 66.2006C80.9515 68.3284 79.4424 70.6423 78.2003 73.1006C76.6217 76.5212 75.5763 80.1635 75.1003 83.9006C74.0527 90.8476 74.4958 97.9381 76.4003 104.701C78.6003 111.901 83.2003 131.601 91.3003 136.801C99.4003 142.001 110.9 132.701 127.1 132.601Z" fill="#FFE2D9"/>
<path d="M143.5 149.7C138.2 148.7 134.8 147.3 130.8 148.1L130 148.3C127.841 148.902 125.559 148.902 123.4 148.3L122.6 148.1C118.8 147.4 115.5 148.5 110.1 149.6L105 150.5C107.801 153.435 111.169 155.771 114.898 157.367C118.628 158.963 122.643 159.785 126.7 159.785C130.757 159.785 134.772 158.963 138.501 157.367C142.231 155.771 145.599 153.435 148.4 150.5C146.749 150.356 145.111 150.089 143.5 149.7Z" fill="#DD6C45"/>
<path d="M102.9 148.9C106.696 150.316 110.612 151.387 114.6 152.1C118.594 152.814 122.643 153.182 126.7 153.2C130.761 153.153 134.809 152.751 138.8 152C140.8 151.688 142.773 151.22 144.7 150.6C146.7 150.1 148.6 149.4 150.6 148.7C150.8 148.6 151.1 148.8 151.2 149C151.248 149.123 151.255 149.258 151.218 149.384C151.182 149.511 151.106 149.622 151 149.7C147.235 151.511 143.276 152.886 139.2 153.8C135.092 154.683 130.901 155.119 126.7 155.1C124.6 155.1 122.6 155 120.5 154.8C118.411 154.622 116.339 154.287 114.3 153.8C110.215 153.016 106.248 151.705 102.5 149.9C102.431 149.879 102.367 149.843 102.313 149.794C102.26 149.746 102.217 149.686 102.188 149.62C102.16 149.553 102.146 149.481 102.148 149.409C102.15 149.336 102.168 149.265 102.2 149.2C102.222 149.131 102.258 149.068 102.306 149.014C102.355 148.96 102.414 148.917 102.481 148.889C102.547 148.86 102.619 148.846 102.692 148.848C102.764 148.85 102.835 148.868 102.9 148.9Z" fill="#7A4F2C"/>
<path d="M118.5 128.2C120.17 128.695 121.807 129.296 123.4 130L125.8 131L126.7 131.4H127.6C128.334 131.234 129.041 130.964 129.7 130.6C130.51 130.24 131.346 129.94 132.2 129.7C133.903 129.103 135.695 128.799 137.5 128.8C137.696 128.799 137.886 128.869 138.033 128.998C138.18 129.127 138.275 129.306 138.3 129.5C138.301 129.696 138.231 129.886 138.102 130.033C137.973 130.181 137.794 130.276 137.6 130.3C135.995 130.581 134.421 131.016 132.9 131.6L130.6 132.6C129.784 133.128 128.863 133.47 127.9 133.6H126.3L124.8 133L122.5 131.8C120.928 131.114 119.392 130.346 117.9 129.5C117.811 129.458 117.731 129.398 117.667 129.324C117.602 129.249 117.554 129.162 117.526 129.067C117.498 128.973 117.49 128.874 117.502 128.776C117.515 128.678 117.548 128.584 117.6 128.5C117.707 128.371 117.848 128.275 118.007 128.222C118.166 128.169 118.337 128.161 118.5 128.2Z" fill="#F0BEB4"/>
<path d="M122.2 95.8004C123.671 99.9019 124.35 104.246 124.2 108.6C124.047 110.752 123.747 112.89 123.3 115C122.865 117.123 122.229 119.199 121.4 121.2C121.357 121.301 121.294 121.393 121.214 121.468C121.134 121.544 121.04 121.602 120.937 121.64C120.834 121.677 120.724 121.693 120.614 121.686C120.505 121.68 120.398 121.65 120.3 121.6C120.102 121.532 119.94 121.389 119.846 121.202C119.753 121.015 119.736 120.799 119.8 120.6C120.4 118.6 120.9 116.6 121.3 114.6C121.6 112.6 121.8 110.5 121.9 108.5C121.983 106.432 121.916 104.359 121.7 102.3C121.479 100.276 121.111 98.2711 120.6 96.3004C120.57 96.1953 120.562 96.0851 120.576 95.9768C120.591 95.8685 120.627 95.7643 120.684 95.6706C120.74 95.5769 120.815 95.4957 120.903 95.432C120.992 95.3684 121.093 95.3236 121.2 95.3004C121.398 95.2588 121.605 95.2855 121.787 95.3763C121.968 95.467 122.114 95.6165 122.2 95.8004Z" fill="#F0BEB4"/>
<path d="M113.6 96.2997L112 95.3997L110.3 94.5997C109.069 94.0951 107.798 93.6937 106.5 93.3997C103.952 92.7662 101.321 92.53 98.7002 92.6997C96.0431 92.8091 93.4305 93.4198 91.0002 94.4997C89.7845 94.9991 88.6136 95.6013 87.5002 96.2997C86.3631 96.9954 85.321 97.8357 84.4002 98.7997C84.2133 98.983 83.962 99.0856 83.7002 99.0856C83.4385 99.0856 83.1872 98.983 83.0002 98.7997C82.9012 98.7401 82.8162 98.6597 82.7512 98.5641C82.6862 98.4685 82.6427 98.3599 82.6237 98.2458C82.6047 98.1318 82.6106 98.015 82.6411 97.9034C82.6716 97.7919 82.7259 97.6883 82.8003 97.5997C83.6086 96.2816 84.6212 95.1002 85.8003 94.0997C86.9585 93.0561 88.2336 92.1501 89.6002 91.3997C92.2686 89.8594 95.2344 88.9049 98.3003 88.5997C101.383 88.2255 104.51 88.4634 107.5 89.2997C109.031 89.6381 110.51 90.1761 111.9 90.8997L114 91.9997C114.662 92.4986 115.296 93.0327 115.9 93.5997C116.077 93.7427 116.221 93.9216 116.323 94.1246C116.425 94.3276 116.483 94.5501 116.493 94.7771C116.502 95.0042 116.463 95.2307 116.378 95.4415C116.293 95.6523 116.164 95.8426 116 95.9997C115.744 96.3247 115.371 96.5375 114.961 96.5935C114.55 96.6494 114.135 96.5441 113.8 96.2997H113.6Z" fill="#CE6E05"/>
<path d="M139 93.7003C139.583 93.1097 140.219 92.5741 140.9 92.1003L143 91.0003C144.356 90.2773 145.802 89.7392 147.3 89.4003C150.292 88.5716 153.417 88.3338 156.5 88.7003C159.594 89.0208 162.59 89.9738 165.3 91.5003C166.667 92.2506 167.942 93.1566 169.1 94.2003C170.279 95.2007 171.292 96.3821 172.1 97.7003C172.225 97.931 172.264 98.199 172.209 98.4558C172.154 98.7125 172.009 98.9411 171.8 99.1003C171.588 99.1971 171.351 99.2298 171.12 99.1942C170.889 99.1587 170.674 99.0565 170.5 98.9003C169.579 97.9363 168.537 97.0959 167.4 96.4003C166.287 95.7018 165.116 95.0996 163.9 94.6003C161.47 93.5204 158.857 92.9096 156.2 92.8003C153.58 92.6306 150.949 92.8667 148.4 93.5003C147.102 93.7942 145.831 94.1956 144.6 94.7003L142.9 95.5003L141.3 96.4003H141.1C140.711 96.6355 140.247 96.7147 139.802 96.622C139.357 96.5292 138.963 96.2714 138.7 95.9003C138.478 95.5585 138.386 95.1483 138.441 94.7445C138.496 94.3407 138.695 93.9701 139 93.7003Z" fill="#CE6E05"/>
<path d="M89.3001 102.3C92.3702 100.182 95.9739 98.9693 99.7001 98.8004C103.491 98.6671 107.231 99.7154 110.4 101.8C110.612 101.933 110.763 102.144 110.819 102.388C110.876 102.632 110.833 102.888 110.7 103.1C110.567 103.313 110.356 103.463 110.112 103.52C109.868 103.576 109.612 103.533 109.4 103.4C107.927 102.532 106.347 101.859 104.7 101.4C103.064 100.998 101.385 100.796 99.7001 100.8C98.0129 100.753 96.328 100.955 94.7001 101.4C93.0273 101.877 91.4162 102.548 89.9001 103.4C89.7523 103.446 89.5937 103.441 89.449 103.387C89.3043 103.332 89.1816 103.232 89.1001 103.1C89.0249 102.967 89.0037 102.809 89.0409 102.661C89.0781 102.512 89.1708 102.383 89.3001 102.3Z" fill="#172B4D"/>
<path d="M164.5 103.4C163.019 102.548 161.441 101.877 159.8 101.4C158.138 100.955 156.42 100.753 154.7 100.8C151.286 100.729 147.921 101.631 145 103.4C144.785 103.482 144.548 103.487 144.329 103.414C144.11 103.341 143.924 103.195 143.8 103C143.687 102.8 143.656 102.564 143.711 102.341C143.767 102.117 143.906 101.924 144.1 101.8C147.27 99.7154 151.009 98.6671 154.8 98.8004C158.523 98.9851 162.123 100.196 165.2 102.3C165.271 102.349 165.33 102.413 165.374 102.486C165.418 102.56 165.446 102.642 165.455 102.728C165.465 102.813 165.456 102.899 165.429 102.981C165.402 103.062 165.358 103.137 165.3 103.2C165.205 103.314 165.077 103.395 164.933 103.431C164.789 103.467 164.638 103.456 164.5 103.4Z" fill="#172B4D"/>
<path d="M153.7 106.099C155.467 106.099 156.9 104.667 156.9 102.899C156.9 101.132 155.467 99.6992 153.7 99.6992C151.933 99.6992 150.5 101.132 150.5 102.899C150.5 104.667 151.933 106.099 153.7 106.099Z" fill="#172B4D"/>
<path d="M100.4 106.099C102.168 106.099 103.6 104.667 103.6 102.899C103.6 101.132 102.168 99.6992 100.4 99.6992C98.6329 99.6992 97.2002 101.132 97.2002 102.899C97.2002 104.667 98.6329 106.099 100.4 106.099Z" fill="#172B4D"/>
<path d="M98.3 120.5C98.7418 120.5 99.1 120.142 99.1 119.7C99.1 119.259 98.7418 118.9 98.3 118.9C97.8582 118.9 97.5 119.259 97.5 119.7C97.5 120.142 97.8582 120.5 98.3 120.5Z" fill="#F0BEB4"/>
<path d="M89.8 121.301C90.2418 121.301 90.6 120.943 90.6 120.501C90.6 120.059 90.2418 119.701 89.8 119.701C89.3582 119.701 89 120.059 89 120.501C89 120.943 89.3582 121.301 89.8 121.301Z" fill="#F0BEB4"/>
<path d="M100.4 129.5C100.842 129.5 101.2 129.142 101.2 128.7C101.2 128.259 100.842 127.9 100.4 127.9C99.9583 127.9 99.6001 128.259 99.6001 128.7C99.6001 129.142 99.9583 129.5 100.4 129.5Z" fill="#F0BEB4"/>
<path d="M105.1 120.5C105.542 120.5 105.9 120.142 105.9 119.7C105.9 119.259 105.542 118.9 105.1 118.9C104.658 118.9 104.3 119.259 104.3 119.7C104.3 120.142 104.658 120.5 105.1 120.5Z" fill="#F0BEB4"/>
<path d="M99.4001 136.7C99.8419 136.7 100.2 136.341 100.2 135.9C100.2 135.458 99.8419 135.1 99.4001 135.1C98.9583 135.1 98.6001 135.458 98.6001 135.9C98.6001 136.341 98.9583 136.7 99.4001 136.7Z" fill="#F0BEB4"/>
<path d="M92.8 127.801C93.2418 127.801 93.6 127.443 93.6 127.001C93.6 126.559 93.2418 126.201 92.8 126.201C92.3582 126.201 92 126.559 92 127.001C92 127.443 92.3582 127.801 92.8 127.801Z" fill="#F0BEB4"/>
<path d="M158 121.901C158.442 121.901 158.8 121.543 158.8 121.101C158.8 120.659 158.442 120.301 158 120.301C157.558 120.301 157.2 120.659 157.2 121.101C157.2 121.543 157.558 121.901 158 121.901Z" fill="#F0BEB4"/>
<path d="M164.5 124.702C164.942 124.702 165.3 124.343 165.3 123.902C165.3 123.46 164.942 123.102 164.5 123.102C164.058 123.102 163.7 123.46 163.7 123.902C163.7 124.343 164.058 124.702 164.5 124.702Z" fill="#F0BEB4"/>
<path d="M149.3 123.801C149.742 123.801 150.1 123.443 150.1 123.001C150.1 122.559 149.742 122.201 149.3 122.201C148.858 122.201 148.5 122.559 148.5 123.001C148.5 123.443 148.858 123.801 149.3 123.801Z" fill="#F0BEB4"/>
<path d="M151.1 135.5C151.542 135.5 151.9 135.142 151.9 134.7C151.9 134.259 151.542 133.9 151.1 133.9C150.658 133.9 150.3 134.259 150.3 134.7C150.3 135.142 150.658 135.5 151.1 135.5Z" fill="#F0BEB4"/>
<path d="M159.5 131.1C159.942 131.1 160.3 130.742 160.3 130.3C160.3 129.858 159.942 129.5 159.5 129.5C159.058 129.5 158.7 129.858 158.7 130.3C158.7 130.742 159.058 131.1 159.5 131.1Z" fill="#F0BEB4"/>
</g>
<defs>
<linearGradient id="paint0_linear" x1="127.76" y1="178.461" x2="127.76" y2="239.851" gradientUnits="userSpaceOnUse">
<stop stop-color="#EBBEAE"/>
<stop offset="1" stop-color="#FFE2D9"/>
</linearGradient>
<linearGradient id="paint1_linear" x1="5828.65" y1="1981.79" x2="5828.65" y2="2944.48" gradientUnits="userSpaceOnUse">
<stop stop-color="#EBBEAE"/>
<stop offset="1" stop-color="#FFE2D9"/>
</linearGradient>
<clipPath id="clip0">
<path d="M0 0.599609H256V256.6H0V0.599609Z" fill="white"/>
</clipPath>
</defs>
</svg>
