<svg width="256" height="257" viewBox="0 0 256 257" fill="none" xmlns="http://www.w3.org/2000/svg">
<g clip-path="url(#clip0)">
<path d="M0 0.599609H256V256.6H0V0.599609Z" fill="white" fill-opacity="0.01"/>
<path d="M128 256.6C198.692 256.6 256 199.292 256 128.6C256 57.9072 198.692 0.599609 128 0.599609C57.3075 0.599609 0 57.9072 0 128.6C0 199.292 57.3075 256.6 128 256.6Z" fill="#FFAB00"/>
<path d="M210.1 227.1C209.502 226.675 208.866 226.307 208.2 226L187.4 211C176.778 205.488 165.06 202.413 153.1 202L131.6 205L110.2 202C98.2079 202.412 86.4574 205.486 75.8001 211L55.1001 226C53.1956 226.962 51.4972 228.287 50.1001 229.9C73.1191 247.683 101.508 257.094 130.592 256.586C159.675 256.077 187.717 245.677 210.1 227.1Z" fill="#FF8B00"/>
<path d="M168.3 209.501C163.635 214.596 157.979 218.687 151.679 221.522C145.378 224.357 138.566 225.877 131.658 225.989C124.75 226.102 117.892 224.804 111.503 222.175C105.114 219.546 99.3285 215.642 94.4999 210.701L93.8999 210.101C93.8999 210.101 101.7 203.001 103.4 194.201C106.2 180.401 97.0999 170.001 95.9999 168.801L163.4 166.301C162.1 168.301 155 179.601 158.6 193.501C160.8 201.901 168.3 209.501 168.3 209.501Z" fill="url(#paint0_linear)"/>
<path d="M77.3 140.901C84.9215 140.901 91.1 134.722 91.1 127.101C91.1 119.479 84.9215 113.301 77.3 113.301C69.6785 113.301 63.5 119.479 63.5 127.101C63.5 134.722 69.6785 140.901 77.3 140.901Z" fill="url(#paint1_linear)"/>
<path d="M179.3 140.901C186.922 140.901 193.1 134.722 193.1 127.101C193.1 119.479 186.922 113.301 179.3 113.301C171.678 113.301 165.5 119.479 165.5 127.101C165.5 134.722 171.678 140.901 179.3 140.901Z" fill="url(#paint2_linear)"/>
<path d="M184.2 121.9C183 151.5 159.3 185.5 128.5 185.5C97.6998 185.5 73.9998 151.5 72.7998 121.9C71.4998 89.2 81.2998 48.5 128.5 48.5C175.7 48.5 185.5 89.2 184.2 121.9Z" fill="#FFE2D9"/>
<path d="M171.7 107.501C169.3 106.401 167.2 105.001 164.9 104.001C162.587 102.953 160.123 102.279 157.6 102.001C155.069 101.718 152.512 101.785 150 102.201C147.517 102.677 145.1 103.449 142.8 104.501C142.691 104.569 142.568 104.613 142.44 104.63C142.312 104.646 142.182 104.635 142.059 104.597C141.935 104.559 141.822 104.495 141.725 104.41C141.629 104.324 141.552 104.219 141.5 104.101C141.411 103.87 141.402 103.617 141.475 103.381C141.547 103.146 141.697 102.941 141.9 102.8C144.285 101.429 146.891 100.482 149.6 100.001C150.954 99.7414 152.324 99.5743 153.7 99.5005C155.103 99.4672 156.506 99.534 157.9 99.7005C160.609 100.088 163.241 100.898 165.7 102.101C168.297 103.12 170.527 104.897 172.1 107.201C172.1 107.301 172.1 107.501 172 107.501H171.7Z" fill="#253858"/>
<path d="M80.7002 107.201C82.2734 104.897 84.5034 103.12 87.1002 102.101C89.5589 100.898 92.1908 100.088 94.9002 99.7005C96.2937 99.534 97.6972 99.4672 99.1002 99.5005C100.477 99.5743 101.846 99.7414 103.2 100.001C105.909 100.482 108.515 101.429 110.9 102.8C111.101 102.942 111.243 103.153 111.299 103.393C111.354 103.633 111.319 103.885 111.2 104.101C111.16 104.216 111.094 104.32 111.007 104.406C110.92 104.491 110.814 104.556 110.698 104.595C110.582 104.633 110.459 104.645 110.338 104.629C110.217 104.612 110.102 104.568 110 104.501C107.671 103.435 105.219 102.663 102.7 102.201C100.222 101.782 97.6972 101.715 95.2002 102.001C92.6767 102.279 90.213 102.953 87.9002 104.001C85.6002 105.001 83.5002 106.401 81.1002 107.501C80.9002 107.601 80.8002 107.601 80.7002 107.401V107.201Z" fill="#253858"/>
<path d="M102.1 119.1C103.812 119.1 105.2 117.712 105.2 116C105.2 114.288 103.812 112.9 102.1 112.9C100.388 112.9 99 114.288 99 116C99 117.712 100.388 119.1 102.1 119.1Z" fill="#253858"/>
<path d="M88.5998 116.8C88.9937 116.986 89.4268 117.074 89.8621 117.057C90.2974 117.039 90.7221 116.917 91.0998 116.7C91.187 116.689 91.2698 116.656 91.34 116.603C91.4102 116.551 91.4654 116.48 91.4998 116.4H91.6998L91.9998 116.1L93.2998 114.9C95.1887 113.485 97.3791 112.527 99.6998 112.1C102.038 111.665 104.448 111.837 106.7 112.6C108.915 113.324 110.91 114.596 112.5 116.3C112.69 116.503 112.795 116.771 112.795 117.05C112.795 117.328 112.69 117.596 112.5 117.8C112.296 117.946 112.051 118.025 111.8 118.025C111.549 118.025 111.304 117.946 111.1 117.8C108.898 115.749 106.062 114.512 103.061 114.294C100.06 114.076 97.0751 114.889 94.5998 116.6L93.3998 117.6L93.0998 117.8L92.6998 118.1L91.6998 118.6C91.0453 118.822 90.333 118.803 89.6913 118.546C89.0496 118.289 88.5207 117.812 88.1998 117.2C88.1828 117.174 88.1719 117.145 88.1678 117.115C88.1637 117.085 88.1666 117.054 88.1763 117.025C88.1859 116.996 88.2021 116.97 88.2235 116.948C88.2449 116.926 88.271 116.91 88.2998 116.9C88.3998 116.8 88.4998 116.8 88.4998 116.9L88.5998 116.8Z" fill="#253858"/>
<path d="M151.9 119.1C153.612 119.1 155 117.712 155 116C155 114.288 153.612 112.9 151.9 112.9C150.188 112.9 148.8 114.288 148.8 116C148.8 117.712 150.188 119.1 151.9 119.1Z" fill="#253858"/>
<path d="M165.8 117.601C165.479 118.213 164.95 118.69 164.309 118.947C163.667 119.204 162.955 119.223 162.3 119.001L161.3 118.601L160.9 118.201L160.6 118.001C160.247 117.615 159.843 117.279 159.4 117.001C157.756 115.863 155.876 115.111 153.9 114.801C151.962 114.484 149.977 114.621 148.1 115.201C146.165 115.801 144.388 116.826 142.9 118.201C142.692 118.35 142.438 118.421 142.182 118.403C141.927 118.385 141.685 118.278 141.5 118.101C141.412 118.017 141.343 117.916 141.295 117.804C141.247 117.693 141.223 117.572 141.223 117.451C141.223 117.329 141.247 117.209 141.295 117.098C141.343 116.986 141.412 116.885 141.5 116.801C143.074 115.009 145.118 113.693 147.4 113.001C149.628 112.288 151.993 112.116 154.3 112.501C156.632 112.891 158.831 113.853 160.7 115.301L162 116.501L162.3 116.801C162.4 116.801 162.4 116.901 162.5 117.001L163 117.301C163.394 117.474 163.82 117.564 164.25 117.564C164.681 117.564 165.106 117.474 165.5 117.301C165.526 117.284 165.554 117.273 165.585 117.269C165.615 117.265 165.646 117.268 165.675 117.277C165.704 117.287 165.73 117.303 165.752 117.325C165.774 117.346 165.79 117.372 165.8 117.401C165.9 117.501 165.9 117.601 165.8 117.601Z" fill="#253858"/>
<path d="M122.9 120.099C123.51 121.431 123.914 122.847 124.1 124.299C124.3 125.726 124.3 127.173 124.1 128.599C123.91 130.03 123.575 131.437 123.1 132.799C122.594 134.113 121.922 135.356 121.1 136.499C120.994 136.685 120.818 136.821 120.612 136.877C120.406 136.933 120.186 136.905 120 136.799C119.814 136.693 119.678 136.518 119.622 136.311C119.566 136.105 119.594 135.885 119.7 135.699C120.2 134.499 120.7 133.299 121.1 132.099C121.5 130.899 121.7 129.599 121.9 128.299C122.035 127.037 122.068 125.767 122 124.499C121.864 123.217 121.63 121.946 121.3 120.699C121.27 120.594 121.262 120.484 121.277 120.376C121.291 120.267 121.327 120.163 121.384 120.07C121.44 119.976 121.515 119.895 121.603 119.831C121.692 119.767 121.793 119.722 121.9 119.699C122.087 119.664 122.281 119.682 122.458 119.753C122.636 119.824 122.789 119.944 122.9 120.099Z" fill="#F0BEB4"/>
<path d="M144.1 156C138.8 154.7 135.4 153.2 131.4 154.1L130.6 154.3C128.456 155.002 126.144 155.002 124 154.3L123.2 154.1C119.4 153.3 116 154.5 110.7 155.8L105.6 156.9C106 157.4 113.7 167.5 127.3 167.4C140.9 167.3 148.6 157.4 149 156.9L144.1 156Z" fill="#505F79"/>
<path d="M103.2 154.6C106.92 156.301 110.808 157.608 114.8 158.5C118.765 159.426 122.829 159.863 126.9 159.8C130.973 159.79 135.032 159.32 139 158.4C140.997 157.906 142.967 157.305 144.9 156.6C146.862 155.998 148.77 155.229 150.6 154.3C151 154.2 151.4 154.3 151.5 154.7C151.6 155.1 151.5 155.3 151.3 155.5C149.485 156.624 147.578 157.595 145.6 158.4C143.664 159.296 141.657 160.032 139.6 160.6C135.459 161.718 131.189 162.289 126.9 162.3C124.76 162.313 122.622 162.179 120.5 161.9C118.404 161.621 116.331 161.186 114.3 160.6C110.161 159.514 106.191 157.865 102.5 155.7C102.422 155.659 102.353 155.602 102.3 155.533C102.246 155.463 102.208 155.382 102.189 155.297C102.17 155.211 102.17 155.122 102.189 155.036C102.208 154.95 102.246 154.869 102.3 154.8C102.4 154.663 102.547 154.567 102.712 154.531C102.878 154.494 103.051 154.518 103.2 154.6Z" fill="#42526E"/>
<path d="M184.2 121.899C183.7 120.299 183 117.799 182.2 114.799C175.6 91.4987 172.2 79.7987 169 76.7987C163.1 71.3987 158.3 75.0987 129 75.2987C99.7 75.4987 95.5 72.0987 88.4 77.7987C81.3 83.4987 77 97.6987 74.8 107.599C73.7337 112.301 73.0647 117.084 72.8 121.899C68.6 95.5987 77.3 70.2987 95.6 57.6987C109.1 48.3987 124.9 48.0987 128.2 47.9987C131.5 47.8987 146.3 48.0987 159.3 56.2987C178.4 68.1987 188 94.1987 184.2 121.899Z" fill="url(#paint3_linear)"/>
<path d="M184.6 137.9C185.429 137.9 186.1 137.229 186.1 136.4C186.1 135.572 185.429 134.9 184.6 134.9C183.772 134.9 183.1 135.572 183.1 136.4C183.1 137.229 183.772 137.9 184.6 137.9Z" fill="#253858"/>
<path d="M71.7998 137.9C72.6282 137.9 73.2998 137.229 73.2998 136.4C73.2998 135.572 72.6282 134.9 71.7998 134.9C70.9714 134.9 70.2998 135.572 70.2998 136.4C70.2998 137.229 70.9714 137.9 71.7998 137.9Z" fill="#253858"/>
<path d="M188 120.399C187.868 120.411 187.734 120.39 187.612 120.338C187.49 120.285 187.383 120.203 187.3 120.099C187.117 119.912 187.014 119.661 187.014 119.399C187.014 119.137 187.117 118.886 187.3 118.699L190.6 115.299C190.804 115.109 191.072 115.004 191.35 115.004C191.628 115.004 191.896 115.109 192.1 115.299C192.283 115.486 192.386 115.737 192.386 115.999C192.386 116.261 192.283 116.512 192.1 116.699L188.7 120.099C188.51 120.279 188.262 120.386 188 120.399Z" fill="#253858"/>
<path d="M119.7 139.899C120.892 140.093 122.063 140.394 123.2 140.799L124.9 141.199L126.5 141.499C127.582 141.551 128.665 141.416 129.7 141.099C130.826 140.858 131.93 140.524 133 140.099C133.091 140.05 133.191 140.022 133.293 140.016C133.396 140.01 133.499 140.026 133.594 140.064C133.69 140.103 133.775 140.161 133.846 140.237C133.916 140.312 133.969 140.401 134 140.499C134.053 140.662 134.052 140.837 133.998 140.998C133.944 141.16 133.84 141.301 133.7 141.399C132.641 142.104 131.499 142.675 130.3 143.099C129.027 143.598 127.667 143.836 126.3 143.799L124.3 143.399L122.6 142.799C121.424 142.402 120.286 141.9 119.2 141.299C119.111 141.257 119.031 141.197 118.967 141.123C118.903 141.048 118.855 140.961 118.826 140.866C118.798 140.772 118.79 140.673 118.803 140.575C118.815 140.477 118.849 140.383 118.9 140.299C118.966 140.15 119.082 140.028 119.228 139.955C119.374 139.882 119.541 139.862 119.7 139.899Z" fill="#F0BEB4"/>
</g>
<defs>
<linearGradient id="paint0_linear" x1="131.12" y1="167.481" x2="131.12" y2="225.701" gradientUnits="userSpaceOnUse">
<stop stop-color="#EBBEAE"/>
<stop offset="0.64" stop-color="#FFE2D9"/>
</linearGradient>
<linearGradient id="paint1_linear" x1="63.57" y1="127.111" x2="91.11" y2="127.111" gradientUnits="userSpaceOnUse">
<stop stop-color="#FFE2D9"/>
<stop offset="1" stop-color="#EBBEAE"/>
</linearGradient>
<linearGradient id="paint2_linear" x1="165.5" y1="127.111" x2="193.04" y2="127.111" gradientUnits="userSpaceOnUse">
<stop stop-color="#EBBEAE"/>
<stop offset="1" stop-color="#FFE2D9"/>
</linearGradient>
<linearGradient id="paint3_linear" x1="128.38" y1="121.919" x2="128.38" y2="48.0387" gradientUnits="userSpaceOnUse">
<stop stop-color="#F0D0B4"/>
<stop offset="0.1" stop-color="#E1C9B9"/>
<stop offset="0.29" stop-color="#BBB8C5"/>
<stop offset="0.55" stop-color="#7C9CD8"/>
<stop offset="0.86" stop-color="#2776F3"/>
<stop offset="1" stop-color="#0065FF"/>
</linearGradient>
<clipPath id="clip0">
<path d="M0 0.599609H256V256.6H0V0.599609Z" fill="white"/>
</clipPath>
</defs>
</svg>
