<svg
  viewBox="0 0 204 274"
  fill="none"
  xmlns="http://www.w3.org/2000/svg"
>
  <path
    d="M154.712 149.766C193.946 133.328 212.426 88.1975 195.988 48.9633C179.551 9.72905 134.42 -8.75124 95.1855 7.68641C81.8964 13.254 70.9884 22.1135 63.0117 32.9207C55.812 30.1143 47.5571 29.9902 39.8672 33.212L20.9612 41.0386C5.23146 47.6288 -2.17763 65.7226 4.41252 81.4523L76.3151 253.073C82.9053 268.803 100.999 276.212 116.729 269.622L135.635 261.795C151.365 255.205 158.774 237.111 152.184 221.381L124.694 155.768C134.708 155.806 144.894 153.879 154.712 149.766Z"
    fill="#CF9FFF"
  />
  <path
    d="M18.316 77.6726C14.2415 67.9474 18.8223 56.7606 28.5475 52.6861L42.862 46.6889C52.5872 42.6144 63.7741 47.1952 67.8486 56.9204L139.101 226.991C143.176 236.716 138.595 247.903 128.87 251.977L114.555 257.974C104.83 262.049 93.6434 257.468 89.5689 247.743L18.316 77.6726Z"
    fill="#F7ED00"
  />
  <path
    fill-rule="evenodd"
    clip-rule="evenodd"
    d="M148.498 139.191C181.3 125.448 196.75 87.7169 183.007 54.9153C169.265 22.1137 131.533 6.66333 98.7316 20.4059C65.93 34.1486 50.4797 71.8801 64.2223 104.682C77.9649 137.483 115.696 152.934 148.498 139.191ZM129.689 93.9794C137.485 90.7133 141.156 81.746 137.89 73.9504C134.624 66.1547 125.657 62.4828 117.861 65.7489C110.066 69.0149 106.394 77.9823 109.66 85.7779C112.926 93.5735 121.893 97.2455 129.689 93.9794Z"
    fill="#FF4245"
  />
  <path
    d="M102.752 140.759L67.6101 56.8806C66.9356 55.2707 66.0662 53.8017 65.0407 52.4896C57.6243 68.3694 56.6795 87.2011 63.9855 104.639C71.417 122.377 85.8634 135.041 102.752 140.759Z"
    fill="#00EEAA"
  />
  <path
    d="M124.645 3.36747C125.575 3.36408 126.326 2.6075 126.322 1.6776C126.319 0.747705 125.562 -0.00337839 124.633 1.14293e-05C122.352 0.00832534 120.063 0.116429 117.772 0.326835C116.846 0.411874 116.164 1.23149 116.249 2.1575C116.334 3.08351 117.154 3.76524 118.08 3.68021C120.272 3.47887 122.462 3.37543 124.645 3.36747Z"
    fill="#4C0394"
  />
  <path
    d="M131.495 0.276251C130.569 0.198177 129.754 0.88606 129.676 1.81268C129.598 2.7393 130.286 3.55377 131.212 3.63184C133.402 3.81629 135.577 4.0963 137.732 4.46937C138.648 4.628 139.519 4.01381 139.678 3.09753C139.837 2.18126 139.222 1.30988 138.306 1.15125C136.055 0.761513 133.783 0.468973 131.495 0.276251Z"
    fill="#4C0394"
  />
  <path
    d="M111.57 4.56801C112.485 4.402 113.092 3.5257 112.926 2.61074C112.76 1.69577 111.884 1.08862 110.969 1.25462C108.731 1.66062 106.497 2.1667 104.273 2.77518C103.376 3.02055 102.848 3.94659 103.093 4.84354C103.338 5.74048 104.264 6.26868 105.161 6.0233C107.29 5.44086 109.428 4.95652 111.57 4.56801Z"
    fill="#4C0394"
  />
  <path
    d="M145.014 2.61593C144.115 2.37825 143.194 2.91437 142.956 3.81339C142.719 4.7124 143.255 5.63388 144.154 5.87156C146.275 6.43227 148.369 7.08463 150.43 7.8261C151.305 8.14084 152.27 7.68664 152.584 6.81162C152.899 5.9366 152.445 4.97211 151.57 4.65737C149.417 3.88296 147.23 3.2016 145.014 2.61593Z"
    fill="#4C0394"
  />
  <path
    d="M98.9001 8.03252C99.7724 7.71034 100.218 6.74201 99.8962 5.8697C99.574 4.9974 98.6057 4.55144 97.7334 4.87363C96.6638 5.26866 95.598 5.68841 94.5364 6.13316C93.4478 6.58928 92.3746 7.06707 91.3173 7.56584C90.4763 7.96258 90.1161 8.96598 90.5128 9.80701C90.9096 10.648 91.913 11.0082 92.754 10.6115C93.7666 10.1338 94.7946 9.67607 95.8377 9.23906C96.8548 8.81295 97.8758 8.41086 98.9001 8.03252Z"
    fill="#4C0394"
  />
  <path
    d="M157.924 7.25927C157.08 6.86991 156.079 7.23885 155.69 8.08331C155.301 8.92778 155.67 9.92799 156.514 10.3173C158.504 11.2346 160.454 12.2384 162.359 13.3262C163.166 13.7874 164.195 13.5065 164.656 12.699C165.117 11.8915 164.836 10.863 164.029 10.4019C162.039 9.26572 160.002 8.21728 157.924 7.25927Z"
    fill="#4C0394"
  />
  <path
    d="M86.7868 13.7576C87.5892 13.2877 87.8587 12.2562 87.3888 11.4538C86.9188 10.6514 85.8873 10.3819 85.0849 10.8519C83.0425 12.0481 81.07 13.327 79.1701 14.6826C78.4131 15.2227 78.2373 16.2742 78.7774 17.0312C79.3175 17.7881 80.369 17.964 81.126 17.4239C82.9441 16.1267 84.8318 14.9026 86.7868 13.7576Z"
    fill="#4C0394"
  />
  <path
    d="M169.838 14.0628C169.073 13.5332 168.024 13.7236 167.495 14.488C166.965 15.2523 167.156 16.3013 167.92 16.8309C169.718 18.0764 171.464 19.4023 173.154 20.8062C173.87 21.4005 174.931 21.3024 175.525 20.5871C176.12 19.8719 176.021 18.8103 175.306 18.2161C173.541 16.7492 171.716 15.3639 169.838 14.0628Z"
    fill="#4C0394"
  />
  <path
    d="M75.8181 21.5845C76.5234 20.9784 76.6037 19.9154 75.9976 19.2101C75.3915 18.5049 74.3284 18.4246 73.6232 19.0307C71.8328 20.5694 70.1212 22.1816 68.491 23.8607C67.8433 24.5279 67.859 25.5938 68.5262 26.2416C69.1934 26.8893 70.2593 26.8736 70.9071 26.2064C72.4671 24.5997 74.105 23.0569 75.8181 21.5845Z"
    fill="#4C0394"
  />
  <path
    d="M180.392 22.8323C179.731 22.1777 178.665 22.1825 178.011 22.8429C177.356 23.5034 177.361 24.5695 178.021 25.2241C179.571 26.7605 181.06 28.3704 182.482 30.0516C183.082 30.7616 184.144 30.8505 184.854 30.2501C185.564 29.6497 185.653 28.5873 185.053 27.8772C183.567 26.1203 182.012 24.4379 180.392 22.8323Z"
    fill="#4C0394"
  />
  <path
    d="M66.4314 31.2519C67.0166 30.5292 66.9052 29.469 66.1825 28.8837C65.4598 28.2985 64.3996 28.41 63.8144 29.1326C63.3401 29.7183 62.8747 30.3103 62.4182 30.9084C61.8382 30.7082 61.2524 30.5242 60.6616 30.3567C59.7669 30.1032 58.8361 30.6229 58.5825 31.5175C58.329 32.4122 58.8487 33.343 59.7434 33.5966C60.6436 33.8517 61.5308 34.1497 62.4017 34.4892L63.6026 34.9573L64.3679 33.9203C65.0349 33.0166 65.7229 32.1269 66.4314 31.2519Z"
    fill="#4C0394"
  />
  <path
    d="M54.5172 29.2364C52.455 29.0622 50.3635 29.0841 48.2698 29.3133C47.3454 29.4145 46.6781 30.2459 46.7793 31.1702C46.8805 32.0946 47.7119 32.762 48.6363 32.6608C50.5116 32.4555 52.3855 32.4358 54.2337 32.592C55.1603 32.6703 55.975 31.9826 56.0532 31.056C56.1315 30.1293 55.4438 29.3147 54.5172 29.2364Z"
    fill="#4C0394"
  />
  <path
    d="M43.1554 33.8041C44.0432 33.5276 44.5389 32.5838 44.2624 31.6959C43.986 30.8081 43.0421 30.3124 42.1542 30.5889C41.1697 30.8955 40.1911 31.2512 39.2216 31.6573L39.2181 31.6588L36.8615 32.6343C36.0023 32.99 35.5941 33.9749 35.9498 34.8341C36.3055 35.6933 37.2903 36.1014 38.1495 35.7458L40.5128 34.7674L40.5194 34.7647C41.3917 34.3992 42.2712 34.0794 43.1554 33.8041Z"
    fill="#4C0394"
  />
  <path
    d="M189.252 33.31C188.716 32.5499 187.665 32.3681 186.905 32.9039C186.145 33.4397 185.963 34.4901 186.499 35.2502C187.753 37.029 188.937 38.8737 190.046 40.7821C190.514 41.5861 191.544 41.8591 192.348 41.3918C193.152 40.9246 193.425 39.894 192.958 39.09C191.799 37.0963 190.562 35.1689 189.252 33.31Z"
    fill="#4C0394"
  />
  <path
    d="M33.423 37.7024C34.2822 37.3467 34.6904 36.3619 34.3347 35.5027C33.979 34.6435 32.9942 34.2353 32.135 34.591L27.4085 36.5477C26.5493 36.9033 26.1411 37.8882 26.4968 38.7474C26.8525 39.6066 27.8374 40.0147 28.6965 39.6591L33.423 37.7024Z"
    fill="#4C0394"
  />
  <path
    d="M23.9701 41.6157C24.8292 41.26 25.2374 40.2752 24.8817 39.416C24.5261 38.5568 23.5412 38.1486 22.682 38.5043L20.3188 39.4826L20.3122 39.4854C19.3196 39.9012 18.3579 40.3608 17.4287 40.8609C16.6099 41.3017 16.3034 42.3227 16.7441 43.1416C17.1848 43.9604 18.2059 44.2669 19.0247 43.8262C19.857 43.3782 20.719 42.9662 21.6096 42.5929L21.6134 42.5913L23.9701 41.6157Z"
    fill="#4C0394"
  />
  <path
    d="M14.2762 47.0203C14.9928 46.4277 15.0934 45.3664 14.5008 44.6497C13.9082 43.9331 12.8469 43.8325 12.1302 44.4251C10.4711 45.797 8.9686 47.3186 7.63455 48.9605C7.04816 49.6822 7.15786 50.7426 7.87957 51.329C8.60128 51.9154 9.66171 51.8057 10.2481 51.084C11.4438 49.6124 12.7901 48.2492 14.2762 47.0203Z"
    fill="#4C0394"
  />
  <path
    d="M196.147 45.1723C195.752 44.3309 194.749 43.9696 193.907 44.3654C193.066 44.7612 192.704 45.7642 193.1 46.6057C193.565 47.5938 194.011 48.5965 194.437 49.6136C194.863 50.6307 195.265 51.6517 195.643 52.676C195.966 53.5483 196.934 53.9943 197.806 53.6721C198.679 53.3499 199.125 52.3816 198.802 51.5093C198.407 50.4397 197.988 49.3739 197.543 48.3123C197.098 47.2508 196.633 46.204 196.147 45.1723Z"
    fill="#4C0394"
  />
  <path
    d="M7.09101 55.8593C7.52559 55.0372 7.21142 54.0185 6.38931 53.5839C5.56719 53.1493 4.54845 53.4635 4.11388 54.2856C3.11745 56.1706 2.30709 58.1496 1.69526 60.1921C1.42842 61.0829 1.93425 62.0214 2.82504 62.2882C3.71584 62.555 4.65429 62.0492 4.92112 61.1584C5.47002 59.326 6.19707 57.5504 7.09101 55.8593Z"
    fill="#4C0394"
  />
  <path
    d="M200.901 58.0487C200.655 57.1517 199.729 56.6235 198.832 56.8689C197.936 57.1143 197.407 58.0403 197.653 58.9373C198.235 61.0663 198.719 63.2043 199.108 65.3456C199.274 66.2606 200.15 66.8678 201.065 66.7018C201.98 66.5358 202.587 65.6595 202.421 64.7445C202.015 62.5067 201.509 60.2729 200.901 58.0487Z"
    fill="#4C0394"
  />
  <path
    d="M3.82229 66.7766C3.91049 65.8508 3.23155 65.0289 2.30584 64.9407C1.38013 64.8525 0.558189 65.5314 0.469991 66.4572C0.269339 68.5632 0.27319 70.7016 0.493608 72.8431C0.588816 73.7681 1.41587 74.4408 2.34089 74.3456C3.26591 74.2504 3.9386 73.4233 3.84339 72.4983C3.64596 70.5801 3.64245 68.6642 3.82229 66.7766Z"
    fill="#4C0394"
  />
  <path
    d="M203.349 71.5476C203.264 70.6216 202.445 69.9398 201.519 70.0249C200.592 70.1099 199.911 70.9295 199.996 71.8556C200.197 74.0479 200.301 76.2382 200.309 78.4207C200.312 79.3506 201.069 80.1017 201.998 80.0983C202.928 80.0949 203.679 79.3383 203.676 78.4084C203.668 76.1277 203.56 73.8387 203.349 71.5476Z"
    fill="#4C0394"
  />
  <path
    d="M4.98794 78.1055C4.71338 77.2171 3.77057 76.7194 2.88212 76.994C1.99368 77.2686 1.49603 78.2114 1.7706 79.0998C2.08218 80.108 2.44532 81.11 2.86118 82.1027L4.14515 85.1673C4.50449 86.025 5.49106 86.429 6.34873 86.0696C7.20641 85.7103 7.61039 84.7237 7.25106 83.8661L5.96709 80.8014C5.59338 79.9094 5.26742 79.0098 4.98794 78.1055Z"
    fill="#4C0394"
  />
  <path
    d="M203.4 85.2711C203.478 84.3445 202.79 83.53 201.863 83.4519C200.937 83.3739 200.122 84.0617 200.044 84.9884C199.86 87.1775 199.58 89.3527 199.207 91.5076C199.048 92.4239 199.662 93.2953 200.578 93.4539C201.495 93.6125 202.366 92.9984 202.525 92.0821C202.914 89.8309 203.207 87.5584 203.4 85.2711Z"
    fill="#4C0394"
  />
  <path
    d="M9.81901 89.9954C9.45968 89.1377 8.4731 88.7337 7.61543 89.093C6.75775 89.4524 6.35377 90.439 6.7131 91.2966L9.28105 97.4259C9.64038 98.2836 10.627 98.6876 11.4846 98.3283C12.3423 97.9689 12.7463 96.9824 12.387 96.1247L9.81901 89.9954Z"
    fill="#4C0394"
  />
  <path
    d="M201.06 98.7903C201.298 97.8913 200.762 96.9698 199.863 96.7321C198.964 96.4944 198.042 97.0306 197.804 97.9296C197.244 100.05 196.591 102.145 195.85 104.206C195.535 105.081 195.989 106.046 196.864 106.36C197.739 106.675 198.704 106.221 199.019 105.346C199.793 103.193 200.474 101.006 201.06 98.7903Z"
    fill="#4C0394"
  />
  <path
    d="M14.9549 102.254C14.5956 101.396 13.609 100.992 12.7513 101.352C11.8937 101.711 11.4897 102.698 11.849 103.555L14.4169 109.685C14.7763 110.542 15.7629 110.946 16.6205 110.587C17.4782 110.228 17.8822 109.241 17.5229 108.383L14.9549 102.254Z"
    fill="#4C0394"
  />
  <path
    d="M196.417 111.7C196.806 110.856 196.437 109.855 195.593 109.466C194.748 109.077 193.748 109.446 193.359 110.29C192.441 112.279 191.438 114.23 190.35 116.135C189.889 116.942 190.169 117.971 190.977 118.432C191.785 118.893 192.813 118.612 193.274 117.805C194.41 115.815 195.459 113.778 196.417 111.7Z"
    fill="#4C0394"
  />
  <path
    d="M20.0908 114.513C19.7315 113.655 18.7449 113.251 17.8872 113.61C17.0296 113.97 16.6256 114.956 16.9849 115.814L19.5528 121.943C19.9122 122.801 20.8988 123.205 21.7564 122.846C22.6141 122.486 23.0181 121.5 22.6588 120.642L20.0908 114.513Z"
    fill="#4C0394"
  />
  <path
    d="M189.613 123.614C190.143 122.849 189.952 121.8 189.188 121.271C188.424 120.741 187.375 120.931 186.845 121.696C185.6 123.494 184.274 125.24 182.87 126.93C182.276 127.645 182.374 128.707 183.089 129.301C183.804 129.896 184.866 129.797 185.46 129.082C186.927 127.317 188.312 125.492 189.613 123.614Z"
    fill="#4C0394"
  />
  <path
    d="M25.2267 126.771C24.8674 125.914 23.8808 125.51 23.0231 125.869C22.1654 126.228 21.7615 127.215 22.1208 128.073L24.6887 134.202C25.0481 135.06 26.0347 135.463 26.8923 135.104C27.75 134.745 28.154 133.758 27.7947 132.901L25.2267 126.771Z"
    fill="#4C0394"
  />
  <path
    d="M180.844 134.168C181.498 133.507 181.494 132.441 180.833 131.786C180.173 131.132 179.107 131.137 178.452 131.797C176.916 133.347 175.306 134.836 173.624 136.257C172.914 136.858 172.826 137.92 173.426 138.63C174.026 139.34 175.089 139.429 175.799 138.829C177.556 137.343 179.238 135.788 180.844 134.168Z"
    fill="#4C0394"
  />
  <path
    d="M30.3626 139.03C30.0033 138.172 29.0167 137.768 28.159 138.128C27.3013 138.487 26.8974 139.473 27.2567 140.331L29.8246 146.46C30.184 147.318 31.1706 147.722 32.0282 147.363C32.8859 147.003 33.2899 146.017 32.9306 145.159L30.3626 139.03Z"
    fill="#4C0394"
  />
  <path
    d="M170.366 143.027C171.126 142.492 171.308 141.441 170.772 140.681C170.236 139.921 169.186 139.739 168.426 140.275C166.647 141.529 164.802 142.713 162.894 143.822C162.09 144.29 161.817 145.32 162.284 146.124C162.751 146.928 163.782 147.201 164.586 146.734C166.58 145.575 168.507 144.338 170.366 143.027Z"
    fill="#4C0394"
  />
  <path
    d="M158.504 149.923C159.345 149.528 159.706 148.525 159.311 147.683C158.915 146.842 157.912 146.48 157.07 146.876C156.082 147.341 155.079 147.787 154.062 148.213C152.897 148.701 151.726 149.158 150.551 149.584C149.677 149.9 149.225 150.866 149.542 151.74C149.858 152.614 150.824 153.066 151.698 152.75C152.925 152.305 154.147 151.828 155.364 151.319C156.425 150.874 157.472 150.409 158.504 149.923Z"
    fill="#4C0394"
  />
  <path
    d="M35.4985 151.289C35.1392 150.431 34.1526 150.027 33.2949 150.386C32.4372 150.746 32.0333 151.732 32.3926 152.59L34.9605 158.719C35.3199 159.577 36.3065 159.981 37.1641 159.621C38.0218 159.262 38.4258 158.276 38.0664 157.418L35.4985 151.289Z"
    fill="#4C0394"
  />
  <path
    d="M144.176 155.059C145.077 154.831 145.623 153.915 145.395 153.014C145.167 152.112 144.251 151.566 143.349 151.795C140.895 152.416 138.431 152.908 135.964 153.274C135.044 153.411 134.409 154.267 134.546 155.187C134.683 156.107 135.539 156.742 136.459 156.605C139.036 156.222 141.612 155.708 144.176 155.059Z"
    fill="#4C0394"
  />
  <path
    d="M128.625 157.368C129.554 157.324 130.272 156.536 130.228 155.607C130.185 154.678 129.397 153.96 128.468 154.004C127.211 154.062 125.955 154.089 124.702 154.084L122.161 154.075L124.517 159.699C124.877 160.557 125.863 160.961 126.721 160.602C127.578 160.242 127.982 159.256 127.623 158.398L127.214 157.421C127.684 157.407 128.154 157.389 128.625 157.368Z"
    fill="#4C0394"
  />
  <path
    d="M40.6344 163.547C40.2751 162.689 39.2885 162.285 38.4308 162.645C37.5731 163.004 37.1692 163.991 37.5285 164.848L40.0964 170.978C40.4558 171.835 41.4423 172.239 42.3 171.88C43.1577 171.521 43.5617 170.534 43.2023 169.676L40.6344 163.547Z"
    fill="#4C0394"
  />
  <path
    d="M130.372 164.959C130.013 164.102 129.026 163.698 128.168 164.057C127.311 164.416 126.907 165.403 127.266 166.261L130.015 172.822C130.374 173.68 131.361 174.084 132.219 173.724C133.076 173.365 133.48 172.378 133.121 171.521L130.372 164.959Z"
    fill="#4C0394"
  />
  <path
    d="M45.7703 175.806C45.411 174.948 44.4244 174.544 43.5667 174.903C42.709 175.263 42.3051 176.249 42.6644 177.107L45.2323 183.236C45.5917 184.094 46.5782 184.498 47.4359 184.139C48.2936 183.779 48.6976 182.793 48.3382 181.935L45.7703 175.806Z"
    fill="#4C0394"
  />
  <path
    d="M135.87 178.082C135.511 177.224 134.524 176.82 133.666 177.18C132.809 177.539 132.405 178.526 132.764 179.383L135.513 185.945C135.872 186.802 136.859 187.206 137.717 186.847C138.574 186.488 138.978 185.501 138.619 184.643L135.87 178.082Z"
    fill="#4C0394"
  />
  <path
    d="M50.9062 188.064C50.5469 187.207 49.5603 186.803 48.7026 187.162C47.8449 187.521 47.441 188.508 47.8003 189.366L50.3682 195.495C50.7276 196.353 51.7141 196.757 52.5718 196.397C53.4295 196.038 53.8335 195.051 53.4741 194.194L50.9062 188.064Z"
    fill="#4C0394"
  />
  <path
    d="M141.368 191.205C141.008 190.347 140.022 189.943 139.164 190.302C138.307 190.662 137.903 191.648 138.262 192.506L141.011 199.067C141.37 199.925 142.357 200.329 143.214 199.97C144.072 199.61 144.476 198.624 144.117 197.766L141.368 191.205Z"
    fill="#4C0394"
  />
  <path
    d="M56.0421 200.323C55.6828 199.465 54.6962 199.061 53.8385 199.421C52.9808 199.78 52.5769 200.767 52.9362 201.624L55.5041 207.754C55.8635 208.611 56.85 209.015 57.7077 208.656C58.5654 208.297 58.9694 207.31 58.61 206.452L56.0421 200.323Z"
    fill="#4C0394"
  />
  <path
    d="M146.866 204.327C146.506 203.47 145.52 203.066 144.662 203.425C143.804 203.784 143.4 204.771 143.76 205.629L146.509 212.19C146.868 213.048 147.855 213.452 148.712 213.092C149.57 212.733 149.974 211.746 149.615 210.889L146.866 204.327Z"
    fill="#4C0394"
  />
  <path
    d="M61.178 212.582C60.8187 211.724 59.8321 211.32 58.9744 211.679C58.1167 212.039 57.7127 213.025 58.0721 213.883L60.64 220.012C60.9994 220.87 61.9859 221.274 62.8436 220.915C63.7013 220.555 64.1053 219.569 63.7459 218.711L61.178 212.582Z"
    fill="#4C0394"
  />
  <path
    d="M152.364 217.45C152.004 216.592 151.018 216.188 150.16 216.548C149.302 216.907 148.898 217.893 149.258 218.751L150.632 222.032C151.006 222.924 151.332 223.823 151.611 224.728C151.886 225.616 152.829 226.114 153.717 225.839C154.605 225.565 155.103 224.622 154.829 223.733C154.517 222.725 154.154 221.723 153.738 220.731L152.364 217.45Z"
    fill="#4C0394"
  />
  <path
    d="M66.3139 224.84C65.9546 223.983 64.968 223.579 64.1103 223.938C63.2526 224.297 62.8486 225.284 63.208 226.142L65.7759 232.271C66.1353 233.129 67.1218 233.533 67.9795 233.173C68.8372 232.814 69.2412 231.827 68.8818 230.97L66.3139 224.84Z"
    fill="#4C0394"
  />
  <path
    d="M156.106 229.99C156.01 229.065 155.183 228.392 154.258 228.488C153.333 228.583 152.661 229.41 152.756 230.335C152.953 232.253 152.957 234.169 152.777 236.057C152.689 236.982 153.368 237.804 154.293 237.893C155.219 237.981 156.041 237.302 156.129 236.376C156.33 234.27 156.326 232.132 156.106 229.99Z"
    fill="#4C0394"
  />
  <path
    d="M71.4498 237.099C71.0905 236.241 70.1039 235.837 69.2462 236.197C68.3885 236.556 67.9846 237.543 68.3439 238.4L70.9118 244.53C71.2712 245.387 72.2577 245.791 73.1154 245.432C73.9731 245.072 74.3771 244.086 74.0177 243.228L71.4498 237.099Z"
    fill="#4C0394"
  />
  <path
    d="M154.904 242.641C155.171 241.75 154.665 240.812 153.774 240.545C152.883 240.278 151.945 240.784 151.678 241.675C151.129 243.507 150.402 245.283 149.508 246.974C149.074 247.796 149.388 248.815 150.21 249.249C151.032 249.684 152.051 249.37 152.485 248.548C153.482 246.663 154.292 244.684 154.904 242.641Z"
    fill="#4C0394"
  />
  <path
    d="M76.5857 249.358C76.2263 248.5 75.2398 248.096 74.3821 248.455C73.5244 248.815 73.1204 249.801 73.4798 250.659L74.7637 253.723C75.1796 254.716 75.6392 255.678 76.1393 256.607C76.58 257.426 77.6011 257.732 78.4199 257.292C79.2387 256.851 79.5453 255.83 79.1046 255.011C78.656 254.177 78.2434 253.314 77.8697 252.422L76.5857 249.358Z"
    fill="#4C0394"
  />
  <path
    d="M148.965 253.873C149.551 253.151 149.441 252.091 148.72 251.504C147.998 250.918 146.937 251.027 146.351 251.749C145.155 253.221 143.809 254.584 142.323 255.813C141.606 256.405 141.506 257.467 142.098 258.183C142.691 258.9 143.752 259.001 144.469 258.408C146.128 257.036 147.631 255.515 148.965 253.873Z"
    fill="#4C0394"
  />
  <path
    d="M139.17 261.972C139.989 261.532 140.296 260.51 139.855 259.692C139.414 258.873 138.393 258.566 137.574 259.007C136.742 259.455 135.881 259.867 134.99 260.24L134.986 260.242L132.629 261.217C131.77 261.573 131.362 262.558 131.717 263.417C132.073 264.276 133.058 264.685 133.917 264.329L136.28 263.351L136.287 263.348C137.28 262.932 138.241 262.472 139.17 261.972Z"
    fill="#4C0394"
  />
  <path
    d="M82.2987 259.759C81.7061 259.043 80.6447 258.942 79.9281 259.535C79.2115 260.127 79.1109 261.189 79.7035 261.905C81.0754 263.564 82.597 265.067 84.2389 266.401C84.9606 266.987 86.021 266.878 86.6074 266.156C87.1938 265.434 87.0841 264.374 86.3624 263.788C84.8907 262.592 83.5275 261.246 82.2987 259.759Z"
    fill="#4C0394"
  />
  <path
    d="M129.191 266.286C130.05 265.93 130.458 264.945 130.102 264.086C129.747 263.227 128.762 262.818 127.903 263.174L123.176 265.131C122.317 265.486 121.909 266.471 122.264 267.331C122.62 268.19 123.605 268.598 124.464 268.242L129.191 266.286Z"
    fill="#4C0394"
  />
  <path
    d="M91.1377 266.945C90.3156 266.51 89.2968 266.824 88.8623 267.646C88.4277 268.468 88.7418 269.487 89.564 269.922C91.449 270.918 93.428 271.729 95.4705 272.34C96.3613 272.607 97.2997 272.101 97.5666 271.211C97.8334 270.32 97.3276 269.381 96.4368 269.114C94.6044 268.566 92.8288 267.839 91.1377 266.945Z"
    fill="#4C0394"
  />
  <path
    d="M119.738 270.199C120.597 269.843 121.005 268.858 120.649 267.999C120.294 267.14 119.309 266.732 118.45 267.087L116.086 268.066L116.08 268.069C115.188 268.442 114.288 268.768 113.384 269.048C112.495 269.322 111.998 270.265 112.272 271.154C112.547 272.042 113.49 272.54 114.378 272.265C115.385 271.954 116.385 271.591 117.376 271.177L117.381 271.174L119.738 270.199Z"
    fill="#4C0394"
  />
  <path
    d="M108.121 273.542C109.046 273.447 109.719 272.62 109.624 271.695C109.529 270.77 108.702 270.097 107.777 270.192C105.858 270.39 103.943 270.393 102.055 270.213C101.129 270.125 100.307 270.804 100.219 271.73C100.131 272.655 100.81 273.477 101.736 273.566C103.842 273.766 105.98 273.762 108.121 273.542Z"
    fill="#4C0394"
  />
  <path
    fill-rule="evenodd"
    clip-rule="evenodd"
    d="M131.656 98.6758C142.046 94.323 146.939 82.372 142.587 71.9825C138.234 61.593 126.283 56.6993 115.893 61.0521C105.504 65.4049 100.61 77.3559 104.963 87.7454C109.316 98.1349 121.267 103.029 131.656 98.6758ZM129.688 93.9792C137.484 90.7132 141.156 81.7459 137.89 73.9502C134.624 66.1546 125.657 62.4826 117.861 65.7487C110.065 69.0148 106.393 77.9821 109.659 85.7777C112.925 93.5734 121.893 97.2453 129.688 93.9792Z"
    fill="#4C0394"
  />
  <path
    fill-rule="evenodd"
    clip-rule="evenodd"
    d="M65.2775 52.5307C60.1087 45.9167 50.9754 43.2896 42.86 46.6897L28.5455 52.6869C18.8203 56.7614 14.2395 67.9483 18.314 77.6735L89.5669 247.744C93.6413 257.469 104.828 262.05 114.553 257.975L128.868 251.978C138.593 247.903 143.174 236.717 139.099 226.991L102.989 140.801C117.331 145.656 133.434 145.502 148.498 139.191C181.299 125.448 196.75 87.7167 183.007 54.9151C169.264 22.1135 131.533 6.66317 98.7312 20.4058C83.3683 26.8423 71.8115 38.5409 65.2775 52.5307ZM178.31 56.8828C190.966 87.0906 176.738 121.838 146.53 134.494C131.113 140.954 114.513 140.41 100.271 134.313L68.3837 58.2034C74.0266 43.7755 85.2816 31.5617 100.699 25.1024C130.907 12.4465 165.654 26.6751 178.31 56.8828ZM68.9184 102.714C73.9737 114.78 82.5536 124.296 92.961 130.569L65.926 66.0399C63.0974 77.8574 63.8632 90.6478 68.9184 102.714ZM62.6654 58.291C62.6959 58.2049 62.7266 58.1188 62.7575 58.0328C59.4927 51.4934 51.6673 48.5208 44.8277 51.3863L30.5132 57.3835C23.3818 60.3713 20.0228 68.5744 23.0106 75.7058L94.2635 245.776C97.2512 252.907 105.454 256.266 112.586 253.279L126.9 247.281C134.032 244.294 137.391 236.09 134.403 228.959L96.3874 138.222C96.2963 138.18 96.2053 138.138 96.1144 138.095C82.1226 131.562 70.4221 120.004 63.985 104.639C57.5505 89.2813 57.5158 72.8424 62.6654 58.291Z"
    fill="#4C0394"
  />
</svg>
